<svg id="Шар_1" data-name="Шар 1" xmlns="http://www.w3.org/2000/svg" viewBox="0 0 1920 1080"><path d="M694,776.21q-36.09,7.31-61.87-5.27-24.27-12.39-29.27-37.08a59.15,59.15,0,0,1,.61-25.09,62.89,62.89,0,0,1,11.81-24.64q8.81-11.42,23.52-20.58t35.6-13.39a100.62,100.62,0,0,1,25.08-1.87,138.77,138.77,0,0,1,24.14,3.27,145.7,145.7,0,0,1,20.54,6.22,106.69,106.69,0,0,1,15.32,7.27,12.94,12.94,0,0,1,5.06,7.88,14.15,14.15,0,0,1-1.12,9.12,13.56,13.56,0,0,1-8.2,5.87,10.42,10.42,0,0,1-9.28-1.83,56.77,56.77,0,0,0-12-5.72,124.73,124.73,0,0,0-35.27-6.94,77,77,0,0,0-19.24,1.42q-29.91,6.06-42.71,22.25T627.07,729q2.59,12.82,16,20.49A63.5,63.5,0,0,0,663.53,754a95.36,95.36,0,0,0,25.55-2q26.59-5.38,51.77-28.78t47.75-57.13a629.89,629.89,0,0,0,42.15-73.8q19.56-40,35.63-79.15t28.18-73.19q12.12-34.1,19.2-55.31,4.25-10.74,6.89-18.45T925,354.67A10.39,10.39,0,0,1,931.3,348a12.72,12.72,0,0,1,10.21.4,10.78,10.78,0,0,1,6.24,6.4,13.8,13.8,0,0,1,.08,10.12,53.29,53.29,0,0,0-4.59,10.32q-2.68,7.47-6.18,17.07-8.29,24.93-21,61.11t-29.7,76.71q-17,40.53-37.57,81.77a583.54,583.54,0,0,1-44.94,75.84q-24.39,34.6-51.93,58.48T694,776.21ZM781,451c-12,2.44-25,3-37,3a123.71,123.71,0,0,1-42-7c-10-4-19.57-8.21-24-12-7-6-11-6-14-15-2-6,16,3,21,5s6.51,1.06,10,2c8.81,2.83,35.1,4.64,50,4,14.39-.62,38-5,53.3-9.87s30.55-10.38,44.43-18.64C862,391,876.59,372,885.45,363.64a12.29,12.29,0,0,1,8.87-3.77,10.21,10.21,0,0,1,8.52,4.21,12.29,12.29,0,0,1,3.77,8.87,12,12,0,0,1-3.63,8.89C897,393,881,408,871.12,414.53a256.66,256.66,0,0,1-29.56,16.37,298.22,298.22,0,0,1-33.08,13.62C796.93,448.52,792.08,448.76,781,451Z"/><path d="M1056,654.91l-221.3,44.83a12.41,12.41,0,0,1-14.85-9.84,13,13,0,0,1,1.74-9.75,11.79,11.79,0,0,1,8-5.58l221.3-44.83a10.37,10.37,0,0,1,9.08,2.12,14.08,14.08,0,0,1,4.91,8.4,13.21,13.21,0,0,1-1.3,9.41A10.67,10.67,0,0,1,1056,654.91ZM928,642.78a55.24,55.24,0,0,1-10.41,1.12,22.73,22.73,0,0,1-10.69-2.78c-2.86-1.06-6.12-3.37-9.81-6.91s-6.1-9-7.26-16.33Q888,603.93,894.58,584a201.54,201.54,0,0,1,19-40.43,328.52,328.52,0,0,1,28.7-40.17,211.92,211.92,0,0,1,33.84-33.06q24.18-17.25,47-21.64a71.59,71.59,0,0,1,43.48,4.79,11.13,11.13,0,0,1,6.58,6.82,13.18,13.18,0,0,1-.26,9.7,14.47,14.47,0,0,1-7.11,6.38,10.93,10.93,0,0,1-9.51-.55,48.47,48.47,0,0,0-17.78-3.56,61.5,61.5,0,0,0-17,2.46,67.74,67.74,0,0,0-15.9,6.93q-7.5,4.49-13.94,9.25a185.75,185.75,0,0,0-31.85,30.68,265.46,265.46,0,0,0-25,35.46,181.89,181.89,0,0,0-15.5,33.3q-5.24,15.65-4,24.29c.39,1.89.77,3,1.15,3.22q7.51,2.94,18.23-5.17a88.75,88.75,0,0,0,19.15-20.2,11.24,11.24,0,0,1,7.83-5.29q4.78-.72,9.46,2.78a11.75,11.75,0,0,1,3.46,17.1,138,138,0,0,1-20.71,22.24Q941.76,640,928,642.78Zm81.48-20q-10.46,2.13-15.87-1.48t-6.86-5.78a20.36,20.36,0,0,1-3.73-8.63q-1.05-5.22.82-14.26a130.43,130.43,0,0,1,7.36-22.25,327.65,327.65,0,0,1,16.36-32.73q5.38-10,10.92-19.27t9.75-16.56q4.2-7.28,7-11.56c1.9-2.86,3-4.47,3.22-4.86a12.3,12.3,0,0,1,17.57-3.56,11.07,11.07,0,0,1,5.53,7.78,12.54,12.54,0,0,1-2,9.79q-10.32,15-19,29.56t-15.42,27.59q-6.76,13-11.06,23.5a150.52,150.52,0,0,0-6,16.79q7.88-2.58,17.56-9.74t19.1-15.49q9.43-8.32,17.87-16.72t14.22-14a25.94,25.94,0,0,1,3.7-3.72,26.84,26.84,0,0,0,3.32-3.14,12,12,0,0,1,9.16-3.59,11.74,11.74,0,0,1,8.61,3.45,11.59,11.59,0,0,1,3.54,8.92,13.62,13.62,0,0,1-3.4,8.85,26.84,26.84,0,0,1-3.32,3.14,25.94,25.94,0,0,0-3.7,3.72q-10.71,10.58-21.9,21.24t-22.23,19.58a190,190,0,0,1-21.63,15.26Q1018.5,621,1009.47,622.81Z"/><path d="M1335.72,598.25,1056,654.91a11.37,11.37,0,0,1-9.27-1.83,12.63,12.63,0,0,1-5.1-8.11,13.51,13.51,0,0,1,1.49-9.7,11.1,11.1,0,0,1,7.78-5.53L1439,562c3.48-.71,11.34-1,15-1,5,0,23.29-1.49,24,2s-22,9-25,10C1449.64,574.12,1339.2,597.54,1335.72,598.25Zm-223.41-2.2a11.66,11.66,0,0,1-8.08-.84,13.35,13.35,0,0,1-6.19-7.39,10,10,0,0,1,1.2-9.25c.06-.11.13-.22.18-.33q7-14.24,17.36-35.75t20.52-43.95q10-22.31,17.81-41.43,6.18-15.27,8.14-24.18a3.79,3.79,0,0,0-2.76-4.51,15,15,0,0,1-4.7-2.1,10.84,10.84,0,0,1-4.68-7.21,11.82,11.82,0,0,1,2-9.55,13,13,0,0,1,8.3-5.39q9.49-1.94,14.78,1a30.17,30.17,0,0,1,8.53,6.68q4.47,5,4.64,14.38t-6.58,28.52q-6.75,19.17-21.49,51.32t-40.47,83.35A11.91,11.91,0,0,1,1112.31,596.05Zm90-12.29a12.23,12.23,0,0,1-8.65-1.22,12.4,12.4,0,0,1-5.63-7,11.34,11.34,0,0,1,1.21-9.89q3.12-6.57,8-16.46t10.45-21.64Q1213.21,515.8,1219,503t10.72-25.16q7.17-18.25,10.85-30.62a172.08,172.08,0,0,0,4.9-19.78q1.2-7.41.78-10.79-.08-.54-.15-1a3.82,3.82,0,0,0-4.23-3.19,20.05,20.05,0,0,0-9.45,4.29q-6.65,5.05-18.49,17.34a9.51,9.51,0,0,1-8.35,3.92,15.82,15.82,0,0,1-8.89-3,3.86,3.86,0,0,1-.77-.74,12.15,12.15,0,0,1-2.68-8.36,15.8,15.8,0,0,1,3.23-8.92,4,4,0,0,1,.26-.32q4.79-5.36,10.2-11.09a67.15,67.15,0,0,1,12-10.1,53.68,53.68,0,0,1,14-6.54,37.21,37.21,0,0,1,16.1-1,18.77,18.77,0,0,1,10.65,3.77,36.19,36.19,0,0,1,8,8.43,5.32,5.32,0,0,1,.35.61q4,8.49,3,22.3-1.12,14.07-7.9,35.46a523.42,523.42,0,0,1-19.64,50.7q-12.78,29.13-32,67.39a4.08,4.08,0,0,1-.54.81,34,34,0,0,1-4,4A10.68,10.68,0,0,1,1202.27,583.76Zm87.38-17.7c-6,1.21-10.46.88-13.31-1a20.35,20.35,0,0,1-5.72-5q-7.44-9.85-.82-27.27T1294.66,481q7.93-14.46,15.23-28.55t13-27.11q6.81-15.21,7.22-21.73a42.93,42.93,0,0,0,0-8.41l-.48.09q-7.5-.45-15.09,6t-18.2,17.53a11.67,11.67,0,0,1-8.36,3.91,12.74,12.74,0,0,1-9.32-3.3,12.46,12.46,0,0,1-4-8.83,10,10,0,0,1,3.4-8.84,215.66,215.66,0,0,1,23-21.73q12.51-10.19,29.91-9.76,9.5.56,14.36,5a35,35,0,0,1,6.38,7.11q9.06,15.48-1.61,42.1t-32.9,68.21q-5.67,11.05-12.1,23.22-2.55,4.81-4.64,9.16a3.84,3.84,0,0,0,5.71,4.79c1.69-1.21,3.41-2.49,5.18-3.85q8.76-6.7,17.35-14.39T1345,496.5q7.63-7.47,12.56-12.43l51.54-52.76a12.94,12.94,0,0,1,9.4-3.64,12,12,0,0,1,11.91,12.42,13.55,13.55,0,0,1-3.4,8.85,24.84,24.84,0,0,1-3.32,3.14,15.37,15.37,0,0,0-3,3.32,3.38,3.38,0,0,1-.45.55c-7.06,7-59.28,60-66.65,67s-14.87,13.64-22.23,19.58a191.67,191.67,0,0,1-21.63,15.26A64.58,64.58,0,0,1,1289.65,566.06Z"/></svg>