<svg xmlns="http://www.w3.org/2000/svg" xmlns:xlink="http://www.w3.org/1999/xlink" width="3807" height="4944" viewBox="0 0 3807 4944">
  <defs>
    <style>
      .cls-1 {
        fill: #7d1caa;
        fill-rule: evenodd;
        filter: url(#filter);
      }
    </style>
    <filter id="filter" x="6" y="1" width="3807" height="4944" filterUnits="userSpaceOnUse">
      <feFlood result="flood" flood-color="#040114"/>
      <feComposite result="composite" operator="in" in2="SourceGraphic"/>
      <feBlend result="blend" in2="SourceGraphic"/>
    </filter>
  </defs>
  <path id="Фигура_1" data-name="Фигура 1" class="cls-1" d="M2674,284c-1.06,21.562-22.32,44.736-32,61-22.61,37.982-69.83,117.508-74,164,15.85-13.11,25.84-34.163,37-52q33-53.994,66-108c11.83-18.515,26.66-48.946,53-52v1q-31.5,83.491-63,167h1v-2q15-20.5,30-41,27.99-36,56-72c28.17-39.4,70.64-110.174,119-126v1c-31.83,52.064-72.76,106.478-90,171,26.29-19.844,48.36-49.347,69-75,26.57-33.025,66.59-58.781,101-84,23.92-17.53,48.72-43.04,86-46-38.06,51.627-95.12,90.73-136,142,0.33,0.667.67,1.333,1,2h1c23.25-2.42,45.96-23.8,63-35q61.5-39.5,123-79c17.14-10.785,35.76-29.885,58-34-0.67,1.333-1.33,2.667-2,4-5.29,10.68-17.86,17.939-27,25q-34.5,26-69,52-22.995,16.5-46,33h3c77.53-34.47,156.14-67.286,245-91,25.86-6.9,80.04-16.334,97,4v1q-45,15.5-90,31l-106,36-124,55c-29.15,12.835-98.12,38.952-117,59,78.9-29.52,205.18-79.975,307-53v1l-116,30-220,62-96,30v1l82-17,180-30c18.1-3.058,86.31-10.122,92,5l-90,18c88.46-1.4,174.3-15.691,266-14-0.33.667-.67,1.333-1,2l-130,17-109,11-125,11c85.96-2.044,161.99,27.127,225,54,21.82,9.307,54.09,15.708,71,31-58.44-13.911-133.55-34.732-199-32-25.66,1.071-58.26-6.547-86-2l-69,4v1c109.66-1.5,293.86,52.073,340,114h-3l-155-43c-31.48-9.4-66.27-22.64-98-17v1c64.92,6.618,151.87,75.418,169,129q-63.99-21-128-42c-10.81-3.492-37.31-11.539-54-5h2l39,21c31.34,19.21,81.09,60.858,95,96h-1c-65.93-30.863-131.81-60.8-201-90-24.19-10.209-56.83-29.8-89-15h2c20.28,14.814,51.85,21.951,81,27v1l-15,2c0.33,0.667.67,1.333,1,2,32.38,10.516,67.9,41.263,75,77-36.67-24.5-81.82-38.839-126-56l-21-9q-16.005,3.5-32,7c0.33,0.667.67,1.333,1,2,38.62,12.2,66.82,45.445,96,68,81.03-1.214,166.88,4.835,234,20,53.88,12.173,111.75,17.443,165,31,124.65,31.733,242.19,69.892,352,117q57.99,27,116,54,24.495,13.005,49,26v1q-22.995-9-46-18-49.5-15.5-99-31c0.33,0.667.67,1.333,1,2q29.49,25.5,59,51,54.495,48.99,109,98-33.99-25.995-68-52c-53.55-38.01-108.05-74-161-111q19.005,18,38,36c38.21,38.21,78.97,75.8,113,118q19.5,21.495,39,43-46.995-42.99-94-86c-60.77-48.69-123.17-98.339-196-135q17.505,16.5,35,33,40.995,44.49,82,89,15.495,17.505,31,35-19.5-18.495-39-37-51.495-42-103-84c36.32,57.22,77.17,112.38,114,171q18.495,29.49,37,59-31.5-41.49-63-83l-108-123c-19.56-24.757-46.03-67.46-79-77q25.995,25,52,50c30.14,37.43,59.82,74.2,88,114q16.005,23.505,32,47c-0.67-.33-1.33-0.67-2-1l-36-39c-26.52-32.84-61.08-66.78-96-91l30,42c24.83,37.5,63.67,96.07,78,140l-42-54q-82.995-98.49-166-197c24.86,46.63,57.96,91.06,86,137l27,45c-0.67-.33-1.33-0.67-2-1-16.94-41.88-68.3-86.61-96-121q-35.49-42-71-84l-19-1c0.33,0.667.67,1.333,1,2,16.15,8.71,31.57,31.822,43,46,17.32,21.48,38.73,40.29,55,63,22.93,32,41.05,69.48,59,106-21.62-9.36-33.11-37.49-47-55q-68.49-72.99-137-146c48.79,66.17,103.57,128.16,152,196q29.49,40.5,59,81-32.49-34.995-65-70c-30.97-38.36-72.01-69.03-103-108q-27.495-33-55-66c40.08,63.76,88.25,122.21,129,187,16.64,26.45,42.33,55.51,49,90-0.67-.33-1.33-0.67-2-1-14.36-44.25-56.19-77.59-83-111q-94.485-110.49-189-221h-28c0.33,0.667.67,1.333,1,2,28.26,13.453,47.33,45.9,71,65,53.99,43.55,94.74,100.75,134,159q16.995,25.005,34,50l-87-93q-27-25.005-54-50c-46.92-37.77-89.71-81.25-139-117q24,24,48,48c39.36,48.73,84.81,91.46,123,142,13.6,18,32.43,35.61,42,57-1.33-1-2.67-2-4-3-9.74-19.92-51.94-55.94-69-73-45.93-45.93-97.72-86.46-150-126q-37.5-29.5-75-59l-3,1c1.67,1.667,3.33,3.333,5,5,19.64,43.627,59.39,73.64,95,102,34.05,27.12,69.65,61.12,97,95,14.18,17.57,37.92,32.09,48,53q-53.49-39.99-107-80-19.005-13.5-38-27,47.49,79.995,95,160c-0.67-.33-1.33-0.67-2-1-11.79-29.92-37.68-57.06-56-82-21.35-29.06-46.89-52.57-69-80q-15.495-18-31-36-63-33.5-126-67v1h2l33,24q25.5,22,51,44,22.005,22.995,44,46,18.495,19.5,37,39c39.61,49.71,79.32,99.29,114,154q-48.99-46.995-98-94c-54.05-43.17-108.18-86.93-162-130q-60.99-55.5-122-111l-36,4c5.62,10.607,21.77,13,32,19,25.44,14.923,49.06,32.372,72,50,52.99,40.73,103.22,92.91,145,145,19.11,23.82,44.4,45.05,60,72l-64-58a1608.581,1608.581,0,0,0-148-105q-25.995-16.995-52-34c0.33,0.67.67,1.33,1,2,26.62,12.33,46.7,42.99,69,61,35.73,28.86,67.65,62.65,100,95l38,38h-1q-118.485-93.495-237-187-48.99-42.5-98-85,2.505,11.5,5,23-8.505-10.5-17-21l-32,5c0.33,0.667.67,1.333,1,2,92.78,23.5,168.48,109.73,235,163q46.995,42,94,84-40.995-28.5-82-57c-63.53-44.7-127.15-86.41-194-128-29.08-18.09-60.78-44.372-94-56l6,14q25.005,10.5,50,21,31.995,20,64,40c59.59,43.88,109.88,98.93,167,145l98,89c-40.49-12.41-77.83-46.1-109-70-63.83-48.96-122.08-105.26-191-149q25.995,25.5,52,51,40.995,54.495,82,109,7.5,4.005,15,8c15.73,9.48,31.82,21.92,41,38v1h-1q-4.5-1.995-9-4c1.33,1.67,2.67,3.33,4,5q-11.505-6.495-23-13,30,41.49,60,83c-1.67-1.33-3.33-2.67-5-4l-83-92c-13.69-9.34-37.45-19.07-56-21v1h2l31,25c34.58,28.44,54.91,79.45,37,134-0.67-.33-1.33-0.67-2-1-1.4-14.27-9.25-35.39-17-45,13.25,44.45,24.09,73.64,12,129h-1v-2q-10.005-27.495-20-55c-14.96-34.79-33.37-67.98-52-99-8.13-13.54-17.53-42.45-32-49,8.75,19.86,14.41,40.39,18,66-32.68-25.06-44.6-68.37-70-101q-22.005-13.005-44-26,25.005,27.495,50,55c40,50.92,139.07,188.41,104,282h-2q-36.99-70.5-74-141c-8.5-16.61-16.74-46.02-32-56,8,50.74,28.25,86.4,47,127q-14.505-15.495-29-31c0.88,39.12,1.97,88.85,1,132q20.505,19.995,41,40c51.49,51.5,94.35,108.34,137,169,109.93,156.33,191.55,337.87,255,541,19.3,61.78,33.41,125.58,50,193q7.995,42.495,16,85h-1c-7.71-54.16-38.17-98.25-49-148h-1q-7.995,113.49-16,227h-1c4.57-47.5.77-100.9-5-141l-3-54q-1.5-43.995-3-88c-0.74,65.23-11.19,127.44-24,187Q3043,2620,3036,2661h-1q4.995-66,10-132c4.53-29.01,6.99-69.53,2-101q-7.005-64.5-14-129h-1c-0.41,78.59-25.22,144.84-33,218h-1c2.66-42.27,8-87.92,8-139q0.495-25.995,1-52-7.005,24-14,48c-15.06,43.71-27.71,86.74-44,128q-15.495,42-31,84,14.505-53.49,29-107,16.5-82.485,33-165c6.35-25.35,22.89-83.99,8-99,1.57,78.11-21.97,147.8-42,212q-8.505,25.995-17,52h-1l12-72q3-28.995,6-58c2.22-13.21,7.44-40.91,2-55-1.79,18.41-10.14,36.49-16,52-11.82,31.29-21.16,60.47-34,90q-13.005,27.495-26,55h-1v-3c22.12-62.54,28.1-129.48,45-198l27-117h-1c-11.08,46.7-31.65,92.41-49,135q-13.5,34.995-27,70,12-39.99,24-80l24-120c6.28-26.47,20.07-62.89,2-80-1.57,54.18-21.5,138.53-39,181q-17.505,37.995-35,76h-1c-0.45-30.37,9.33-45.06,15-69q10.005-60.99,20-122c2.93-14.51,15.4-62.52,11-75q-9.495,41.49-19,83-19.5,74.49-39,149l-30,102h-1q18-115.485,36-231c3.82-16.39,23.21-78.69,19-91q-10.995,36.99-22,74c-16.19,50.94-31.44,100.92-49,149-9.65,26.44-18.09,67.2-38,84q13.995-41.49,28-83,22.005-111.495,44-223c4.25-17.33,26.77-101.9,23-114q-7.995-10.995-16-22c-2.96,66.05-6.62,135.8-22,196-14.32,56.06-35.69,109.04-49,163h-1q12.495-79.485,25-159,3.495-60,7-120c2.2-14.04,6.73-91.05,2-103-3.43,80.39-23.13,172.78-43,245-4.88,17.73-11.31,65.08-22,75,17.37-57.58,12.9-116.27,23-178q0.495-44.49,1-89V1866h-2c-2.65,27.77-16.96,52.09-23,77q-0.495,38.49-1,77c-8.39,50.92-9.21,105.79-19,151q-4.005,21.495-8,43h-1c0.86-57.38-2.32-119.51-3-178-0.67.33-1.33,0.67-2,1-5.57,35.47-26.93,72.22-40,104q-13.995,34.995-28,70,10.995-31.995,22-64c23-73.66,45.11-162.05,29-245-3.68-18.93-4.71-66.35-14-79,8.45,110.79-13.54,212.3-38,299-9.02,31.97-16.81,85.79-34,110q7.005-58.995,14-118,1.5-30.495,3-61V1929q7.5-102.495,15-205-15-14.505-30-29c22.71,96.25,11.68,228.32-9,323q-10.995,48.99-22,98h-1c0.64-83.82,12.9-174.11,0-254l-6-72c-0.28,99.54-19.55,194.41-27,284h-1c-0.3-145.42-1.43-300.39,11-432q-17.505-15.495-35-31c26.89,72.81,29.1,215.33,14,307q-4.005,52.5-8,105c-5.53-111.99-7.18-237.72-23-341-4.16-27.16-2.52-82.33-15-101l-13-10c9.78,38.01,20.71,75.86,28,120,6.83,41.33.58,93.5-3,135q-5.505,81.99-11,164c-3.57,27.45,30.44,52.57,18,85v-2q-10.995-13.005-22-26h-1q-1.5,15.495-3,31c-4.34-66.78-37.72-67.58-71-102-0.67.33-1.33,0.67-2,1q-10.5,36.99-21,74c23.78,26.41,81.05,110.53,83,154-0.67-.33-1.33-0.67-2-1-12.85-27.8-43.28-49.69-62-73-27.51-34.26-59.1-65.06-90-96q-18.495-19.005-37-38,45.99,82.485,92,165c32.43,51.5,69.18,96.31,98,153,12.94,25.46,51.96,103.17,45,139-14.1-3.94-37.68-45.3-47-58-30.8-41.99-65.7-80.87-98-121-12.95-16.09-29.89-38.83-51-46v1c34.38,73.78,90.3,128.56,131,196,6.62,10.97,37.53,60.64,25,77q-54-51.495-108-103-22.995-24-46-48,53.49,95.49,107,191c25.3,42.34,57.31,92.37,59,156-0.67-.33-1.33-0.67-2-1q-18-26.49-36-53c-31.46-44.51-64.63-97.56-108-130,7.44,43.72,35.87,83.08,52,121,18.71,43.96,26.67,94.07,40,144,8.32,31.16,24.82,87.46,9,119-0.33-.67-0.67-1.33-1-2q-10.5-25.995-21-52c-21.18-53.26-37-119.56-68-165h-3c-0.33.67-.67,1.33-1,2-5.95,29.5,4.54,71.58,10,98q12.495,79.485,25,159c4.7,23.97,14.94,58.79,10,85l-1,1c-0.67-.33-1.33-0.67-2-1-20.11-65.88-39.21-142.26-52-215h-2c1.05,120.23.48,241.24-23,333-8.12,31.72-15.57,89.3-49,94v-3q5.505-61.995,11-124,5.505-66,11-132V2823c-8.23-47.53,7.88-126.84-8-162h-1q-2.505,32.49-5,65c-13.67,82.15-16.27,158.39-42,225-10.86,28.12-20.76,60.35-43,77h-1q15-90.495,30-181,15-111.99,30-224l12-111c-0.36-7.58,6.23-23.56,2-28q-10.5,48.99-21,98c-18.63,71.92-31.76,143.61-53,211-12.36,39.22-20.42,85.77-47,111h-5v-1q10.995-49.995,22-100c26.43-97.21,45.12-194.36,68-297,5.4-24.22,27.46-138.72,20-159l-24,78c-20.54,69.12-36.85,139.85-58,206-9.46,29.59-19.12,73.74-44,88q21.495-117.99,43-236c-0.53-39.57,23.45-83.28,19-124q1.995-11.505,4-23c5.61-28.64,11.57-90.18-2-118-0.67.33-1.33,0.67-2,1q-72.99,258.975-146,518h-1q11.505-98.985,23-198,10.995-69,22-138,9-45.495,18-91h-1q-18.495,51-37,102c-20.64,51.13-37.66,102.8-64,148-13.93,23.91-26.42,61.43-52,73,64.61-144.89,107.22-305.91,147-476,10.13-43.33,14.42-83.05,23-130,2.31-12.63,9.87-39.11,5-52q-6.495,20.505-13,41-10.005,41.49-20,83c-21.02,88.93-36.32,178.22-65,258-17.32,48.19-34.24,104.84-69,136q13.005-57.495,26-115,16.995-90.495,34-181,34.5-213.975,69-428-13.005,54.99-26,110c-25.11,90.75-45.38,184.14-78,267-14.04,35.67-25.54,84.62-54,106q30.99-139.98,62-280,13.995-76.485,28-153c7.88-38.95,9.98-78.28,17-119,2.38-13.8,8.7-37.57,4-50v2q-10.995,48-22,96-29.49,126.48-59,253c-10.78,38.9-17.03,81.2-36,112-1.67-.33-3.33-0.67-5-1v-1q22.005-113.49,44-227c14.39-55.31,16.64-115.77,28-178,6.92-37.89,4.73-79.74,11-119v-49q-4.5,20.505-9,41-9.495,52.995-19,106c-27.3,123.42-46.7,249.24-90,356-15.84,39.05-34.77,99.54-64,124q22.995-92.985,46-186,15-76.485,30-153c9.41-42.98,25.75-113.36,25-157q6-48.99,12-98,1.995-42,4-84v-53h-1c-2,45.03-15.67,92.68-26,136-18.87,79.13-32.48,156.96-57,229-11.51,33.81-29.41,104.44-51,125,17.8-84.07,29.94-171.35,48-258q6.495-59.49,13-119c9.51-56.21,13.32-113.93,14-172-0.67.33-1.33,0.67-2,1-8.11,40.84-20.96,85.89-31,128-13.56,56.91-17.18,113.82-28,174q-4.995,44.49-10,89c-0.67-.33-1.33-0.67-2-1-2.89-42.44-12.67-104.25-4-156q1.005-16.995,2-34-7.995,16.005-16,32-12.495,21-25,42-10.995,98.985-22,198-3.495,48-7,96v-2c-15.94-27.46-17.22-75.79-18-115v-63q-21,61.995-42,124c-31.76,100.45-59.68,203.91-91,309-47.47,159.3-75.56,327.43-113,498-12.17,55.42-16.79,109.3-29,166q-7.5,50.49-15,101-6,39.99-12,80-7.995,75.99-16,152-5.505,59.49-11,119-4.5,54.99-9,110-3.495,69-7,138-1.995,105.99-4,212v182q3,84.495,6,169,6.495,99.99,13,200l12,114q9.495,83.985,19,168,5.505,37.5,11,75,18,97.485,36,195l15,69q-33.495-18.495-67-37-73.995-39.99-148-80c-14.53-8.21-77.4-32.37-82-44q-1.995-27.495-4-55-4.995-91.485-10-183v-40q-1.005-40.995-2-82-0.495-60.495-1-121,1.995-107.985,4-216,1.995-63.495,4-127,10.005-149.985,20-300,12.495-124.98,25-250,10.995-88.485,22-177c33.12-176.55,46.34-345.46,87-509,41.95-168.69,78.83-333.95,133-490,19.85-57.19,40.09-98.86,27-177q-1.005-36.495-2-73c-5.57,75.54-18.62,159.35-36,234l-21,99h-1q7.995-211.98,16-424c-0.67.33-1.33,0.67-2,1-47.18,107.92-54.73,260.05-73,390h-1c-14.31-18.7-11.02-61.04-11-93q3.495-78.495,7-157,0.495-28.995,1-58h-1l-21,108q-7.995,75-16,150-5.505,67.995-11,136-2.505,25.005-5,50c-18.06-11.26-12.06-64.16-12-95q5.505-82.995,11-166,4.005-39,8-78h-1q-14.505,71.49-29,143c-20.58,91.99-32.66,181.09-46,277-0.33-.67-0.67-1.33-1-2-14.66-19.28-18.6-72.32-13-106q6-45.495,12-91,11.505-49.995,23-100h-1c-15.23,51.28-41.21,103.21-58,156-28.15,88.49-51.14,184.37-72,280-2-1.67-4-3.33-6-5-14.64-35.99-9.67-84.71,0-126,17.37-74.14,33.39-141.55,57-208-11.2,7.67-16,26.03-23,38-18.41,31.48-43.41,89.31-71,110-0.67-.33-1.33-0.67-2-1v-1c28.17-54.34,49.54-108.94,80-161,11.59-19.8,37.21-59.55,38-86-15.52,4.86-26.76,25.13-36,37l-88,106c0.19-37.73,22.75-65.61,38-90,21.58-34.51,41.31-68.12,66-99,19.67-24.6,52.7-45.07,66-75-38.12,17.88-72.07,40.61-105,64q-24.495,19.005-49,38c5.83-26.15,27.39-44.86,42-63,22.01-27.33,50.69-50.98,78-73q29.49-28.5,59-57l29-26-51,27q-5.505,10.995-11,22-0.495-8.505-1-17l-89,43v-4c12.74-34.58,48.44-56.92,76-77q10.995-7.5,22-15,4.005-15.495,8-31-37.995,25.005-76,50-15,31.995-30,64c-25.77,51.89-57.34,106.58-75,164h-1c-4.67-86.51,26.33-158.77,52-223,23.22-58.09,45.6-113.47,72-169,13.62-28.64,33.14-61.09,40-94q-4.005,2.505-8,5l6-15h-1v2l-15,27c-18.7,31.93-35.48,65.74-51,101-45.51,103.39-92.12,211.58-128,325q-16.5,54.99-33,110l-12,48c-7.159-38.38-.775-78.31,7-113,12.046-53.74,21.744-103,37-153q13-42,26-84h-1q-12,25.005-24,50c-16.387,36.18-33.453,71.69-53,105-31.615,53.87-58.527,109.53-90,162q-18,30.495-36,61,94.991-251.97,190-504c-24.379,12.1-23.2,38.05-40,57q0.5-7.005,1-14c-1,.67-2,1.33-3,2l-54,91c-38.55,65.57-70.4,136.02-103,206q-24,48.99-48,98h-2c-6.164-51.03,18.669-100.75,34-140,30.645-78.45,56.292-155.06,88-234-1,.67-2,1.33-3,2q-30.5,53.49-61,107c-45.994,78.97-76.949,169.57-114,256Q678.5,2332,646,2406c-1.667-.67-3.333-1.33-5-2-6.483-43.55,20.4-96.72,33-129,23.731-60.77,46.469-118.52,72-177l47-103h-1v2q-12,20.505-24,41-34,59.49-68,119c-42.448,72.45-81.571,147.25-121,223q-24.5,48-49,96h-1c-7.807-50.06,11.5-94.69,26-130,33.688-82.01,79.4-148.33,120-221-36.407,27.98-75.338,88.99-104,127-57.408,76.14-110.059,153.95-162,237q-33,53.49-66,107c-0.667-.33-1.333-0.67-2-1-17.585-46.76,15.092-102.5,33-133,33.809-57.59,64.551-112.91,102-166q31.5-43.5,63-87c-20.42,11.54-34.271,31.7-52,46-27.354,22.07-51.888,46.44-80,68-12.187,9.35-23.844,23.02-41,27,5.577-22.12,50.649-56.01,67-72,58.977-57.69,118.083-114.15,173-176-0.333-1.67-.667-3.33-1-5h-1c-23.35,5.9-41.67,21.5-60,33-47.545,29.82-92.183,63.65-143,89,7.8-35.33,45.182-63.15,70-83,34.8-27.83,67.063-59.04,104-85q42.5-23.505,85-47,25.5-16.005,51-32v-1c-79.719,1.2-160.95,41.66-227,61q10.5-11.505,21-23,25-17.505,50-35c32.592-19.58,69.6-32.13,106-48q25.5-11.505,51-23c1.228-13.98,7.688-24.67,13-35v-1l-55,6-57,67c1.848-24.61,11.6-45.25,22-62l-26,3q0.5-1.5,1-3c13.948-16.77,27.747-21.13,46-34q18-22.995,36-46v-1q-25,7.005-50,14-24,22.005-48,44c-52.394,42.34-93.752,105.12-146,145v-2c-11.524-24.99,26.529-68.06,38-83,34.681-45.17,77.708-90.51,122-126q30-25.995,60-52-55.494,29.49-111,59c-11.809,6.01-31.8,20.59-47,18v-1c1.667-1.67,3.333-3.33,5-5q78.991-48.99,158-98c21.735-13.57,52.875-25.95,67-47-0.333-.33-0.667-0.67-1-1-18.6-.02-34,7.53-48,13q-65.493,22.5-131,45,0.5-1.5,1-3c47.018-41.88,107.2-74.03,171-99,27.889-10.92,92.019-18.52,111-35-60.589-.92-132.168-7.27-185,8,0.667-1.33,1.333-2.67,2-4l33-18c22.7-9.94,48.886-16.21,75-22q90.491-17.505,181-35c-27.594-5.24-56.364-4.56-74,3q3-4.005,6-8-21.5,4.995-43,10l6-6c1.667-2.33,3.333-4.67,5-7v-1l-69-6c0.667-.67,1.333-1.33,2-2,19.535-36.78,123.883-11.17,152-52-0.333-.33-0.667-0.67-1-1q-39,1.995-78,4-12.5,13.005-25,26,9-12,18-24c-0.333-.67-0.667-1.33-1-2-15.242,3.7-38.087-.07-50,7q-10,12.495-20,25c9.759-30.44,32.068-53.11,50-80,43.112-64.64,87.26-125.26,141-179,22.4-22.4,50.74-53.97,83-65v-1h-42c-50.421,70.41-113.564,133.8-171,198q-31.5,30.99-63,62-31.5,37.5-63,75-17.5,22.995-35,46c8.575-30.65,29.543-61.06,45-87,36.2-60.73,71.106-117.82,113-172,22.9-29.62,53.3-52.64,77-81q-22,16.005-44,32-34,24-68,48-13.5,19.5-27,39c-19.142,28.38-40.275,55.79-58,86q-24.5,48.99-49,98,36.5-86.49,73-173l-99,94q-15,15.495-30,31,15-22.005,30-44c30.688-43.47,63.251-83.16,96-124,12.874-16.06,30.92-28.29,44-44l38-73v-1c-12.211,4.05-60.043,57.66-70,70-35.108,43.5-81.238,78.73-116,123q-38,51.99-76,104c8.6-28.7,29.933-56,45-80,26.923-42.89,53.118-84.32,82-125l51-67q-28.5,30.495-57,61c-38.62,47.86-83.668,90.07-120,141l-67,94q18-35.49,36-71c22.641-38.56,39.886-78.4,65-114q50-60,100-120v-1q-14.5,1.995-29,4l-45,70q-55.494,86.985-111,174c-24.418,36.7-54.477,75.06-68,122h-1c0.605-36.22,24.674-69.13,37-97,31-70.1,68.992-133.91,102-201-0.667.33-1.333,0.67-2,1q-16,25.5-32,51c-30.123,48.03-62.355,91.55-95,136q-29.5,41.49-59,83,20-36.99,40-74,37-67.5,74-135l58-94c-0.667.33-1.333,0.67-2,1q-56.994,80.985-114,162c-11.684,18.52-20.041,52.07-40,62,19.906-47.28,32.723-95.41,58-136q34.5-50.49,69-101l-20,6c-17.31,44.07-61.71,92.7-87,133q-21,36.99-42,74-6,12.495-12,25,13-30,26-60c20.98-48.07,43.536-94.07,64-141-0.667.33-1.333,0.67-2,1q-12.5,20.505-25,41c-21.37,34.25-43.8,66.84-65,100q-40,66.99-80,134,8.5-24,17-48c20.486-52.6,41.454-100.18,66-147-34.32,26.37-62.849,71.55-88,107q-13.5,19.5-27,39,15-29.49,30-59c24.888-42.33,45.337-85,73-124q19.5-24,39-48c-32.885,12.95-46.665,54.43-65,82-35.86,53.92-71.252,106.01-105,163q-19.5,34.5-39,69h-1q19-42,38-84c24.87-56.31,50.045-113.07,81-164q-46,48.99-92,98-16.5,20.505-33,41,14.5-21.495,29-43,35.5-50.49,71-101,13-16.005,26-32c-63.731,43.99-128.057,99.92-176,160q-40,47.49-80,95,19.5-27.99,39-56l83-115q20.5-24.495,41-49-23,22.5-46,45L62,1442q-28,28.5-56,57c1.333-1.67,2.667-3.33,4-5q71.993-84.495,144-169-50.494,24-101,48l-37,21,42-30c46.356-32.65,95.063-61.17,145-91,174.461-104.21,369.036-179.03,595-233,55.085-13.16,109.954-14.95,169-25l110-3q17.505,1,35,2,12.495-7.5,25-15v-1q-50.49,4-101,8c0.33-.67.67-1.33,1-2,23.8-8.974,49.25-20.351,77-28l110-19q32.49-10,65-20v-1l-192,6-72,21q25.005-10,50-20L850,958h2c35.5-34.1,114.31-25.09,149-60-57.273,6.815-115.233,16.9-168,30-32.3,8.023-64.366,11.632-93,23l5-7c16.942-7.077,33.74-18.663,52-26,64.234-25.811,137.59-37.532,210-54v-1c-77.941,6.837-165.4,8.227-253,8l-87-2q0.5-1,1-2l144-21,131-18,54-20,42-14c-112.762-14.262-236.815,8.512-349,10l5-6c84.6-29.432,197.461-37.091,292-55v-1l-97-1c-12.895,3.327-35.507,18.547-48,16l28-15L689,758c-41.756,7.126-97.089,13.4-142,14v-4c55.039-36.594,177.233-26.572,243-53v-1l-232,1-103,3,2-1c30.712-31.685,155.653-41.96,225-36l70,3c-137.012-30.132-289.952-40.716-452-48v-1c20.379-34.307,142.342-33.986,200-27l49,4,19-14q-0.5-1-1-2l-48-16-33,15,28-17c-9.413-8.319-29.769-8.78-35-21h6l45,11,56-33-4-4c24.424,0.152,43.388-19.061,60-29l145-77-58,25L620,497c-28.062,12.376-48.62,28.07-79,40q1-2,2-4l72-57c40-28.443,105.791-60.678,156-76-4.361-3.861-12.893-6.21-20-7-28.461,23.369-91.45,45.878-128,62-36.138,15.94-70.058,45.857-105,59l2-3L693,392l-98,51-92,43L402,541c11.5-14.685,30.035-25.7,45-37,33.552-25.334,85.011-72.145,126-86v-1c-59.294,5.271-121.77,49.044-174,66l51-32a1455.333,1455.333,0,0,1,130-71l59-22c-30.034-5.952-74.427,25.453-101,39L384,470l-86,49,55-38,107-73,67-40-49,15-60,15-74,27,47-22,112-50,45-17c-87.175,14.875-173.131,25.74-248,52L195,423l173-75,78-29c-62.613,20.221-132.451,24.061-200,40l-78,19,67-23,152-48v-1L279,295l-48-2,83-6,75-1,157,3c292.682,16.6,571.62,90.186,767,210,20.33-6.483,40.4-16.231,64-22,61.81-15.107,146.84,1.606,202,13-18-12.18-47.33-14.768-70-21-40.82-11.224-83.23-17.846-128-27-22.43-4.586-54.35-11.533-76-7,42.2-45.133,169.47-18.1,228-2,24.42,6.717,56.64,20.116,83,14-18.44-11.323-41.43-15.945-64-23-69.31-21.662-148.24-31.146-226-46l-127-16c27.11-8.731,55.17-19.365,86-25,22.4-4.1,52.72-1.686,73,2,28.84,5.242,58.43,6.873,87,14l112,30c-34.37-19.381-90.4-24.992-131-37l-153-38-76-18c0.67-1,1.33-2,2-3,27.24-9.554,54.37-22.041,86-28,85.33-16.077,142.37,41.34,208,53-44.5-33.465-118.8-51.757-178-70q-74.985-22-150-44c14.71-12.136,76.96-8.637,99-4,58.77,12.364,109.5,29.715,159,51l55,27q-18.495-12.5-37-25a838.235,838.235,0,0,0-155-86l-92-35q48,7.5,96,15c60.61,14.139,113.69,31.908,161,58q-31.5-23.5-63-47-64.5-50.494-129-101c-13.1-10.049-54.26-35.558-59-50h1q36,24,72,48c77.99,54.906,155.42,111.791,229,171,35.26,28.372,70.95,66.437,99,102q16.005,20.5,32,41l56,7c37.75,7.759,76.75,18.478,112,25-0.33-1-.67-2-1-3q-11.505-17.5-23-35c0.33-.333.67-0.667,1-1,24.36,15.15,40.39,39.594,63,55,18.68,12.729,47.2,23.789,67,34q-67.995-63.494-136-127c-15.31-12.962-42.13-30.7-51-49,42.14-13.66,81.23,12.252,108,30,65.34,43.329,111.61,97.755,155,163,11.33,17.036,27.07,35.508,34,56h1q1.005-19.5,2-39c-31.67-24.087-83.31-84.28-102-121,35.23,6,91.15,52.5,103,82h2c-0.7-19.276-37.04-42.431-48-56-31.67-39.2-70.32-78.893-110-110q-32.49-23.5-65-47c64.74-9.3,96.01,21.756,131,45-12.89-15.14-32.52-23.367-48-36v-1c77.07-20.71,126.14,55.839,141,114h1c0.56-26.627-5.24-53.73-11-78q-5.505-32.5-11-65c31.56,16.874,52.87,150.715,43,213-9.05,57.123,8.66,123.317-1,184q-5.505,59.495-11,119c-4.57,32.212-13.58,66.783-8,101,6.24,38.267-1.81,134.132,16,155,5.25-36.438,6.54-86.7,3-127-4.21-47.973,2.6-97.792,7-137h1q6,27.5,12,55,7.995,53,16,106c3.32,16.155,4.63,41.963,17,49-21.92-59.2-29.08-179.493-8-245h2c4.14,52.07,12.42,170.4,39,199h1c-11.16-59.8-18.86-224.248,17-258h1c-11.05,79.366,8.17,159.766,23,226h1l9-8c-0.87-93.675,3.28-283.458,52-322h1c-0.02,89.8-5.59,186.633,7,265,0.67-.333,1.33-0.667,2-1,24.84-106.266,29.95-226.724,81-307,13.81-21.716,35.59-51.992,64-58-22.48,38.8-36.06,78.763-47,131q-5.505,43.5-11,87-10.5,39-21,78c0.67-.333,1.33-0.667,2-1q13.005-26.5,26-53a1402.138,1402.138,0,0,1,95-179c17.74-28.166,36.38-61.988,66-78q-13.005,26-26,52c-23.36,52.921-49.9,106.667-68,163h1v-2q18.495-24.5,37-49c51.22-67.709,96.99-145.675,150-212C2608.87,334.642,2649.52,286.5,2674,284ZM671,368l-15,12,32-8ZM166,379h0Zm1392,4,2,1Zm465,8c0.33,1.667.67,3.333,1,5h1C2024.36,392.365,2024.6,392.973,2023,391Zm-359,14q15.495,24,31,48l45,9c29.03,8.562,57.65,18.134,83,31,36.12,18.331,69.64,42.321,101,66,23.69,17.889,40.2,42.249,73,51l-24-15c-22.61-16.024-47.54-37.673-65-59q-22.995-28-46-56ZM895,446L751,517q0.5,1,1,2h1l53-22,117-40ZM785,459L669,518l-40,18,23,5,135-82h-2Zm166,29L835,522c-11.891,3.746-34.81,6.8-40,14l20,11,97-43,41-16h-2Zm975,16,21,25c19.54,25.051,39.68,58.953,65,78q3-34,6-68Q1972.01,521.5,1926,504Zm-893,5-66,17q0.5,1,1,2l25,10,46-28v-1h-6Zm-517,5h2l-3,2Q515.5,515,516,514Zm-3,2c0.069,1.8,1.141,1.23-2,3Zm833,2,70,50c77.36-29.374,182.77-13.953,261,3C1626.07,521.9,1452.19,518.073,1346,518ZM296,519h2l-3,2Zm213,0h2l-3,2Zm236,1-65,33,10,2,58-33Zm-239,1h2l-3,2Zm1229,0q13.005,26,26,52c22.47-6.285,60.49-2.852,80,1ZM944,532l-44,12v1c16.5,0.52,26.1,9.585,37,16l30-9C962.232,545.477,952.23,534.581,944,532Zm143,2-6,5h15c-0.33-.667-0.67-1.333-1-2C1092.33,536,1089.67,535,1087,534Zm-317,8-57,22q0.5,1,1,2l36,13,39-20-10-11Zm-168,3-62,26v1l46,13,41-28Zm290,1-53,16,2,3,25,18,46-16-17-21h-3Zm1950,8c19.39,11.3,92.6,24.3,114,14C2918.34,564.493,2882.48,554.246,2842,554ZM646,568l-45,21q0.5,1,1,2c25.889,4.89,36.516-1.537,55-17v-1Zm157,4-39,14q0.5,1,1,2c11.283,3.378,26.628,12,34,20C834.823,602.643,825.144,587.544,803,572Zm-131,9-40,19,52,15,23-14q-0.5-1-1-2Zm2059,2,2,1Zm-1629,1-33,3,3,4h1C1080.93,590.85,1102.29,585.582,1102,584Zm1633,0c7.15,4.246,30.71,11.807,38,10Q2754,589,2735,584Zm-1287,7,27,23c46.01-8.414,113.92-14.757,161,0C1609.02,589.1,1502.02,590.991,1448,591Zm-442,1-28,3,20,19q11.5-4,23-8Zm-522,3h0Zm722,5-24,10h2q7.995,7,16,14l44-2c-0.33-.667-0.67-1.333-1-2Q1224.505,610,1206,600Zm-628,1-19,11v2l82,10c-9-14.654-36.058-12.319-49-8l10-8Zm1197,2q4.995,12,10,24c28.92,2.707,65.01,14.636,89,26q-3.495-15.5-7-31C1834.29,620.228,1805,608.365,1775,603ZM715,606l-23,10,2,1c9.533,5.724,39.792,14.072,51,9l-6-7Zm223,1-24,12,25,19,18-7v-1C953.378,622.876,945.969,609.657,938,607Zm1682,3c6.77,4.553,15.83,4.125,25,2v-1ZM844,615l-23,6,2,1c5.6,5.623,16.322,12.038,25,14l8-7Zm316,1q-20.505,7.5-41,15l6,7h1l46-10c-0.67-.667-1.33-1.333-2-2A19.332,19.332,0,0,0,1160,616Zm1688,0c-0.67.667-1.33,1.333-2,2,25.57,5.909,82.27,39.351,110,30Zm-839,20c-11.27-.415-20.29-3.95-29-6h-47l-63-7c24.82,34.868,45.12,68.836,104,59,9.63-1.609,24.29.881,31-4Q2007,657,2009,636Zm-2-10c-1.67.333-3.33,0.667-5,1q3.495,3.5,7,7v-2C2011.93,628.792,2009.49,627.37,2007,626Zm750,13-30,7c0.33,0.667.67,1.333,1,2,10.9,1.534,38.76,3.867,53-2ZM863,641l-3,2q0.5,1,1,2l11,5C870.287,645.433,868.4,642.194,863,641Zm693,1-44,4c0.33,0.667.67,1.333,1,2q5.505,4.5,11,9c55.05-21.517,127.66-.344,182,7C1687.98,649.907,1591.87,642.186,1556,642Zm-498,8-15,6c0.67,1,1.33,2,2,3,1.67,1,3.33,2,5,3q8.505-3.5,17-7c-1.33-1.667-2.67-3.333-4-5h-5Zm247,13-45,16q4.995,5.5,10,11h1l48-2v-1l-12-24h-2Zm496,2q3.495,8.5,7,17c19.81,4.578,35.22,13.507,57,13Zm-814,7q-0.5,1-1,2l12,8C995.165,677.867,992.445,673.7,987,672Zm595,10-27,4q4.995,5.5,10,11l18,17c19.21-7.078,42.08-10.3,64-15l23-3-46-14h-42Zm420,5c-10.85,6.78-28.05,11.395-42,14,0.33,0.667.67,1.333,1,2q19.005,13,38,26Zm701,0-13,2c0.33,0.667.67,1.333,1,2,15.51,3.113,25.39,13.967,43,6Zm-1480,3-24,7c0.33,0.667.67,1.333,1,2,1.67,1,3.33,2,5,3l24-6c-0.67-.667-1.33-1.333-2-2C1225.39,690.87,1226.09,691.646,1223,690Zm-132,3c1.56,2.806,1.47,2.338,4,4C1093.35,693.391,1094.73,694.651,1091,693Zm1500,14-31,7v1c14.35,3.394,43.76,14.891,58,0ZM738,715h2l-3,2Q737.5,716,738,715Zm94,0-17,6v1l67-5C874.721,711.919,846.151,714.717,832,715Zm489,1-22,3c0.67,1,1.33,2,2,3l31-2v-1c-0.33-1-.67-2-1-3h-10Zm-587,2h0Zm1196,1,3,8,63,27q1.005-9,2-18A250.058,250.058,0,0,1,1930,719ZM731,720h0Zm520,6-9,2c0.33,0.667.67,1.333,1,2,3.51,0.24,7.59.211,11-2Zm577,15,6,17c28.97,4.348,54.73,19.484,81,28v-1l-9-26Zm860,4-37,9c0.33,0.667.67,1.333,1,2,26.46,9.087,46.63,32.76,68,48l69-7C2753.78,785.633,2725.85,753.645,2688,745Zm-1250,6-21,7q8.505,18.5,17,37h23v-1C1453.12,780.887,1451.28,754.849,1438,751Zm514,15,15,42,4,1c1.65-4.508,3.42-6.247,6-7-0.15,6.062-.31,7.943,1,11l9,3q3-24.5,6-49C1982.35,770.046,1961.64,768.807,1952,766Zm-314,7,9,11,17-1c-0.67-3-1.33-6-2-9Zm933,1-10,3v1h2c11.67,9.262,40.51,28.547,62,19C2606.84,791.153,2592.4,775.92,2571,774Zm-900,1,3,7,40-1Zm-310,1c-2.33.667-4.67,1.333-7,2v1c4.01,7.449,10.87,17.513,22,18v-1c-0.67-.667-1.33-1.333-2-2C1371.81,788.062,1366.48,778.837,1361,776Zm1588,8,1,2Zm-452,9-5,2v1c11.23,2.669,23.46,16.237,37,11v-1Q2513,799.5,2497,793Zm-646,9c21.86,14.938,54.87,24.622,78,39,3.4-10.14,2.19-11.436-1-22Zm-767,3c-0.67.333-1.33,0.667-2,1l4,1,3-1v-1h-5Zm1351,4c-2.67,1-5.33,2-8,3,0.67,0.333,1.33.667,2,1q5.505,4,11,8l18-3C2452.96,813.424,2443.2,809.991,2435,809Zm-916,9c-3.08,1.869-3.14.51-5,4h1C1518.47,820.24,1518.41,819.872,1519,818Zm458,9a126.77,126.77,0,0,0,3,32h1q1.995-16,4-32h-8Zm-438,11-20,3,6,18c15.63,0.944,23.04-6.612,18-21h-4Zm-74,3-10,1c0.33,1,.67,2,1,3q4.995,7,10,14Q1465.505,850,1465,841Zm1043,5q-14.505,3.5-29,7l3,4h1q16.005-5,32-10Zm-1426,4-55,11C1038.23,861.306,1095.04,853.759,1082,850Zm628,9,9,12,14-3v-1Q1721.5,863,1710,859Zm-686,2,2,1Zm915,9c0.6,5.222,4.64,7,10,10h1c0.33-2.666.67-5.334,1-8h-3Zm-734,9-97,6-85,10-42,19v1c91.69-12.448,201.48-24.047,291-34C1255.96,874.5,1224.86,878.823,1205,879Zm1150,2q8.505,6,17,12l9-3C2371.87,887.059,2366.33,881.889,2355,881Zm-453,20c2.17,3.5,4.38,4.873,9,6v-4Zm34,6c-1.36,6.117-1.36,15.222,1,20q4.005,2.5,8,5h1q0.495-11.5,1-23Zm963,20-4,1v1l14,5q-2.505-3.5-5-7h-5Zm-1022,5q3.495,20,7,40l10,3,6-4q2.505-16,5-32h-2Q1890,935.5,1877,932Zm1458,5,27,20q-4.995-9-10-18Zm-1402,9q-0.495,6-1,12c6.5-1.381,12.56-1.726,13-10Zm330,0q-9.495,3-19,6v2C2252.17,955.158,2263.15,945.992,2263,946ZM1022,964h0Zm-2,1h0Zm-3,1h3v1C1016.84,967.014,1018.58,967.132,1017,966Zm-5,2h0Zm977,10v0Zm-619,2-71,4q-51.99,14.5-104,29l111-12q38.49-10,77-20v-1h-13Zm131,0-12,3v1l30-3Zm487,1c-2,17.286-21.9,71.33-13,83C1976.99,1043.61,1993.44,998.3,1988,981Zm-45,6q-3.495,5.5-7,11l6,3c0.67-.33,1.33-0.67,2-1Q1943.505,993.5,1943,987Zm548,0-5,2c0.67,0.667,1.33,1.333,2,2,4.7,12.14,10.51,15.98,23,21h-2c-2,.67-4,1.33-6,2,19.37,37.15,29.56,40.04,67,58C2565.22,1049.42,2511.86,990.061,2491,987Zm-52,17c1.33,2,2.67,4,4,6h4c-0.33-.67-0.67-1.33-1-2C2443.67,1006.67,2441.33,1005.33,2439,1004Zm-509,5v21l2-2q5.505-3.495,11-7v-10Q1936.505,1010,1930,1009Zm455,4q-7.005,2-14,4v1l19-3v-1C2388.33,1013.67,2386.67,1013.33,2385,1013Zm-988,2q-19.995,1-40,2-30.99,9.5-62,19v1c21.22,1.76,36.48,8.23,60,3,26.13-5.81,51.52-20.12,80-24Q1416,1015.5,1397,1015Zm-161,9c-2,.67-4,1.33-6,2,7.16,0.37,9.86.6,15-1v-1h-9Zm1154,14c-1,.33-2,0.67-3,1,15.56,25.03,29.59,36.66,57,50C2433.87,1062.45,2416.42,1048.67,2390,1038Zm1393,7c1.33,0.33,2.67.67,4,1v1C3785.67,1046.33,3784.33,1045.67,3783,1045Zm-1843,8q-5.505,9.495-11,19,2.505,24,5,48h1C1935.56,1103.59,1946.57,1068.83,1940,1053Zm643,11v16q33.495,19.005,67,38Q2616.505,1091,2583,1064Zm-1030,10q-19.005,3.495-38,7,27.495,0.495,55,1Q1561.5,1077.995,1553,1074Zm931,10c12.44,46.52,34.54,38.51,70,59,31.42,18.16,58.99,40.23,105,45-0.33-.67-0.67-1.33-1-2Q2571.015,1135,2484,1084Zm-62,23c3.38,8.54,40.69,35.86,50,40C2464.36,1128.07,2440.42,1114.41,2422,1107Zm-271,2c-0.33.67-.67,1.33-1,2,2.67,0.67,5.33,1.33,8,2C2155.67,1111.67,2153.33,1110.33,2151,1109Zm186,14c7.89,16.18,11.3,24.84,37,24v-2Q2355.505,1134.005,2337,1123Zm-697,10c11.95,8.43,39.8,16.93,55,14l6-6v-1C1682.54,1138.65,1662.09,1134.18,1640,1133Zm1796,3,2,3Zm2,3,1,2Zm1,2,2,3Zm-1735,1-5,5q7.005-.495,14-1C1710.71,1143.09,1708.81,1142.52,1704,1142Zm1737,2,1,2Zm2,3,1,2Zm-813,2c30.3,32.75,49.56,41.07,100,54C2713.98,1187.59,2653.68,1156.51,2630,1149Zm1179,0,4,3Zm-2682,5c-14.09,30.74-47.94,53.61-68,80,18.47-3.26,27.44-19.37,40-29,21.5-16.49,48.34-38.65,75-48v-1Q1150.495,1154.995,1127,1154Zm1374,0c1.99,2.65,1.13,1.96,5,3C2504.33,1156,2502.67,1155,2501,1154Zm-1623,4c-2,.33-4,0.67-6,1-1.333,2.33-2.667,4.67-4,7q7-4.005,14-8h-4Zm334,0c-0.67,1-1.33,2-2,3,10.47,0.86,17.3,1.39,25-1v-1Q1223.495,1158.505,1212,1158Zm73,5q-4.005,5.505-8,11c28.77,3.93,45.09,23.66,69,5v-1q-19.5-4.995-39-10c2.67-.33,5.33-0.67,8-1C1309.21,1162.68,1294.53,1163.18,1285,1163Zm-96,13q-28.5,23.505-57,47,32.49-22.005,65-44v-1C1194.33,1177.33,1191.67,1176.67,1189,1176Zm1056,0c1.58,8.87,6.37,16,14,19-0.16-5.22.91-14.11-1-18Q2251.505,1176.505,2245,1176Zm-155,4c-0.51,3.16,21.97,10.63,30,12Zm322,3c3.79,8.5,18.53,22.42,27,22l6-12c-0.33-.67-0.67-1.33-1-2q-7.005-3.495-14-7c-0.63,5.35-.39,5.39-2,5C2423.9,1184.37,2420.19,1183.78,2412,1183Zm-50,1c1.37,9.45,4.39,22.33,9,29,1.33,0.67,2.67,1.33,4,2h1q1.005-10.005,2-20Q2370.005,1189.495,2362,1184Zm-982,3c-1.67,2-3.33,4-5,6q4.995-2.505,10-5C1383.33,1187.67,1381.67,1187.33,1380,1187Zm1152,6q21.495,18,43,36-1.995-15.495-4-31Q2551.5,1195.495,2532,1193Zm-1127,1q-13.5,8.505-27,17c0.33,0.67.67,1.33,1,2q13.005,2.505,26,5l18-12c-0.67-1-1.33-2-2-3Q1413.005,1198.5,1405,1194Zm602,3q-9.495,3-19,6h2l65,28q12-8.505,24-17h-2Q2042.005,1205.495,2007,1197Zm272,0c2.75,6.83,4.43,16.75,10,21v-13Q2284.005,1200.995,2279,1197Zm173,0q-1.995,8.505-4,17,19.5,14.505,39,29l3-18Q2471,1211.005,2452,1197Zm-1202,7-27,30c0.33,0.67.67,1.33,1,2,2.33,0.33,4.67.67,7,1-0.67-.33-1.33-0.67-2-1v-2c21.09-3.11,38.64-4.77,51-16v-1Q1265,1210.505,1250,1204Zm900,0c2.67,3.86,7.57,5.96,13,7Q2156.505,1207.505,2150,1204Zm503,5q9,11.505,18,23-5.505-10.995-11-22C2657.67,1209.67,2655.33,1209.33,2653,1209Zm-256,2c3.5,11.85,3.16,25.41,12,32-1.63-10.86-1.23-22.02-6-29Zm292,5,3,2Zm-382,5c4.77,13.22,9.13,18.26,20,25h1v-8Q2317.5,1229.495,2307,1221Zm1126,1,2,2C3433.08,1222.61,3434.4,1223.9,3433,1222Zm202,4,1,2Zm-3192,1q-7,2.505-14,5-3,8.505-6,17l4-3c3.043-6.64,12.423-14.96,19-18v-1h-3Zm1683,2q-10.995,10.5-22,21c10.1-1.28,20.7-11.95,27-18v-1C2129.33,1230.33,2127.67,1229.67,2126,1229Zm859,0c1.92,1.39.6,0.1,2,2Zm168,4,1,2Zm2,3,1,2Zm1,2,1,2Zm-1187,2c4.99,15.75,17.18,25.56,34,29q4.5-4.005,9-8C2005.24,1250.34,1982.39,1243.52,1969,1240Zm471,4c-8.36,25.69,25.24,50.27,40,61q1.005-13.995,2-28Zm-1429,3c-46.806,51.13-110.114,85.62-154,140q-19,21-38,42h1c14.691-6.82,46.478-12.01,59-21q11.5-15.495,23-31,33.5-39.99,67-80Q990,1271.995,1011,1247Zm1512,3c5.16,17.23,14.75,37.32,28,47C2544.78,1284.64,2534.64,1257.18,2523,1250Zm-1485,6q-70.493,73.5-141,147,12-2.505,24-5c12.854-7.54,31.727-40.19,42-53,16.647-20.75,39.21-38.17,56-59,7.17-8.89,15.65-22.69,26-28v-2h-7Zm1315,0c1.78,14.08,11.42,19.1,21,25v-12Q2363.5,1262.505,2353,1256Zm-1264,1q-39,35.49-78,71c33.76-3.24,68.49-47.54,85-70C1093.67,1257.67,1091.33,1257.33,1089,1257Zm1109,3c1.25,7.31,2.28,23.41,7,28q12.495,5.505,25,11c0.07-8.02-.25-20.24-3-26Q2212.5,1266.505,2198,1260Zm-1065,6q-26.49,25.5-53,51v1q9-.495,18-1C1103.67,1306.75,1135.58,1267.86,1133,1266Zm1190,11,6,33q-0.495-15-1-30C2326.33,1279,2324.67,1278,2323,1277Zm-1152,15q-10.5,10.995-21,22,12.495-10.5,25-21C1173.67,1292.67,1172.33,1292.33,1171,1292Zm1188,9q2.505,16.995,5,34,4.995,3,10,6h1q-0.495-15.495-1-31Zm-362,6c5.99,20.74,32.2,36.68,51,44v-1l-6-24Q2019.5,1316.505,1997,1307Zm98,3v4c0.67,0.33,1.33.67,2,1,1-.67,2-1.33,3-2-0.33-.67-0.67-1.33-1-2C2097.67,1310.67,2096.33,1310.33,2095,1310Zm-854,1c-0.33.67-.67,1.33-1,2,2.67-.33,5.33-0.67,8-1C1245.67,1311.67,1243.33,1311.33,1241,1311Zm1215,14q4.005,48.99,8,98l15,9h1q-1.005-43.995-2-88Zm-39,14q3,29.49,6,59,7.005,3.495,14,7-7.005-31.5-14-63Zm-54,4q0.495,10.5,1,21,5.505,3,11,6h1q-0.495-10.995-1-22Q2369,1345.5,2363,1343Zm-1373,3q-26,24.495-52,49,20.5-2.505,41-5c2.6-1.18,34.84-39.63,38-44H990Zm1596,5c2.92,13.47,15.71,37.79,9,55-0.33-.67-0.67-1.33-1-2q-13.5-20.505-27-41c11.59,46.31,21.74,90.95,22,149l29,23q-9.495-66-19-132C2594.89,1382.44,2597.26,1363.52,2586,1351Zm-489,3c-0.28,10.01-.33,23.02,3,30l6,3h1q-1.005-15-2-30C2102.33,1356,2099.67,1355,2097,1354Zm-1068,17q-6.495,7.5-13,15c11.22-.12,38.79-1.42,45-8Q1044.995,1374.505,1029,1371Zm1484,6q-5.505,35.49-11,71l36,24c-8.37-28.61-8.66-69.93-23-95h-2Zm-1106,3q-3,3.495-6,7l2,2c1-.67,2-1.33,3-2,1-2.33,2-4.67,3-7h-2Zm748,2c-0.34,8.77-2.52,29.12,2,34,2.33,1.33,4.67,2.67,7,4q-1.995-18-4-36C2158.33,1383.33,2156.67,1382.67,2155,1382ZM14,1394h2c-1,.67-2,1.33-3,2C13.333,1395.33,13.667,1394.67,14,1394Zm2018,22c4.71,7.35,18.72,14.62,28,17-0.33-1.67-.67-3.33-1-5-0.33-2.67-.67-5.33-1-8Q2045,1418.005,2032,1416Zm-319,15c-20.52,60.54-37.43,132.16-45,204h1v-2c23.78-31.31,25.13-67.53,34-116q2.505-17.505,5-35C1706.42,1467.25,1719.39,1446.49,1713,1431Zm386,2c-0.55,8.42-.97,16.79,4,20q4.995,1.995,10,4c0.34-7.1.2-18.02-4-21Zm94,1c0.33,1.33.67,2.67,1,4h1C2194.33,1436.67,2193.67,1435.33,2193,1434Zm86,2c-2.63,40.16,8.29,57.67,32,75-2.52-18.77-6.48-50.42-15-64Q2287.5,1441.5,2279,1436Zm-1316,6c-1,1.33-2,2.67-3,4l15-3v-1H963Zm316,0c-0.67,1.33-1.33,2.67-2,4,2.81-1.56,2.34-1.47,4-4h-2Zm-1098,2c-0.322,2.06.337,1.7-2,4C179.667,1446.67,180.333,1445.33,181,1444Zm188,0,1,2Zm-1,2,1,2Zm-1,3,1,2Zm1789,3q0.495,12.495,1,25,6.495,2.505,13,5C2170.54,1464.29,2168.53,1457.18,2156,1452Zm-625,1q-7.995,12-16,24l21-3q4.5-9.495,9-19Q1538,1454,1531,1453Zm-57,6c-0.67,1.33-1.33,2.67-2,4C1474.04,1460.91,1474.88,1461.63,1474,1459Zm-919,1,1,2Zm1756,0q7.005,18,14,36h1c0.21-6.77.63-23.15-3-27Zm-116,7c-0.47,9.12-1.31,23.29,4,27,2.33,1,4.67,2,7,3v-6C2203.51,1480.41,2204.33,1471.12,2195,1467Zm-1940,3,1,2Zm2094,19q7.5,20.505,15,41,1.5-13.995,3-28Q2358,1495.505,2349,1489Zm-1684,8,1,2Zm-1,2,1,2Zm-1,2,1,2Zm1401,2c-1,.33-2,0.67-3,1v1c5.88,0.14,4.76,1.89,7-2h-4Zm37,1v8q8.505,1.995,17,4c-0.33-3-.67-6-1-9Zm188,1,6,36q10.5,7.005,21,14l-19-3q3.495,17.505,7,35,12.495,8.505,25,17-8.505-44.49-17-89Q2300.5,1510.005,2289,1505Zm83,3q-3.495,15.495-7,31,4.005,13.995,8,28l18,96q4.995,37.995,10,76,3.495-91.485,7-183-6.495,24-13,48h-1q-4.005-43.5-8-87Q2379,1512.5,2372,1508Zm-106,7q1.005,5.505,2,11C2268.26,1521.03,2268.31,1517.3,2266,1515Zm-110,3c-0.03,4.55-.13,5.89,2,8q7.5,1.995,15,4v-1C2171.72,1519.99,2165.05,1518.51,2156,1518Zm-1769,3,1,2Zm-336,2c-0.221,1.47.414,1-1,3Zm1604,1c-13.19,22.55-29.68,122.64-29,153,0.41,18.44-13.52,43.66-7,61v-2c22.27-35.34,32.4-101.4,31-155Q1652.505,1552.5,1655,1524Zm-556,3q-4.995,2.505-10,5v1c6.02-.36,10.93-1.67,14-5C1101.67,1527.67,1100.33,1527.33,1099,1527Zm385,2q-4.995,10.005-10,20,14.505-4.005,29-8,2.505-5.505,5-11Q1496,1529.505,1484,1529Zm714,0c0.33,3.67.67,7.33,1,11l12,3v-1c-0.75-3.16-1.01-7.99-3-10Zm-1522,5,1,2Zm683,7v2C1359.98,1541.25,1359.91,1542.78,1359,1541Zm908,5c-0.17,8.55-.43,20.2,6,23C2271.5,1561.96,2272.71,1549.22,2267,1546Zm-2080,7,1,2Zm804,3c-0.333.67-.667,1.33-1,2C991.792,1556.66,991.518,1558.18,991,1556Zm1131,4-20,3v4q10.005,3.495,20,7v-14Zm34,4v22q8.505,3,17,6c0.36-7.23,1.61-21.19-2-25Zm44,11c-0.43,8.82-1.45,22.67,3,27q6.495,2.505,13,5v-5l-3-24Zm-1146,18q-16.5,2.505-33,5l-22,25c14.25-6.11,50.99-18.69,60-29v-1h-5Zm1215,4v33q5.505,1.995,11,4C2280.21,1621.42,2279.32,1600.07,2269,1597Zm-806,7c-13.59,6.78-22.42,5.97-29,20q16.5-9.495,33-19C1465.67,1604.67,1464.33,1604.33,1463,1604Zm844,4q4.5,22.995,9,46,10.5,6.495,21,13v-1q-3.495-25.995-7-52Zm-1352,1-16,3q-23.5,28.995-47,58c35.131-10.3,51.37-32,67-61h-4Zm1121,8,3,2Zm-1178,3-65,70c27.081-6.41,36.707-32.8,52-51Q891.5,1629.505,898,1620Zm1205,4v10q10.005,4.995,20,10-0.495-7.995-1-16Q2112.505,1626.005,2103,1624Zm-704,4c-14.98,9.1-25.47,23.8-34,39C1374.15,1662.81,1407.7,1639.16,1399,1628Zm756,7q-0.495,12.495-1,25,9.495,4.5,19,9v-30Q2164,1637.005,2155,1635Zm47,11v36q9,3.495,18,7-1.005-19.995-2-40Zm-889,3q-6.495,1.995-13,4-23.505,45.99-47,92,16.5-12.495,33-25C1291.03,1712.42,1314.01,1654.25,1313,1649Zm273,0c-24.21,79.03-33.18,175.71-45,263h1v-2q18-40.995,36-82,1.5-49.995,3-100C1583.61,1711.29,1590.41,1660.77,1586,1649Zm683,15q-0.495,24-1,48,13.995,7.5,28,15-4.995-28.5-10-57Q2277.5,1667,2269,1664Zm54,20q2.505,30.99,5,62,10.005,5.505,20,11l-9-66Q2331.005,1687.505,2323,1684ZM786,1696l-32,24c14.07-6.34,24.95-12.9,34-24h-2Zm1659,9c-1.26,31.27-4.63,58.44-12,85-2.4,8.66-9.16,27.67-5,34,5.12,10.96,14.18,17.85,18,31h-1q-13.005-4.995-26-10-9.495,35.49-19,71c12.23,16.35,29.02,36.88,44,51,0.07-64.28,12.7-129.41,3-190Q2446,1741,2445,1705Zm-1084,10q-14.505,7.5-29,15-10.005,20.505-20,41C1321.71,1766.57,1363.03,1725.61,1361,1715Zm151,12c-7.23,75.1-34.26,158.81-30,244,1.21,24.25-11.48,80.86-3,102v-2c17.55-28.68,10.45-76.19,16-116q4.5-45.495,9-91,1.995-26.49,4-53v2q-1.995,4.995-4,10h-1C1503.55,1800.55,1522.91,1753.59,1512,1727Zm-397,5c-25.33,42.03-38.07,93.27-57,142q-10.5,30.495-21,61h1v-2q9-20.505,18-41c14.9-34.1,29.03-68.66,43-105C1103.78,1774.57,1119.68,1746.71,1115,1732Zm1034,4,21,18q0.495-7.005,1-14Q2160.005,1738.005,2149,1736Zm215,7c-0.27,9.79-1.77,20.94,1,27,1.67,1,3.33,2,5,3h1Q2367.505,1758,2364,1743Zm-163,6c-0.45,9.1-3.14,19.65-1,25q9.495,5.505,19,11-0.495-15.495-1-31Q2209.5,1751.5,2201,1749Zm-1311,4q-3.5,4.995-7,10l16-9h-2C894.667,1753.67,892.333,1753.33,890,1753Zm-34,2q-17,3.495-34,7-11,16.005-22,32h1c30-10.58,45.791-10.34,60-38v-1h-5Zm410,11q-16.995,10.005-34,20-22.005,42.99-44,86c8.48-6.12,54.24-39.18,58-45q4.995-15.495,10-31C1258.14,1790.33,1269.38,1768.8,1266,1766Zm-480,4-34,9q-18,21-36,42l48-15C769.524,1802.05,787.132,1772.12,786,1770Zm1480,5q-1.5,19.005-3,38,22.995,15,46,30-1.5-25.005-3-50Q2286.005,1784,2266,1775Zm-811,22c-4.01,40.71-7,84.88-7,131q0.495,18.495,1,37,4.5-59.49,9-119C1458.2,1833.15,1461.79,1804.11,1455,1797Zm870,5c-0.36,17.9-6.41,41.96,0,53,23.27,10.21,41.31,33.22,61,48,3.34-24.54-3.48-51.89-6-76q-10.005-4.005-20-8-1.005,13.5-2,27-1.995-15.495-4-31Q2339.5,1808.505,2325,1802Zm376,16q1.995,7.005,4,14l3-6v-1Zm-507,28q10.995,13.5,22,27h1v-11Q2205.5,1854.005,2194,1846Zm-1374,6c-20.621,9.77-54.7,2.55-74,14q-11,15.495-22,31,50-22.005,100-44C822.667,1852.67,821.333,1852.33,820,1852Zm476,15c-23.84,12.04-39.81,14.44-46,44,17.23-11.77,37.56-27.37,50-44h-4Zm951,21q-2.505,7.995-5,16,32.49,38.49,65,77v-2l3-48C2286.75,1919.57,2267.12,1902.78,2247,1888Zm67,46q-3,24.495-6,49l51,66h2q7.005-39.495,14-79Q2344.505,1952,2314,1934ZM1279,2076v4h1C1279.67,2078.67,1279.33,2077.33,1279,2076Zm852,6c-28.97,62.18-33.78,139.24-58,209,7.56-9.03,9.13-25.71,13-38q18.495-60.495,37-121C2126.45,2119.59,2135.8,2094.81,2131,2082Zm757,2v0Zm-34,13v0Zm-303,20c0.33,1,.67,2,1,3h-1v-3Zm412,56q1.005,15.495,2,31v-2q3.495-7.5,7-15Q2967.5,2180,2963,2173Zm-347,38c0.33,1,.67,2,1,3h-1v-3Zm-1,3,1,2Zm250,164c0.33,1,.67,2,1,3h-1v-3Zm-1,3c0.33,1,.67,2,1,3h-1v-3Zm-67,42,1,2Zm120,163c0.33,1,.67,2,1,3h-1v-3Zm118,76,1,2Zm50,15v0Z" transform="translate(-6 -1)"/>
</svg>
