<?xml version="1.0" standalone="no"?>
<!DOCTYPE svg PUBLIC "-//W3C//DTD SVG 1.1//EN" "http://www.w3.org/Graphics/SVG/1.1/DTD/svg11.dtd" >
<svg xmlns="http://www.w3.org/2000/svg" xmlns:xlink="http://www.w3.org/1999/xlink" version="1.1">
<metadata>
Created by FontForge 20180930 at Mon Oct  8 19:33:25 2018
 By root
Copyright (c) 2013 by Mans Greba:ck. All rights reserved.
</metadata>
<defs>
<font id="LasEnterPersonalUseOnly" horiz-adv-x="907" >
  <font-face 
    font-family="Las Enter Personal Use Only"
    font-weight="400"
    font-stretch="normal"
    units-per-em="1000"
    panose-1="2 0 0 0 0 0 0 0 0 0"
    ascent="750"
    descent="-250"
    x-height="373"
    cap-height="587.5"
    bbox="-111 -360.625 1682.09 807"
    underline-thickness="50"
    underline-position="-100"
    unicode-range="U+0020-2122"
  />
    <missing-glyph />
    <glyph glyph-name="space" unicode=" " horiz-adv-x="265" 
 />
    <glyph glyph-name="space" unicode="&#xa0;" horiz-adv-x="265" 
 />
    <glyph glyph-name="l" unicode="l" horiz-adv-x="329" 
d="M236 0q-35 0 -55 17q-8 7 -15 19t-7 31q0 35 25.5 84.5t65.5 104.5t89.5 110.5t97.5 102.5q16 16 44 43.5t64 58.5t76.5 62.5t82 57.5t81 42t72.5 16q28 0 39.5 -10t16.5 -21q6 -24 -12.5 -56t-71.5 -84q-33 -33 -81.5 -74.5t-111.5 -91.5q-53 -43 -104.5 -82.5
t-92.5 -69.5t-66.5 -48.5l-25.5 -18.5q-8 -5 -19 -3.5t-17 10.5q-7 8 -5 19t11 17l24 17t63 45.5t88.5 66.5t100.5 79q82 64 132.5 108.5t79.5 74.5t41 46.5t15 23.5h-4q-27 0 -68.5 -19t-92 -54t-108 -83.5t-115.5 -107.5q-57 -57 -105 -112t-83 -104t-54.5 -87.5
t-19.5 -62.5q0 -5 4 -11q1 -1 5.5 -2.5t15.5 -1.5q14 0 39 9.5t53.5 24t57.5 31.5t51 32q8 6 18 3.5t18 -10.5q5 -9 2.5 -19.5t-10.5 -16.5q-10 -7 -38 -24.5t-62.5 -35.5t-69.5 -32t-59 -14zM329 -84h-329q-11 0 -19 7.5t-8 18.5t8 19t19 8h329q11 0 18 -8t7 -19t-7 -18.5
t-18 -7.5z" />
    <glyph glyph-name="y" unicode="y" horiz-adv-x="356" 
d="M141 -181q-9 0 -19.5 1t-19.5 6q-38 12 -55.5 41t-8.5 63q5 21 20 40.5t38.5 33t54.5 19.5t69 0q11 -1 17.5 -9.5t4.5 -19.5t-10.5 -17.5t-18.5 -4.5q-30 4 -52.5 0.5t-38 -12t-24 -19.5t-10.5 -21q-9 -34 30 -45q17 -6 33 -4t33.5 15.5t38 39.5t47.5 66q13 19 34.5 53
t47.5 76q19 31 40 64.5t42 66.5t41.5 64t38.5 57q6 8 16.5 10.5t19.5 -3.5q8 -6 10 -17t-3 -19q-18 -26 -38.5 -56.5t-41.5 -63.5t-42 -66.5t-40 -63.5q-25 -43 -46 -77t-35 -54q-21 -30 -41 -56.5t-41 -46t-43.5 -30.5t-47.5 -11zM200 48q-25 0 -36 14q-39 43 57 149
q9 9 16.5 17.5t13.5 16.5q22 23 43 47t29 38q-11 0 -18 7t-7 18t7 19t18 8q4 0 11.5 -0.5t16 -3t15.5 -8t12 -15.5q11 -24 -12.5 -56t-74.5 -89q-8 -8 -15.5 -16t-14.5 -16q-30 -33 -41 -51.5t-14 -26.5q11 2 36 12.5t63 39.5q8 7 19 5t17 -11q7 -8 5 -18t-11 -18
q-11 -8 -27 -18.5t-34.5 -20.5t-38 -16.5t-35.5 -6.5z" />
    <glyph glyph-name="z" unicode="z" horiz-adv-x="370" 
d="M370 -84h-370q-11 0 -18.5 7.5t-7.5 18.5t7.5 19t18.5 8h370q10 0 18 -8t8 -19t-8 -18.5t-18 -7.5zM132 16q-11 0 -19 8t-7 19t9 17l234 205q8 8 19 7.5t17 -8.5q8 -9 7.5 -19.5t-8.5 -18.5l-235 -204q-6 -6 -17 -6zM310 12h-15q-32 4 -43.5 12.5t-15.5 12.5
q-9 8 -7.5 18.5t8.5 17.5t18 8.5t22 -7.5q5 -4 11.5 -7t21.5 -3q23 0 62 15.5t101 66.5q8 8 19 7t17 -9q8 -9 7.5 -19.5t-9.5 -16.5q-57 -49 -106 -72.5t-91 -23.5zM334 281q-16 0 -29 3.5t-24 8.5q-20 11 -28 28.5t-3 39.5q4 11 12.5 16.5t19.5 2.5q10 -2 15.5 -11.5
t2.5 -18.5q-1 -8 5 -12q9 -5 26.5 -5t37.5 4.5t39.5 13t32.5 22.5q7 8 17.5 8.5t18.5 -7.5q8 -7 8 -17.5t-7 -18.5q-12 -13 -28.5 -23.5t-36 -18t-40 -11.5t-39.5 -4z" />
    <glyph glyph-name="x" unicode="x" horiz-adv-x="462" 
d="M114 1q-7 0 -13 5q-10 5 -12 15.5t3 20.5q14 22 37.5 42.5t53.5 40t65 38t71 37.5q37 19 74.5 39.5t69 41t55.5 42t36 44.5q6 10 16 13t20 -1q9 -5 12 -16t-2 -19q-15 -29 -42 -54t-61 -48t-73.5 -44.5t-79.5 -41.5q-33 -18 -65 -35.5t-60 -35t-49.5 -35.5t-32.5 -36
q-10 -13 -23 -13zM462 -84h-462q-11 0 -18.5 7.5t-7.5 18.5t7.5 19t18.5 8h462q11 0 18.5 -8t7.5 -19t-7.5 -18.5t-18.5 -7.5zM380 0q-4 0 -10.5 0.5t-14 2.5t-15 6.5t-11.5 12.5q-11 17 -5.5 36t16.5 37q5 11 9 21.5t6 20.5q4 11 13 16.5t20 3.5q10 -2 15.5 -11.5
t2.5 -20.5q-3 -14 -8.5 -27.5t-11.5 -25.5l-10 -20h4q16 0 39.5 10t48 23.5t47.5 28.5t38 24q5 4 8.5 6t7.5 5q9 6 19 3.5t17 -10.5q5 -9 3.5 -19.5t-12.5 -16.5q-3 -3 -6 -5t-8 -6q-27 -17 -54.5 -34t-53.5 -30.5t-50 -22t-44 -8.5zM331 221h-5q-11 2 -17 11t-4 19
q5 19 14.5 36t20.5 31q2 4 4 6.5t4 5.5h-8q-11 0 -18.5 7t-9.5 18q0 10 7.5 18.5t18.5 8.5q18 1 36.5 -3t27.5 -20q10 -17 1 -35t-21 -35q-8 -11 -15.5 -23.5t-8.5 -23.5q-3 -10 -10.5 -15.5t-16.5 -5.5z" />
    <glyph glyph-name="w" unicode="w" horiz-adv-x="534" 
d="M382 0q-23 0 -33 10.5t-14 17.5q-3 7 -4 18.5t5 30t20.5 45.5t41.5 65q32 45 73.5 94.5t84.5 92.5q7 8 17.5 8t18.5 -8q7 -7 7 -17.5t-7 -18.5q-39 -42 -78 -87.5t-69 -87.5q-37 -52 -48.5 -77t-12.5 -34q17 1 42 14.5t53.5 35t59.5 48.5t60.5 55t56 54.5t46.5 47.5
q32 31 50 48t27 22t19 3.5t17 -10.5q5 -9 3.5 -20t-12.5 -16q-5 -4 -24.5 -23.5l-41.5 -41.5q-51 -51 -102 -99t-97.5 -86t-87.5 -61t-71 -23zM205 -6q-8 0 -15.5 2.5t-15.5 5.5q-8 6 -14.5 17t-6 29.5t11 46t37.5 66.5q16 25 34 48.5t36 44.5q15 20 32 41.5t26 35.5h-10
q-11 -2 -19 4t-11 17q-1 11 5 19.5t17 10.5q5 1 14.5 2t20 -0.5t20 -6.5t15.5 -15q13 -23 -8 -56.5t-62 -82.5q-17 -22 -34.5 -45t-33.5 -46q-26 -39 -33 -60t-6 -28q8 0 29.5 12t46.5 44q6 8 16.5 10t19.5 -4q8 -8 10 -18.5t-4 -17.5q-27 -36 -59 -56t-59 -20zM534 -84
h-534q-11 0 -18.5 7.5t-7.5 18.5t7.5 19t18.5 8h534q11 0 18.5 -8t7.5 -19t-7.5 -18.5t-18.5 -7.5z" />
    <glyph glyph-name="u" unicode="u" horiz-adv-x="456" 
d="M375 0q-20 0 -27 9t-9 14q-4 8 -4 20t11 34.5t37.5 59t75.5 92.5q24 28 48 54t43 46t31 32.5l12 12.5q8 8 18 8t18 -8q8 -7 8 -17.5t-7 -18.5l-11 -11t-28.5 -29.5t-39.5 -42.5t-44 -51q-29 -32 -49 -57t-33.5 -43t-21.5 -30t-12 -19q18 4 40 14.5t43.5 22.5t40.5 24.5
t32 21.5q4 4 8 6t8 5q8 6 19 3.5t17 -10.5q5 -9 3 -19.5t-10 -16.5q-4 -3 -8 -5t-8 -6q-26 -17 -53.5 -34t-53.5 -30.5t-50.5 -22t-43.5 -8.5zM189 0q-24 0 -36 14q-40 43 57 150l54 58q12 13 26 28t27.5 30t24.5 28t18 23h-6q-11 -2 -19.5 4t-10.5 17t4.5 19.5t17.5 10.5
q4 0 13 1t19 -0.5t19 -6t15 -15.5q7 -14 3.5 -29.5t-18 -36t-38 -47.5t-56.5 -62q-15 -14 -29 -28t-25 -28q-29 -33 -40.5 -51t-13.5 -27q11 2 35 13t63 41q9 6 19.5 4t16.5 -10q8 -9 5.5 -19.5t-10.5 -16.5q-11 -8 -27 -19t-34.5 -21t-38 -17t-35.5 -7zM456 -84h-456
q-11 0 -18.5 7.5t-7.5 18.5t7.5 19t18.5 8h456q11 0 19 -8t8 -19t-8 -18.5t-19 -7.5z" />
    <glyph glyph-name="v" unicode="v" horiz-adv-x="348" 
d="M201 0q-23 0 -34 8t-16 16q-14 30 13 74.5t83 116.5q10 13 22 29t23.5 32t20.5 30t14 24q-6 -1 -14 -3t-21 -5q-10 -4 -20 0.5t-14 14.5q-2 10 2.5 20t15.5 13q28 9 55 11.5t42 -16.5q19 -26 -6 -68.5t-80 -114.5q-11 -15 -25 -33.5t-26.5 -36.5t-22 -34t-12.5 -26
q16 0 40.5 13t53.5 34.5t60 48.5t61.5 55.5t57.5 55.5l48 48q32 31 49.5 48t26.5 22t19 3.5t16 -10.5t3.5 -20t-11.5 -16q-6 -4 -25 -23.5t-42 -41.5q-51 -51 -101.5 -99t-97.5 -86t-87.5 -61t-70.5 -23zM348 -84h-348q-11 0 -18 7.5t-7 18.5t7 19t18 8h348q11 0 18 -8
t7 -19t-7 -18.5t-18 -7.5z" />
    <glyph glyph-name="t" unicode="t" horiz-adv-x="355" 
d="M217 0q-24 0 -35 12t-14 18q-12 32 18 92q13 26 32.5 55.5t45.5 62.5q50 68 115.5 140t136.5 138q8 8 18 8t18 -8q17 -20 0 -37q-69 -64 -132.5 -134t-112.5 -133q-29 -38 -47 -66t-27.5 -48t-13 -31.5t-3.5 -16.5h1q36 0 79 15t79.5 33.5t61.5 33.5l25 15q9 6 20 3.5
t16 -10.5q5 -9 3.5 -19.5t-10.5 -16.5q-3 -2 -30 -18.5t-67.5 -36t-87.5 -35.5t-89 -16zM454 295q-13 0 -22 12q-5 8 -3.5 18.5t10.5 17.5l20 13t52 34.5t73 50t84 58.5q65 48 106.5 82.5t66 58t35.5 37t14 20.5h-7q-32 0 -82 -25.5t-115 -73.5q-7 -7 -17.5 -5t-18.5 11
q-6 7 -4 18t10 18q144 109 227 109q31 0 43.5 -11.5t16.5 -22.5q4 -12 -1 -29t-29 -45.5t-72 -70.5t-131 -103q-44 -33 -87.5 -63t-77.5 -53.5t-55.5 -37l-21.5 -13.5q-6 -5 -14 -5zM355 -84h-355q-11 0 -18.5 7.5t-7.5 18.5t7.5 19t18.5 8h355q11 0 19 -8t8 -19t-8 -18.5
t-19 -7.5zM682 532h-244q-11 0 -18.5 7t-7.5 18t7.5 18.5t18.5 7.5h244q11 0 18 -7.5t7 -18.5t-7 -18t-18 -7z" />
    <glyph glyph-name="s" unicode="s" horiz-adv-x="349" 
d="M277 -2h-8q-28 2 -44 11.5t-23 20.5q-13 15 -16 35.5t3 43.5q2 10 10.5 15.5t19.5 3.5t16 -11.5t3 -20.5q-2 -8 -2 -18t7 -18q5 -9 28 -11q43 -2 65 22q32 31 29 99v12.5t-1 11.5q-1 33 0.5 67t18.5 71q5 11 14 15t18 -1q11 -5 15 -15t-1 -20q-12 -28 -13.5 -55.5
t-0.5 -59.5q0 -6 1.5 -12t1.5 -12q2 -90 -46 -138q-36 -36 -95 -36zM349 -84h-349q-10 0 -17.5 7.5t-7.5 18.5t7.5 19t17.5 8h349q11 0 19 -8t8 -19t-8 -18.5t-19 -7.5zM123 101q-15 0 -22 12q-8 9 -5 20t12 16l197 129q9 6 19.5 3.5t16.5 -10.5q5 -10 3.5 -20.5
t-11.5 -15.5l-196 -129q-4 -3 -8 -4t-6 -1z" />
    <glyph glyph-name="r" unicode="r" horiz-adv-x="408" 
d="M107 149q48 34 86 60.5t64.5 50t39 46t8.5 47.5q-2 13 -11 12.5t-14 -1.5q-7 -1 -10 -6t-3 -11t2.5 -11.5t6.5 -8.5q7 -8 6.5 -17t-5.5 -15.5t-13.5 -10t-17.5 1.5q-12 6 -19.5 18.5t-9.5 27.5t1 30.5t12 27.5q7 11 18.5 17t24.5 8q27 4 54.5 -9t34.5 -48
q6 -34 -12 -66.5t-51 -63.5t-76.5 -61.5t-87.5 -60.5q-9 -6 -19 -3.5t-16 10t-5.5 17.5t12.5 19zM328 0q-34 0 -47 22q-9 20 3.5 43.5t34.5 55.5q18 26 32.5 41.5t12.5 35.5q-1 3 -3.5 7t-9.5 9q-9 5 -11.5 15.5t2.5 20.5q7 9 17 11t19 -4q16 -9 24 -21.5t12 -27.5
q4 -18 0.5 -32t-11 -27t-19 -26.5t-24.5 -31.5q-5 -9 -12.5 -19.5t-12.5 -19.5q23 5 47.5 15.5t48 24t45 28.5t39.5 29q10 6 20.5 3.5t15.5 -10.5q5 -9 3 -19.5t-10 -16.5q-17 -14 -44 -32t-58 -34.5t-61 -28t-53 -11.5zM408 -84h-408q-11 0 -18.5 7.5t-7.5 18.5t7.5 19
t18.5 8h408q11 0 18.5 -8t7.5 -19t-7.5 -18.5t-18.5 -7.5z" />
    <glyph glyph-name="q" unicode="q" horiz-adv-x="426" 
d="M213 2q-17 0 -36 11q-26 17 -24 54q1 30 22.5 66.5t54.5 72t71.5 65.5t74.5 47q25 13 45.5 17.5t37 3.5t28.5 -5.5t21 -10.5q9 -7 10.5 -17.5t-4.5 -18.5q-6 -9 -16.5 -11t-19.5 5q-17 11 -41 5t-39 -14q-35 -17 -69 -44.5t-61.5 -57.5t-45 -58.5t-18.5 -47.5q-1 -8 2 -8
q5 -4 18.5 -1t30 10.5t34.5 19t32 25.5q8 8 18.5 8t17.5 -8q8 -7 8 -17.5t-8 -18.5q-9 -8 -25 -20.5t-35.5 -24t-41.5 -19.5t-42 -8zM212 -226q-5 0 -9 1.5t-7 3.5q-9 8 -10.5 18t4.5 18l384 528q5 8 16.5 10.5t19.5 -5.5q9 -5 10 -16t-4 -20l-384 -527q-8 -11 -20 -11z
M224 -84h-224q-11 0 -18.5 7.5t-7.5 18.5t7.5 19t18.5 8h224q11 0 18 -8t7 -19t-7 -18.5t-18 -7.5zM426 -84h-25q-11 0 -18 7.5t-7 18.5t7 19t18 8h25q11 0 18.5 -8t7.5 -19t-7.5 -18.5t-18.5 -7.5z" />
    <glyph glyph-name="p" unicode="p" horiz-adv-x="400" 
d="M-16 -226q-3 0 -7 1.5t-7 3.5q-9 8 -10.5 18t4.5 18l383 528q6 8 16.5 10.5t19.5 -5.5q9 -5 10.5 -16t-4.5 -20l-383 -527q-9 -11 -22 -11zM306 0q-14 0 -26.5 6t-20.5 17q-18 29 -6 68q4 11 13 16t18 0q11 -4 16 -13t2 -20q-3 -8 -3 -13.5t2 -7.5q1 0 1.5 -0.5t3.5 -0.5
q13 0 30 9.5t36 26.5t39 40.5t38 51.5q29 45 39.5 75t9.5 40q-17 0 -36.5 -11.5t-30.5 -21.5q-8 -7 -19 -6t-17 9q-8 8 -7.5 19t9.5 17q2 2 11 9.5t23 15.5t31.5 14.5t35.5 6.5q17 0 26 -5.5t12 -11.5q8 -6 11 -16t3 -21q0 -19 -7.5 -42t-19.5 -47t-27 -46.5t-29 -41.5
q-12 -16 -30 -36t-39 -38t-44.5 -30t-47.5 -12zM400 -84h-225q-10 0 -17 7.5t-7 18.5t7 19t17 8h225q11 0 18.5 -8t7.5 -19t-7.5 -18.5t-18.5 -7.5z" />
    <glyph glyph-name="o" unicode="o" horiz-adv-x="369" 
d="M252 0q-47 0 -71 38q-16 31 -7 74t41 92q24 37 53.5 68.5t60.5 53.5t62 34.5t58 12.5q32 0 56 -17.5t35 -48.5q4 -10 -1 -19t-16 -14q-10 -4 -19 0.5t-13 15.5q-10 32 -42 32q-18 0 -41.5 -9.5t-49 -27.5t-52 -45t-48.5 -62q-28 -44 -33 -73t3 -41q1 -3 5.5 -7.5
t18.5 -4.5q33 0 66.5 19.5t61.5 48t45.5 60t19.5 56.5q2 16 -3 19t-10 4q-11 2 -17 10.5t-4 19.5q1 11 9.5 17t18.5 5q29 -5 44.5 -26t13.5 -53q-3 -33 -24.5 -73t-55.5 -75.5t-77 -59.5t-88 -24zM369 -84h-369q-11 0 -18.5 7.5t-7.5 18.5t7.5 19t18.5 8h369q11 0 18.5 -8
t7.5 -19t-7.5 -18.5t-18.5 -7.5z" />
    <glyph glyph-name="m" unicode="m" horiz-adv-x="589" 
d="M509 0q-19 0 -26.5 7.5t-9.5 12.5q-11 23 9.5 55.5t71.5 94.5q22 26 42.5 51.5t37.5 49.5q20 28 23.5 41t3.5 17h-1q-15 4 -33 -6t-44 -28q-8 -6 -18.5 -4.5t-17.5 10.5q-6 8 -4.5 19.5t10.5 16.5q26 19 55.5 34.5t64.5 7.5q19 -5 27 -16t10 -17q12 -35 -20.5 -84.5
t-94.5 -124.5q-16 -20 -34 -42t-29 -39q17 6 37.5 16t41 22t39 24t30.5 20l16 11q10 6 20.5 3.5t15.5 -10.5q6 -9 3.5 -19.5t-10.5 -16.5q-4 -3 -8 -5t-8 -6q-26 -17 -53 -34t-53 -30.5t-50 -22t-44 -8.5zM589 -84h-589q-11 0 -18 7.5t-7 18.5t7 19t18 8h589q11 0 19 -8
t8 -19t-8 -18.5t-19 -7.5zM325 0q-10 0 -17 6t-8.5 16.5t6.5 19.5q9 12 23 30t30 39.5t33 45t32 46.5q22 34 34.5 57.5t18 38t6 21.5t-0.5 9q-12 4 -27.5 -3.5t-44.5 -27.5q-8 -7 -18.5 -4.5t-17.5 10.5q-5 9 -2.5 19t10.5 17q12 9 25.5 18.5t28.5 15.5t31 7.5t33 -4.5
q12 -3 20 -12t13 -21q5 -19 -3 -47t-30.5 -68.5t-60.5 -94.5t-93 -124q-5 -4 -10.5 -7t-10.5 -3zM138 12q-10 0 -16 5q-8 7 -9.5 17.5t6.5 18.5q20 26 50 65.5t59.5 80.5t53 76.5t29.5 53.5q-9 2 -15.5 8.5t-6.5 16.5q0 11 8 18.5t19 7.5q20 0 29.5 -8t14.5 -17
q7 -12 3.5 -31t-25 -55t-64.5 -95t-116 -152q-8 -10 -20 -10z" />
    <glyph glyph-name="n" unicode="n" horiz-adv-x="427" 
d="M347 0q-18 0 -26 7.5t-10 12.5q-11 22 10.5 54t74.5 94q4 5 14 16.5t21.5 26t23 30.5t19 29.5t8.5 23t-8 11.5q-18 2 -35.5 -4.5t-43.5 -24.5q-8 -5 -18 -4t-18 10q-5 8 -3.5 19.5t9.5 16.5q12 9 27 17t31.5 13.5t33 7.5t30.5 -1q36 -9 47.5 -26.5t2.5 -44.5t-36 -64
t-67 -84q-15 -20 -32 -41t-29 -37q17 5 37.5 15t40.5 22t37.5 23.5t29.5 19.5q5 4 8.5 6t7.5 5q10 6 20.5 3.5t15.5 -10.5q5 -9 3.5 -19.5t-10.5 -16.5q-4 -3 -7.5 -5t-8.5 -6q-26 -17 -53.5 -34t-53.5 -30.5t-50 -22t-43 -8.5zM146 12q-10 0 -15 5q-9 7 -10.5 17.5
t5.5 18.5q20 26 46.5 60.5t51 69.5t44 65.5t25.5 48.5q-8 2 -15 8.5t-7 16.5q0 11 8 18.5t19 7.5q20 0 29.5 -8t14.5 -17q4 -8 6 -16.5t-1 -21.5t-13.5 -32.5t-31.5 -50t-54 -74.5t-81 -106q-8 -10 -21 -10zM427 -84h-427q-11 0 -19 7.5t-8 18.5t8 19t19 8h427q11 0 18.5 -8
t7.5 -19t-7.5 -18.5t-18.5 -7.5z" />
    <glyph glyph-name="k" unicode="k" horiz-adv-x="481" 
d="M122 0q-9 0 -14 5q-11 6 -12.5 16.5t4.5 19.5q98 146 187 262t169 203q113 124 205.5 183.5t170.5 59.5q56 0 65 -35q5 -19 -10 -44t-53 -59q-26 -23 -62 -49.5t-81 -58.5q-39 -27 -76.5 -52t-67.5 -43.5t-48.5 -30l-18.5 -11.5q-11 -5 -21 -3.5t-15 11.5q-6 9 -3.5 19.5
t11.5 15.5l17.5 10.5t45 28.5t63 41t71.5 49q54 37 90 64t58 45.5t32.5 30.5t13.5 19h-11q-27 0 -62 -11.5t-80 -40.5t-101 -78.5t-123.5 -125.5t-147.5 -182t-174 -247q-10 -12 -22 -12zM481 -84h-481q-11 0 -17.5 7.5t-6.5 18.5t6.5 19t17.5 8h481q11 0 18 -8t7 -19
t-7 -18.5t-18 -7.5zM398 0q-17 0 -26 6t-14 13q-11 17 -6 39t15 45q3 8 7 18t6.5 19.5t3.5 17.5t-2 12q0 1 -2.5 2.5t-8 3.5t-15.5 3t-26 0q-11 0 -19 6.5t-9 17.5q0 11 6.5 18.5t17.5 8.5q74 5 98 -30q17 -26 10 -57t-18 -58q-4 -8 -7.5 -17.5t-5.5 -15.5q16 1 39.5 11.5
t47.5 24t45.5 27.5t35.5 23q5 4 9 6t8 5q8 6 18 3.5t18 -10.5q5 -9 2.5 -19.5t-10.5 -16.5q-3 -3 -7 -5t-9 -6q-26 -17 -53 -34t-53.5 -30.5t-51 -22t-44.5 -8.5zM374 239q-17 0 -23 13q-5 10 -2.5 20t12.5 15q16 9 40 19.5t51 20.5t54 19t48.5 16t36 11.5t16.5 5.5
q10 3 19 -2.5t13 -15.5q3 -11 -2.5 -20.5t-15.5 -11.5l-13.5 -4t-34.5 -11t-47 -16t-52 -18.5t-49 -19t-38 -18.5q-8 -3 -13 -3z" />
    <glyph glyph-name="j" unicode="j" horiz-adv-x="184" 
d="M-16 -181q-7 0 -14 4.5t-10 12.5q-3 10 1.5 19t14.5 14q25 9 47 28t44.5 47.5t46.5 66t53 84.5q32 51 72.5 114t91.5 138q7 9 17.5 10.5t18.5 -3.5q9 -6 11 -16.5t-5 -19.5q-52 -75 -91.5 -137t-71.5 -114q-31 -50 -57 -90.5t-50.5 -71.5t-51 -52t-57.5 -33q-4 -1 -10 -1
zM414 390q-5 0 -9.5 2.5t-8.5 4.5q-8 7 -9 17.5t7 18.5l37 45q7 9 17.5 10t18.5 -7q9 -6 10 -17t-5 -19l-40 -44q-6 -11 -18 -11z" />
    <glyph glyph-name="i" unicode="i" horiz-adv-x="253" 
d="M204 12q-11 0 -19.5 2t-16.5 9q-15 13 -16.5 31.5t3.5 36.5t13 34t13 24q19 33 41.5 64.5t42 56t32.5 39.5t14 16q6 9 17 10t19 -6q7 -8 8.5 -18.5t-6.5 -17.5q0 -1 -12.5 -16t-31 -38.5t-40 -54t-40.5 -62.5q-17 -28 -20.5 -42t-3.5 -16q6 -2 21 2t36 14t46 26.5
t52 39.5q9 8 20 7t19 -9q6 -9 5 -19.5t-9 -16.5q-17 -14 -40 -31t-48.5 -31.5t-51.5 -24t-47 -9.5zM394 359q-8 1 -17 6q-16 19 -1 39l43 42q6 7 16.5 7.5t19.5 -8.5q6 -6 6.5 -16.5t-7.5 -19.5l-40 -41q-5 -6 -10 -7.5t-10 -1.5zM253 -84h-253q-11 0 -19 7.5t-8 18.5t8 19
t19 8h253q11 0 18.5 -8t7.5 -19t-7.5 -18.5t-18.5 -7.5z" />
    <glyph glyph-name="h" unicode="h" horiz-adv-x="461" 
d="M132 0q-7 0 -13 5q-9 6 -11.5 16.5t4.5 19.5q97 146 185.5 262t169.5 203q114 124 207 183.5t170 59.5q53 0 64 -35q12 -37 -63 -103q-26 -23 -61.5 -49.5t-82.5 -58.5q-38 -27 -75.5 -52t-67.5 -44q-35 -22 -67 -41q-10 -5 -20.5 -3.5t-15.5 11.5q-5 9 -2.5 19.5
t10.5 15.5l17.5 10.5t45 28.5t63 41t72.5 49q54 37 90 64t58 45.5t32.5 30.5t14.5 19h-12q-27 0 -62 -11.5t-80.5 -40.5t-101 -78.5t-123.5 -125.5t-148.5 -182t-174.5 -247q-3 -5 -9.5 -8.5t-12.5 -3.5zM380 0q-19 0 -26.5 7.5t-9.5 12.5q-5 11 -2 24.5t13.5 31t28.5 40.5
t44 54q13 15 29 34t31 38.5t26 37t14 27.5h-4q-14 0 -30.5 -7t-34.5 -18.5t-36 -25.5t-35 -28q-8 -8 -19 -6.5t-17 8.5q-8 9 -7 19.5t9 18.5q50 42 91 66.5t79 24.5q25 0 36 -9t16 -19q7 -15 2 -34.5t-19.5 -43t-37.5 -52.5t-53 -64q-15 -18 -33.5 -41t-30.5 -40
q17 6 38 16.5t41 22.5t38 23.5t30 19.5q5 4 9 6t8 5q9 6 19.5 3.5t16.5 -10.5q6 -9 3 -19.5t-11 -16.5q-3 -3 -7 -5t-9 -6q-26 -17 -53 -34t-53 -30.5t-50 -22t-44 -8.5zM461 -84h-461q-11 0 -18.5 7.5t-7.5 18.5t7.5 19t18.5 8h461q11 0 18 -8t7 -19t-7 -18.5t-18 -7.5z
" />
    <glyph glyph-name="g" unicode="g" horiz-adv-x="390" 
d="M177 -181q-8 0 -18 1t-21 6q-38 12 -56 41t-9 63q6 21 21 40.5t39 33t55 19.5t68 0q11 -1 17.5 -9.5t3.5 -19.5q-1 -11 -9 -17.5t-19 -4.5q-30 4 -52.5 0.5t-37.5 -12t-23.5 -19.5t-11.5 -21q-8 -34 30 -45q23 -8 43 -1t43.5 31t52 65.5t68.5 103.5q27 42 58.5 88
t69.5 100q6 9 16.5 10.5t19.5 -3.5q8 -7 10 -17t-6 -19l-124 -187q-40 -62 -71 -106.5t-59 -73.5q-17 -17 -40.5 -32t-57.5 -15zM258 46q-16 0 -30 4.5t-25 14.5q-31 25 -26 68t43 91q29 38 70 68t85 46q54 20 103 15.5t91 -34.5q8 -6 9.5 -16.5t-3.5 -19.5q-8 -8 -18 -10
t-18 5q-35 25 -74.5 25t-77.5 -15.5t-71.5 -41.5t-54.5 -53q-23 -29 -30 -54.5t6 -35.5q4 -3 13 -4.5t19.5 0.5t21 7t19.5 15q7 8 17.5 8.5t19.5 -7.5q8 -7 8 -17.5t-8 -18.5q-18 -20 -42 -30t-47 -10zM35 -84h-35q-11 0 -18.5 7.5t-7.5 18.5t7.5 19t18.5 8h35q11 0 18 -8
t7 -19t-7 -18.5t-18 -7.5z" />
    <glyph glyph-name="f" unicode="f" horiz-adv-x="365" 
d="M27 -163q-8 0 -15 5q-9 6 -10.5 16.5t4.5 19.5q9 12 26 37t39 57q21 30 44.5 65t48.5 71t50.5 71.5t48.5 66.5q193 253 334.5 378t236.5 125q20 0 30 -7.5t15 -15.5q5 -10 5 -20.5t-3.5 -21.5t-9 -21.5t-10.5 -19.5q-17 -26 -43 -56t-56 -61.5t-62 -61.5t-62 -55
q-29 -25 -61.5 -50.5t-62.5 -46t-56 -33t-42 -11.5q-11 0 -19 8t-7 19q5 25 28 23q7 0 27.5 11.5t51 33.5t69.5 54t84 73q86 79 130 133t52 74q-29 0 -72.5 -20t-107.5 -73.5t-150 -147t-198 -241.5q-23 -31 -48 -66t-50 -71t-48.5 -70t-43.5 -64q-23 -34 -39 -59t-27 -37
q-8 -11 -21 -11zM425 139q-5 0 -9.5 0.5t-8.5 2.5q-20 4 -33.5 15t-22 23.5t-12.5 22.5t-4 12q-4 10 1.5 19t15.5 12q10 4 19.5 -0.5t11.5 -15.5q1 0 3.5 -5.5t6.5 -12t10 -12.5t15 -8q17 -4 40.5 11t50.5 44q17 18 37 3q8 -8 8 -18.5t-6 -17.5q-68 -75 -123 -75zM365 -84
h-188q-11 0 -19 7.5t-8 18.5t8 19t19 8h188q11 0 18 -8t7 -19t-7 -18.5t-18 -7.5z" />
    <glyph glyph-name="e" unicode="e" horiz-adv-x="356" 
d="M234 -5q-10 0 -19 2t-18 5q-20 8 -31.5 24t-13.5 36q-2 30 16.5 66t47.5 70.5t65 65t68 50.5q86 50 131 20q8 -4 17 -18t1 -40q-7 -23 -30.5 -53.5t-55 -57.5t-67.5 -45.5t-67 -18.5q-9 0 -16.5 7.5t-7.5 18.5t7.5 18t16.5 7q13 0 29.5 6.5t34.5 17.5t36.5 26.5
t34.5 33.5q18 21 26.5 35t9.5 22q-9 2 -27.5 -3.5t-44.5 -20.5q-33 -20 -64.5 -47.5t-56 -56t-39 -55.5t-13.5 -45q0 -5 2.5 -9t10.5 -6q16 -7 43.5 -1t60.5 21t69 35.5t68 43.5q11 6 21 4t15 -11q8 -9 6 -19.5t-10 -15.5q-20 -14 -51 -33t-66 -36.5t-71.5 -30t-67.5 -12.5z
M356 -84h-356q-11 0 -18.5 7.5t-7.5 18.5t7.5 19t18.5 8h356q11 0 19 -8t8 -19t-8 -18.5t-19 -7.5z" />
    <glyph glyph-name="d" unicode="d" horiz-adv-x="588" 
d="M451 0q-24 0 -39 14t-15 38q0 34 29.5 85.5t73 108.5t93 111.5t89.5 94.5q17 18 46.5 47t67 62t79.5 66.5t84.5 60.5t83 44t73.5 17q32 0 45 -11.5t15 -22.5q4 -12 -0.5 -29t-28.5 -45.5t-72.5 -70.5t-131.5 -103q-44 -33 -87 -63t-77 -53.5t-55.5 -37t-22.5 -13.5
q-8 -8 -19.5 -5t-16.5 12q-5 8 -3 18.5t10 17.5q1 0 21 13t52 34.5t72.5 50t83.5 58.5q65 48 107 82.5t66.5 58t35 37t13.5 20.5h-7q-29 0 -72.5 -21.5t-95 -58t-108 -85.5t-112 -104t-107.5 -114t-93 -115q-27 -38 -43 -64t-24 -43.5t-10 -26.5t-2 -13h2q36 0 78.5 15
t79 33.5t61.5 33.5t26 15q8 6 19.5 3.5t16.5 -10.5q5 -9 3 -19.5t-10 -16.5q-2 -1 -15 -9.5t-34.5 -20t-48.5 -25t-57 -25t-60.5 -19t-58.5 -7.5zM214 -5q-18 0 -35 10q-29 18 -26 55q2 29 23 66.5t52.5 74t70 68.5t77.5 50q24 12 44 16t35.5 3t27.5 -5t20 -10
q8 -7 10 -17.5t-4 -18.5q-5 -9 -16.5 -11t-19.5 5q-14 10 -35 5t-39 -12q-34 -17 -68 -45.5t-61.5 -60t-45.5 -61.5t-20 -49q0 -7 1.5 -8.5t2.5 -1.5q2 -2 16.5 -0.5t44.5 16.5q26 11 46.5 24.5t30.5 21.5q7 8 17.5 8t18.5 -8q7 -7 7 -17.5t-7 -18.5q-9 -8 -28 -21.5
t-43 -26.5t-49.5 -22t-47.5 -9zM588 -84h-588q-11 0 -18.5 7.5t-7.5 18.5t7.5 19t18.5 8h588q11 0 18 -8t7 -19t-7 -18.5t-18 -7.5z" />
    <glyph glyph-name="c" unicode="c" horiz-adv-x="358" 
d="M238 -5q-11 0 -20 2t-17 5q-21 8 -32 24t-13 36q-2 30 16.5 66t47.5 70.5t65 65t68 50.5q86 50 131 20q29 -17 29 -51q0 -20 -10.5 -38.5t-25 -33.5t-29 -26t-22.5 -15q-10 -5 -20 -3t-16 11t-3 19.5t11 16.5q30 19 47 38.5t17 30.5q0 2 -1 3.5t-6 3.5q-6 5 -26 1
t-49 -22q-33 -20 -64.5 -47.5t-56 -56t-39 -55.5t-12.5 -45q0 -11 11 -15q16 -7 44 -1t61.5 21t69.5 35.5t68 43.5q9 6 19.5 4t16.5 -11q7 -9 5 -19.5t-12 -15.5q-19 -14 -49 -33t-65 -36.5t-71.5 -30t-67.5 -12.5zM358 -84h-358q-11 0 -18.5 7.5t-7.5 18.5t7.5 19t18.5 8
h358q11 0 18 -8t7 -19t-7 -18.5t-18 -7.5z" />
    <glyph glyph-name="a" unicode="a" horiz-adv-x="466" 
d="M212 -7q-11 0 -21.5 2t-20.5 10q-8 5 -17 18t-8 36q2 29 23.5 66.5t55 74t74.5 69.5t82 53q56 25 104 24.5t86 -27.5q9 -6 10.5 -16.5t-4.5 -19.5q-7 -8 -17 -10t-19 5q-17 11 -34.5 14.5t-35.5 2t-35 -7.5t-32 -13q-40 -19 -77 -49t-65 -61.5t-45 -61t-18 -47.5
q0 -6 1 -7q14 -9 39 3t47 33q8 8 18 7.5t18 -9.5q8 -8 8 -18t-8 -18q-22 -20 -51 -36.5t-58 -16.5zM385 0q-22 0 -31.5 9.5t-11.5 14.5q-4 8 -4 19t7.5 28.5t24 42t46.5 59.5q15 18 30 34.5t26.5 29.5t19 20.5l8.5 8.5q8 8 18.5 8t18.5 -8q8 -7 8 -18t-8 -19
q-27 -26 -50.5 -52t-42.5 -49.5t-32 -43t-19 -31.5q17 2 39.5 12.5t45 23.5t43 26.5t34.5 22.5q5 4 9 6t8 5q9 6 20 3.5t16 -10.5q6 -9 3.5 -19.5t-10.5 -16.5q-4 -3 -8 -5t-9 -6q-26 -17 -53 -34t-53 -30.5t-50 -22t-43 -8.5zM466 -84h-466q-11 0 -18.5 7.5t-7.5 18.5
t7.5 19t18.5 8h466q11 0 17.5 -8t6.5 -19t-6.5 -18.5t-17.5 -7.5z" />
    <glyph glyph-name="A" unicode="A" horiz-adv-x="879" 
d="M879 -84q-26 0 -39 10t-18 21q-11 18 -6.5 43.5t22 59.5t45.5 78t66 100q32 47 63 94t53 90q15 27 22 46.5t9.5 32.5t1.5 20.5t-3 11.5q-5 8 -18 11.5t-25 3.5q-36 0 -74 -23t-76.5 -62t-78 -89.5t-79.5 -105.5q-7 -9 -17 -10.5t-19 4.5q-8 6 -10.5 16.5t5.5 19.5
q44 61 87 116t86 95.5t86.5 64.5t89.5 24q33 0 56 -10t34 -31q14 -27 5.5 -65t-31 -83t-55.5 -96t-69 -104q-28 -42 -53.5 -80.5t-44.5 -72.5q-5 -8 -12 -21t-12 -25.5t-4 -21.5t13 -9q11 0 19 -8t8 -19t-8 -18.5t-19 -7.5zM246 -181q-42 0 -72.5 11.5t-50.5 31t-29.5 44
t-9.5 50.5q0 29 13 58.5t37 52.5q24 26 59.5 39.5t74.5 13.5q63 0 107.5 -31.5t56.5 -83.5q2 -10 -4 -19.5t-17 -11.5q-10 -2 -19 3.5t-11 15.5q-6 26 -21 40.5t-33 22t-34.5 9.5t-24.5 2q-31 0 -55.5 -10t-42 -25.5t-26.5 -35.5t-9 -40q0 -15 6 -30.5t19 -28t34.5 -20
t51.5 -7.5q75 0 163.5 69t196.5 210q6 8 17 10t19 -5q9 -7 10 -17t-6 -19q-116 -153 -213 -226t-187 -73zM880 179h-410q-11 0 -18 7t-7 17q0 11 7 18.5t18 7.5h410q11 0 19 -7.5t8 -18.5q0 -10 -8 -17t-19 -7z" />
    <glyph glyph-name="N" unicode="N" horiz-adv-x="910" 
d="M910 -84q-46 0 -73.5 13t-40.5 37q-14 29 -2.5 67t39 83t66.5 95t82 103q27 35 51.5 66t44.5 59q28 40 34 59t6 23q-7 2 -24.5 -4t-44.5 -23q-44 -30 -98 -78t-116 -111q-7 -8 -17.5 -8t-18.5 8q-7 8 -8 18t7 18q63 65 120 115t102 79q45 31 80.5 36.5t55.5 -14.5
q40 -40 -35 -147q-22 -29 -47.5 -61t-53.5 -67q-37 -46 -73.5 -92.5t-63.5 -88.5q-17 -27 -26 -46.5t-12.5 -33t-2.5 -21.5t3 -12q4 -9 21.5 -14t44.5 -5q11 0 18 -8t7 -19t-7 -18.5t-18 -7.5zM645 460q-26 0 -52.5 6.5t-53.5 20.5q-8 5 -11.5 15t1.5 19q6 10 16 13t19 -2
q51 -27 104.5 -19t121.5 37q11 5 20.5 1t14.5 -13q10 -25 -15 -35q-45 -20 -86 -31.5t-79 -11.5zM222 -181q-42 0 -72.5 11.5t-50.5 31t-29.5 44t-9.5 50.5q0 29 13 58.5t36 52.5q53 53 135 53q26 0 53 -8t50 -24t40.5 -39t24.5 -54q2 -9 -3 -18t-16 -12q-25 -3 -32 19
q-5 20 -16.5 35.5t-28 26t-35.5 16t-37 5.5q-31 0 -55.5 -10t-41.5 -25.5t-26 -35.5t-9 -40q0 -15 6 -30.5t19 -28t34 -20t51 -7.5q49 0 99 25.5t97.5 65.5t89 89t73.5 96q13 21 38.5 57.5t56.5 80t65.5 90.5t65.5 88.5t57 73t40 45.5q7 7 18 7t19 -7q6 -8 6 -18.5t-7 -17.5
q-13 -13 -37 -43t-54.5 -70t-63.5 -85.5t-64 -88.5t-56.5 -79.5t-40.5 -58.5q-36 -55 -82 -109t-98.5 -96.5t-109 -69t-112.5 -26.5z" />
    <glyph glyph-name="b" unicode="b" horiz-adv-x="424" 
d="M264 0q-37 0 -59 19q-8 7 -15 19t-7 34q0 36 24.5 85.5t63.5 104t87.5 110t95.5 102.5q49 49 105.5 98.5t112.5 88.5t107.5 63.5t91.5 24.5q54 0 62 -35q5 -19 -9.5 -44t-52.5 -59q-26 -23 -62 -49.5t-81 -58.5q-39 -27 -76.5 -52t-67.5 -43.5t-48.5 -30t-19.5 -11.5
q-8 -5 -18.5 -3.5t-15.5 11.5q-5 9 -3.5 19.5t11.5 15.5q1 0 18 10.5t45 28.5t63 41t71 49q54 37 90 64t57.5 45.5t32 30.5t13.5 19h-9q-27 0 -68 -18.5t-91 -52.5t-106.5 -82t-113.5 -106q-56 -56 -103 -111.5t-81.5 -104t-53.5 -87.5t-19 -63q0 -8 1.5 -10.5t3.5 -3.5
q5 -6 24 -6q42 0 86 22.5t86 64.5q40 41 60 79t20 58q0 10 -3 10h-2q-1 0 -2.5 0.5t-3.5 0.5q-10 0 -25 -9t-32 -27q-20 -22 -29.5 -45.5t-6.5 -39.5q2 -11 -4.5 -19.5t-17.5 -10.5t-19 4.5t-10 17.5q-5 34 11 68t38 57q22 26 46 40.5t49 14.5q18 0 29 -5.5t16 -10.5
q6 -8 11 -18t5 -28q0 -35 -25 -81.5t-69 -91.5q-14 -14 -35 -32t-48 -34t-58.5 -26.5t-66.5 -10.5zM424 -84h-424q-11 0 -19 7.5t-8 18.5t8 19t19 8h424q11 0 18.5 -8t7.5 -19t-7.5 -18.5t-18.5 -7.5z" />
    <glyph glyph-name="M" unicode="M" horiz-adv-x="1140" 
d="M227 -181q-42 0 -72.5 11.5t-50.5 31t-29.5 44t-9.5 50.5q0 29 13 58.5t36 52.5q25 26 60.5 39.5t73.5 13.5q64 0 108 -31.5t57 -83.5q2 -10 -4 -19.5t-17 -11.5t-19 3.5t-11 15.5q-6 26 -21 40.5t-32.5 22t-34.5 9.5t-26 2q-38 0 -61 -11.5t-37 -25.5q-16 -15 -25 -34.5
t-9 -39.5q0 -15 6 -30.5t19 -28t34 -20t52 -7.5q152 0 360 279q10 14 21 29t24 32q46 63 97 130t103.5 122t106 90.5t104.5 35.5q43 0 67 -26q24 -31 15 -81q-2 -11 -10.5 -17.5t-19.5 -3.5q-11 1 -16.5 9.5t-4.5 18.5q2 16 1.5 25.5t-4.5 14.5q-5 5 -13 7.5t-15 2.5
q-42 0 -89.5 -34.5t-96 -87.5t-96 -116t-88.5 -120q-12 -17 -23.5 -32.5t-22.5 -29.5q-113 -152 -211 -225.5t-189 -73.5zM741 -127q-5 0 -13 5q-10 5 -11.5 15t3.5 19q18 27 48.5 73t69.5 101.5t84.5 117t93.5 120.5q108 135 186 199.5t131 64.5q56 0 73 -35
q13 -23 7 -54.5t-26 -73t-53 -93.5t-75 -115q-31 -45 -58 -87t-47 -78q-14 -25 -20 -40.5t-8 -24.5q-3 -11 -1 -16q2 -1 4.5 -1.5t10.5 -0.5q11 0 18.5 -8t7.5 -19t-7.5 -18.5t-18.5 -7.5q-27 0 -41 10.5t-19 20.5q-11 19 -5 47t24.5 65t49 83.5t68.5 103.5q32 47 62 93.5
t52 86.5q15 28 22 47t9 30.5t1.5 17t-1.5 7.5q-4 5 -14 7.5t-15 2.5q-33 0 -90.5 -47t-132.5 -133t-163.5 -206.5t-182.5 -266.5q-8 -12 -23 -12z" />
    <glyph glyph-name="L" unicode="L" horiz-adv-x="712" 
d="M217 -127q-37 0 -65.5 9.5t-48.5 24.5t-31 34t-14 39q-7 42 18.5 77.5t72.5 49.5q28 8 56.5 5.5t55 -11t50 -19.5t41.5 -20l24 -12q10 -5 14 -14t-1 -19q-4 -9 -13.5 -13.5t-20.5 -1.5q-5 3 -11.5 7t-14.5 7q-16 8 -36 17.5t-42.5 16.5t-45 9.5t-42.5 -3.5
q-32 -10 -44.5 -29.5t-10.5 -38.5q2 -11 9 -22.5t20 -21t33 -15.5t47 -6q60 0 114.5 35t105.5 91t97.5 124.5t90.5 136.5q42 64 81.5 122t78.5 97.5t78.5 56.5t81.5 0t56.5 -58t-1.5 -95q-9 -27 -25.5 -53t-39.5 -46t-52 -32t-62 -12q-9 0 -17.5 1.5t-17.5 3.5
q-11 2 -16.5 10.5t-3.5 19.5t11 17t20 4q28 -6 52.5 1t44.5 22t34.5 36t22.5 44q7 26 3 52.5t-30 37.5t-55.5 -7t-62 -55t-66.5 -88.5t-70 -106.5q-47 -72 -97.5 -145t-106 -131.5t-117.5 -95.5t-132 -37zM712 -84q-52 0 -86 1.5t-58.5 5t-43.5 9.5t-40 15q-10 4 -13.5 14.5
t0.5 19.5q5 10 14 14t20 -1q18 -8 34 -12.5t38 -7.5t54 -4t81 -1q11 0 18 -8t7 -19t-7 -18.5t-18 -7.5z" />
    <glyph glyph-name="K" unicode="K" horiz-adv-x="855" 
d="M622 460q-27 0 -53 6.5t-52 20.5q-10 5 -12.5 15t2.5 19q5 10 15 13t20 -2q25 -14 50.5 -18t53 -1t57.5 12.5t65 24.5q10 5 19.5 1t13.5 -13q8 -25 -13 -35q-47 -20 -87.5 -31.5t-78.5 -11.5zM687 258q-10 0 -14 4q-9 7 -11 17.5t5 18.5l13 19q22 32 50 70t56 74.5
t54 68.5t45 51q8 7 18.5 7t17.5 -7q8 -8 8 -18.5t-8 -17.5q-18 -18 -43.5 -49.5t-53.5 -68t-54.5 -73.5t-47.5 -67l-13 -19q-10 -10 -22 -10zM204 -181q-37 0 -63.5 10t-44 26.5t-25.5 37t-8 41.5q0 27 11.5 53t33.5 47q23 21 54 32.5t66 11.5q27 0 52 -6t45.5 -15t36 -20.5
t23.5 -23.5q6 -9 4.5 -19t-10.5 -17q-10 -5 -20.5 -3.5t-15.5 10.5q-10 13 -41.5 28.5t-73.5 15.5q-26 0 -47 -8.5t-36 -22t-23 -30.5t-8 -33q0 -30 24 -47t66 -17q72 0 152 58.5t176 181.5q8 9 18.5 10.5t17.5 -5.5q9 -6 11 -17t-6 -19q-33 -42 -73.5 -88t-88 -84.5
t-100 -63t-107.5 -24.5zM855 -84q-42 0 -68.5 9t-41.5 29q-20 24 -18 53.5t9 57.5q3 17 6 34.5t-2 25.5q-5 10 -1.5 20t12.5 15t20 2.5t16 -12.5q11 -22 8 -47t-8 -50q-5 -19 -8 -38t5 -29q14 -17 71 -17q11 0 19 -8t8 -19t-8 -18.5t-19 -7.5zM583 128q-41 0 -64 16t-31 36
q-8 17 -4 35.5t18 31.5q6 6 18 13.5t31.5 10.5t47 -0.5t65.5 -19.5q9 -5 13 -14.5t-1 -19.5q-3 -11 -12.5 -15t-19.5 1q-24 10 -42 13.5t-31 3.5t-21 -2.5t-12 -6.5q-3 -5 -2 -12q3 -7 15 -13t32 -6q44 0 93.5 19.5t102 51t105.5 70t104 77.5q48 37 94.5 71t90 60.5t83 42.5
t74.5 16q11 0 19 -7.5t8 -17.5q0 -11 -8 -18t-19 -7q-28 0 -63.5 -16t-76 -41.5t-84.5 -57.5t-88 -65q-56 -42 -112 -83.5t-111 -74t-108.5 -52.5t-103.5 -20z" />
    <glyph glyph-name="J" unicode="J" horiz-adv-x="547" 
d="M526 438q-38 0 -70 6t-57 18q-9 5 -12 15.5t3 20.5q5 9 14.5 12.5t19.5 -1.5q25 -14 69.5 -17t94 2.5t97.5 19.5t80 34q9 6 19.5 4t15.5 -12q6 -9 4 -19.5t-11 -16.5q-24 -14 -55.5 -26t-66.5 -21t-72.5 -14t-72.5 -5zM231 -181q-76 0 -123 36q-44 35 -44 87
q0 25 11.5 50.5t34 45t56 32t77.5 12.5q26 0 51.5 -6.5t47.5 -16.5t39 -21t28 -21q7 -8 7 -18t-6 -18q-8 -8 -19 -8.5t-18 7.5q-8 8 -22 16.5t-31.5 16t-37 12.5t-39.5 5q-63 0 -95.5 -27.5t-32.5 -60.5q0 -27 24 -48q16 -11 39.5 -17.5t52.5 -6.5q56 0 116.5 37t120 96
t115.5 132t104.5 145.5t87 136.5t61.5 104q13 20 21.5 34.5t13.5 21.5q5 9 15.5 11t20.5 -5q8 -5 10 -15.5t-4 -20.5q-5 -5 -13.5 -19t-19.5 -32q-27 -47 -67.5 -115t-91.5 -143t-109.5 -150t-122 -135t-129 -97t-129.5 -37z" />
    <glyph glyph-name="I" unicode="I" horiz-adv-x="371" 
d="M116 -115q-10 0 -18 7.5t-8 18.5q0 9 8 16.5t18 7.5q58 0 109 36t98.5 98t95 146.5t98.5 180.5q23 44 46.5 88.5t49.5 90.5q5 10 15.5 12.5t20.5 -3.5q9 -5 11 -15t-3 -19q-24 -47 -48 -90.5t-47 -87.5q-54 -102 -104.5 -191t-103 -154.5t-110.5 -103.5t-128 -38z
M349 439q-11 0 -18 8t-7 19q0 9 7 17t18 8q42 0 88 14.5t89 42.5q9 6 19.5 4t15.5 -12q7 -9 4 -19.5t-11 -16.5q-50 -32 -103 -48.5t-102 -16.5z" />
    <glyph glyph-name="H" unicode="H" horiz-adv-x="903" 
d="M903 -84q-29 0 -48.5 13.5t-24.5 39.5q-8 28 4.5 69t36 87.5t54.5 95t61 91.5q31 42 65.5 86t68 82t62.5 66t49 38q10 6 20 3.5t15 -12.5t2.5 -20t-12.5 -15q-12 -7 -36 -29.5t-55 -56.5t-66 -78t-71 -94q-46 -65 -76 -115.5t-47.5 -87.5t-23.5 -61.5t-3 -36.5q2 -4 6 -8
t19 -4q11 0 18.5 -8t7.5 -19t-7.5 -18.5t-18.5 -7.5zM645 460q-27 0 -53 6.5t-52 20.5q-9 5 -12 15t2 19q5 10 15 13t20 -2q25 -14 50.5 -18t53 -1t57.5 12.5t65 24.5q10 5 19.5 1t14.5 -13q8 -25 -14 -35q-45 -20 -86.5 -31.5t-79.5 -11.5zM704 246q-5 0 -8.5 2t-6.5 4
q-9 6 -11 16.5t5 19.5q5 6 10.5 14t10.5 16q24 32 52 70.5t55.5 75t53 68t44.5 49.5q8 7 18 7t18 -7q8 -8 8 -18.5t-8 -17.5q-17 -18 -42 -49t-53 -67.5t-55 -73.5t-49 -67q-11 -18 -21 -30q-9 -12 -21 -12zM228 -181q-42 0 -73 11.5t-51 31t-29.5 44t-9.5 50.5
q0 29 13 58.5t36 52.5q26 26 61 39.5t74 13.5q65 0 108 -31.5t56 -83.5q2 -10 -3.5 -19.5t-16.5 -11.5t-20 3.5t-11 15.5q-6 26 -21.5 40.5t-33 22t-33.5 9.5t-25 2q-32 0 -56.5 -10t-41 -25.5t-25.5 -35.5t-9 -40q0 -15 6 -30.5t19 -28t34 -20t52 -7.5q146 0 359 279
q6 8 16.5 10t19.5 -5q8 -7 10 -17t-4 -19q-117 -153 -215 -226t-186 -73zM853 179h-402q-11 0 -18.5 7t-7.5 17q0 11 7.5 18.5t18.5 7.5h402q11 0 18 -7.5t7 -18.5q0 -10 -7 -17t-18 -7z" />
    <glyph glyph-name="G" unicode="G" horiz-adv-x="499" 
d="M223 -196q-16 0 -31 3t-29 11q-44 19 -68 58t-29 93q-5 68 21.5 151t74.5 164t112 153t135 117q77 50 149 57.5t134 -27.5q53 -29 68 -79t-10 -109q-15 -35 -42.5 -66t-62 -51t-73 -27t-76.5 6q-11 3 -15.5 13t-0.5 19q2 11 11.5 15.5t20.5 1.5q28 -9 56.5 -3t54.5 22
t47 40t33 50q5 12 9 28t1.5 32.5t-12.5 33t-34 30.5q-31 16 -62.5 19t-61.5 -3t-57.5 -18.5t-49.5 -26.5q-43 -28 -84 -67t-77.5 -85.5t-66.5 -97.5t-51 -101.5t-31.5 -98.5t-7.5 -89q6 -78 66 -108q21 -8 43.5 -7.5t46.5 11.5q30 12 58.5 35.5t53 53t43 62t29.5 61.5
q5 11 14 16t18 0q11 -3 15.5 -12t1.5 -20q-12 -33 -33 -69.5t-48.5 -70t-61 -61.5t-69.5 -43q-18 -8 -35.5 -12t-36.5 -4zM500 121q-27 0 -54.5 7t-52.5 15q-32 10 -60.5 15t-41.5 -8q-8 -8 -18 -8t-18 8t-8 18t8 18q15 14 32.5 19t37 4.5t41 -6t42.5 -11.5
q19 -6 39.5 -11.5t39 -7t35.5 2t31 14.5q9 8 19 7t18 -10q6 -7 5.5 -18t-7.5 -18q-40 -30 -88 -30z" />
    <glyph glyph-name="F" unicode="F" horiz-adv-x="683" 
d="M227 -181q-42 0 -73 11.5t-51.5 31t-30 44t-9.5 50.5q0 29 13.5 58.5t36.5 52.5q26 26 61.5 39.5t73.5 13.5q64 0 107.5 -31.5t55.5 -83.5q3 -10 -2.5 -19.5t-16.5 -11.5t-19.5 3.5t-10.5 15.5q-6 26 -21 40.5t-33 22t-34.5 9.5t-25.5 2q-30 0 -54.5 -10t-42 -25.5
t-26.5 -35.5t-9 -40q0 -15 6 -30.5t19 -28t34 -20t52 -7.5q147 0 360 279q6 8 16.5 10t19.5 -5t10 -17t-6 -19q-116 -154 -214 -226.5t-186 -72.5zM703 246q-3 0 -7 2t-7 4q-8 6 -10.5 16.5t4.5 19.5q44 61 87 116t86 95.5t86.5 64.5t90.5 24q10 0 17 -7.5t7 -17.5
q0 -11 -7 -18t-17 -7q-38 0 -75.5 -23t-76 -62t-77.5 -89.5t-79 -105.5q-10 -12 -22 -12zM513 430q-43 0 -80.5 11t-63.5 40q-6 8 -5.5 18t8.5 18t18 7.5t18 -8.5q18 -21 47.5 -29t64.5 -7.5t74 8t77 18.5t72.5 23t60.5 21q11 5 20.5 0t12.5 -15q5 -11 0.5 -20.5
t-14.5 -11.5l-1 -1q-30 -11 -67 -23.5t-77.5 -23t-83 -18t-81.5 -7.5zM781 179h-331q-11 0 -19 7t-8 17q0 11 8 18.5t19 7.5h331q11 0 18.5 -7.5t7.5 -18.5q0 -10 -7.5 -17t-18.5 -7zM683 -84h-132q-11 0 -18.5 7.5t-7.5 18.5t7.5 19t18.5 8h132q11 0 18.5 -8t7.5 -19
t-7.5 -18.5t-18.5 -7.5z" />
    <glyph glyph-name="E" unicode="E" horiz-adv-x="532" 
d="M291 -197q-29 0 -57 5.5t-56 18.5q-33 16 -56.5 42t-35.5 59t-12 71.5t14 79.5q14 43 40.5 78t63.5 58q42 26 90 33t102 -4q10 -3 15.5 -11t2.5 -19q-2 -11 -11 -17t-19 -4q-46 11 -84.5 4t-68.5 -26t-51 -47.5t-32 -61.5q-9 -26 -10.5 -53.5t5.5 -53t23.5 -46.5
t44.5 -34q52 -24 101.5 -21t90.5 32q29 21 44 49.5t13 52.5q-3 14 -10.5 23.5t-22.5 16.5q-16 3 -24 -2q-5 -5 -7 -13t0 -15q5 -17 22 -18q11 -2 16.5 -11t3.5 -19q-2 -11 -11 -17.5t-18 -4.5q-24 5 -40.5 19t-21.5 36q-6 22 -0.5 44t22.5 38q16 13 36 15.5t43 -6.5
q54 -22 63 -80q5 -39 -16.5 -79.5t-61.5 -70.5q-29 -20 -62 -30.5t-68 -10.5zM585 251q-15 0 -29 1t-28 6q-11 3 -16.5 11.5t-2.5 19.5t12 16t20 3q33 -9 65 -4.5t58.5 19.5t46.5 37t30 48q4 9 7 24.5t0 34t-16.5 38t-42.5 35.5q-34 18 -68.5 22t-66.5 -2t-61 -19.5
t-51 -31.5q-53 -43 -77.5 -99.5t-10.5 -107.5q3 -10 -2.5 -19t-15.5 -12q-11 -4 -20 1.5t-11 16.5q-9 33 -6.5 67.5t16 68.5t37 65.5t56.5 57.5q35 28 74 44.5t78.5 21t78.5 -3t75 -26.5q60 -32 80 -84t-4 -112q-11 -28 -31.5 -53t-47 -43.5t-59 -29.5t-67.5 -11z" />
    <glyph glyph-name="D" unicode="D" horiz-adv-x="705" 
d="M317 -174q-21 0 -41 1.5t-39 6.5q-47 11 -77.5 33t-47.5 49.5t-21.5 59t2.5 61.5q7 33 26 62.5t47 50t63 29.5t76 0q11 -3 17 -11t3 -19q-2 -11 -10.5 -17t-19.5 -4q-29 6 -54.5 -0.5t-45.5 -21t-33.5 -35.5t-18.5 -45q-5 -20 -2.5 -41.5t14.5 -41t34.5 -35t57.5 -23.5
q51 -11 98.5 -6.5t91 19t81 36t67.5 43.5q37 27 72 61t65.5 71.5t55 77.5t42.5 81q32 74 27.5 131.5t-46.5 94.5q-23 20 -55 30.5t-68 11t-73.5 -9t-71.5 -29.5q-36 -21 -59.5 -47.5t-36 -53t-14 -50t6.5 -38.5q5 -10 1.5 -19.5t-12.5 -14.5q-10 -6 -20.5 -3t-15.5 12
q-14 25 -12.5 59t17.5 70t45.5 70t73.5 59q43 24 88.5 36t89 11t82 -14.5t68.5 -40.5q54 -48 62 -122.5t-30 -164.5q-19 -43 -45.5 -86t-59 -83t-69 -76t-76.5 -66q-74 -54 -150 -81.5t-150 -27.5zM215 -72q-12 0 -20 8q-7 9 -6.5 19.5t8.5 18.5q30 24 71 71.5t85 105
t88 117.5t78.5 109.5t56 81.5t22.5 33q5 9 15.5 10.5t19.5 -3.5q10 -6 11.5 -16.5t-4.5 -19.5q-3 -4 -26 -38t-58 -84t-79 -110.5t-88 -118t-85.5 -105.5t-72.5 -73q-6 -6 -16 -6zM532 -30q-10 0 -15 4q-21 15 -38 31.5t-34 32.5q-20 21 -39 39q-8 6 -8.5 17t7.5 19
q6 7 17 8t19 -6l42 -41q14 -14 30 -29t33 -29q10 -7 11.5 -17t-4.5 -19q-8 -10 -21 -10z" />
    <glyph glyph-name="C" unicode="C" horiz-adv-x="483" 
d="M259 -200q-40 0 -82 18q-43 19 -68 58t-29 93q-5 68 21.5 151t74.5 164t111.5 153t134.5 117q78 50 150 57.5t133 -27.5q54 -29 69 -79t-11 -109q-15 -35 -42 -66t-61 -51t-73 -27t-77 6q-11 3 -15.5 13t-0.5 19q3 11 12 15.5t19 1.5q28 -9 57.5 -3t55 22t46.5 40t33 50
q5 12 8.5 28t1 32.5t-12.5 33t-33 30.5q-31 16 -62.5 19t-61.5 -3t-57 -18.5t-49 -26.5q-43 -28 -84.5 -67t-78 -85.5t-66.5 -97.5t-51 -101.5t-31 -98.5t-7 -89q3 -77 65 -108q25 -11 47 -12.5t40 2t31.5 11t22.5 14.5q29 22 45.5 54.5t11.5 59.5q-4 23 -29 33
q-7 2 -15.5 2t-14.5 -5q-11 -12 -6 -25q4 -16 23 -18q11 -2 17 -10.5t4 -19.5t-10.5 -17t-19.5 -5q-23 5 -39.5 18t-23.5 35q-7 20 -2 41t21 37q15 16 36.5 19.5t44.5 -4.5q26 -8 42.5 -27t21.5 -46q4 -20 0.5 -42.5t-13.5 -44t-26 -41t-35 -34.5q-51 -39 -113 -39z" />
    <glyph glyph-name="B" unicode="B" horiz-adv-x="686" 
d="M178 -72q-13 0 -21 8q-6 9 -5 19.5t10 18.5q29 24 68 69.5t81 99.5t83 110t73.5 102t52.5 75.5t21 30.5q5 10 15.5 11.5t18.5 -4.5q10 -5 12.5 -15.5t-5.5 -20.5q-3 -4 -24 -35.5t-53.5 -78t-73.5 -103t-83.5 -110.5t-83 -99.5t-71.5 -71.5q-4 -6 -15 -6zM644 193
q-64 0 -138 31q-10 5 -14 15t1 20t14.5 14t19.5 -1q57 -26 103.5 -27t82 9.5t59 27t33.5 25.5q35 35 49 76t0 75q-15 38 -61.5 57.5t-118.5 19.5q-66 0 -113 -15.5t-78.5 -36.5t-49.5 -42t-25 -32q-19 -32 -21 -59.5t5 -41.5q6 -10 3 -19.5t-12 -14.5q-10 -6 -20 -3t-15 12
q-17 30 -12.5 70t28.5 81q43 72 124.5 113t185.5 41q60 0 101 -11.5t67.5 -28.5t40 -36.5t19.5 -35.5q10 -24 10.5 -50.5t-7.5 -53.5t-24.5 -53.5t-40.5 -49.5q-33 -31 -83 -53.5t-113 -22.5zM342 -193q-35 0 -71.5 6.5t-74.5 22.5q-48 18 -79 47.5t-46 63.5t-15.5 70
t11.5 68q9 27 28 50t45.5 37t60.5 16t74 -13q11 -4 15.5 -13t-0.5 -19q-3 -11 -13 -15.5t-20 -0.5q-27 10 -50 9t-41.5 -10.5t-31.5 -25t-20 -33.5q-9 -23 -8.5 -49t12 -51t35 -46.5t61.5 -36.5q59 -23 113.5 -25t101.5 11t85 36.5t64 50.5q44 43 59.5 92.5t-1.5 92.5
q-5 9 -0.5 18t14.5 14q11 5 20 0.5t13 -14.5q23 -57 5 -120.5t-72 -118.5q-22 -22 -51 -42.5t-64 -36.5t-75.5 -25.5t-83.5 -9.5zM516 -65q-6 0 -10 3q-33 14 -62 38.5t-52 47.5q-10 9 -18 17t-15 12q-8 8 -9 18.5t5 19.5q7 8 17.5 9t18.5 -5q8 -7 17 -15.5t20 -19.5
q21 -20 46 -41.5t50 -32.5q11 -5 15.5 -14.5t-0.5 -19.5q-7 -17 -23 -17z" />
    <glyph glyph-name="Z" unicode="Z" horiz-adv-x="572" 
d="M148 -127q-43 0 -61.5 13t-24.5 29q-8 20 1.5 46.5t33.5 50.5q18 17 43 31t53 21.5t58 7t59 -13.5q9 -5 13 -14.5t-1 -19.5q-4 -9 -13.5 -13t-19.5 1q-21 9 -43 9t-42.5 -6t-39 -17t-31.5 -24q-16 -15 -20 -26t-3 -14q2 -3 9.5 -7t28.5 -4q59 0 119 36t120 92.5
t118.5 127t113.5 139.5q54 69 104.5 129.5t97 100t89 51.5t80.5 -16q31 -23 36.5 -56.5t-16.5 -65.5q-11 -16 -27 -27.5t-35.5 -16.5t-42 -2t-45.5 17q-8 5 -10.5 15.5t2.5 19.5q5 10 15.5 12.5t20.5 -3.5q26 -16 47.5 -9.5t31.5 23.5q2 3 5 8.5t3.5 12.5t-3 14.5
t-13.5 15.5q-22 17 -55 0t-72.5 -55.5t-83.5 -91t-89 -107.5q-58 -73 -119.5 -147t-126 -133t-131 -96.5t-134.5 -37.5zM372 427h-1q-11 2 -18 9.5t-6 18.5q2 51 21 86t53 55q39 22 87 21t93.5 -13t82.5 -29t55 -27q10 -5 13 -14.5t-2 -19.5q-5 -9 -15 -12t-20 2
q-32 16 -68.5 31t-73 23t-70 7.5t-57.5 -13.5q-21 -14 -34 -38t-15 -62q0 -10 -7.5 -17.5t-17.5 -7.5zM572 -84q-24 0 -43 1.5t-36.5 5t-35 9.5t-37.5 15q-10 4 -14 14.5t0 19.5q5 10 14.5 14t19.5 -1q18 -8 33 -12.5t30 -7.5t31.5 -4t37.5 -1q11 0 18.5 -8t7.5 -19
t-7.5 -18.5t-18.5 -7.5z" />
    <glyph glyph-name="Y" unicode="Y" horiz-adv-x="537" 
d="M229 -181q-38 0 -69.5 9.5t-54.5 26.5q-20 17 -32 39t-12 48q0 25 11.5 50.5t34.5 45t56 32t77 12.5q27 0 52.5 -6.5t47 -16.5t38.5 -21t28 -21q8 -8 8.5 -18t-7.5 -18t-18 -8.5t-19 7.5q-8 8 -22 16.5t-31 16t-37 12.5t-40 5q-30 0 -54 -7.5t-40.5 -20t-25 -28.5
t-8.5 -32q0 -26 25 -48q35 -24 92 -24q64 0 122 37t111.5 97t104 136.5t99.5 154.5q53 84 102.5 158t102.5 128q8 7 18 7t18 -7q8 -8 8 -18.5t-8 -17.5q-48 -52 -96.5 -124t-98.5 -153q-53 -83 -107 -163t-113 -144t-124 -103t-139 -39zM420 146q-28 0 -46 11t-29 24
q-21 26 -15.5 56.5t27.5 62.5t55 64.5t67 62.5q13 12 27.5 26t28 27.5t23.5 25.5t13 20q-6 1 -23.5 2t-55.5 -4q-11 -1 -18.5 5.5t-10.5 17.5q-1 10 5.5 18.5t17.5 9.5q63 7 93.5 1t41.5 -29q7 -15 2 -31.5t-19.5 -35.5t-37.5 -41t-52 -49q-22 -20 -48.5 -45.5t-47.5 -50.5
t-32 -46t-2 -33q12 -15 30.5 -17t40.5 5.5t48 22t53 31.5l5 2q8 5 18 2.5t18 -10.5q5 -9 2 -19.5t-12 -16.5l-5 -4q-25 -14 -54.5 -30.5t-59.5 -26.5q-14 -4 -25.5 -6t-22.5 -2z" />
    <glyph glyph-name="X" unicode="X" horiz-adv-x="676" 
d="M108 -186h-14t-12 1q-11 3 -16.5 11.5t-3.5 19.5t11 16.5t20 3.5q65 -13 226 98q75 54 158.5 122.5t173.5 145.5q58 49 116.5 98t116 94t112.5 84.5t106 69.5q8 6 19 3.5t16 -11.5q5 -10 2.5 -20.5t-11.5 -15.5q-50 -29 -104 -67.5t-110 -83t-114 -93.5t-115 -98
q-90 -76 -173 -144.5t-156.5 -120.5t-136 -82.5t-111.5 -30.5zM676 -84q-23 0 -36.5 8t-19.5 17q-32 36 -11 143q3 11 12 16.5t19 2.5q11 -2 16.5 -10.5t3.5 -19.5q-11 -53 -7.5 -73.5t7.5 -25.5q2 -2 4.5 -3.5t11.5 -1.5q11 0 18.5 -8t7.5 -19t-7.5 -18.5t-18.5 -7.5z
M709 330q-6 0 -9 1q-11 4 -15.5 13t0.5 18q11 35 8.5 67.5t-19.5 55.5q-30 42 -86 42q-26 0 -44.5 -6t-30.5 -15.5t-18 -21.5t-6 -23q-2 -20 9.5 -38t38.5 -22q11 -2 18 -10t6 -19q-2 -11 -11 -17.5t-20 -4.5q-44 6 -70 38t-24 75q2 22 12 42.5t28.5 36.5t46.5 26t65 10
q83 0 128 -62q24 -35 29.5 -80t-11.5 -90q-8 -16 -25 -16z" />
    <glyph glyph-name="W" unicode="W" horiz-adv-x="622" 
d="M138 -160q-26 0 -38 9.5t-18 19.5q-10 18 -5 44.5t23 62t48 81.5t69 104q36 56 72.5 111t60.5 105q16 33 24.5 56.5t11 38.5t1 24t-4.5 14q-9 13 -37.5 16t-73.5 -5q-11 -1 -19.5 4.5t-10.5 16.5q-1 11 4.5 20t16.5 12q65 11 104.5 1.5t59.5 -37.5q19 -31 11 -74.5
t-33.5 -96t-64 -112.5t-79.5 -123q-31 -45 -57 -85t-46 -75q-23 -43 -26.5 -59.5t-3.5 -19.5q1 0 3.5 -0.5t7.5 -0.5q22 0 56 19.5t75.5 56t89.5 89t100 117.5q49 61 91 121t74 111.5t53 91.5t27 62q4 11 13 16t19 1q11 -2 16 -11.5t2 -19.5q-8 -29 -31.5 -74t-58 -99
t-76.5 -113.5t-88 -117.5q-41 -51 -88.5 -105t-95.5 -97.5t-94 -71.5t-84 -28zM368 -160q-35 0 -50.5 13t-20.5 27q-5 10 -0.5 20t15.5 14q10 5 19.5 0t12.5 -15q2 -5 9 -6t15 -1q55 0 139.5 73t184.5 208q41 57 79 115.5t68 111t50.5 94.5t28.5 66q2 11 11 16t20 1
q10 -2 15 -11.5t3 -19.5q-8 -26 -29 -70t-51.5 -98t-70 -114.5t-84.5 -120.5q-38 -52 -83.5 -105.5t-93.5 -97.5t-96 -72t-91 -28z" />
    <glyph glyph-name="V" unicode="V" horiz-adv-x="441" 
d="M142 -160q-53 0 -69 33q-12 21 -6 50.5t26 68.5t51.5 88t72.5 108q36 53 70.5 105t59.5 98q16 30 24 51t10 35t0.5 22.5t-3.5 11.5q-8 12 -35.5 15t-71.5 -5q-11 -1 -19.5 4.5t-10.5 16.5q-1 11 5 20t17 12q63 9 102 1t56 -36q18 -29 10.5 -69.5t-32.5 -90t-62 -106
t-77 -115.5q-32 -47 -61.5 -90t-49.5 -81q-15 -25 -22 -42t-9 -27t-1 -14.5t2 -5.5q1 -6 23 -6q74 0 172 72.5t209 209.5q49 60 90.5 119.5t73 111.5t51.5 92.5t26 62.5q3 11 12.5 16t20.5 1q10 -2 15 -11.5t3 -19.5q-8 -27 -30.5 -71.5t-55.5 -99t-75 -115t-90 -118.5
q-42 -51 -93 -105t-106 -97.5t-112 -71.5t-111 -28z" />
    <glyph glyph-name="U" unicode="U" horiz-adv-x="508" 
d="M508 -84q-29 0 -48 13.5t-25 39.5q-7 28 5.5 69t35.5 87.5t54 95t62 91.5q30 42 65 86t68.5 82t63 66t48.5 38q10 6 20.5 3.5t15.5 -12.5t1.5 -20t-13.5 -15q-12 -7 -36 -29.5t-54.5 -56.5t-65.5 -78t-71 -94q-46 -65 -76 -115.5t-47.5 -87.5t-23 -61.5t-2.5 -36.5
q1 -4 5 -8t18 -4q11 0 18.5 -8t7.5 -19t-7.5 -18.5t-18.5 -7.5zM147 -160q-37 0 -60 23q-9 9 -17 25t-8 41.5t12 62.5t43 87q23 39 56.5 82t66.5 86q34 43 65.5 84.5t54.5 77.5q14 23 21.5 39t10.5 27.5t2 18t-2 9.5q-5 10 -22 14t-43 4q-11 0 -18 7.5t-7 18.5t7 19t18 8
q86 0 111 -48q12 -26 3.5 -59.5t-31.5 -73t-57 -84t-72 -93.5q-33 -42 -65.5 -84.5t-55.5 -79.5q-40 -66 -44.5 -103.5t7.5 -48.5q11 -11 36 -7t50 21q26 17 70.5 55t102.5 91q8 8 18 8t18 -9q8 -8 7.5 -18t-8.5 -18q-14 -13 -36 -33.5t-47.5 -42.5t-51 -42.5t-44.5 -32.5
q-23 -17 -46 -24.5t-45 -7.5z" />
    <glyph glyph-name="T" unicode="T" horiz-adv-x="611" 
d="M606 389q-48 0 -94 3.5t-84.5 11.5t-68 20.5t-45.5 29.5q-8 9 -7 19t9 18q8 6 19 5.5t19 -8.5q17 -19 70.5 -31t125.5 -15t152.5 2.5t150.5 21.5q72 14 104 32.5t37 33.5q2 7 0 12t-13 10q-14 6 -33.5 5.5t-40 -8t-39 -23t-28.5 -38.5q-6 -11 -15.5 -15t-18.5 1
q-10 6 -14 15.5t1 19.5q16 34 42.5 56t56 33t58.5 11.5t50 -7.5q29 -12 40.5 -36t3.5 -52q-22 -67 -179 -101q-54 -13 -122 -19.5t-137 -6.5zM235 -181q-42 0 -72.5 11.5t-50.5 31t-29.5 44t-9.5 50.5q0 30 12.5 59.5t36.5 52.5t58.5 37.5t78.5 14.5q63 0 106.5 -31.5
t55.5 -83.5q2 -10 -4 -19.5t-17 -11.5q-9 -2 -18 3.5t-12 15.5q-6 26 -21 40.5t-32.5 22t-33.5 9.5t-24 2q-32 0 -57 -10t-42 -25.5t-26.5 -35.5t-9.5 -40q0 -15 6 -30.5t19 -28t34 -20t52 -7.5q60 0 110.5 28.5t95 75.5t84.5 108.5t81 126.5q23 38 48 76.5t51 76.5
q7 9 17 11t19 -5q8 -5 10.5 -15t-3.5 -21q-26 -37 -51 -75t-48 -76q-43 -70 -86.5 -135t-92.5 -115.5t-106.5 -81t-128.5 -30.5zM611 -84h-65q-11 0 -18.5 7.5t-7.5 18.5t7.5 19t18.5 8h65q11 0 17.5 -8t6.5 -19t-6.5 -18.5t-17.5 -7.5z" />
    <glyph glyph-name="S" unicode="S" horiz-adv-x="614" 
d="M279 -190q-103 0 -159 53q-26 23 -39 53t-13 65q0 29 9.5 58t27.5 52t44 37t59 14q25 0 45.5 -5.5t38.5 -15t35.5 -22.5t35.5 -27q23 -17 49 -36.5t63 -40.5q9 -5 11 -15.5t-3 -20.5q-4 -8 -14 -10.5t-19 2.5q-40 22 -68 42.5t-51 37.5q-17 13 -31.5 24t-28.5 18.5
t-29 11.5t-34 4q-20 0 -36.5 -9.5t-28 -24.5t-17.5 -34.5t-6 -39.5q0 -23 9 -44t25 -37q41 -38 125 -38q88 0 153 31.5t94 89.5q26 51 16.5 109.5t-54.5 118.5q-48 63 -57.5 131t20.5 127q28 55 84.5 87t131.5 32q54 0 93 -22t57 -61q17 -40 7 -85.5t-42 -81.5
q-11 -11 -30.5 -25t-49 -23.5t-70 -10t-91.5 16.5q-9 5 -13.5 14.5t-2.5 19.5q4 11 14 15t20 1q57 -20 105.5 -12.5t77.5 40.5q24 24 31 54.5t-4 55.5q-11 26 -37.5 38.5t-64.5 12.5q-60 0 -104.5 -23t-66.5 -67q-23 -45 -14 -98.5t47 -104.5q52 -72 64 -146t-20 -137
q-36 -70 -113.5 -109.5t-180.5 -39.5z" />
    <glyph glyph-name="R" unicode="R" horiz-adv-x="935" 
d="M237 -181q-42 0 -72.5 11.5t-50.5 31t-29.5 44t-9.5 50.5q0 29 13 58.5t38 52.5q24 26 59 39.5t75 13.5q57 0 103.5 -22.5t75.5 -62.5q6 -9 4.5 -20t-10.5 -16q-8 -7 -18 -5t-18 11q-22 29 -57.5 45.5t-79.5 16.5q-31 0 -55.5 -10t-42 -25.5t-26.5 -35.5t-9 -40
q0 -15 6 -30.5t19 -28t34 -20t51 -7.5q49 0 99 25.5t97.5 65.5t89 89t73.5 96q16 24 46 67t66 93t73 100.5t68 91.5q7 9 18 10t18 -5q9 -7 11 -17.5t-5 -18.5q-32 -40 -69 -90.5t-72.5 -100t-65 -91.5t-45.5 -65q-36 -55 -82 -109t-98.5 -96.5t-109 -69t-112.5 -26.5z
M937 190q-69 0 -149 34q-10 5 -13.5 15t1.5 20t14.5 14t19.5 -1q78 -36 152 -28.5t124 56.5q36 33 48 74.5t-3 77.5q-16 41 -63.5 62t-120.5 21q-80 0 -137 -19t-95.5 -44t-60 -51t-29.5 -39q-21 -35 -26 -68.5t7 -55.5q5 -10 2.5 -20.5t-12.5 -15.5t-20 -1.5t-15 11.5
q-19 35 -13 82t34 94q25 42 62 75.5t84.5 56.5t102.5 35.5t116 12.5t102.5 -12.5t68.5 -30.5t41 -38.5t20 -36.5q21 -51 5.5 -107t-62.5 -101q-78 -72 -185 -72zM935 -84q-84 0 -117 43q-13 16 -17.5 35t-4 39.5t4.5 41t9 38.5q2 14 5.5 27t2.5 21q0 11 7 18.5t18 8.5
q11 0 19 -7t8 -18q1 -14 -2.5 -29t-7.5 -33q-3 -15 -6.5 -30.5t-4.5 -30.5t0.5 -27.5t8.5 -20.5q17 -23 77 -23q11 0 18.5 -8t7.5 -19t-7.5 -18.5t-18.5 -7.5z" />
    <glyph glyph-name="Q" unicode="Q" horiz-adv-x="650" 
d="M317 -181q-38 0 -59 12t-31 25q-40 46 -23 144q2 11 10.5 16.5t19.5 3.5q10 -1 16.5 -10t3.5 -20q-12 -71 12 -100q14 -20 51 -20q36 0 77.5 14.5t85.5 42.5t89.5 68t89.5 90q39 44 72 90.5t57 90t37.5 81.5t13.5 65q0 8 -2 17.5t-7 14.5q-10 10 -31 10q-11 0 -18.5 7.5
t-7.5 18.5t7.5 18t18.5 7q46 0 68 -25q11 -14 17.5 -30.5t6.5 -37.5q0 -33 -14 -75t-39.5 -89.5t-61 -98t-78.5 -99.5q-15 -17 -38 -41t-52.5 -49.5t-63.5 -51t-71 -45t-76.5 -32t-79.5 -12.5zM283 122q-7 0 -11 3q-10 5 -13.5 14.5t1.5 20.5q22 46 51 90.5t62.5 85.5
t69.5 77t74 65q94 73 184.5 94.5t173.5 -10.5q10 -4 14 -13.5t0 -20.5q-4 -9 -13 -13.5t-19 -0.5q-53 20 -107 14t-106.5 -31t-102 -65.5t-93.5 -89t-80 -101.5t-62 -104q-6 -15 -23 -15zM452 -66q-2 0 -3.5 0.5t-3.5 0.5q-36 11 -65 29t-56 37t-51.5 34.5t-51 21t-57 -1.5
t-68.5 -32q-8 -5 -19 -3t-16 10q-6 10 -3.5 20.5t10.5 15.5q49 32 90 39.5t75.5 0t64 -25.5t56.5 -37q25 -17 50.5 -32.5t54.5 -26.5q11 -2 16 -11.5t1 -20.5q-2 -8 -9 -13t-15 -5z" />
    <glyph glyph-name="P" unicode="P" horiz-adv-x="1013" 
d="M227 -181q-42 0 -72.5 11.5t-51 31t-30 44t-9.5 50.5q0 29 13 58.5t36 52.5q26 26 60.5 39.5t75.5 13.5q56 0 103 -22.5t76 -62.5q6 -9 4 -20t-10 -16q-9 -7 -19.5 -5t-16.5 11q-22 29 -57 45.5t-80 16.5q-32 0 -56.5 -10t-41.5 -25.5t-26 -35.5t-9 -40q0 -15 6 -30.5
t19 -28t34 -20t52 -7.5q49 0 99 25.5t97.5 65.5t89 89t73.5 96q15 24 45 67t65.5 93t73 100.5t69.5 91.5q7 9 17 10t19 -5q8 -7 10 -17.5t-6 -18.5q-31 -40 -68 -90.5t-72.5 -100t-65 -91.5t-44.5 -65q-36 -55 -82.5 -109t-98.5 -96.5t-108.5 -69t-112.5 -26.5zM899 128
q-38 0 -78 8.5t-84 29.5q-11 5 -14.5 14t1.5 19q5 9 14.5 13t18.5 -1q55 -25 105 -30t93 3.5t78.5 27.5t60.5 42q43 43 60 93.5t1 92.5q-20 48 -76 71.5t-144 23.5q-80 0 -136.5 -19t-94.5 -44t-59.5 -51t-29.5 -39q-21 -35 -26 -68.5t7 -55.5q5 -10 1.5 -20.5t-13.5 -15.5
q-8 -5 -18.5 -1.5t-15.5 11.5q-19 35 -14 82t33 94q52 85 148 132.5t218 47.5q70 0 118 -13.5t79 -33t47 -42t23 -39.5q11 -29 11.5 -60.5t-9 -63t-28.5 -62t-46 -57.5q-39 -37 -97.5 -63t-133.5 -26zM1013 -84h-462q-11 0 -18.5 7.5t-7.5 18.5t7.5 19t18.5 8h462
q11 0 18.5 -8t7.5 -19t-7.5 -18.5t-18.5 -7.5z" />
    <glyph glyph-name="O" unicode="O" horiz-adv-x="528" 
d="M181 -181q-38 0 -65.5 16.5t-40.5 48.5q-19 44 -7.5 108.5t43.5 135.5t80 142t103 128q51 54 104 92.5t104 61.5q128 52 237 10q10 -4 14.5 -13.5t-0.5 -20.5q-2 -9 -11.5 -13.5t-20.5 -0.5q-86 32 -187.5 -7t-201.5 -145q-61 -62 -106 -130.5t-72.5 -131.5t-35.5 -114.5
t5 -81.5q4 -11 16 -22.5t42 -11.5q36 0 77.5 14.5t85.5 42.5t90 68t90 90q39 44 72 90.5t56.5 90t37 81.5t13.5 65q0 8 -1.5 17.5t-7.5 14.5q-9 10 -31 10q-11 0 -18.5 7.5t-7.5 18.5t7.5 18t18.5 7q45 0 69 -25q22 -26 22 -68q0 -33 -13.5 -75t-38.5 -89.5t-60 -98
t-78 -99.5q-16 -17 -39 -41t-52.5 -49.5t-63.5 -51t-71 -45t-77 -32t-80 -12.5z" />
    <glyph glyph-name="slash" unicode="/" horiz-adv-x="287" 
d="M60 10q-3 2 -6 3.5t-6 4.5q-7 8 -6 18.5t9 18.5l382 324q9 7 19.5 6t17.5 -9q8 -9 7 -19.5t-10 -18.5l-381 -323q-10 -10 -26 -5z" />
    <glyph glyph-name="acute" unicode="&#xb4;" horiz-adv-x="329" 
d="M57 422q-17 0 -24 15q-5 10 -1.5 20t13.5 15l201 100q10 5 20 1.5t15 -13.5t2 -20.5t-14 -15.5l-201 -99q-5 -3 -11 -3z" />
    <glyph glyph-name="grave" unicode="`" horiz-adv-x="329" 
d="M261 427q-7 0 -11 2l-205 90q-10 5 -14.5 15t0.5 20t15 14t20 0l206 -91q10 -5 14 -14.5t-1 -20.5q-3 -8 -9.5 -11.5t-14.5 -3.5z" />
    <glyph glyph-name="tilde" unicode="&#x2dc;" horiz-adv-x="369" 
d="M228 431h-4q-21 1 -38 17q-16 16 -26 42q-5 12 -9.5 17t-7.5 5q-1 0 -11 -3.5t-30 -26.5q-13 -17 -20 -26l-8 -12q-5 -10 -16 -12.5t-20 3.5q-10 5 -12.5 15.5t3.5 20.5q0 1 9.5 15t23.5 31q45 51 85 48q14 -1 31.5 -12t30.5 -44q6 -15 11.5 -20t7.5 -5q2 -1 10 3.5
t20 18.5q9 10 16 21q4 5 6 10q6 10 16.5 12.5t19.5 -2.5q10 -5 13 -15.5t-3 -20.5q0 -1 -7.5 -13t-19.5 -26q-36 -41 -71 -41z" />
    <glyph glyph-name="dieresis" unicode="&#xa8;" horiz-adv-x="287" 
d="M70 448q-6 0 -14 4q-10 6 -12.5 16.5t3.5 20.5l29 49q6 9 16.5 11.5t20.5 -2.5q9 -6 11.5 -16.5t-2.5 -20.5l-30 -49q-8 -13 -22 -13zM187 448q-5 0 -13 4q-10 6 -12.5 16.5t3.5 20.5l29 49q6 9 16.5 11.5t19.5 -2.5q10 -6 12.5 -16.5t-3.5 -20.5l-29 -49q-8 -13 -23 -13
z" />
    <glyph glyph-name="exclam" unicode="!" horiz-adv-x="170" 
d="M176 8q-7 0 -13 3q-10 6 -12.5 16.5t3.5 20.5l29 49q6 9 16.5 11.5t20.5 -2.5q9 -6 11.5 -16.5t-2.5 -19.5l-30 -50q-8 -12 -23 -12zM266 188q-7 0 -13 3q-10 5 -12.5 15.5t2.5 20.5l187 334q5 10 15.5 12.5t20.5 -2.5t12.5 -15.5t-2.5 -20.5l-187 -334q-8 -13 -23 -13z
" />
    <glyph glyph-name="question" unicode="?" horiz-adv-x="292" 
d="M297 173q-9 0 -16 6q-8 6 -10 17t5 20q21 29 48 58.5t55 58.5q26 29 50 55t42 49q23 30 28 45.5t4 20.5q-1 2 -2 5t-7 7q-17 10 -36 5.5t-34 -12.5q-38 -20 -71 -59q-16 -18 -22.5 -31.5t-6.5 -18.5q-1 -11 -9 -19t-19 -7t-18.5 9t-6.5 19q1 23 15.5 46t26.5 37
q19 22 41 40.5t45 30.5q30 16 60 19q35 3 63 -14q18 -11 24.5 -25t8.5 -25q3 -22 -7 -46t-29.5 -51t-45.5 -56t-55 -60q-27 -29 -53 -57.5t-46 -55.5q-9 -11 -22 -11zM215 8q-8 0 -14 3q-10 6 -12.5 16.5t3.5 20.5l30 49q5 9 15.5 11.5t20.5 -2.5q9 -6 12 -16.5t-3 -19.5
l-30 -50q-8 -12 -22 -12z" />
    <glyph glyph-name="comma" unicode="," horiz-adv-x="232" 
d="M114 -88q-7 0 -14 3q-9 6 -11.5 16.5t2.5 20.5l81 135q6 9 16.5 11.5t20.5 -2.5q9 -6 11.5 -16.5t-2.5 -20.5l-81 -135q-8 -12 -23 -12z" />
    <glyph glyph-name="period" unicode="." horiz-adv-x="149" 
d="M176 8q-7 0 -13 3q-10 6 -12.5 16.5t3.5 20.5l29 49q6 9 16.5 11.5t20.5 -2.5q9 -6 11.5 -16.5t-2.5 -19.5l-30 -50q-8 -12 -23 -12z" />
    <glyph glyph-name="underscore" unicode="_" horiz-adv-x="265" 
d="M265 -84h-265q-11 0 -19 7.5t-8 18.5t8 19t19 8h265q11 0 18.5 -8t7.5 -19t-7.5 -18.5t-18.5 -7.5z" />
    <glyph glyph-name="braceright" unicode="}" horiz-adv-x="269" 
d="M190 -1q-11 0 -19 8t-8 19t8 18.5t19 7.5q27 0 38 20.5t22 65.5q5 21 10.5 41.5t16.5 37.5q9 15 21 24q-5 14 -2 26t5 17q4 11 9.5 21t10.5 21q5 9 9.5 17.5t7.5 16.5q4 9 4 14q-2 1 -6.5 2t-13.5 1q-11 0 -18.5 7.5t-7.5 18.5t7.5 19t18.5 8q4 0 12.5 -0.5t18.5 -3
t19.5 -8.5t15.5 -16q10 -17 6.5 -33t-5.5 -23q-4 -11 -9.5 -22.5t-11.5 -22.5l-15 -30l-4 -9q2 0 4 -0.5t4 -0.5q11 0 18.5 -7.5t7.5 -18.5t-7.5 -19t-18.5 -8q-24 0 -34.5 -19t-20.5 -63q-5 -21 -11.5 -42t-17.5 -39q-28 -46 -83 -46z" />
    <glyph glyph-name="braceleft" unicode="{" horiz-adv-x="246" 
d="M237 -1q-39 0 -55 25q-14 24 -1 55.5t32 65.5q7 11 13 22.5t11 22.5l7 18h-6q-11 0 -18.5 8t-7.5 19t7.5 18.5t18.5 7.5q24 0 32.5 13t17.5 47q5 17 11.5 35.5t18.5 34.5q31 39 90 39q11 0 19 -8t8 -19t-8 -18.5t-19 -7.5q-36 0 -47.5 -17.5t-20.5 -52.5q-5 -17 -10 -33
t-16 -30q-4 -6 -9 -10.5t-10 -8.5q4 -14 1 -26.5t-8 -23.5q-5 -14 -12.5 -28t-15.5 -28q-7 -12 -13.5 -23.5t-11.5 -22.5q-6 -17 -6 -20q1 -1 8 -1q11 0 18.5 -7.5t7.5 -18.5t-7.5 -19t-18.5 -8z" />
    <glyph glyph-name="parenleft" unicode="(" horiz-adv-x="273" 
d="M270 -1q-17 0 -24 15q-9 18 -10.5 43.5t2.5 53.5t11.5 56.5t16.5 52.5q24 65 61 117q43 61 94 89q10 5 20.5 2.5t15.5 -12.5t2.5 -20.5t-12.5 -15.5q-40 -23 -74.5 -69.5t-57.5 -109.5q-10 -28 -16 -53.5t-8.5 -47.5t-1.5 -38t5 -25q5 -10 1.5 -20t-13.5 -15
q-6 -3 -12 -3z" />
    <glyph glyph-name="parenright" unicode=")" horiz-adv-x="273" 
d="M186 -1q-15 0 -23 13q-5 10 -2 20.5t12 16.5q40 23 74.5 69t57.5 109q21 56 25.5 101.5t-3.5 62.5q-5 11 -1.5 21t13.5 15t20 1.5t15 -13.5q9 -18 10.5 -43.5t-2 -53.5t-11 -56.5t-16.5 -52.5q-12 -32 -27.5 -62t-33.5 -55q-42 -60 -95 -90q-6 -3 -13 -3z" />
    <glyph glyph-name="backslash" unicode="\" horiz-adv-x="363" 
d="M422 -22l-4 -6t-6 -5q-8 -6 -18.5 -4t-17.5 11l-278 417q-5 10 -3 20.5t11 15.5q10 7 20 5t17 -12l277 -416q9 -12 2 -26z" />
    <glyph glyph-name="bracketright" unicode="]" horiz-adv-x="273" 
d="M254 -1h-88q-11 0 -18.5 8t-7.5 19t7.5 18.5t18.5 7.5h70l120 325h-66q-11 0 -18.5 7.5t-7.5 18.5t7.5 19t18.5 8h104q13 0 22 -12q8 -11 3 -24l-140 -378q-7 -17 -25 -17z" />
    <glyph glyph-name="bracketleft" unicode="[" horiz-adv-x="267" 
d="M331 -1h-104q-13 0 -21 11q-8 13 -4 25l140 377q7 18 25 18h88q11 0 19 -8t8 -19t-8 -18.5t-19 -7.5h-69l-121 -325h66q11 0 19 -7.5t8 -18.5t-8 -19t-19 -8z" />
    <glyph glyph-name="hyphen" unicode="-" horiz-adv-x="213" 
d="M200 225l-2 6t-2 8q1 11 8.5 18.5t18.5 7.5l124 4q11 -1 18.5 -8.5t7.5 -18.5t-7.5 -19t-19.5 -8l-123 -3q-7 -1 -13 3t-10 10zM213 -84h-213q-11 0 -18.5 7.5t-7.5 18.5t7.5 19t18.5 8h213q11 0 18.5 -8t7.5 -19t-7.5 -18.5t-18.5 -7.5z" />
    <glyph glyph-name="endash" unicode="&#x2013;" horiz-adv-x="314" 
d="M200 225l-2 6t-2 8q1 11 8.5 18.5t18.5 7.5l226 4q11 -1 18.5 -8.5t7.5 -18.5t-7.5 -19t-19.5 -8l-225 -3q-7 -1 -13 3t-10 10z" />
    <glyph glyph-name="emdash" unicode="&#x2014;" horiz-adv-x="444" 
d="M200 225l-2 6t-2 8q1 11 8.5 18.5t18.5 7.5l376 4q11 -1 18.5 -8.5t7.5 -18.5t-7.5 -19t-19.5 -8l-375 -3q-7 -1 -13 3t-10 10z" />
    <glyph glyph-name="plus" unicode="+" horiz-adv-x="410" 
d="M222 117q-3 1 -6 0.5t-8 0.5q-10 4 -15 13t-2 20l18 62l-64 -1q-7 -1 -13 3t-10 10l-2 6t-2 8q1 11 8.5 18.5t18.5 7.5l81 1l24 80q4 11 13 15.5t20 0.5q11 -3 16.5 -12.5t1.5 -20.5l-19 -62l66 2q11 -1 18.5 -8.5t7.5 -18.5t-7.5 -19t-19.5 -8l-81 -1l-24 -79
q-3 -13 -20 -18z" />
    <glyph glyph-name="equal" unicode="=" horiz-adv-x="392" 
d="M247 280l-2 6t-2 8q1 11 8.5 18.5t18.5 7.5l231 4q11 -1 18.5 -8.5t7.5 -18.5t-7.5 -19t-19.5 -8l-230 -3q-7 -1 -13 3t-10 10zM189 178l-2 6t-2 8q1 11 8.5 18.5t18.5 7.5l231 4q11 -1 18.5 -8.5t7.5 -18.5t-7.5 -19t-19.5 -8l-230 -3q-7 -1 -13 3t-10 10z" />
    <glyph glyph-name="dollar" unicode="$" horiz-adv-x="614" 
d="M279 -190q-103 0 -159 53q-26 23 -39 53t-13 65q0 29 9.5 58t27.5 52t44 37t59 14q25 0 45.5 -5.5t38.5 -15t35.5 -22.5t35.5 -27q23 -17 49 -36.5t63 -40.5q9 -5 11 -15.5t-3 -20.5q-4 -8 -14 -10.5t-19 2.5q-40 22 -68 42.5t-51 37.5q-17 13 -31.5 24t-28.5 18.5
t-29 11.5t-34 4q-20 0 -36.5 -9.5t-28 -24.5t-17.5 -34.5t-6 -39.5q0 -23 9 -44t25 -37q41 -38 125 -38q88 0 153 31.5t94 89.5q26 51 16.5 109.5t-54.5 118.5q-48 63 -57.5 131t20.5 127q28 55 84.5 87t131.5 32q54 0 93 -22t57 -61q17 -40 7 -85.5t-42 -81.5
q-11 -11 -30.5 -25t-49 -23.5t-70 -10t-91.5 16.5q-9 5 -13.5 14.5t-2.5 19.5q4 11 14 15t20 1q57 -20 105.5 -12.5t77.5 40.5q24 24 31 54.5t-4 55.5q-11 26 -37.5 38.5t-64.5 12.5q-60 0 -104.5 -23t-66.5 -67q-23 -45 -14 -98.5t47 -104.5q52 -72 64 -146t-20 -137
q-36 -70 -113.5 -109.5t-180.5 -39.5zM754 593q-3 2 -6.5 2.5t-7.5 2.5q-8 6 -9.5 17t5.5 20l40 50q8 8 18.5 10t18.5 -5q10 -7 11.5 -17.5t-6.5 -20.5l-40 -48q-7 -13 -24 -11zM839 552q-3 2 -6.5 2.5t-7.5 2.5q-8 6 -9.5 17t5.5 20l40 50q8 8 18.5 10t18.5 -5
q10 -7 11.5 -17.5t-6.5 -20.5l-40 -48q-7 -13 -24 -11zM38 -263q-3 2 -6.5 2.5t-7.5 2.5q-8 6 -9.5 17t5.5 20l40 50q8 8 18.5 10t18.5 -5q10 -7 11.5 -17.5t-6.5 -20.5l-40 -48q-7 -13 -24 -11zM123 -304q-3 2 -6.5 2.5t-7.5 2.5q-8 6 -9.5 17t5.5 20l40 50q8 8 18.5 10
t18.5 -5q10 -7 11.5 -17.5t-6.5 -20.5l-40 -48q-7 -13 -24 -11z" />
    <glyph glyph-name="bar" unicode="|" horiz-adv-x="455" 
d="M136 -163q-3 0 -6.5 -0.5t-7.5 1.5q-10 4 -14.5 13.5t-0.5 20.5l292 739q5 10 14.5 14.5t19.5 0.5q11 -4 16 -14t0 -21l-292 -737q-5 -15 -21 -17z" />
    <glyph glyph-name="ampersand" unicode="&#x26;" horiz-adv-x="768" 
d="M352 -197q-29 0 -57 5.5t-56 18.5q-33 16 -56.5 42t-35.5 59t-12 71.5t14 79.5q14 43 40.5 78t63.5 58q42 26 90 33t102 -4q10 -3 15.5 -11t2.5 -19q-2 -11 -11 -17t-19 -4q-46 11 -84.5 4t-68.5 -26t-51 -47.5t-32 -61.5q-9 -26 -10.5 -53.5t5.5 -53t23.5 -46.5
t44.5 -34q52 -24 101.5 -21t90.5 32q29 21 44 49.5t13 52.5q-1 16 7.5 25t18 10t18 -6.5t7.5 -22.5q5 -39 -16.5 -79.5t-61.5 -70.5q-29 -20 -62 -30.5t-68 -10.5zM646 251q-15 0 -29 1t-28 6q-11 3 -16.5 11.5t-2.5 19.5t12 16t20 3q33 -9 65 -4.5t58.5 19.5t46.5 37t30 48
q4 9 7 24.5t0 34t-16.5 38t-42.5 35.5q-34 18 -68.5 22t-66.5 -2t-61 -19.5t-51 -31.5q-53 -43 -77.5 -99.5t-10.5 -107.5q3 -10 -2.5 -19t-15.5 -12q-11 -4 -20 1.5t-11 16.5q-9 33 -6.5 67.5t16 68.5t37 65.5t56.5 57.5q35 28 74 44.5t78.5 21t78.5 -3t75 -26.5
q60 -32 80 -84t-4 -112q-11 -28 -31.5 -53t-47 -43.5t-59 -29.5t-67.5 -11zM680 52h-244q-11 0 -18.5 7t-7.5 18t7.5 18.5t18.5 7.5h244q11 0 18 -7.5t7 -18.5t-7 -18t-18 -7z" />
    <glyph glyph-name="quotesingle" unicode="'" horiz-adv-x="6" 
d="M256 352q-7 0 -14 3q-9 6 -11.5 16.5t2.5 20.5l81 135q6 9 16.5 11.5t20.5 -2.5q9 -6 11.5 -16.5t-2.5 -20.5l-81 -135q-8 -12 -23 -12z" />
    <glyph glyph-name="asterisk" unicode="*" horiz-adv-x="315" 
d="M226 345q-7 0 -14 3q-9 6 -11.5 16.5t2.5 20.5l120 200q6 9 16.5 11.5t20.5 -2.5q9 -6 11.5 -16.5t-2.5 -20.5l-120 -200q-8 -12 -23 -12zM271 523q-5 -8 -9 -11q-10 -6 -20.5 -3.5t-16.5 11.5l-23 35q-6 10 -3.5 20.5t11.5 17.5q9 5 19.5 2.5t17.5 -11.5l23 -35
q8 -12 1 -26zM387 374q-5 -8 -9 -11q-10 -6 -20.5 -3.5t-16.5 11.5l-23 35q-6 10 -3.5 20.5t11.5 17.5q9 5 19.5 2.5t17.5 -11.5l23 -35q8 -12 1 -26zM190 462q8 -5 11 -9q6 -10 3 -20.5t-12 -16.5l-35 -22q-11 -6 -21 -3t-17 12q-5 9 -2 19.5t12 17.5l35 22q13 7 26 0z
M450 571q8 -5 11 -9q6 -10 3 -20.5t-12 -16.5l-35 -22q-11 -6 -21 -3t-17 12q-5 9 -2 19.5t12 17.5l35 22q13 7 26 0z" />
    <glyph glyph-name="percent" unicode="%" horiz-adv-x="686" 
d="M347 236q-21 0 -40 8t-33.5 22.5t-22.5 33.5t-8 41t8 41t22.5 33t33.5 22t40 8q22 0 41 -8t33 -22t22.5 -33t8.5 -41q0 -11 -8 -19t-19 -8t-18.5 8t-7.5 19q0 21 -15 36t-37 15q-21 0 -36 -15t-15 -36t15 -36.5t36 -15.5q15 0 29 9q9 6 20 4t17 -11t4 -19.5t-11 -17.5
q-13 -8 -28 -13t-31 -5zM412 -125q-21 0 -40 8t-33.5 22.5t-22.5 33.5t-8 41t8 41t22.5 33t33.5 22t40 8q22 0 41 -8t33 -22t22.5 -33t8.5 -41q0 -11 -8 -19t-19 -8t-18.5 8t-7.5 19q0 21 -15 36t-37 15q-21 0 -36 -15t-15 -36t15 -36.5t36 -15.5q15 0 29 9q9 6 20 4t17 -11
t4 -19.5t-11 -17.5q-13 -8 -28 -13t-31 -5zM169 -23q-3 2 -6 3.5t-6 4.5q-7 8 -6 18.5t9 18.5l382 324q9 7 19.5 6t17.5 -9q8 -9 7 -19.5t-10 -18.5l-381 -323q-10 -10 -26 -5z" />
    <glyph glyph-name="numbersign" unicode="#" horiz-adv-x="346" 
d="M298 55q-3 0 -6.5 -0.5t-7.5 1.5q-10 4 -14.5 13.5t-0.5 20.5l36 74h-51l-44 -92q-5 -15 -21 -17q-3 0 -6.5 -0.5t-7.5 1.5q-10 4 -14.5 13.5t-0.5 20.5l35 73h-26q-7 -1 -13 3t-10 10l-2 6t-2 8q1 11 8.5 18.5t18.5 7.5l51 1l54 111h-9q-7 -1 -13 3t-10 10l-2 6t-2 8
q1 11 8.5 18.5t18.5 7.5h34l34 70q5 10 14.5 14.5t19.5 0.5q11 -4 16 -14t0 -21l-24 -49l50 1l33 68q5 10 14.5 14.5t19.5 0.5q11 -4 16 -14t0 -21l-23 -47l27 1q11 -1 18.5 -8.5t7.5 -18.5t-7.5 -19t-19.5 -8l-52 -1l-53 -110h10q11 -1 18.5 -8.5t7.5 -18.5t-7.5 -19
t-19.5 -8l-35 -1l-45 -93q-5 -15 -21 -17zM280 218l51 1l53 110h-50z" />
    <glyph glyph-name="quotedbl" unicode="&#x22;" horiz-adv-x="256" 
d="M346 352q-7 0 -14 3q-9 6 -11.5 16.5t2.5 20.5l81 135q6 9 16.5 11.5t20.5 -2.5q9 -6 11.5 -16.5t-2.5 -20.5l-81 -135q-8 -12 -23 -12zM446 352q-7 0 -14 3q-9 6 -11.5 16.5t2.5 20.5l81 135q6 9 16.5 11.5t20.5 -2.5q9 -6 11.5 -16.5t-2.5 -20.5l-81 -135
q-8 -12 -23 -12z" />
    <glyph glyph-name="quotedblleft" unicode="&#x201c;" horiz-adv-x="256" 
d="M346 352q-7 0 -14 3q-9 6 -11.5 16.5t2.5 20.5l81 135q6 9 16.5 11.5t20.5 -2.5q9 -6 11.5 -16.5t-2.5 -20.5l-81 -135q-8 -12 -23 -12zM446 352q-7 0 -14 3q-9 6 -11.5 16.5t2.5 20.5l81 135q6 9 16.5 11.5t20.5 -2.5q9 -6 11.5 -16.5t-2.5 -20.5l-81 -135
q-8 -12 -23 -12z" />
    <glyph glyph-name="quotedblright" unicode="&#x201d;" horiz-adv-x="256" 
d="M346 352q-7 0 -14 3q-9 6 -11.5 16.5t2.5 20.5l81 135q6 9 16.5 11.5t20.5 -2.5q9 -6 11.5 -16.5t-2.5 -20.5l-81 -135q-8 -12 -23 -12zM446 352q-7 0 -14 3q-9 6 -11.5 16.5t2.5 20.5l81 135q6 9 16.5 11.5t20.5 -2.5q9 -6 11.5 -16.5t-2.5 -20.5l-81 -135
q-8 -12 -23 -12z" />
    <glyph glyph-name="quoteleft" unicode="&#x2018;" horiz-adv-x="256" 
d="M397 352q-7 0 -14 3q-9 6 -11.5 16.5t2.5 20.5l81 135q6 9 16.5 11.5t20.5 -2.5q9 -6 11.5 -16.5t-2.5 -20.5l-81 -135q-8 -12 -23 -12z" />
    <glyph glyph-name="quoteright" unicode="&#x2019;" horiz-adv-x="256" 
d="M397 352q-7 0 -14 3q-9 6 -11.5 16.5t2.5 20.5l81 135q6 9 16.5 11.5t20.5 -2.5q9 -6 11.5 -16.5t-2.5 -20.5l-81 -135q-8 -12 -23 -12z" />
    <glyph glyph-name="cedilla" unicode="&#xb8;" horiz-adv-x="346" 
d="M145 -106q17 9 29 2t13 -21q10 -1 19 -2.5t19 -6.5q14 -7 24 -22t13 -31.5t-3 -32.5t-22 -24q-18 -9 -37.5 -12.5t-39.5 -4t-40.5 1t-40.5 2.5q-11 4 -16.5 12.5t-4.5 17t7.5 15.5t18.5 9q27 -2 56.5 -4.5t55.5 4.5q16 4 15 8.5t-9 8.5t-19 6.5t-15 2.5h-10.5t-10.5 1
q-8 3 -11.5 5.5t-8.5 9.5q-7 17 -1 31t19 24z" />
    <glyph glyph-name="Zcaron" unicode="&#x17d;" horiz-adv-x="572" 
d="M148 -127q-43 0 -61.5 13t-24.5 29q-8 20 1.5 46.5t33.5 50.5q18 17 43 31t53 21.5t58 7t59 -13.5q9 -5 13 -14.5t-1 -19.5q-4 -9 -13.5 -13t-19.5 1q-21 9 -43 9t-42.5 -6t-39 -17t-31.5 -24q-16 -15 -20 -26t-3 -14q2 -3 9.5 -7t28.5 -4q59 0 119 36t120 92.5
t118.5 127t113.5 139.5q54 69 104.5 129.5t97 100t89 51.5t80.5 -16q31 -23 36.5 -56.5t-16.5 -65.5q-11 -16 -27 -27.5t-35.5 -16.5t-42 -2t-45.5 17q-8 5 -10.5 15.5t2.5 19.5q5 10 15.5 12.5t20.5 -3.5q26 -16 47.5 -9.5t31.5 23.5q2 3 5 8.5t3.5 12.5t-3 14.5
t-13.5 15.5q-22 17 -55 0t-72.5 -55.5t-83.5 -91t-89 -107.5q-58 -73 -119.5 -147t-126 -133t-131 -96.5t-134.5 -37.5zM372 427h-1q-11 2 -18 9.5t-6 18.5q2 51 21 86t53 55q39 22 87 21t93.5 -13t82.5 -29t55 -27q10 -5 13 -14.5t-2 -19.5q-5 -9 -15 -12t-20 2
q-32 16 -68.5 31t-73 23t-70 7.5t-57.5 -13.5q-21 -14 -34 -38t-15 -62q0 -10 -7.5 -17.5t-17.5 -7.5zM733 617q-24 0 -40 18q-21 21 -24 69q-1 8 -1 15.5v12.5v12q2 11 10 18.5t19 6.5t18 -9.5t6 -19.5v-11v-12t1 -14q2 -20 6 -26t5 -7q1 0 18.5 6t61.5 38q12 9 22.5 17.5
t18.5 15.5q10 8 18 15q8 8 19 7t19 -9q7 -8 6.5 -19t-8.5 -19q-2 -1 -20 -16t-44 -34q-25 -18 -43 -29t-31 -17t-22 -7.5t-15 -1.5zM572 -84q-24 0 -43 1.5t-36.5 5t-35 9.5t-37.5 15q-10 4 -14 14.5t0 19.5q5 10 14.5 14t19.5 -1q18 -8 33 -12.5t30 -7.5t31.5 -4t37.5 -1
q11 0 18.5 -8t7.5 -19t-7.5 -18.5t-18.5 -7.5z" />
    <glyph glyph-name="zcaron" unicode="&#x17e;" horiz-adv-x="370" 
d="M370 -84h-370q-11 0 -18.5 7.5t-7.5 18.5t7.5 19t18.5 8h370q10 0 18 -8t8 -19t-8 -18.5t-18 -7.5zM416 431q-24 0 -40 18q-21 21 -24 69q-1 8 -1 15.5v12.5v12q2 11 10 18.5t19 6.5t18 -9.5t6 -19.5v-11v-12t1 -14q2 -20 6 -26t5 -7q1 0 18.5 6t61.5 38q12 9 22.5 17.5
t18.5 15.5q10 8 18 15q8 8 19 7t19 -9q7 -8 6.5 -19t-8.5 -19q-2 -1 -20 -16t-44 -34q-25 -18 -43 -29t-31 -17t-22 -7.5t-15 -1.5zM132 16q-11 0 -19 8t-7 19t9 17l234 205q8 8 19 7.5t17 -8.5q8 -9 7.5 -19.5t-8.5 -18.5l-235 -204q-6 -6 -17 -6zM310 12h-15
q-32 4 -43.5 12.5t-15.5 12.5q-9 8 -7.5 18.5t8.5 17.5t18 8.5t22 -7.5q5 -4 11.5 -7t21.5 -3q23 0 62 15.5t101 66.5q8 8 19 7t17 -9q8 -9 7.5 -19.5t-9.5 -16.5q-57 -49 -106 -72.5t-91 -23.5zM334 281q-16 0 -29 3.5t-24 8.5q-20 11 -28 28.5t-3 39.5q4 11 12.5 16.5
t19.5 2.5q10 -2 15.5 -11.5t2.5 -18.5q-1 -8 5 -12q9 -5 26.5 -5t37.5 4.5t39.5 13t32.5 22.5q7 8 17.5 8.5t18.5 -7.5q8 -7 8 -17.5t-7 -18.5q-12 -13 -28.5 -23.5t-36 -18t-40 -11.5t-39.5 -4z" />
    <glyph glyph-name="colon" unicode=":" horiz-adv-x="196" 
d="M176 8q-7 0 -13 3q-10 6 -12.5 16.5t3.5 20.5l29 49q6 9 16.5 11.5t20.5 -2.5q9 -6 11.5 -16.5t-2.5 -19.5l-30 -50q-8 -12 -23 -12zM325 281q-7 0 -13 3q-10 6 -12.5 16.5t3.5 20.5l29 49q6 9 16.5 11.5t20.5 -2.5q9 -6 11.5 -16.5t-2.5 -19.5l-30 -50q-8 -12 -23 -12z
" />
    <glyph glyph-name="semicolon" unicode=";" horiz-adv-x="196" 
d="M325 281q-7 0 -13 3q-10 6 -12.5 16.5t3.5 20.5l29 49q6 9 16.5 11.5t20.5 -2.5q9 -6 11.5 -16.5t-2.5 -19.5l-30 -50q-8 -12 -23 -12zM114 -88q-7 0 -14 3q-9 6 -11.5 16.5t2.5 20.5l81 135q6 9 16.5 11.5t20.5 -2.5q9 -6 11.5 -16.5t-2.5 -20.5l-81 -135
q-8 -12 -23 -12z" />
    <glyph glyph-name="circumflex" unicode="&#x2c6;" horiz-adv-x="340" 
d="M232 586q23 0 40 -18q21 -21 24 -69q1 -8 1 -15.5v-12.5v-12q-2 -11 -10 -18.5t-19 -6.5t-18 9.5t-6 19.5v11v11.5t-1 14.5q-2 20 -6 26t-5 7q-1 0 -5 -1t-13.5 -5t-24.5 -13t-37 -25q-12 -9 -23 -17.5t-19 -15.5q-10 -8 -17 -15q-8 -8 -19 -7t-19 9q-7 8 -6.5 19t8.5 19
q2 1 20 16t44 34q49 37 74 46t37 9z" />
    <glyph glyph-name="asciicircum" unicode="^" horiz-adv-x="340" 
d="M359 481q23 0 40 -18q21 -21 24 -69q1 -8 1 -15.5v-12.5v-12q-2 -11 -10 -18.5t-19 -6.5t-18 9.5t-6 19.5v11v11.5t-1 14.5q-2 20 -6 26t-5 7q-1 0 -5 -1t-13.5 -5t-24.5 -13t-37 -25q-12 -9 -23 -17.5t-19 -15.5q-10 -8 -17 -15q-8 -8 -19 -7t-19 9q-7 8 -6.5 19t8.5 19
q2 1 20 16t44 34q49 37 74 46t37 9z" />
    <glyph glyph-name="asciitilde" unicode="~" horiz-adv-x="322" 
d="M381 135h-4q-21 1 -38 17q-16 16 -26 42q-5 12 -9.5 17t-7.5 5q-1 0 -11 -3.5t-30 -26.5q-13 -17 -20 -26l-8 -12q-5 -10 -16 -12.5t-20 3.5q-10 5 -12.5 15.5t3.5 20.5q0 1 9.5 15t23.5 31q45 51 85 48q14 -1 31.5 -12t30.5 -44q6 -15 11.5 -20t7.5 -5q2 -1 10 3.5
t20 18.5q9 10 16 21q4 5 6 10q6 10 16.5 12.5t19.5 -2.5q10 -5 13 -15.5t-3 -20.5q0 -1 -7.5 -13t-19.5 -26q-36 -41 -71 -41z" />
    <glyph glyph-name="Scaron" unicode="&#x160;" horiz-adv-x="614" 
d="M279 -190q-103 0 -159 53q-26 23 -39 53t-13 65q0 29 9.5 58t27.5 52t44 37t59 14q25 0 45.5 -5.5t38.5 -15t35.5 -22.5t35.5 -27q23 -17 49 -36.5t63 -40.5q9 -5 11 -15.5t-3 -20.5q-4 -8 -14 -10.5t-19 2.5q-40 22 -68 42.5t-51 37.5q-17 13 -31.5 24t-28.5 18.5
t-29 11.5t-34 4q-20 0 -36.5 -9.5t-28 -24.5t-17.5 -34.5t-6 -39.5q0 -23 9 -44t25 -37q41 -38 125 -38q88 0 153 31.5t94 89.5q26 51 16.5 109.5t-54.5 118.5q-48 63 -57.5 131t20.5 127q28 55 84.5 87t131.5 32q54 0 93 -22t57 -61q17 -40 7 -85.5t-42 -81.5
q-11 -11 -30.5 -25t-49 -23.5t-70 -10t-91.5 16.5q-9 5 -13.5 14.5t-2.5 19.5q4 11 14 15t20 1q57 -20 105.5 -12.5t77.5 40.5q24 24 31 54.5t-4 55.5q-11 26 -37.5 38.5t-64.5 12.5q-60 0 -104.5 -23t-66.5 -67q-23 -45 -14 -98.5t47 -104.5q52 -72 64 -146t-20 -137
q-36 -70 -113.5 -109.5t-180.5 -39.5zM784 621q-24 0 -40 18q-21 21 -24 69q-1 8 -1 15.5v12.5v12q2 11 10 18.5t19 6.5t18 -9.5t6 -19.5v-11v-12t1 -14q2 -20 6 -26t5 -7q1 0 18.5 6t61.5 38q12 9 22.5 17.5t18.5 15.5q10 8 18 15q8 8 19 7t19 -9q7 -8 6.5 -19t-8.5 -19
q-2 -1 -20 -16t-44 -34q-25 -18 -43 -29t-31 -17t-22 -7.5t-15 -1.5z" />
    <glyph glyph-name="scaron" unicode="&#x161;" horiz-adv-x="349" 
d="M277 -2h-8q-28 2 -44 11.5t-23 20.5q-13 15 -16 35.5t3 43.5q2 10 10.5 15.5t19.5 3.5t16 -11.5t3 -20.5q-2 -8 -2 -18t7 -18q5 -9 28 -11q43 -2 65 22q32 31 29 99v12.5t-1 11.5q-1 33 0.5 67t18.5 71q5 11 14 15t18 -1q11 -5 15 -15t-1 -20q-12 -28 -13.5 -55.5
t-0.5 -59.5q0 -6 1.5 -12t1.5 -12q2 -90 -46 -138q-36 -36 -95 -36zM349 -84h-349q-10 0 -17.5 7.5t-7.5 18.5t7.5 19t17.5 8h349q11 0 19 -8t8 -19t-8 -18.5t-19 -7.5zM478 431q-24 0 -40 18q-21 21 -24 69q-1 8 -1 15.5v12.5v12q2 11 10 18.5t19 6.5t18 -9.5t6 -19.5v-11
v-12t1 -14q2 -20 6 -26t5 -7q1 0 18.5 6t61.5 38q12 9 22.5 17.5t18.5 15.5q10 8 18 15q8 8 19 7t19 -9q7 -8 6.5 -19t-8.5 -19q-2 -1 -20 -16t-44 -34q-25 -18 -43 -29t-31 -17t-22 -7.5t-15 -1.5zM123 101q-15 0 -22 12q-8 9 -5 20t12 16l197 129q9 6 19.5 3.5t16.5 -10.5
q5 -10 3.5 -20.5t-11.5 -15.5l-196 -129q-4 -3 -8 -4t-6 -1z" />
    <glyph glyph-name="trademark" unicode="&#x2122;" horiz-adv-x="951" 
d="M121 500q1 14 9.5 21t17.5 7t17 -7t10 -21q-2 -59 -9.5 -116t-9.5 -116q-3 -12 -11 -18t-16 -6t-16 6t-11 18q2 59 9.5 116t9.5 116zM1 559q-11 4 -16.5 12.5t-4.5 17t7.5 15.5t18.5 9q73 -2 145 -9.5t145 -9.5q14 -2 20 -11t5.5 -18.5t-8.5 -17t-22 -7.5q-72 2 -144 9.5
t-146 9.5zM388 275q-4 -13 -13 -19t-18.5 -4.5t-16.5 9.5t-5 22q17 66 24.5 134t12.5 135q1 14 9.5 21t17.5 7t17 -7t10 -21q-5 -69 -13 -139.5t-25 -137.5zM470 582q1 14 9.5 21t17.5 7t17 -7t10 -21q0 -20 -1.5 -50t0.5 -58.5t9.5 -50t24.5 -24.5q18 -3 37.5 14.5t37 46
t32 63t22.5 64.5q5 12 13.5 16.5t17.5 3t15.5 -8.5t6.5 -19q1 -21 -8.5 -51t-26.5 -62t-39 -61t-47.5 -48t-52.5 -23.5t-52 14.5q-26 19 -36 47t-11.5 60t1.5 65t3 62zM763 582q1 14 9.5 21t17.5 7t17 -7t10 -21q-1 -81 -4 -161.5t-4 -161.5q-3 -12 -11 -18t-16 -6t-16 6
t-11 18q1 81 4 161.5t4 161.5z" />
    <glyph glyph-name="bullet" unicode="&#x2022;" horiz-adv-x="748" 
d="M459 306q-13 5 -17.5 14.5t-2.5 19t11 15.5t23 3q17 -2 27.5 -15t20.5 -25q10 -11 16.5 -18.5t16.5 -21.5q19 -27 17 -57t-17.5 -57t-40 -47.5t-50.5 -27.5q-12 0 -19.5 6t-10 14.5t1.5 17t15 14.5q15 4 29 16t24 27t12 32t-7 33q-8 15 -22 30t-26 27h-1zM178 195
q-14 0 -21.5 7.5t-8.5 17t5.5 18.5t20.5 11q60 0 118 2.5t118 2.5q14 -2 20 -11t5.5 -18.5t-8.5 -17t-22 -7.5q-57 0 -113.5 -2.5t-113.5 -2.5z" />
    <glyph glyph-name="perthousand" unicode="&#x2030;" horiz-adv-x="825" 
d="M353 236q-21 0 -40 8t-33.5 22.5t-22.5 33.5t-8 41t8 41t22.5 33t33.5 22t40 8q22 0 41 -8t33 -22t22.5 -33t8.5 -41q0 -11 -8 -19t-19 -8t-18.5 8t-7.5 19q0 21 -15 36t-37 15q-21 0 -36 -15t-15 -36t15 -36.5t36 -15.5q15 0 29 9q9 6 20 4t17 -11t4 -19.5t-11 -17.5
q-13 -8 -28 -13t-31 -5zM418 -125q-21 0 -40 8t-33.5 22.5t-22.5 33.5t-8 41t8 41t22.5 33t33.5 22t40 8q22 0 41 -8t33 -22t22.5 -33t8.5 -41q0 -11 -8 -19t-19 -8t-18.5 8t-7.5 19q0 21 -15 36t-37 15q-21 0 -36 -15t-15 -36t15 -36.5t36 -15.5q15 0 29 9q9 6 20 4t17 -11
t4 -19.5t-11 -17.5q-13 -8 -28 -13t-31 -5zM175 -23q-3 2 -6 3.5t-6 4.5q-7 8 -6 18.5t9 18.5l382 324q9 7 19.5 6t17.5 -9q8 -9 7 -19.5t-10 -18.5l-381 -323q-10 -10 -26 -5zM643 -40q-21 0 -40 8t-33.5 22.5t-22.5 33.5t-8 41t8 41t22.5 33t33.5 22t40 8q22 0 41 -8
t33 -22t22.5 -33t8.5 -41q0 -11 -8 -19t-19 -8t-18.5 8t-7.5 19q0 21 -15 36t-37 15q-21 0 -36 -15t-15 -36t15 -36.5t36 -15.5q15 0 29 9q9 6 20 4t17 -11t4 -19.5t-11 -17.5q-13 -8 -28 -13t-31 -5z" />
    <glyph glyph-name="greater" unicode="&#x3e;" horiz-adv-x="440" 
d="M382 190q-5 -11 -25 -28.5t-76 -43.5q-29 -14 -50.5 -23t-23.5 -10q-10 -3 -20 1.5t-14 14.5q-4 11 0.5 21t15.5 14q10 4 21 8l22.5 9t26.5 12q24 12 39 21t23 15.5t11 10l3 3.5q0 2 -3.5 8t-20.5 17q-6 4 -11.5 8t-10.5 6l-10 5q-11 5 -15 15t1 19q5 11 14.5 15t20.5 -1
q5 -2 11 -5q5 -2 11 -5.5t13 -8.5q41 -25 50 -54q8 -24 -3 -44z" />
    <glyph glyph-name="guilsinglright" unicode="&#x203a;" horiz-adv-x="440" 
d="M382 190q-5 -11 -25 -28.5t-76 -43.5q-29 -14 -50.5 -23t-23.5 -10q-10 -3 -20 1.5t-14 14.5q-4 11 0.5 21t15.5 14q10 4 21 8l22.5 9t26.5 12q24 12 39 21t23 15.5t11 10l3 3.5q0 2 -3.5 8t-20.5 17q-6 4 -11.5 8t-10.5 6l-10 5q-11 5 -15 15t1 19q5 11 14.5 15t20.5 -1
q5 -2 11 -5q5 -2 11 -5.5t13 -8.5q41 -25 50 -54q8 -24 -3 -44z" />
    <glyph glyph-name="guillemotright" unicode="&#xbb;" horiz-adv-x="440" 
d="M382 190q-5 -11 -25 -28.5t-76 -43.5q-29 -14 -50.5 -23t-23.5 -10q-10 -3 -20 1.5t-14 14.5q-4 11 0.5 21t15.5 14q10 4 21 8l22.5 9t26.5 12q24 12 39 21t23 15.5t11 10l3 3.5q0 2 -3.5 8t-20.5 17q-6 4 -11.5 8t-10.5 6l-10 5q-11 5 -15 15t1 19q5 11 14.5 15t20.5 -1
q5 -2 11 -5q5 -2 11 -5.5t13 -8.5q41 -25 50 -54q8 -24 -3 -44zM542 190q-5 -11 -25 -28.5t-76 -43.5q-29 -14 -50.5 -23t-23.5 -10q-10 -3 -20 1.5t-14 14.5q-4 11 0.5 21t15.5 14q10 4 21 8l22.5 9t26.5 12q24 12 39 21t23 15.5t11 10l3 3.5q0 2 -3.5 8t-20.5 17
q-6 4 -11.5 8t-10.5 6l-10 5q-11 5 -15 15t1 19q5 11 14.5 15t20.5 -1q5 -2 11 -5q5 -2 11 -5.5t13 -8.5q41 -25 50 -54q8 -24 -3 -44z" />
    <glyph glyph-name="less" unicode="&#x3c;" horiz-adv-x="440" 
d="M176 204q5 10 25 28t76 44q29 14 50.5 23t23.5 10q10 3 20 -1.5t14 -14.5q4 -11 -0.5 -21t-15.5 -14l-22 -8q-10 -4 -22 -9.5t-26 -11.5q-24 -12 -39 -21t-23 -15.5t-11 -10l-3 -3.5q0 -2 3.5 -8t20.5 -17q12 -9 22 -14l10 -5q11 -5 15 -15t-1 -19q-5 -11 -14.5 -15
t-20.5 1q-6 2 -11 5q-8 4 -24 14q-41 25 -50 54q-8 24 3 44z" />
    <glyph glyph-name="guilsinglleft" unicode="&#x2039;" horiz-adv-x="440" 
d="M176 204q5 10 25 28t76 44q29 14 50.5 23t23.5 10q10 3 20 -1.5t14 -14.5q4 -11 -0.5 -21t-15.5 -14l-22 -8q-10 -4 -22 -9.5t-26 -11.5q-24 -12 -39 -21t-23 -15.5t-11 -10l-3 -3.5q0 -2 3.5 -8t20.5 -17q12 -9 22 -14l10 -5q11 -5 15 -15t-1 -19q-5 -11 -14.5 -15
t-20.5 1q-6 2 -11 5q-8 4 -24 14q-41 25 -50 54q-8 24 3 44z" />
    <glyph glyph-name="guillemotleft" unicode="&#xab;" horiz-adv-x="440" 
d="M176 204q5 10 25 28t76 44q29 14 50.5 23t23.5 10q10 3 20 -1.5t14 -14.5q4 -11 -0.5 -21t-15.5 -14l-22 -8q-10 -4 -22 -9.5t-26 -11.5q-24 -12 -39 -21t-23 -15.5t-11 -10l-3 -3.5q0 -2 3.5 -8t20.5 -17q12 -9 22 -14l10 -5q11 -5 15 -15t-1 -19q-5 -11 -14.5 -15
t-20.5 1q-6 2 -11 5q-8 4 -24 14q-41 25 -50 54q-8 24 3 44zM326 204q5 10 25 28t76 44q29 14 50.5 23t23.5 10q10 3 20 -1.5t14 -14.5q4 -11 -0.5 -21t-15.5 -14l-22 -8q-10 -4 -22 -9.5t-26 -11.5q-24 -12 -39 -21t-23 -15.5t-11 -10l-3 -3.5q0 -2 3.5 -8t20.5 -17
q12 -9 22 -14l10 -5q11 -5 15 -15t-1 -19q-5 -11 -14.5 -15t-20.5 1q-6 2 -11 5q-8 4 -24 14q-41 25 -50 54q-8 24 3 44z" />
    <glyph glyph-name="at" unicode="@" horiz-adv-x="833" 
d="M353 -7q-11 0 -21.5 2t-20.5 10q-8 5 -17 18t-8 36q2 29 23.5 66.5t55 74t74.5 69.5t82 53q56 25 104 24.5t86 -27.5q9 -6 10.5 -16.5t-4.5 -19.5q-7 -8 -17 -10t-19 5q-17 11 -34.5 14.5t-35.5 2t-35 -7.5t-32 -13q-40 -19 -77 -49t-65 -61.5t-45 -61t-18 -47.5
q0 -6 1 -7q14 -9 39 3t47 33q8 8 18 7.5t18 -9.5q8 -8 8 -18t-8 -18q-22 -20 -51 -36.5t-58 -16.5zM526 0q-22 0 -31.5 9.5t-11.5 14.5q-4 8 -4 19t7.5 28.5t24 42t46.5 59.5q15 18 30 34.5t26.5 29.5t19 20.5l8.5 8.5q8 8 18.5 8t18.5 -8q8 -7 8 -18t-8 -19
q-27 -26 -50.5 -52t-42.5 -49.5t-32 -43t-19 -31.5q17 2 39.5 12.5t45 23.5t43 26.5t34.5 22.5q5 4 9 6t8 5q9 6 20 3.5t16 -10.5q6 -9 3.5 -19.5t-10.5 -16.5q-4 -3 -8 -5t-9 -6q-26 -17 -53 -34t-53 -30.5t-50 -22t-43 -8.5zM280 373q56 67 116.5 116.5t124 71t129 9.5
t132.5 -68t93 -121t19 -134t-42.5 -139t-91.5 -137q-56 -66 -118.5 -113.5t-129.5 -66t-135.5 -4.5t-134.5 70q-67 55 -90 118t-13.5 129t47.5 134t94 135zM321 340q-49 -59 -84 -117t-46 -114t7.5 -109.5t77.5 -102.5q58 -49 116.5 -60.5t115.5 6.5t110.5 60.5t102.5 100.5
t81 118.5t39.5 119.5t-13.5 115t-79 105q-59 49 -115 58t-109.5 -11.5t-104.5 -65.5t-99 -103z" />
    <glyph glyph-name="copyright" unicode="&#xa9;" horiz-adv-x="833" 
d="M280 373q56 67 116.5 116.5t124 71t129 9.5t132.5 -68t93 -121t19 -134t-42.5 -139t-91.5 -137q-56 -66 -118.5 -113.5t-129.5 -66t-135.5 -4.5t-134.5 70q-67 55 -90 118t-13.5 129t47.5 134t94 135zM321 340q-49 -59 -84 -117t-46 -114t7.5 -109.5t77.5 -102.5
q58 -49 116.5 -60.5t115.5 6.5t110.5 60.5t102.5 100.5t81 118.5t39.5 119.5t-13.5 115t-79 105q-59 49 -115 58t-109.5 -11.5t-104.5 -65.5t-99 -103zM407 -5q-11 0 -20 2t-17 5q-21 8 -32 24t-13 36q-2 30 16.5 66t47.5 70.5t65 65t68 50.5q86 50 131 20q29 -17 29 -51
q0 -20 -10.5 -38.5t-25 -33.5t-29 -26t-22.5 -15q-10 -5 -20 -3t-16 11t-3 19.5t11 16.5q30 19 47 38.5t17 30.5q0 2 -1 3.5t-6 3.5q-6 5 -26 1t-49 -22q-33 -20 -64.5 -47.5t-56 -56t-39 -55.5t-12.5 -45q0 -11 11 -15q16 -7 44 -1t61.5 21t69.5 35.5t68 43.5q9 6 19.5 4
t16.5 -11q7 -9 5 -19.5t-12 -15.5q-19 -14 -49 -33t-65 -36.5t-71.5 -30t-67.5 -12.5z" />
    <glyph glyph-name="registered" unicode="&#xae;" horiz-adv-x="833" 
d="M280 373q56 67 116.5 116.5t124 71t129 9.5t132.5 -68t93 -121t19 -134t-42.5 -139t-91.5 -137q-56 -66 -118.5 -113.5t-129.5 -66t-135.5 -4.5t-134.5 70q-67 55 -90 118t-13.5 129t47.5 134t94 135zM321 340q-49 -59 -84 -117t-46 -114t7.5 -109.5t77.5 -102.5
q58 -49 116.5 -60.5t115.5 6.5t110.5 60.5t102.5 100.5t81 118.5t39.5 119.5t-13.5 115t-79 105q-59 49 -115 58t-109.5 -11.5t-104.5 -65.5t-99 -103zM310 149q48 34 86 60.5t64.5 50t39 46t8.5 47.5q-2 13 -11 12.5t-14 -1.5q-7 -1 -10 -6t-3 -11t2.5 -11.5t6.5 -8.5
q7 -8 6.5 -17t-5.5 -15.5t-13.5 -10t-17.5 1.5q-12 6 -19.5 18.5t-9.5 27.5t1 30.5t12 27.5q7 11 18.5 17t24.5 8q27 4 54.5 -9t34.5 -48q6 -34 -12 -66.5t-51 -63.5t-76.5 -61.5t-87.5 -60.5q-9 -6 -19 -3.5t-16 10t-5.5 17.5t12.5 19zM531 0q-34 0 -47 22q-9 20 3.5 43.5
t34.5 55.5q18 26 32.5 41.5t12.5 35.5q-1 3 -3.5 7t-9.5 9q-9 5 -11.5 15.5t2.5 20.5q7 9 17 11t19 -4q16 -9 24 -21.5t12 -27.5q4 -18 0.5 -32t-11 -27t-19 -26.5t-24.5 -31.5q-5 -9 -12.5 -19.5t-12.5 -19.5q23 5 47.5 15.5t48 24t45 28.5t39.5 29q10 6 20.5 3.5
t15.5 -10.5q5 -9 3 -19.5t-10 -16.5q-17 -14 -44 -32t-58 -34.5t-61 -28t-53 -11.5z" />
    <glyph glyph-name="OE" unicode="&#x152;" horiz-adv-x="1088" 
d="M181 -181q-38 0 -65.5 16.5t-40.5 48.5q-19 44 -7.5 108.5t43.5 135.5t80 142t103 128q51 54 104 92.5t104 61.5q128 52 237 10q10 -4 14.5 -13.5t-0.5 -20.5q-2 -9 -11.5 -13.5t-20.5 -0.5q-86 32 -187.5 -7t-201.5 -145q-61 -62 -106 -130.5t-72.5 -131.5t-35.5 -114.5
t5 -81.5q4 -11 16 -22.5t42 -11.5q36 0 77.5 14.5t85.5 42.5t90 68t90 90q39 44 72 90.5t56.5 90t37 81.5t13.5 65q0 8 -1.5 17.5t-7.5 14.5q-9 10 -31 10q-11 0 -18.5 7.5t-7.5 18.5t7.5 18t18.5 7q45 0 69 -25q22 -26 22 -68q0 -33 -13.5 -75t-38.5 -89.5t-60 -98
t-78 -99.5q-16 -17 -39 -41t-52.5 -49.5t-63.5 -51t-71 -45t-77 -32t-80 -12.5zM846 -197q-29 0 -57 5.5t-56 18.5q-33 16 -56.5 42t-35.5 59t-12 71.5t14 79.5q14 43 40.5 78t63.5 58q42 26 90 33t102 -4q10 -3 15.5 -11t2.5 -19q-2 -11 -11 -17t-19 -4q-46 11 -84.5 4
t-68.5 -26t-51 -47.5t-32 -61.5q-9 -26 -10.5 -53.5t5.5 -53t23.5 -46.5t44.5 -34q52 -24 101.5 -21t90.5 32q29 21 44 49.5t13 52.5q-3 14 -10.5 23.5t-22.5 16.5q-16 3 -24 -2q-5 -5 -7 -13t0 -15q5 -17 22 -18q11 -2 16.5 -11t3.5 -19q-2 -11 -11 -17.5t-18 -4.5
q-24 5 -40.5 19t-21.5 36q-6 22 -0.5 44t22.5 38q16 13 36 15.5t43 -6.5q54 -22 63 -80q5 -39 -16.5 -79.5t-61.5 -70.5q-29 -20 -62 -30.5t-68 -10.5zM1140 251q-15 0 -29 1t-28 6q-11 3 -16.5 11.5t-2.5 19.5t12 16t20 3q33 -9 65 -4.5t58.5 19.5t46.5 37t30 48
q4 9 7 24.5t0 34t-16.5 38t-42.5 35.5q-34 18 -68.5 22t-66.5 -2t-61 -19.5t-51 -31.5q-53 -43 -77.5 -99.5t-10.5 -107.5q3 -10 -2.5 -19t-15.5 -12q-11 -4 -20 1.5t-11 16.5q-9 33 -6.5 67.5t16 68.5t37 65.5t56.5 57.5q35 28 74 44.5t78.5 21t78.5 -3t75 -26.5
q60 -32 80 -84t-4 -112q-11 -28 -31.5 -53t-47 -43.5t-59 -29.5t-67.5 -11z" />
    <glyph glyph-name="oe" unicode="&#x153;" horiz-adv-x="661" 
d="M540 -5q-10 0 -19 2t-18 5q-20 8 -31.5 24t-13.5 36q-2 30 16.5 66t47.5 70.5t65 65t68 50.5q86 50 131 20q8 -4 17 -18t1 -40q-7 -23 -30.5 -53.5t-55 -57.5t-67.5 -45.5t-67 -18.5q-9 0 -16.5 7.5t-7.5 18.5t7.5 18t16.5 7q13 0 29.5 6.5t34.5 17.5t36.5 26.5
t34.5 33.5q18 21 26.5 35t9.5 22q-9 2 -27.5 -3.5t-44.5 -20.5q-33 -20 -64.5 -47.5t-56 -56t-39 -55.5t-13.5 -45q0 -5 2.5 -9t10.5 -6q16 -7 43.5 -1t60.5 21t69 35.5t68 43.5q11 6 21 4t15 -11q8 -9 6 -19.5t-10 -15.5q-20 -14 -51 -33t-66 -36.5t-71.5 -30t-67.5 -12.5z
M252 0q-47 0 -71 38q-16 31 -7 74t41 92q24 37 53.5 68.5t60.5 53.5t62 34.5t58 12.5q32 0 56 -17.5t35 -48.5q4 -10 -1 -19t-16 -14q-10 -4 -19 0.5t-13 15.5q-10 32 -42 32q-18 0 -41.5 -9.5t-49 -27.5t-52 -45t-48.5 -62q-28 -44 -33 -73t3 -41q1 -3 5.5 -7.5t18.5 -4.5
q33 0 66.5 19.5t61.5 48t45.5 60t19.5 56.5q2 16 -3 19t-10 4q-11 2 -17 10.5t-4 19.5q1 11 9.5 17t18.5 5q29 -5 44.5 -26t13.5 -53q-3 -33 -24.5 -73t-55.5 -75.5t-77 -59.5t-88 -24zM662 -84h-290h-3h-63h-3h-303q-11 0 -18.5 7.5t-7.5 18.5t7.5 19t18.5 8h369h3h290
q11 0 19 -8t8 -19t-8 -18.5t-19 -7.5z" />
    <glyph glyph-name="dagger" unicode="&#x2020;" horiz-adv-x="265" 
d="M-10 -163q-3 0 -6.5 -0.5t-7.5 1.5q-10 4 -14.5 13.5t-0.5 20.5l292 739q5 10 14.5 14.5t19.5 0.5q11 -4 16 -14t0 -21l-292 -737q-5 -15 -21 -17zM263 398l-2 6t-2 8q1 11 8.5 18.5t18.5 7.5l64 4q11 -1 18.5 -8.5t7.5 -18.5t-7.5 -19t-19.5 -8l-63 -3q-7 -1 -13 3
t-10 10zM31 386l-2 6t-2 8q1 11 8.5 18.5t18.5 7.5l64 4q11 -1 18.5 -8.5t7.5 -18.5t-7.5 -19t-19.5 -8l-63 -3q-7 -1 -13 3t-10 10z" />
    <glyph glyph-name="daggerdbl" unicode="&#x2021;" horiz-adv-x="265" 
d="M-10 -163q-3 0 -6.5 -0.5t-7.5 1.5q-10 4 -14.5 13.5t-0.5 20.5l292 739q5 10 14.5 14.5t19.5 0.5q11 -4 16 -14t0 -21l-292 -737q-5 -15 -21 -17zM263 398l-2 6t-2 8q1 11 8.5 18.5t18.5 7.5l64 4q11 -1 18.5 -8.5t7.5 -18.5t-7.5 -19t-19.5 -8l-63 -3q-7 -1 -13 3
t-10 10zM31 386l-2 6t-2 8q1 11 8.5 18.5t18.5 7.5l64 4q11 -1 18.5 -8.5t7.5 -18.5t-7.5 -19t-19.5 -8l-63 -3q-7 -1 -13 3t-10 10zM125 51l-2 6t-2 8q1 11 8.5 18.5t18.5 7.5l64 4q11 -1 18.5 -8.5t7.5 -18.5t-7.5 -19t-19.5 -8l-63 -3q-7 -1 -13 3t-10 10zM-107 39l-2 6
t-2 8q1 11 8.5 18.5t18.5 7.5l64 4q11 -1 18.5 -8.5t7.5 -18.5t-7.5 -19t-19.5 -8l-63 -3q-7 -1 -13 3t-10 10z" />
    <glyph glyph-name="quotedblbase" unicode="&#x201e;" horiz-adv-x="343" 
d="M114 -88q-7 0 -14 3q-9 6 -11.5 16.5t2.5 20.5l81 135q6 9 16.5 11.5t20.5 -2.5q9 -6 11.5 -16.5t-2.5 -20.5l-81 -135q-8 -12 -23 -12zM215 -88q-7 0 -14 3q-9 6 -11.5 16.5t2.5 20.5l81 135q6 9 16.5 11.5t20.5 -2.5q9 -6 11.5 -16.5t-2.5 -20.5l-81 -135
q-8 -12 -23 -12z" />
    <glyph glyph-name="quotesinglbase" unicode="&#x201a;" horiz-adv-x="230" 
d="M114 -88q-7 0 -14 3q-9 6 -11.5 16.5t2.5 20.5l81 135q6 9 16.5 11.5t20.5 -2.5q9 -6 11.5 -16.5t-2.5 -20.5l-81 -135q-8 -12 -23 -12z" />
    <glyph glyph-name="ellipsis" unicode="&#x2026;" horiz-adv-x="447" 
d="M176 8q-7 0 -13 3q-10 6 -12.5 16.5t3.5 20.5l29 49q6 9 16.5 11.5t20.5 -2.5q9 -6 11.5 -16.5t-2.5 -19.5l-30 -50q-8 -12 -23 -12zM325 8q-7 0 -13 3q-10 6 -12.5 16.5t3.5 20.5l29 49q6 9 16.5 11.5t20.5 -2.5q9 -6 11.5 -16.5t-2.5 -19.5l-30 -50q-8 -12 -23 -12z
M474 8q-7 0 -13 3q-10 6 -12.5 16.5t3.5 20.5l29 49q6 9 16.5 11.5t20.5 -2.5q9 -6 11.5 -16.5t-2.5 -19.5l-30 -50q-8 -12 -23 -12z" />
    <glyph glyph-name="florin" unicode="&#x192;" horiz-adv-x="365" 
d="M27 -163q-8 0 -15 5q-9 6 -10.5 16.5t4.5 19.5q9 12 26 37t39 57q21 30 44.5 65t48.5 71t50.5 71.5t48.5 66.5q193 253 334.5 378t236.5 125q20 0 30 -7.5t15 -15.5q5 -10 5 -20.5t-3.5 -21.5t-9 -21.5t-10.5 -19.5q-17 -26 -43 -56t-56 -61.5t-62 -61.5t-62 -55
q-29 -25 -61.5 -50.5t-62.5 -46t-56 -33t-42 -11.5q-11 0 -19 8t-7 19q5 25 28 23q7 0 27.5 11.5t51 33.5t69.5 54t84 73q86 79 130 133t52 74q-29 0 -72.5 -20t-107.5 -73.5t-150 -147t-198 -241.5q-23 -31 -48 -66t-50 -71t-48.5 -70t-43.5 -64q-23 -34 -39 -59t-27 -37
q-8 -11 -21 -11zM425 139q-5 0 -9.5 0.5t-8.5 2.5q-20 4 -33.5 15t-22 23.5t-12.5 22.5t-4 12q-4 10 1.5 19t15.5 12q10 4 19.5 -0.5t11.5 -15.5q1 0 3.5 -5.5t6.5 -12t10 -12.5t15 -8q17 -4 40.5 11t50.5 44q17 18 37 3q8 -8 8 -18.5t-6 -17.5q-68 -75 -123 -75z" />
    <glyph glyph-name="logicalnot" unicode="&#xac;" horiz-adv-x="278" 
d="M140 225l-2 6t-2 8q1 11 8.5 18.5t18.5 7.5l224 4q11 -1 18.5 -8.5t7.5 -18.5t-7.5 -19t-19.5 -8l-223 -3q-7 -1 -13 3t-10 10zM336 80q-3 1 -6.5 0.5t-8.5 1.5q-9 5 -13.5 14t-0.5 20l25 63q5 10 14.5 14t20.5 0q11 -5 15.5 -14.5t-0.5 -20.5l-26 -62q-2 -6 -7.5 -10
t-12.5 -6z" />
    <glyph glyph-name="plusminus" unicode="&#xb1;" horiz-adv-x="410" 
d="M222 117q-3 1 -6 0.5t-8 0.5q-10 4 -15 13t-2 20l18 62l-64 -1q-7 -1 -13 3t-10 10l-2 6t-2 8q1 11 8.5 18.5t18.5 7.5l81 1l24 80q4 11 13 15.5t20 0.5q11 -3 16.5 -12.5t1.5 -20.5l-19 -62l66 2q11 -1 18.5 -8.5t7.5 -18.5t-7.5 -19t-19.5 -8l-81 -1l-24 -79
q-3 -13 -20 -18zM46 -25l-2 6t-2 8q1 11 8.5 18.5t18.5 7.5l203 4q11 -1 18.5 -8.5t7.5 -18.5t-7.5 -19t-19.5 -8l-202 -3q-7 -1 -13 3t-10 10z" />
    <glyph glyph-name="multiply" unicode="&#xd7;" horiz-adv-x="410" 
d="M165 340q2 2 4 4.5t5 5.5q9 5 19.5 3t17.5 -11l36 -54l40 51q4 6 10.5 8.5t14.5 1.5q2 -2 5.5 -3t7.5 -3q8 -8 9 -18.5t-6 -19.5l-50 -63l46 -69q5 -10 3 -20t-12 -16q-9 -6 -19.5 -4.5t-17.5 11.5l-36 53l-40 -51q-8 -8 -18.5 -9t-18.5 6q-9 8 -10.5 18.5t6.5 19.5
l50 63l-45 69q-5 5 -4.5 12t3.5 15z" />
    <glyph glyph-name="divide" unicode="&#xf7;" horiz-adv-x="196" 
d="M176 8q-7 0 -13 3q-10 6 -12.5 16.5t3.5 20.5l29 49q6 9 16.5 11.5t20.5 -2.5q9 -6 11.5 -16.5t-2.5 -19.5l-30 -50q-8 -12 -23 -12zM325 281q-7 0 -13 3q-10 6 -12.5 16.5t3.5 20.5l29 49q6 9 16.5 11.5t20.5 -2.5q9 -6 11.5 -16.5t-2.5 -19.5l-30 -50q-8 -12 -23 -12z
M181 184l-2 6t-2 8q1 11 8.5 18.5t18.5 7.5l124 4q11 -1 18.5 -8.5t7.5 -18.5t-7.5 -19t-19.5 -8l-123 -3q-7 -1 -13 3t-10 10z" />
    <glyph glyph-name="exclamdown" unicode="&#xa1;" horiz-adv-x="170" 
d="M371 499q7 0 13 -3q10 -6 12.5 -16.5t-3.5 -20.5l-29 -49q-6 -9 -16.5 -11.5t-20.5 2.5q-9 6 -11.5 16.5t2.5 19.5l30 50q7 12 23 12zM281 319q7 0 13 -3q10 -5 12.5 -15.5t-2.5 -20.5l-187 -334q-5 -10 -15.5 -12.5t-20.5 2.5t-12.5 15.5t2.5 20.5l187 334q8 13 23 13z
" />
    <glyph glyph-name="questiondown" unicode="&#xbf;" horiz-adv-x="292" 
d="M298 348q8 0 16 -6t10 -17t-5 -20q-21 -29 -48 -58.5t-55 -58.5q-26 -29 -50 -55t-42 -49q-23 -30 -28 -45.5t-4 -20.5q1 -2 2 -5t7 -7q17 -10 36 -5.5t34 12.5q38 20 71 59q16 18 22.5 31.5t6.5 18.5q1 11 9 19t19 7t18.5 -9t6.5 -19q-1 -23 -15.5 -46t-26.5 -37
q-19 -22 -41 -40.5t-45 -30.5q-30 -16 -60 -19q-35 -3 -63 14q-18 11 -24.5 25t-8.5 25q-3 22 7 46t29.5 51t45.5 56t55 60q27 29 53 57.5t46 55.5q9 11 22 11zM380 513q8 0 14 -3q10 -6 12.5 -16.5t-3.5 -20.5l-30 -49q-5 -9 -15.5 -11.5t-20.5 2.5q-9 6 -12 16.5t3 19.5
l30 50q7 12 22 12z" />
    <glyph glyph-name="Euro" unicode="&#x20ac;" horiz-adv-x="550" 
d="M282 280l-2 6t-2 8q1 11 8.5 18.5t18.5 7.5l119 4q11 -1 18.5 -8.5t7.5 -18.5t-7.5 -19t-19.5 -8l-118 -3q-7 -1 -13 3t-10 10zM224 178l-2 6t-2 8q1 11 8.5 18.5t18.5 7.5l119 4q11 -1 18.5 -8.5t7.5 -18.5t-7.5 -19t-19.5 -8l-118 -3q-7 -1 -13 3t-10 10zM259 -200
q-40 0 -82 18q-43 19 -68 58t-29 93q-5 68 21.5 151t74.5 164t111.5 153t134.5 117q78 50 150 57.5t133 -27.5q54 -29 69 -79t-11 -109q-15 -35 -42 -66t-61 -51t-73 -27t-77 6q-11 3 -15.5 13t-0.5 19q3 11 12 15.5t19 1.5q28 -9 57.5 -3t55 22t46.5 40t33 50q5 12 8.5 28
t1 32.5t-12.5 33t-33 30.5q-31 16 -62.5 19t-61.5 -3t-57 -18.5t-49 -26.5q-43 -28 -84.5 -67t-78 -85.5t-66.5 -97.5t-51 -101.5t-31 -98.5t-7 -89q3 -77 65 -108q25 -11 47 -12.5t40 2t31.5 11t22.5 14.5q29 22 45.5 54.5t11.5 59.5q-4 23 -29 33q-7 2 -15.5 2t-14.5 -5
q-11 -12 -6 -25q4 -16 23 -18q11 -2 17 -10.5t4 -19.5t-10.5 -17t-19.5 -5q-23 5 -39.5 18t-23.5 35q-7 20 -2 41t21 37q15 16 36.5 19.5t44.5 -4.5q26 -8 42.5 -27t21.5 -46q4 -20 0.5 -42.5t-13.5 -44t-26 -41t-35 -34.5q-51 -39 -113 -39z" />
    <glyph glyph-name="cent" unicode="&#xa2;" horiz-adv-x="358" 
d="M238 -5q-11 0 -20 2t-17 5q-21 8 -32 24t-13 36q-2 30 16.5 66t47.5 70.5t65 65t68 50.5q86 50 131 20q29 -17 29 -51q0 -20 -10.5 -38.5t-25 -33.5t-29 -26t-22.5 -15q-10 -5 -20 -3t-16 11t-3 19.5t11 16.5q30 19 47 38.5t17 30.5q0 2 -1 3.5t-6 3.5q-6 5 -26 1
t-49 -22q-33 -20 -64.5 -47.5t-56 -56t-39 -55.5t-12.5 -45q0 -11 11 -15q16 -7 44 -1t61.5 21t69.5 35.5t68 43.5q9 6 19.5 4t16.5 -11q7 -9 5 -19.5t-12 -15.5q-19 -14 -49 -33t-65 -36.5t-71.5 -30t-67.5 -12.5zM193 -56l-38 -64q-5 -9 -16 -11.5t-20 2.5q-10 5 -12.5 16
t2.5 20l37 64q6 9 16.5 11.5t20.5 -4.5q9 -5 12 -15t-2 -19zM570 437l-38 -64q-5 -9 -16 -11.5t-20 2.5q-10 5 -12.5 16t2.5 20l37 64q6 9 16.5 11.5t20.5 -4.5q9 -5 12 -15t-2 -19z" />
    <glyph glyph-name="sterling" unicode="&#xa3;" horiz-adv-x="797" 
d="M217 -127q-37 0 -65.5 9.5t-48.5 24.5t-31 34t-14 39q-7 42 18.5 77.5t72.5 49.5q28 8 56.5 5.5t55 -11t50 -19.5t41.5 -20l24 -12q10 -5 14 -14t-1 -19q-4 -9 -13.5 -13.5t-20.5 -1.5q-5 3 -11.5 7t-14.5 7q-16 8 -36 17.5t-42.5 16.5t-45 9.5t-42.5 -3.5
q-32 -10 -44.5 -29.5t-10.5 -38.5q2 -11 9 -22.5t20 -21t33 -15.5t47 -6q60 0 114.5 35t105.5 91t97.5 124.5t90.5 136.5q42 64 81.5 122t78.5 97.5t78.5 56.5t81.5 0t56.5 -58t-1.5 -95q-9 -27 -25.5 -53t-39.5 -46t-52 -32t-62 -12q-9 0 -17.5 1.5t-17.5 3.5
q-11 2 -16.5 10.5t-3.5 19.5t11 17t20 4q28 -6 52.5 1t44.5 22t34.5 36t22.5 44q7 26 3 52.5t-30 37.5t-55.5 -7t-62 -55t-66.5 -88.5t-70 -106.5q-47 -72 -97.5 -145t-106 -131.5t-117.5 -95.5t-132 -37zM712 -84q-52 0 -86 1.5t-58.5 5t-43.5 9.5t-40 15q-10 4 -13.5 14.5
t0.5 19.5q5 10 14 14t20 -1q18 -8 34 -12.5t38 -7.5t54 -4t81 -1q11 0 18 -8t7 -19t-7 -18.5t-18 -7.5zM626 140l-2 6t-2 8q1 11 8.5 18.5t18.5 7.5h102q11 -1 18.5 -8.5t7.5 -18.5t-7.5 -19t-19.5 -8l-101 1q-7 -1 -13 3t-10 10zM382 174l-2 6t-2 8q1 11 8.5 18.5t18.5 7.5
l64 -7q11 -1 18.5 -8.5t7.5 -18.5t-7.5 -19t-19.5 -8l-63 8q-7 -1 -13 3t-10 10z" />
    <glyph glyph-name="currency" unicode="&#xa4;" horiz-adv-x="478" 
d="M266 84q-21 0 -40 8t-33.5 22.5t-22.5 33.5t-8 41t8 41t22.5 33t33.5 22t40 8q22 0 41 -8t33 -22t22.5 -33t8.5 -41q0 -11 -8 -19t-19 -8t-18.5 8t-7.5 19q0 21 -15 36t-37 15q-21 0 -36 -15t-15 -36t15 -36.5t36 -15.5q15 0 29 9q9 6 20 4t17 -11t4 -19.5t-11 -17.5
q-13 -8 -28 -13t-31 -5zM198 304q-1 -8 -5 -13q-7 -10 -17.5 -11t-19.5 5l-34 24q-9 8 -10.5 18.5t4.5 20.5q7 8 17.5 9.5t20.5 -4.5l34 -25q12 -10 10 -24zM443 95q-2 -9 -4 -14q-7 -9 -18 -10.5t-20 4.5l-34 24q-9 7 -10.5 18t4.5 20q6 8 17 9.5t20 -3.5l35 -25
q12 -8 10 -23zM160 120q8 -5 11 -9q6 -10 3 -20.5t-12 -16.5l-35 -22q-11 -6 -21 -3t-17 12q-5 9 -2 19.5t12 17.5l35 22q13 7 26 0zM421 343q8 -5 11 -9q6 -10 3 -20.5t-12 -16.5l-35 -22q-11 -6 -21 -3t-17 12q-5 9 -2 19.5t12 17.5l35 22q13 7 26 0z" />
    <glyph glyph-name="Ydieresis" unicode="&#x178;" horiz-adv-x="537" 
d="M229 -181q-38 0 -69.5 9.5t-54.5 26.5q-20 17 -32 39t-12 48q0 25 11.5 50.5t34.5 45t56 32t77 12.5q27 0 52.5 -6.5t47 -16.5t38.5 -21t28 -21q8 -8 8.5 -18t-7.5 -18t-18 -8.5t-19 7.5q-8 8 -22 16.5t-31 16t-37 12.5t-40 5q-30 0 -54 -7.5t-40.5 -20t-25 -28.5
t-8.5 -32q0 -26 25 -48q35 -24 92 -24q64 0 122 37t111.5 97t104 136.5t99.5 154.5q53 84 102.5 158t102.5 128q8 7 18 7t18 -7q8 -8 8 -18.5t-8 -17.5q-48 -52 -96.5 -124t-98.5 -153q-53 -83 -107 -163t-113 -144t-124 -103t-139 -39zM420 146q-28 0 -46 11t-29 24
q-21 26 -15.5 56.5t27.5 62.5t55 64.5t67 62.5q13 12 27.5 26t28 27.5t23.5 25.5t13 20q-6 1 -23.5 2t-55.5 -4q-11 -1 -18.5 5.5t-10.5 17.5q-1 10 5.5 18.5t17.5 9.5q63 7 93.5 1t41.5 -29q7 -15 2 -31.5t-19.5 -35.5t-37.5 -41t-52 -49q-22 -20 -48.5 -45.5t-47.5 -50.5
t-32 -46t-2 -33q12 -15 30.5 -17t40.5 5.5t48 22t53 31.5l5 2q8 5 18 2.5t18 -10.5q5 -9 2 -19.5t-12 -16.5l-5 -4q-25 -14 -54.5 -30.5t-59.5 -26.5q-14 -4 -25.5 -6t-22.5 -2zM694 592q-6 0 -14 4q-10 6 -12.5 16.5t3.5 20.5l29 49q6 9 16.5 11.5t20.5 -2.5
q9 -6 11.5 -16.5t-2.5 -20.5l-30 -49q-8 -13 -22 -13zM811 592q-5 0 -13 4q-10 6 -12.5 16.5t3.5 20.5l29 49q6 9 16.5 11.5t19.5 -2.5q10 -6 12.5 -16.5t-3.5 -20.5l-29 -49q-8 -13 -23 -13z" />
    <glyph glyph-name="yen" unicode="&#xa5;" horiz-adv-x="537" 
d="M229 -181q-38 0 -69.5 9.5t-54.5 26.5q-20 17 -32 39t-12 48q0 25 11.5 50.5t34.5 45t56 32t77 12.5q27 0 52.5 -6.5t47 -16.5t38.5 -21t28 -21q8 -8 8.5 -18t-7.5 -18t-18 -8.5t-19 7.5q-8 8 -22 16.5t-31 16t-37 12.5t-40 5q-30 0 -54 -7.5t-40.5 -20t-25 -28.5
t-8.5 -32q0 -26 25 -48q35 -24 92 -24q64 0 122 37t111.5 97t104 136.5t99.5 154.5q53 84 102.5 158t102.5 128q8 7 18 7t18 -7q8 -8 8 -18.5t-8 -17.5q-48 -52 -96.5 -124t-98.5 -153q-53 -83 -107 -163t-113 -144t-124 -103t-139 -39zM420 146q-28 0 -46 11t-29 24
q-21 26 -15.5 56.5t27.5 62.5t55 64.5t67 62.5q13 12 27.5 26t28 27.5t23.5 25.5t13 20q-6 1 -23.5 2t-55.5 -4q-11 -1 -18.5 5.5t-10.5 17.5q-1 10 5.5 18.5t17.5 9.5q63 7 93.5 1t41.5 -29q7 -15 2 -31.5t-19.5 -35.5t-37.5 -41t-52 -49q-22 -20 -48.5 -45.5t-47.5 -50.5
t-32 -46t-2 -33q12 -15 30.5 -17t40.5 5.5t48 22t53 31.5l5 2q8 5 18 2.5t18 -10.5q5 -9 2 -19.5t-12 -16.5l-5 -4q-25 -14 -54.5 -30.5t-59.5 -26.5q-14 -4 -25.5 -6t-22.5 -2zM370 100q1 11 8.5 18.5t18.5 7.5l82 4q11 -1 18.5 -8.5t7.5 -18.5t-7.5 -19t-19.5 -8l-81 -3
q-12 0 -18.5 8t-8.5 19z" />
    <glyph glyph-name="section" unicode="&#xa7;" horiz-adv-x="416" 
d="M244 -107l-8 -3q-26 -11 -44.5 -8.5t-29.5 9.5q-18 8 -29 26t-15 41q-3 9 2.5 18t16.5 11q11 3 20 -3.5t11 -17.5q1 -8 5 -17t14 -14q10 -6 30 2q40 17 50 47q17 41 -14 102l-5.5 11t-5.5 10q-14 30 -26.5 61.5t-13.5 72.5q0 11 6.5 18.5t17.5 7.5t19.5 -7.5t7.5 -18.5
q1 -30 11 -56t24 -55q2 -5 6 -10t6 -10q40 -82 15 -145q-18 -47 -71 -72zM347 472l7 4q26 10 44.5 7.5t29.5 -9.5q18 -8 29.5 -25.5t15.5 -40.5q2 -10 -3.5 -19t-16.5 -11t-19.5 4t-10.5 17q-2 8 -6 17t-14 14q-5 4 -12.5 3t-17.5 -5q-39 -15 -50 -47q-17 -41 15 -102
q4 -10 10 -21q15 -30 27.5 -61.5t12.5 -72.5q0 -11 -6.5 -18.5t-16.5 -7.5q-11 0 -19.5 7.5t-7.5 18.5q-1 31 -11 56.5t-24 54.5q-2 5 -6.5 10t-6.5 11q-38 81 -15 144q18 49 72 72z" />
    <glyph glyph-name="brokenbar" unicode="&#xa6;" horiz-adv-x="452" 
d="M317 293q-3 0 -6.5 -0.5t-7.5 1.5q-10 4 -14.5 13.5t-0.5 20.5l111 283q5 10 14.5 14.5t19.5 0.5q11 -4 16 -14t0 -21l-111 -281q-5 -15 -21 -17zM136 -163q-3 0 -6.5 -0.5t-7.5 1.5q-10 4 -14.5 13.5t-0.5 20.5l141 339q5 10 14.5 14.5t19.5 0.5q11 -4 16 -14t0 -21
l-141 -337q-5 -15 -21 -17z" />
    <glyph glyph-name="ordfeminine" unicode="&#xaa;" horiz-adv-x="466" 
d="M328 317q-11 0 -21.5 2t-20.5 10q-8 5 -17 18t-8 36q2 29 23.5 66.5t55 74t74.5 69.5t82 53q56 25 104 24.5t86 -27.5q9 -6 10.5 -16.5t-4.5 -19.5q-7 -8 -17 -10t-19 5q-17 11 -34.5 14.5t-35.5 2t-35 -7.5t-32 -13q-40 -19 -77 -49t-65 -61.5t-45 -61t-18 -47.5
q0 -6 1 -7q14 -9 39 3t47 33q8 8 18 7.5t18 -9.5q8 -8 8 -18t-8 -18q-22 -20 -51 -36.5t-58 -16.5zM501 324q-22 0 -31.5 9.5t-11.5 14.5q-4 8 -4 19t7.5 28.5t24 42t46.5 59.5q15 18 30 34.5t26.5 29.5t19 20.5l8.5 8.5q8 8 18.5 8t18.5 -8q8 -7 8 -18t-8 -19
q-27 -26 -50.5 -52t-42.5 -49.5t-32 -43t-19 -31.5q17 2 39.5 12.5t45 23.5t43 26.5t34.5 22.5q5 4 9 6t8 5q9 6 20 3.5t16 -10.5q6 -9 3.5 -19.5t-10.5 -16.5q-4 -3 -8 -5t-9 -6q-26 -17 -53 -34t-53 -30.5t-50 -22t-43 -8.5z" />
    <glyph glyph-name="degree" unicode="&#xb0;" horiz-adv-x="280" 
d="M351 362q-21 0 -40 8t-33.5 22.5t-22.5 33.5t-8 41t8 41t22.5 33t33.5 22t40 8q22 0 41 -8t33 -22t22.5 -33t8.5 -41q0 -11 -8 -19t-19 -8t-18.5 8t-7.5 19q0 21 -15 36t-37 15q-21 0 -36 -15t-15 -36t15 -36.5t36 -15.5q15 0 29 9q9 6 20 4t17 -11t4 -19.5t-11 -17.5
q-13 -8 -28 -13t-31 -5z" />
    <glyph glyph-name="ordmasculine" unicode="&#xba;" horiz-adv-x="369" 
d="M343 284q-27 0 -42.5 10t-23.5 21q-20 26 -20 68q0 49 25 111t66 118q44 59 97 95q59 40 121 40q11 0 19 -7.5t8 -18.5t-8 -19t-19 -8q-32 0 -63 -15.5t-59.5 -40.5t-53 -57.5t-42.5 -67t-28 -68.5t-10 -62q0 -26 9 -36q2 -3 7.5 -6.5t16.5 -3.5q51 0 99 45
q22 20 41 48.5t33 60.5q24 53 27 95t-9 55q-8 8 -7 19t9 19t18.5 7t18.5 -9q16 -17 21 -42t2 -53.5t-11.5 -58t-19.5 -54.5q-11 -26 -32.5 -60.5t-53.5 -65.5q-32 -29 -66.5 -44t-69.5 -15z" />
    <glyph glyph-name="onesuperior" unicode="&#xb9;" horiz-adv-x="286" 
d="M375 290q-7 0 -14 4q-9 5 -11.5 15.5t2.5 20.5l258 429q6 9 16.5 11.5t19.5 -2.5q10 -6 12.5 -16.5t-3.5 -20.5l-257 -428q-7 -13 -23 -13zM413 604q-16 0 -23 13q-6 9 -3.5 20t12.5 16l113 67q9 6 20 3.5t16 -12.5q6 -10 3.5 -20.5t-12.5 -15.5l-113 -67q-5 -4 -13 -4z
" />
    <glyph glyph-name="threesuperior" unicode="&#xb3;" horiz-adv-x="374" 
d="M411 309q-31 0 -55.5 8.5t-35.5 28.5q-12 21 -9 35t12.5 18.5t21.5 -0.5t17 -21q3 -11 17 -13.5t32 -2.5q26 0 54 11t52 32q21 18 33.5 38t12.5 36q0 11 -7.5 18t-19 10.5t-24.5 4.5t-23 1q-11 0 -19 8t-8 19t8 18.5t19 7.5q61 0 92 -22q35 -23 35 -65q0 -28 -17 -58.5
t-48 -56.5t-67.5 -40.5t-72.5 -14.5zM603 548q-15 0 -22 12q-6 9 -4 19.5t12 16.5q15 10 30 24q36 34 12 67q-12 16 -37 23t-51 -10q-18 -12 -34 -12t-22.5 7.5t-1 21t30.5 28.5q42 25 89 16q44 -9 68 -43q24 -30 19 -66q-3 -39 -37 -71q-17 -17 -38 -29q-5 -4 -14 -4z" />
    <glyph glyph-name="twosuperior" unicode="&#xb2;" horiz-adv-x="375" 
d="M557 295h-280q-11 0 -18.5 7.5t-7.5 18.5t7.5 19t18.5 8h280q11 0 18.5 -8t7.5 -19t-7.5 -18.5t-18.5 -7.5zM435 363q-14 0 -23 12q-6 9 -3.5 19.5t11.5 16.5q48 31 90 66.5t73 69.5t49 64.5t18 51.5q0 19 -18 31q-20 12 -42.5 6.5t-40.5 -14.5q-21 -11 -42.5 -28.5
t-38.5 -38.5q-17 -20 -25.5 -36t-8.5 -24q-1 -11 -8.5 -18.5t-18.5 -6.5q-11 0 -19 8t-7 19q0 13 5 26t12 25t15 22.5t14 18.5q21 25 46.5 45.5t50.5 34.5q36 18 67 21q40 3 69 -16q43 -26 43 -75q0 -66 -84 -156q-35 -37 -78.5 -73.5t-91.5 -66.5q-5 -4 -14 -4z" />
    <glyph glyph-name="mu" unicode="&#xb5;" horiz-adv-x="507" 
d="M375 0q-20 0 -27 9t-9 14q-4 8 -4 20t11 34.5t37.5 59t75.5 92.5q24 28 48 54t43 46t31 32.5l12 12.5q8 8 18 8t18 -8q8 -7 8 -17.5t-7 -18.5l-11 -11t-28.5 -29.5t-39.5 -42.5t-44 -51q-29 -32 -49 -57t-33.5 -43t-21.5 -30t-12 -19q18 4 40 14.5t43.5 22.5t40.5 24.5
t32 21.5q4 4 8 6t8 5q8 6 19 3.5t17 -10.5q5 -9 3 -19.5t-10 -16.5q-4 -3 -8 -5t-8 -6q-26 -17 -53.5 -34t-53.5 -30.5t-50.5 -22t-43.5 -8.5zM189 0q-24 0 -36 14q-40 43 57 150l54 58q12 13 26 28t27.5 30t24.5 28t18 23h-6q-11 -2 -19.5 4t-10.5 17t4.5 19.5t17.5 10.5
q4 0 13 1t19 -0.5t19 -6t15 -15.5q7 -14 3.5 -29.5t-18 -36t-38 -47.5t-56.5 -62q-15 -14 -29 -28t-25 -28q-29 -33 -40.5 -51t-13.5 -27q11 2 35 13t63 41q9 6 19.5 4t16.5 -10q8 -9 5.5 -19.5t-10.5 -16.5q-11 -8 -27 -19t-34.5 -21t-38 -17t-35.5 -7zM127 -49l-109 -151
q-7 -8 -17.5 -10t-19.5 5t-10.5 17.5t4.5 19.5l109 150q7 9 18 11t20 -5q8 -6 10 -17t-5 -20z" />
    <glyph glyph-name="mu" unicode="&#x3bc;" horiz-adv-x="507" 
d="M375 0q-20 0 -27 9t-9 14q-4 8 -4 20t11 34.5t37.5 59t75.5 92.5q24 28 48 54t43 46t31 32.5l12 12.5q8 8 18 8t18 -8q8 -7 8 -17.5t-7 -18.5l-11 -11t-28.5 -29.5t-39.5 -42.5t-44 -51q-29 -32 -49 -57t-33.5 -43t-21.5 -30t-12 -19q18 4 40 14.5t43.5 22.5t40.5 24.5
t32 21.5q4 4 8 6t8 5q8 6 19 3.5t17 -10.5q5 -9 3 -19.5t-10 -16.5q-4 -3 -8 -5t-8 -6q-26 -17 -53.5 -34t-53.5 -30.5t-50.5 -22t-43.5 -8.5zM189 0q-24 0 -36 14q-40 43 57 150l54 58q12 13 26 28t27.5 30t24.5 28t18 23h-6q-11 -2 -19.5 4t-10.5 17t4.5 19.5t17.5 10.5
q4 0 13 1t19 -0.5t19 -6t15 -15.5q7 -14 3.5 -29.5t-18 -36t-38 -47.5t-56.5 -62q-15 -14 -29 -28t-25 -28q-29 -33 -40.5 -51t-13.5 -27q11 2 35 13t63 41q9 6 19.5 4t16.5 -10q8 -9 5.5 -19.5t-10.5 -16.5q-11 -8 -27 -19t-34.5 -21t-38 -17t-35.5 -7zM127 -49l-109 -151
q-7 -8 -17.5 -10t-19.5 5t-10.5 17.5t4.5 19.5l109 150q7 9 18 11t20 -5q8 -6 10 -17t-5 -20z" />
    <glyph glyph-name="macron" unicode="&#xaf;" horiz-adv-x="291" 
d="M39 490l-2 6t-2 8q1 11 8.5 18.5t18.5 7.5l171 2q11 -1 18.5 -8.5t7.5 -18.5t-7.5 -19t-19.5 -8l-170 -1q-7 -1 -13 3t-10 10z" />
    <glyph glyph-name="onequarter" unicode="&#xbc;" horiz-adv-x="626" 
d="M503 -216q-8 0 -11 2q-10 5 -13.5 15.5t1.5 20.5l196 401q5 11 15 14.5t21 -1.5q10 -5 13.5 -15.5t-1.5 -20.5l-197 -402q-3 -7 -9.5 -10.5t-14.5 -3.5zM458 -43q-10 0 -17.5 2t-15.5 5q-9 5 -19 15.5t-14 30.5q-7 49 52 141q21 32 39 54.5t19 23.5q8 8 18.5 9t19.5 -6
q8 -7 9 -18t-6 -19q-1 -1 -18 -22.5t-37 -50.5q-17 -26 -26 -44.5t-13 -30.5t-4.5 -18.5t0.5 -9.5q1 -7 4 -7q4 -2 11.5 -1.5t16.5 2.5t17.5 5.5t15.5 7.5q10 5 20.5 2t15.5 -13t2 -20.5t-13 -15.5q-1 0 -11 -5t-25 -10q-11 -3 -21.5 -5t-19.5 -2zM167 120q-7 0 -14 4
q-9 5 -11.5 15.5t2.5 20.5l258 429q6 9 16.5 11.5t19.5 -2.5q10 -6 12.5 -16.5t-3.5 -20.5l-257 -428q-7 -13 -23 -13zM205 434q-16 0 -23 13q-6 9 -3.5 20t12.5 16l113 67q9 6 20 3.5t16 -12.5q6 -10 3.5 -20.5t-12.5 -15.5l-113 -67q-5 -4 -13 -4zM180 10q-3 2 -6 3.5
t-6 4.5q-7 8 -6 18.5t9 18.5l382 324q9 7 19.5 6t17.5 -9q8 -9 7 -19.5t-10 -18.5l-381 -323q-10 -10 -26 -5z" />
    <glyph glyph-name="onehalf" unicode="&#xbd;" horiz-adv-x="636" 
d="M233 174q-7 0 -14 4q-9 5 -11.5 15.5t2.5 20.5l258 429q6 9 16.5 11.5t19.5 -2.5q10 -6 12.5 -16.5t-3.5 -20.5l-257 -428q-7 -13 -23 -13zM271 488q-16 0 -23 13q-6 9 -3.5 20t12.5 16l113 67q9 6 20 3.5t16 -12.5q6 -10 3.5 -20.5t-12.5 -15.5l-113 -67q-5 -4 -13 -4z
M577 -220h-280q-11 0 -18.5 7.5t-7.5 18.5t7.5 19t18.5 8h280q11 0 18.5 -8t7.5 -19t-7.5 -18.5t-18.5 -7.5zM455 -152q-14 0 -23 12q-6 9 -3.5 19.5t11.5 16.5q48 31 90 66.5t73 69.5t49 64.5t18 51.5q0 19 -18 31q-20 12 -42.5 6.5t-40.5 -14.5q-21 -11 -42.5 -28.5
t-38.5 -38.5q-17 -20 -25.5 -36t-8.5 -24q-1 -11 -8.5 -18.5t-18.5 -6.5q-11 0 -19 8t-7 19q0 13 5 26t12 25t15 22.5t14 18.5q21 25 46.5 45.5t50.5 34.5q36 18 67 21q40 3 69 -16q43 -26 43 -75q0 -66 -84 -156q-35 -37 -78.5 -73.5t-91.5 -66.5q-5 -4 -14 -4zM180 10
q-3 2 -6 3.5t-6 4.5q-7 8 -6 18.5t9 18.5l382 324q9 7 19.5 6t17.5 -9q8 -9 7 -19.5t-10 -18.5l-381 -323q-10 -10 -26 -5z" />
    <glyph glyph-name="threequarters" unicode="&#xbe;" horiz-adv-x="644" 
d="M243 238q-31 0 -55.5 8.5t-35.5 28.5q-12 21 -9 35t12.5 18.5t21.5 -0.5t17 -21q3 -11 17 -13.5t32 -2.5q26 0 54 11t52 32q21 18 33.5 38t12.5 36q0 11 -7.5 18t-19 10.5t-24.5 4.5t-23 1q-11 0 -19 8t-8 19t8 18.5t19 7.5q61 0 92 -22q35 -23 35 -65q0 -28 -17 -58.5
t-48 -56.5t-67.5 -40.5t-72.5 -14.5zM435 477q-15 0 -22 12q-6 9 -4 19.5t12 16.5q15 10 30 24q36 34 12 67q-12 16 -37 23t-51 -10q-18 -12 -34 -12t-22.5 7.5t-1 21t30.5 28.5q42 25 89 16q44 -9 68 -43q24 -30 19 -66q-3 -39 -37 -71q-17 -17 -38 -29q-5 -4 -14 -4z
M531 -212q-8 0 -11 2q-10 5 -13.5 15.5t1.5 20.5l196 401q5 11 15 14.5t21 -1.5q10 -5 13.5 -15.5t-1.5 -20.5l-197 -402q-3 -7 -9.5 -10.5t-14.5 -3.5zM486 -39q-10 0 -17.5 2t-15.5 5q-9 5 -19 15.5t-14 30.5q-7 49 52 141q21 32 39 54.5t19 23.5q8 8 18.5 9t19.5 -6
q8 -7 9 -18t-6 -19q-1 -1 -18 -22.5t-37 -50.5q-17 -26 -26 -44.5t-13 -30.5t-4.5 -18.5t0.5 -9.5q1 -7 4 -7q4 -2 11.5 -1.5t16.5 2.5t17.5 5.5t15.5 7.5q10 5 20.5 2t15.5 -13t2 -20.5t-13 -15.5q-1 0 -11 -5t-25 -10q-11 -3 -21.5 -5t-19.5 -2zM180 10q-3 2 -6 3.5
t-6 4.5q-7 8 -6 18.5t9 18.5l382 324q9 7 19.5 6t17.5 -9q8 -9 7 -19.5t-10 -18.5l-381 -323q-10 -10 -26 -5z" />
    <glyph glyph-name="periodcentered" unicode="&#xb7;" horiz-adv-x="232" 
d="M103 150q-7 0 -13 3q-10 6 -12.5 16.5t3.5 20.5l29 49q6 9 16.5 11.5t20.5 -2.5q9 -6 11.5 -16.5t-2.5 -19.5l-30 -50q-8 -12 -23 -12z" />
    <glyph glyph-name="paragraph" unicode="&#xb6;" horiz-adv-x="455" 
d="M453 377q20 -4 24 -20t-7 -27l-198 -476q-5 -15 -21 -17q-3 0 -6.5 -0.5t-7.5 1.5q-10 4 -14.5 13.5t-0.5 20.5l187 452q-14 1 -27.5 1.5t-27.5 2.5l-197 -474q-5 -15 -21 -17q-3 0 -6.5 -0.5t-7.5 1.5q-10 4 -14.5 13.5t-0.5 20.5l145 352q-28 8 -42 34.5t-14 55
t13.5 51.5t41.5 23q51 -1 101 -5.5t101 -5.5z" />
    <glyph glyph-name="germandbls" unicode="&#xdf;" horiz-adv-x="427" 
d="M27 -163q-8 0 -15 5q-9 6 -10.5 16.5t4.5 19.5q9 12 26 37t39 57q21 30 44.5 65t48.5 71t50.5 71.5t48.5 66.5q193 253 334.5 378t236.5 125q20 0 30 -7.5t15 -15.5q5 -10 5 -20.5t-3.5 -21.5t-9 -21.5t-10.5 -19.5q-17 -26 -43 -56t-56 -61.5t-62 -61.5t-62 -55
q-29 -25 -61.5 -50.5t-62.5 -46t-56 -33t-42 -11.5q-11 0 -19 8t-7 19q5 25 28 23q7 0 27.5 11.5t51 33.5t69.5 54t84 73q86 79 130 133t52 74q-29 0 -72.5 -20t-107.5 -73.5t-150 -147t-198 -241.5q-23 -31 -48 -66t-50 -71t-48.5 -70t-43.5 -64q-23 -34 -39 -59t-27 -37
q-8 -11 -21 -11zM512 242q-14 -24 -31 -47.5t-47 -58.5q-15 -20 -32 -41t-29 -37q17 5 37.5 15t40.5 22t37.5 23.5t29.5 19.5q5 4 8.5 6t7.5 5q10 6 20.5 3.5t15.5 -10.5q5 -9 3.5 -19.5t-10.5 -16.5q-4 -3 -7.5 -5t-8.5 -6q-26 -17 -53.5 -34t-53.5 -30.5t-50 -22t-43 -8.5
q-18 0 -26 7.5t-10 12.5q-11 22 10.5 54t74.5 94q8 10 28 34t36 51q10 18 22.5 24t22 3.5t12.5 -13t-5 -25.5zM427 -84h-240q-11 0 -19 7.5t-8 18.5t8 19t19 8h240q11 0 18.5 -8t7.5 -19t-7.5 -18.5t-18.5 -7.5z" />
    <glyph glyph-name="thorn" unicode="&#xfe;" horiz-adv-x="400" 
d="M-16 -226q-3 0 -7 1.5t-7 3.5q-9 8 -10.5 18t4.5 18l566 802q6 8 16.5 10.5t19.5 -5.5q9 -5 10.5 -16t-4.5 -20l-566 -801q-9 -11 -22 -11zM306 0q-14 0 -26.5 6t-20.5 17q-18 29 -6 68q4 11 13 16t18 0q11 -4 16 -13t2 -20q-3 -8 -3 -13.5t2 -7.5q1 0 1.5 -0.5t3.5 -0.5
q13 0 30 9.5t36 26.5t39 40.5t38 51.5q29 45 39.5 75t9.5 40q-17 0 -36.5 -11.5t-30.5 -21.5q-8 -7 -19 -6t-17 9q-8 8 -7.5 19t9.5 17q2 2 11 9.5t23 15.5t31.5 14.5t35.5 6.5q17 0 26 -5.5t12 -11.5q8 -6 11 -16t3 -21q0 -19 -7.5 -42t-19.5 -47t-27 -46.5t-29 -41.5
q-12 -16 -30 -36t-39 -38t-44.5 -30t-47.5 -12zM400 -84h-225q-10 0 -17 7.5t-7 18.5t7 19t17 8h225q11 0 18.5 -8t7.5 -19t-7.5 -18.5t-18.5 -7.5z" />
    <glyph glyph-name="Thorn" unicode="&#xde;" horiz-adv-x="1013" 
d="M227 -181q-42 0 -72.5 11.5t-51 31t-30 44t-9.5 50.5q0 29 13 58.5t36 52.5q26 26 60.5 39.5t75.5 13.5q56 0 103 -22.5t76 -62.5q6 -9 4 -20t-10 -16q-9 -7 -19.5 -5t-16.5 11q-22 29 -57 45.5t-80 16.5q-32 0 -56.5 -10t-41.5 -25.5t-26 -35.5t-9 -40q0 -15 6 -30.5
t19 -28t34 -20t52 -7.5q49 0 99 25.5t97.5 65.5t89 89t73.5 96q31 49 80 119.5t112 151.5q7 9 17 10t19 -5q8 -7 10 -17.5t-6 -18.5q-62 -81 -110 -150t-79 -116q-36 -55 -82.5 -109t-98.5 -96.5t-108.5 -69t-112.5 -26.5zM838 47q-38 0 -78 8.5t-84 29.5q-11 5 -14.5 14
t1.5 19q5 9 14.5 13t18.5 -1q55 -25 105 -30t93 3.5t78.5 27.5t60.5 42q43 43 60 93.5t1 92.5q-20 48 -76 71.5t-144 23.5q-80 0 -136.5 -19t-94.5 -44t-59.5 -51t-29.5 -39q-21 -35 -26 -68.5t7 -55.5q5 -10 1.5 -20.5t-13.5 -15.5q-8 -5 -18.5 -1.5t-15.5 11.5
q-19 35 -14 82t33 94q52 85 148 132.5t218 47.5q70 0 118 -13.5t79 -33t47 -42t23 -39.5q11 -29 11.5 -60.5t-9 -63t-28.5 -62t-46 -57.5q-39 -37 -97.5 -63t-133.5 -26zM1013 -84h-462q-11 0 -18.5 7.5t-7.5 18.5t7.5 19t18.5 8h462q11 0 18.5 -8t7.5 -19t-7.5 -18.5
t-18.5 -7.5zM913 524q-3 1 -6.5 2t-7.5 3q-8 7 -10 17.5t5 19.5l45 64q7 8 17.5 9.5t19.5 -5.5t11 -17.5t-6 -19.5l-44 -63q-8 -12 -24 -10z" />
    <glyph glyph-name="oslash" unicode="&#xf8;" horiz-adv-x="369" 
d="M549 331q-3 2 -6 3.5t-6 4.5q-7 8 -6 18.5t9 18.5l83 73q9 7 19.5 6t17.5 -9q8 -9 7 -19.5t-10 -18.5l-82 -72q-10 -10 -26 -5zM119 -17q-3 2 -6 3.5t-6 4.5q-7 8 -6 18.5t9 18.5l13 13q9 7 19.5 6t17.5 -9q8 -9 7 -19.5t-10 -18.5l-12 -12q-10 -10 -26 -5zM262 80
q-3 2 -6 3.5t-6 4.5q-7 8 -6 18.5t9 18.5l131 120q9 7 19.5 6t17.5 -9q8 -9 7 -19.5t-10 -18.5l-130 -119q-10 -10 -26 -5zM252 0q-47 0 -71 38q-16 31 -7 74t41 92q24 37 53.5 68.5t60.5 53.5t62 34.5t58 12.5q32 0 56 -17.5t35 -48.5q4 -10 -1 -19t-16 -14q-10 -4 -19 0.5
t-13 15.5q-10 32 -42 32q-18 0 -41.5 -9.5t-49 -27.5t-52 -45t-48.5 -62q-28 -44 -33 -73t3 -41q1 -3 5.5 -7.5t18.5 -4.5q33 0 66.5 19.5t61.5 48t45.5 60t19.5 56.5q2 16 -3 19t-10 4q-11 2 -17 10.5t-4 19.5q1 11 9.5 17t18.5 5q29 -5 44.5 -26t13.5 -53
q-3 -33 -24.5 -73t-55.5 -75.5t-77 -59.5t-88 -24zM369 -84h-369q-11 0 -18.5 7.5t-7.5 18.5t7.5 19t18.5 8h369q11 0 18.5 -8t7.5 -19t-7.5 -18.5t-18.5 -7.5z" />
    <glyph glyph-name="Oslash" unicode="&#xd8;" horiz-adv-x="528" 
d="M780 488q-3 2 -6 3.5t-6 4.5q-7 8 -6 18.5t9 18.5l75 58q9 7 19.5 6t17.5 -9q8 -9 7 -19.5t-10 -18.5l-74 -57q-10 -10 -26 -5zM35 -209q-3 2 -6 3.5t-6 4.5q-7 8 -6 18.5t9 18.5l13 13q9 7 19.5 6t17.5 -9q8 -9 7 -19.5t-10 -18.5l-12 -12q-10 -10 -26 -5zM159 -92
q-3 2 -6 3.5t-6 4.5q-7 8 -6 18.5t9 18.5l484 476q9 7 19.5 6t17.5 -9q8 -9 7 -19.5t-10 -18.5l-483 -475q-10 -10 -26 -5zM181 -181q-38 0 -65.5 16.5t-40.5 48.5q-19 44 -7.5 108.5t43.5 135.5t80 142t103 128q51 54 104 92.5t104 61.5q128 52 237 10q10 -4 14.5 -13.5
t-0.5 -20.5q-2 -9 -11.5 -13.5t-20.5 -0.5q-86 32 -187.5 -7t-201.5 -145q-61 -62 -106 -130.5t-72.5 -131.5t-35.5 -114.5t5 -81.5q4 -11 16 -22.5t42 -11.5q36 0 77.5 14.5t85.5 42.5t90 68t90 90q39 44 72 90.5t56.5 90t37 81.5t13.5 65q0 8 -1.5 17.5t-7.5 14.5
q-9 10 -31 10q-11 0 -18.5 7.5t-7.5 18.5t7.5 18t18.5 7q45 0 69 -25q22 -26 22 -68q0 -33 -13.5 -75t-38.5 -89.5t-60 -98t-78 -99.5q-16 -17 -39 -41t-52.5 -49.5t-63.5 -51t-71 -45t-77 -32t-80 -12.5z" />
    <glyph glyph-name="eth" unicode="&#xf0;" horiz-adv-x="374" 
d="M374 -84h-374q-11 0 -19 7.5t-8 18.5t8 19t19 8h374q11 0 19 -8t8 -19t-8 -18.5t-19 -7.5zM489 635q11 -2 16 -10t6 -19q-1 -46 -10.5 -104t-24.5 -116t-33.5 -110.5t-37.5 -87.5q-12 -21 -29.5 -49t-38.5 -54.5t-45 -47.5t-49 -30q-45 -15 -77 14q-14 13 -22 29.5
t-11 34.5q-4 31 5 73q5 22 22 57.5t40 71.5t49.5 65.5t50.5 39.5q21 11 36 9.5t25 -6.5q14 -6 25.5 -17t8.5 -25q-5 -19 -19 -16t-34 11q-2 1 -7.5 0.5t-13.5 -5t-19 -13t-24 -24.5q-17 -20 -36.5 -55.5t-33.5 -73t-18 -70t11 -47.5q4 -3 10 -5t15 2q27 9 65.5 58t75 125.5
t63 173.5t29.5 201q0 11 9.5 17t20.5 3zM362 424q-3 2 -6 3.5t-6 4.5q-7 8 -6 18.5t9 18.5l28 20q9 7 19.5 6t17.5 -9q8 -9 7 -19.5t-10 -18.5l-27 -19q-10 -10 -26 -5zM539 510l-4.5 4.5t-4.5 6.5q-5 10 -1.5 20t14.5 15l42 23q10 4 20 0.5t14 -13.5q5 -11 1.5 -21
t-14.5 -15l-41 -22q-6 -4 -13 -3t-13 5z" />
    <glyph glyph-name="Agrave" unicode="&#xc0;" horiz-adv-x="879" 
d="M879 -84q-26 0 -39 10t-18 21q-11 18 -6.5 43.5t22 59.5t45.5 78t66 100q32 47 63 94t53 90q15 27 22 46.5t9.5 32.5t1.5 20.5t-3 11.5q-5 8 -18 11.5t-25 3.5q-36 0 -74 -23t-76.5 -62t-78 -89.5t-79.5 -105.5q-7 -9 -17 -10.5t-19 4.5q-8 6 -10.5 16.5t5.5 19.5
q44 61 87 116t86 95.5t86.5 64.5t89.5 24q33 0 56 -10t34 -31q14 -27 5.5 -65t-31 -83t-55.5 -96t-69 -104q-28 -42 -53.5 -80.5t-44.5 -72.5q-5 -8 -12 -21t-12 -25.5t-4 -21.5t13 -9q11 0 19 -8t8 -19t-8 -18.5t-19 -7.5zM246 -181q-42 0 -72.5 11.5t-50.5 31t-29.5 44
t-9.5 50.5q0 29 13 58.5t37 52.5q24 26 59.5 39.5t74.5 13.5q63 0 107.5 -31.5t56.5 -83.5q2 -10 -4 -19.5t-17 -11.5q-10 -2 -19 3.5t-11 15.5q-6 26 -21 40.5t-33 22t-34.5 9.5t-24.5 2q-31 0 -55.5 -10t-42 -25.5t-26.5 -35.5t-9 -40q0 -15 6 -30.5t19 -28t34.5 -20
t51.5 -7.5q75 0 163.5 69t196.5 210q6 8 17 10t19 -5q9 -7 10 -17t-6 -19q-116 -153 -213 -226t-187 -73zM880 179h-410q-11 0 -18 7t-7 17q0 11 7 18.5t18 7.5h410q11 0 19 -7.5t8 -18.5q0 -10 -8 -17t-19 -7zM1181 627q-7 0 -11 2l-205 90q-10 5 -14.5 15t0.5 20t15 14
t20 0l206 -91q10 -5 14 -14.5t-1 -20.5q-3 -8 -9.5 -11.5t-14.5 -3.5z" />
    <glyph glyph-name="Aacute" unicode="&#xc1;" horiz-adv-x="879" 
d="M879 -84q-26 0 -39 10t-18 21q-11 18 -6.5 43.5t22 59.5t45.5 78t66 100q32 47 63 94t53 90q15 27 22 46.5t9.5 32.5t1.5 20.5t-3 11.5q-5 8 -18 11.5t-25 3.5q-36 0 -74 -23t-76.5 -62t-78 -89.5t-79.5 -105.5q-7 -9 -17 -10.5t-19 4.5q-8 6 -10.5 16.5t5.5 19.5
q44 61 87 116t86 95.5t86.5 64.5t89.5 24q33 0 56 -10t34 -31q14 -27 5.5 -65t-31 -83t-55.5 -96t-69 -104q-28 -42 -53.5 -80.5t-44.5 -72.5q-5 -8 -12 -21t-12 -25.5t-4 -21.5t13 -9q11 0 19 -8t8 -19t-8 -18.5t-19 -7.5zM246 -181q-42 0 -72.5 11.5t-50.5 31t-29.5 44
t-9.5 50.5q0 29 13 58.5t37 52.5q24 26 59.5 39.5t74.5 13.5q63 0 107.5 -31.5t56.5 -83.5q2 -10 -4 -19.5t-17 -11.5q-10 -2 -19 3.5t-11 15.5q-6 26 -21 40.5t-33 22t-34.5 9.5t-24.5 2q-31 0 -55.5 -10t-42 -25.5t-26.5 -35.5t-9 -40q0 -15 6 -30.5t19 -28t34.5 -20
t51.5 -7.5q75 0 163.5 69t196.5 210q6 8 17 10t19 -5q9 -7 10 -17t-6 -19q-116 -153 -213 -226t-187 -73zM880 179h-410q-11 0 -18 7t-7 17q0 11 7 18.5t18 7.5h410q11 0 19 -7.5t8 -18.5q0 -10 -8 -17t-19 -7zM1015 622q-17 0 -24 15q-5 10 -1.5 20t13.5 15l201 100
q10 5 20 1.5t15 -13.5t2 -20.5t-14 -15.5l-201 -99q-5 -3 -11 -3z" />
    <glyph glyph-name="Acircumflex" unicode="&#xc2;" horiz-adv-x="879" 
d="M879 -84q-26 0 -39 10t-18 21q-11 18 -6.5 43.5t22 59.5t45.5 78t66 100q32 47 63 94t53 90q15 27 22 46.5t9.5 32.5t1.5 20.5t-3 11.5q-5 8 -18 11.5t-25 3.5q-36 0 -74 -23t-76.5 -62t-78 -89.5t-79.5 -105.5q-7 -9 -17 -10.5t-19 4.5q-8 6 -10.5 16.5t5.5 19.5
q44 61 87 116t86 95.5t86.5 64.5t89.5 24q33 0 56 -10t34 -31q14 -27 5.5 -65t-31 -83t-55.5 -96t-69 -104q-28 -42 -53.5 -80.5t-44.5 -72.5q-5 -8 -12 -21t-12 -25.5t-4 -21.5t13 -9q11 0 19 -8t8 -19t-8 -18.5t-19 -7.5zM246 -181q-42 0 -72.5 11.5t-50.5 31t-29.5 44
t-9.5 50.5q0 29 13 58.5t37 52.5q24 26 59.5 39.5t74.5 13.5q63 0 107.5 -31.5t56.5 -83.5q2 -10 -4 -19.5t-17 -11.5q-10 -2 -19 3.5t-11 15.5q-6 26 -21 40.5t-33 22t-34.5 9.5t-24.5 2q-31 0 -55.5 -10t-42 -25.5t-26.5 -35.5t-9 -40q0 -15 6 -30.5t19 -28t34.5 -20
t51.5 -7.5q75 0 163.5 69t196.5 210q6 8 17 10t19 -5q9 -7 10 -17t-6 -19q-116 -153 -213 -226t-187 -73zM880 179h-410q-11 0 -18 7t-7 17q0 11 7 18.5t18 7.5h410q11 0 19 -7.5t8 -18.5q0 -10 -8 -17t-19 -7zM1155 786q23 0 40 -18q21 -21 24 -69q1 -8 1 -15.5v-12.5v-12
q-2 -11 -10 -18.5t-19 -6.5t-18 9.5t-6 19.5v11v11.5t-1 14.5q-2 20 -6 26t-5 7q-1 0 -5 -1t-13.5 -5t-24.5 -13t-37 -25q-12 -9 -23 -17.5t-19 -15.5q-10 -8 -17 -15q-8 -8 -19 -7t-19 9q-7 8 -6.5 19t8.5 19q2 1 20 16t44 34q49 37 74 46t37 9z" />
    <glyph glyph-name="Atilde" unicode="&#xc3;" horiz-adv-x="879" 
d="M879 -84q-26 0 -39 10t-18 21q-11 18 -6.5 43.5t22 59.5t45.5 78t66 100q32 47 63 94t53 90q15 27 22 46.5t9.5 32.5t1.5 20.5t-3 11.5q-5 8 -18 11.5t-25 3.5q-36 0 -74 -23t-76.5 -62t-78 -89.5t-79.5 -105.5q-7 -9 -17 -10.5t-19 4.5q-8 6 -10.5 16.5t5.5 19.5
q44 61 87 116t86 95.5t86.5 64.5t89.5 24q33 0 56 -10t34 -31q14 -27 5.5 -65t-31 -83t-55.5 -96t-69 -104q-28 -42 -53.5 -80.5t-44.5 -72.5q-5 -8 -12 -21t-12 -25.5t-4 -21.5t13 -9q11 0 19 -8t8 -19t-8 -18.5t-19 -7.5zM246 -181q-42 0 -72.5 11.5t-50.5 31t-29.5 44
t-9.5 50.5q0 29 13 58.5t37 52.5q24 26 59.5 39.5t74.5 13.5q63 0 107.5 -31.5t56.5 -83.5q2 -10 -4 -19.5t-17 -11.5q-10 -2 -19 3.5t-11 15.5q-6 26 -21 40.5t-33 22t-34.5 9.5t-24.5 2q-31 0 -55.5 -10t-42 -25.5t-26.5 -35.5t-9 -40q0 -15 6 -30.5t19 -28t34.5 -20
t51.5 -7.5q75 0 163.5 69t196.5 210q6 8 17 10t19 -5q9 -7 10 -17t-6 -19q-116 -153 -213 -226t-187 -73zM880 179h-410q-11 0 -18 7t-7 17q0 11 7 18.5t18 7.5h410q11 0 19 -7.5t8 -18.5q0 -10 -8 -17t-19 -7zM1154 631h-4q-21 1 -38 17q-16 16 -26 42q-5 12 -9.5 17
t-7.5 5q-1 0 -11 -3.5t-30 -26.5q-13 -17 -20 -26l-8 -12q-5 -10 -16 -12.5t-20 3.5q-10 5 -12.5 15.5t3.5 20.5q0 1 9.5 15t23.5 31q45 51 85 48q14 -1 31.5 -12t30.5 -44q6 -15 11.5 -20t7.5 -5q2 -1 10 3.5t20 18.5q9 10 16 21q4 5 6 10q6 10 16.5 12.5t19.5 -2.5
q10 -5 13 -15.5t-3 -20.5q0 -1 -7.5 -13t-19.5 -26q-36 -41 -71 -41z" />
    <glyph glyph-name="Adieresis" unicode="&#xc4;" horiz-adv-x="879" 
d="M879 -84q-26 0 -39 10t-18 21q-11 18 -6.5 43.5t22 59.5t45.5 78t66 100q32 47 63 94t53 90q15 27 22 46.5t9.5 32.5t1.5 20.5t-3 11.5q-5 8 -18 11.5t-25 3.5q-36 0 -74 -23t-76.5 -62t-78 -89.5t-79.5 -105.5q-7 -9 -17 -10.5t-19 4.5q-8 6 -10.5 16.5t5.5 19.5
q44 61 87 116t86 95.5t86.5 64.5t89.5 24q33 0 56 -10t34 -31q14 -27 5.5 -65t-31 -83t-55.5 -96t-69 -104q-28 -42 -53.5 -80.5t-44.5 -72.5q-5 -8 -12 -21t-12 -25.5t-4 -21.5t13 -9q11 0 19 -8t8 -19t-8 -18.5t-19 -7.5zM246 -181q-42 0 -72.5 11.5t-50.5 31t-29.5 44
t-9.5 50.5q0 29 13 58.5t37 52.5q24 26 59.5 39.5t74.5 13.5q63 0 107.5 -31.5t56.5 -83.5q2 -10 -4 -19.5t-17 -11.5q-10 -2 -19 3.5t-11 15.5q-6 26 -21 40.5t-33 22t-34.5 9.5t-24.5 2q-31 0 -55.5 -10t-42 -25.5t-26.5 -35.5t-9 -40q0 -15 6 -30.5t19 -28t34.5 -20
t51.5 -7.5q75 0 163.5 69t196.5 210q6 8 17 10t19 -5q9 -7 10 -17t-6 -19q-116 -153 -213 -226t-187 -73zM880 179h-410q-11 0 -18 7t-7 17q0 11 7 18.5t18 7.5h410q11 0 19 -7.5t8 -18.5q0 -10 -8 -17t-19 -7zM1055 648q-6 0 -14 4q-10 6 -12.5 16.5t3.5 20.5l29 49
q6 9 16.5 11.5t20.5 -2.5q9 -6 11.5 -16.5t-2.5 -20.5l-30 -49q-8 -13 -22 -13zM1172 648q-5 0 -13 4q-10 6 -12.5 16.5t3.5 20.5l29 49q6 9 16.5 11.5t19.5 -2.5q10 -6 12.5 -16.5t-3.5 -20.5l-29 -49q-8 -13 -23 -13z" />
    <glyph glyph-name="Aring" unicode="&#xc5;" horiz-adv-x="879" 
d="M879 -84q-26 0 -39 10t-18 21q-11 18 -6.5 43.5t22 59.5t45.5 78t66 100q32 47 63 94t53 90q15 27 22 46.5t9.5 32.5t1.5 20.5t-3 11.5q-5 8 -18 11.5t-25 3.5q-36 0 -74 -23t-76.5 -62t-78 -89.5t-79.5 -105.5q-7 -9 -17 -10.5t-19 4.5q-8 6 -10.5 16.5t5.5 19.5
q44 61 87 116t86 95.5t86.5 64.5t89.5 24q33 0 56 -10t34 -31q14 -27 5.5 -65t-31 -83t-55.5 -96t-69 -104q-28 -42 -53.5 -80.5t-44.5 -72.5q-5 -8 -12 -21t-12 -25.5t-4 -21.5t13 -9q11 0 19 -8t8 -19t-8 -18.5t-19 -7.5zM246 -181q-42 0 -72.5 11.5t-50.5 31t-29.5 44
t-9.5 50.5q0 29 13 58.5t37 52.5q24 26 59.5 39.5t74.5 13.5q63 0 107.5 -31.5t56.5 -83.5q2 -10 -4 -19.5t-17 -11.5q-10 -2 -19 3.5t-11 15.5q-6 26 -21 40.5t-33 22t-34.5 9.5t-24.5 2q-31 0 -55.5 -10t-42 -25.5t-26.5 -35.5t-9 -40q0 -15 6 -30.5t19 -28t34.5 -20
t51.5 -7.5q75 0 163.5 69t196.5 210q6 8 17 10t19 -5q9 -7 10 -17t-6 -19q-116 -153 -213 -226t-187 -73zM880 179h-410q-11 0 -18 7t-7 17q0 11 7 18.5t18 7.5h410q11 0 19 -7.5t8 -18.5q0 -10 -8 -17t-19 -7zM1145 598q-21 0 -40 8t-33.5 22.5t-22.5 33.5t-8 41t8 41
t22.5 33t33.5 22t40 8q22 0 41 -8t33 -22t22.5 -33t8.5 -41q0 -11 -8 -19t-19 -8t-18.5 8t-7.5 19q0 21 -15 36t-37 15q-21 0 -36 -15t-15 -36t15 -36.5t36 -15.5q15 0 29 9q9 6 20 4t17 -11t4 -19.5t-11 -17.5q-13 -8 -28 -13t-31 -5z" />
    <glyph glyph-name="AE" unicode="&#xc6;" horiz-adv-x="1411" 
d="M879 -84q-26 0 -39 10t-18 21q-11 18 -6.5 43.5t22 59.5t45.5 78t66 100q32 47 63 94t53 90q15 27 22 46.5t9.5 32.5t1.5 20.5t-3 11.5q-5 8 -18 11.5t-25 3.5q-36 0 -74 -23t-76.5 -62t-78 -89.5t-79.5 -105.5q-7 -9 -17 -10.5t-19 4.5q-8 6 -10.5 16.5t5.5 19.5
q44 61 87 116t86 95.5t86.5 64.5t89.5 24q33 0 56 -10t34 -31q14 -27 5.5 -65t-31 -83t-55.5 -96t-69 -104q-28 -42 -53.5 -80.5t-44.5 -72.5q-5 -8 -12 -21t-12 -25.5t-4 -21.5t13 -9q11 0 19 -8t8 -19t-8 -18.5t-19 -7.5zM246 -181q-42 0 -72.5 11.5t-50.5 31t-29.5 44
t-9.5 50.5q0 29 13 58.5t37 52.5q24 26 59.5 39.5t74.5 13.5q63 0 107.5 -31.5t56.5 -83.5q2 -10 -4 -19.5t-17 -11.5q-10 -2 -19 3.5t-11 15.5q-6 26 -21 40.5t-33 22t-34.5 9.5t-24.5 2q-31 0 -55.5 -10t-42 -25.5t-26.5 -35.5t-9 -40q0 -15 6 -30.5t19 -28t34.5 -20
t51.5 -7.5q75 0 163.5 69t196.5 210q6 8 17 10t19 -5q9 -7 10 -17t-6 -19q-116 -153 -213 -226t-187 -73zM880 179h-410q-11 0 -18 7t-7 17q0 11 7 18.5t18 7.5h410q11 0 19 -7.5t8 -18.5q0 -10 -8 -17t-19 -7zM1170 -197q-29 0 -57 5.5t-56 18.5q-33 16 -56.5 42t-35.5 59
t-12 71.5t14 79.5q14 43 40.5 78t63.5 58q42 26 90 33t102 -4q10 -3 15.5 -11t2.5 -19q-2 -11 -11 -17t-19 -4q-46 11 -84.5 4t-68.5 -26t-51 -47.5t-32 -61.5q-9 -26 -10.5 -53.5t5.5 -53t23.5 -46.5t44.5 -34q52 -24 101.5 -21t90.5 32q29 21 44 49.5t13 52.5
q-3 14 -10.5 23.5t-22.5 16.5q-16 3 -24 -2q-5 -5 -7 -13t0 -15q5 -17 22 -18q11 -2 16.5 -11t3.5 -19q-2 -11 -11 -17.5t-18 -4.5q-24 5 -40.5 19t-21.5 36q-6 22 -0.5 44t22.5 38q16 13 36 15.5t43 -6.5q54 -22 63 -80q5 -39 -16.5 -79.5t-61.5 -70.5q-29 -20 -62 -30.5
t-68 -10.5zM1464 251q-15 0 -29 1t-28 6q-11 3 -16.5 11.5t-2.5 19.5t12 16t20 3q33 -9 65 -4.5t58.5 19.5t46.5 37t30 48q4 9 7 24.5t0 34t-16.5 38t-42.5 35.5q-34 18 -68.5 22t-66.5 -2t-61 -19.5t-51 -31.5q-53 -43 -77.5 -99.5t-10.5 -107.5q3 -10 -2.5 -19t-15.5 -12
q-11 -4 -20 1.5t-11 16.5q-9 33 -6.5 67.5t16 68.5t37 65.5t56.5 57.5q35 28 74 44.5t78.5 21t78.5 -3t75 -26.5q60 -32 80 -84t-4 -112q-11 -28 -31.5 -53t-47 -43.5t-59 -29.5t-67.5 -11z" />
    <glyph glyph-name="Ccedilla" unicode="&#xc7;" horiz-adv-x="483" 
d="M259 -200q-40 0 -82 18q-43 19 -68 58t-29 93q-5 68 21.5 151t74.5 164t111.5 153t134.5 117q78 50 150 57.5t133 -27.5q54 -29 69 -79t-11 -109q-15 -35 -42 -66t-61 -51t-73 -27t-77 6q-11 3 -15.5 13t-0.5 19q3 11 12 15.5t19 1.5q28 -9 57.5 -3t55 22t46.5 40t33 50
q5 12 8.5 28t1 32.5t-12.5 33t-33 30.5q-31 16 -62.5 19t-61.5 -3t-57 -18.5t-49 -26.5q-43 -28 -84.5 -67t-78 -85.5t-66.5 -97.5t-51 -101.5t-31 -98.5t-7 -89q3 -77 65 -108q25 -11 47 -12.5t40 2t31.5 11t22.5 14.5q29 22 45.5 54.5t11.5 59.5q-4 23 -29 33
q-7 2 -15.5 2t-14.5 -5q-11 -12 -6 -25q4 -16 23 -18q11 -2 17 -10.5t4 -19.5t-10.5 -17t-19.5 -5q-23 5 -39.5 18t-23.5 35q-7 20 -2 41t21 37q15 16 36.5 19.5t44.5 -4.5q26 -8 42.5 -27t21.5 -46q4 -20 0.5 -42.5t-13.5 -44t-26 -41t-35 -34.5q-51 -39 -113 -39z
M180 -206q-13 -10 -19 -24t1 -31q5 -7 8.5 -9.5t11.5 -5.5q5 -1 10.5 -1h10.5q4 0 15 -2.5t19 -6.5t9 -8.5t-15 -8.5q-26 -7 -55.5 -4.5t-56.5 4.5q-12 -2 -18.5 -9t-7.5 -15.5t4.5 -17t16.5 -12.5q20 -1 40.5 -2.5t40.5 -1t39.5 4t37.5 12.5q16 8 22 24t3 32.5t-13 31.5
t-24 22q-10 5 -19 6.5t-19 2.5q-1 14 -13 21t-29 -2z" />
    <glyph glyph-name="Egrave" unicode="&#xc8;" horiz-adv-x="532" 
d="M291 -197q-29 0 -57 5.5t-56 18.5q-33 16 -56.5 42t-35.5 59t-12 71.5t14 79.5q14 43 40.5 78t63.5 58q42 26 90 33t102 -4q10 -3 15.5 -11t2.5 -19q-2 -11 -11 -17t-19 -4q-46 11 -84.5 4t-68.5 -26t-51 -47.5t-32 -61.5q-9 -26 -10.5 -53.5t5.5 -53t23.5 -46.5
t44.5 -34q52 -24 101.5 -21t90.5 32q29 21 44 49.5t13 52.5q-3 14 -10.5 23.5t-22.5 16.5q-16 3 -24 -2q-5 -5 -7 -13t0 -15q5 -17 22 -18q11 -2 16.5 -11t3.5 -19q-2 -11 -11 -17.5t-18 -4.5q-24 5 -40.5 19t-21.5 36q-6 22 -0.5 44t22.5 38q16 13 36 15.5t43 -6.5
q54 -22 63 -80q5 -39 -16.5 -79.5t-61.5 -70.5q-29 -20 -62 -30.5t-68 -10.5zM585 251q-15 0 -29 1t-28 6q-11 3 -16.5 11.5t-2.5 19.5t12 16t20 3q33 -9 65 -4.5t58.5 19.5t46.5 37t30 48q4 9 7 24.5t0 34t-16.5 38t-42.5 35.5q-34 18 -68.5 22t-66.5 -2t-61 -19.5
t-51 -31.5q-53 -43 -77.5 -99.5t-10.5 -107.5q3 -10 -2.5 -19t-15.5 -12q-11 -4 -20 1.5t-11 16.5q-9 33 -6.5 67.5t16 68.5t37 65.5t56.5 57.5q35 28 74 44.5t78.5 21t78.5 -3t75 -26.5q60 -32 80 -84t-4 -112q-11 -28 -31.5 -53t-47 -43.5t-59 -29.5t-67.5 -11zM765 598
q-7 0 -11 2l-205 90q-10 5 -14.5 15t0.5 20t15 14t20 0l206 -91q10 -5 14 -14.5t-1 -20.5q-3 -8 -9.5 -11.5t-14.5 -3.5z" />
    <glyph glyph-name="Eacute" unicode="&#xc9;" horiz-adv-x="532" 
d="M291 -197q-29 0 -57 5.5t-56 18.5q-33 16 -56.5 42t-35.5 59t-12 71.5t14 79.5q14 43 40.5 78t63.5 58q42 26 90 33t102 -4q10 -3 15.5 -11t2.5 -19q-2 -11 -11 -17t-19 -4q-46 11 -84.5 4t-68.5 -26t-51 -47.5t-32 -61.5q-9 -26 -10.5 -53.5t5.5 -53t23.5 -46.5
t44.5 -34q52 -24 101.5 -21t90.5 32q29 21 44 49.5t13 52.5q-3 14 -10.5 23.5t-22.5 16.5q-16 3 -24 -2q-5 -5 -7 -13t0 -15q5 -17 22 -18q11 -2 16.5 -11t3.5 -19q-2 -11 -11 -17.5t-18 -4.5q-24 5 -40.5 19t-21.5 36q-6 22 -0.5 44t22.5 38q16 13 36 15.5t43 -6.5
q54 -22 63 -80q5 -39 -16.5 -79.5t-61.5 -70.5q-29 -20 -62 -30.5t-68 -10.5zM585 251q-15 0 -29 1t-28 6q-11 3 -16.5 11.5t-2.5 19.5t12 16t20 3q33 -9 65 -4.5t58.5 19.5t46.5 37t30 48q4 9 7 24.5t0 34t-16.5 38t-42.5 35.5q-34 18 -68.5 22t-66.5 -2t-61 -19.5
t-51 -31.5q-53 -43 -77.5 -99.5t-10.5 -107.5q3 -10 -2.5 -19t-15.5 -12q-11 -4 -20 1.5t-11 16.5q-9 33 -6.5 67.5t16 68.5t37 65.5t56.5 57.5q35 28 74 44.5t78.5 21t78.5 -3t75 -26.5q60 -32 80 -84t-4 -112q-11 -28 -31.5 -53t-47 -43.5t-59 -29.5t-67.5 -11zM617 634
q-17 0 -24 15q-5 10 -1.5 20t13.5 15l201 100q10 5 20 1.5t15 -13.5t2 -20.5t-14 -15.5l-201 -99q-5 -3 -11 -3z" />
    <glyph glyph-name="Ecircumflex" unicode="&#xca;" horiz-adv-x="532" 
d="M291 -197q-29 0 -57 5.5t-56 18.5q-33 16 -56.5 42t-35.5 59t-12 71.5t14 79.5q14 43 40.5 78t63.5 58q42 26 90 33t102 -4q10 -3 15.5 -11t2.5 -19q-2 -11 -11 -17t-19 -4q-46 11 -84.5 4t-68.5 -26t-51 -47.5t-32 -61.5q-9 -26 -10.5 -53.5t5.5 -53t23.5 -46.5
t44.5 -34q52 -24 101.5 -21t90.5 32q29 21 44 49.5t13 52.5q-3 14 -10.5 23.5t-22.5 16.5q-16 3 -24 -2q-5 -5 -7 -13t0 -15q5 -17 22 -18q11 -2 16.5 -11t3.5 -19q-2 -11 -11 -17.5t-18 -4.5q-24 5 -40.5 19t-21.5 36q-6 22 -0.5 44t22.5 38q16 13 36 15.5t43 -6.5
q54 -22 63 -80q5 -39 -16.5 -79.5t-61.5 -70.5q-29 -20 -62 -30.5t-68 -10.5zM585 251q-15 0 -29 1t-28 6q-11 3 -16.5 11.5t-2.5 19.5t12 16t20 3q33 -9 65 -4.5t58.5 19.5t46.5 37t30 48q4 9 7 24.5t0 34t-16.5 38t-42.5 35.5q-34 18 -68.5 22t-66.5 -2t-61 -19.5
t-51 -31.5q-53 -43 -77.5 -99.5t-10.5 -107.5q3 -10 -2.5 -19t-15.5 -12q-11 -4 -20 1.5t-11 16.5q-9 33 -6.5 67.5t16 68.5t37 65.5t56.5 57.5q35 28 74 44.5t78.5 21t78.5 -3t75 -26.5q60 -32 80 -84t-4 -112q-11 -28 -31.5 -53t-47 -43.5t-59 -29.5t-67.5 -11zM686 790
q23 0 40 -18q21 -21 24 -69q1 -8 1 -15.5v-12.5v-12q-2 -11 -10 -18.5t-19 -6.5t-18 9.5t-6 19.5v11v11.5t-1 14.5q-2 20 -6 26t-5 7q-1 0 -5 -1t-13.5 -5t-24.5 -13t-37 -25q-12 -9 -23 -17.5t-19 -15.5q-10 -8 -17 -15q-8 -8 -19 -7t-19 9q-7 8 -6.5 19t8.5 19q2 1 20 16
t44 34q49 37 74 46t37 9z" />
    <glyph glyph-name="Edieresis" unicode="&#xcb;" horiz-adv-x="532" 
d="M291 -197q-29 0 -57 5.5t-56 18.5q-33 16 -56.5 42t-35.5 59t-12 71.5t14 79.5q14 43 40.5 78t63.5 58q42 26 90 33t102 -4q10 -3 15.5 -11t2.5 -19q-2 -11 -11 -17t-19 -4q-46 11 -84.5 4t-68.5 -26t-51 -47.5t-32 -61.5q-9 -26 -10.5 -53.5t5.5 -53t23.5 -46.5
t44.5 -34q52 -24 101.5 -21t90.5 32q29 21 44 49.5t13 52.5q-3 14 -10.5 23.5t-22.5 16.5q-16 3 -24 -2q-5 -5 -7 -13t0 -15q5 -17 22 -18q11 -2 16.5 -11t3.5 -19q-2 -11 -11 -17.5t-18 -4.5q-24 5 -40.5 19t-21.5 36q-6 22 -0.5 44t22.5 38q16 13 36 15.5t43 -6.5
q54 -22 63 -80q5 -39 -16.5 -79.5t-61.5 -70.5q-29 -20 -62 -30.5t-68 -10.5zM585 251q-15 0 -29 1t-28 6q-11 3 -16.5 11.5t-2.5 19.5t12 16t20 3q33 -9 65 -4.5t58.5 19.5t46.5 37t30 48q4 9 7 24.5t0 34t-16.5 38t-42.5 35.5q-34 18 -68.5 22t-66.5 -2t-61 -19.5
t-51 -31.5q-53 -43 -77.5 -99.5t-10.5 -107.5q3 -10 -2.5 -19t-15.5 -12q-11 -4 -20 1.5t-11 16.5q-9 33 -6.5 67.5t16 68.5t37 65.5t56.5 57.5q35 28 74 44.5t78.5 21t78.5 -3t75 -26.5q60 -32 80 -84t-4 -112q-11 -28 -31.5 -53t-47 -43.5t-59 -29.5t-67.5 -11zM631 644
q-6 0 -14 4q-10 6 -12.5 16.5t3.5 20.5l29 49q6 9 16.5 11.5t20.5 -2.5q9 -6 11.5 -16.5t-2.5 -20.5l-30 -49q-8 -13 -22 -13zM748 644q-5 0 -13 4q-10 6 -12.5 16.5t3.5 20.5l29 49q6 9 16.5 11.5t19.5 -2.5q10 -6 12.5 -16.5t-3.5 -20.5l-29 -49q-8 -13 -23 -13z" />
    <glyph glyph-name="Igrave" unicode="&#xcc;" horiz-adv-x="371" 
d="M116 -115q-10 0 -18 7.5t-8 18.5q0 9 8 16.5t18 7.5q58 0 109 36t98.5 98t95 146.5t98.5 180.5q23 44 46.5 88.5t49.5 90.5q5 10 15.5 12.5t20.5 -3.5q9 -5 11 -15t-3 -19q-24 -47 -48 -90.5t-47 -87.5q-54 -102 -104.5 -191t-103 -154.5t-110.5 -103.5t-128 -38z
M705 614q-7 0 -11 2l-205 90q-10 5 -14.5 15t0.5 20t15 14t20 0l206 -91q10 -5 14 -14.5t-1 -20.5q-3 -8 -9.5 -11.5t-14.5 -3.5zM349 439q-11 0 -18 8t-7 19q0 9 7 17t18 8q42 0 88 14.5t89 42.5q9 6 19.5 4t15.5 -12q7 -9 4 -19.5t-11 -16.5q-50 -32 -103 -48.5
t-102 -16.5z" />
    <glyph glyph-name="Iacute" unicode="&#xcd;" horiz-adv-x="371" 
d="M116 -115q-10 0 -18 7.5t-8 18.5q0 9 8 16.5t18 7.5q58 0 109 36t98.5 98t95 146.5t98.5 180.5q23 44 46.5 88.5t49.5 90.5q5 10 15.5 12.5t20.5 -3.5q9 -5 11 -15t-3 -19q-24 -47 -48 -90.5t-47 -87.5q-54 -102 -104.5 -191t-103 -154.5t-110.5 -103.5t-128 -38z
M572 613q-17 0 -24 15q-5 10 -1.5 20t13.5 15l201 100q10 5 20 1.5t15 -13.5t2 -20.5t-14 -15.5l-201 -99q-5 -3 -11 -3zM349 439q-11 0 -18 8t-7 19q0 9 7 17t18 8q42 0 88 14.5t89 42.5q9 6 19.5 4t15.5 -12q7 -9 4 -19.5t-11 -16.5q-50 -32 -103 -48.5t-102 -16.5z" />
    <glyph glyph-name="Icircumflex" unicode="&#xce;" horiz-adv-x="371" 
d="M116 -115q-10 0 -18 7.5t-8 18.5q0 9 8 16.5t18 7.5q58 0 109 36t98.5 98t95 146.5t98.5 180.5q23 44 46.5 88.5t49.5 90.5q5 10 15.5 12.5t20.5 -3.5q9 -5 11 -15t-3 -19q-24 -47 -48 -90.5t-47 -87.5q-54 -102 -104.5 -191t-103 -154.5t-110.5 -103.5t-128 -38z
M679 761q23 0 40 -18q21 -21 24 -69q1 -8 1 -15.5v-12.5v-12q-2 -11 -10 -18.5t-19 -6.5t-18 9.5t-6 19.5v11v11.5t-1 14.5q-2 20 -6 26t-5 7q-1 0 -5 -1t-13.5 -5t-24.5 -13t-37 -25q-12 -9 -23 -17.5t-19 -15.5q-10 -8 -17 -15q-8 -8 -19 -7t-19 9q-7 8 -6.5 19t8.5 19
q2 1 20 16t44 34q49 37 74 46t37 9zM349 439q-11 0 -18 8t-7 19q0 9 7 17t18 8q42 0 88 14.5t89 42.5q9 6 19.5 4t15.5 -12q7 -9 4 -19.5t-11 -16.5q-50 -32 -103 -48.5t-102 -16.5z" />
    <glyph glyph-name="Idieresis" unicode="&#xcf;" horiz-adv-x="371" 
d="M116 -115q-10 0 -18 7.5t-8 18.5q0 9 8 16.5t18 7.5q58 0 109 36t98.5 98t95 146.5t98.5 180.5q23 44 46.5 88.5t49.5 90.5q5 10 15.5 12.5t20.5 -3.5q9 -5 11 -15t-3 -19q-24 -47 -48 -90.5t-47 -87.5q-54 -102 -104.5 -191t-103 -154.5t-110.5 -103.5t-128 -38z
M349 439q-11 0 -18 8t-7 19q0 9 7 17t18 8q42 0 88 14.5t89 42.5q9 6 19.5 4t15.5 -12q7 -9 4 -19.5t-11 -16.5q-50 -32 -103 -48.5t-102 -16.5zM578 624q-6 0 -14 4q-10 6 -12.5 16.5t3.5 20.5l29 49q6 9 16.5 11.5t20.5 -2.5q9 -6 11.5 -16.5t-2.5 -20.5l-30 -49
q-8 -13 -22 -13zM695 624q-5 0 -13 4q-10 6 -12.5 16.5t3.5 20.5l29 49q6 9 16.5 11.5t19.5 -2.5q10 -6 12.5 -16.5t-3.5 -20.5l-29 -49q-8 -13 -23 -13z" />
    <glyph glyph-name="Eth" unicode="&#xd0;" horiz-adv-x="705" 
d="M317 -174q-21 0 -41 1.5t-39 6.5q-47 11 -77.5 33t-47.5 49.5t-21.5 59t2.5 61.5q7 33 26 62.5t47 50t63 29.5t76 0q11 -3 17 -11t3 -19q-2 -11 -10.5 -17t-19.5 -4q-29 6 -54.5 -0.5t-45.5 -21t-33.5 -35.5t-18.5 -45q-5 -20 -2.5 -41.5t14.5 -41t34.5 -35t57.5 -23.5
q51 -11 98.5 -6.5t91 19t81 36t67.5 43.5q37 27 72 61t65.5 71.5t55 77.5t42.5 81q32 74 27.5 131.5t-46.5 94.5q-23 20 -55 30.5t-68 11t-73.5 -9t-71.5 -29.5q-36 -21 -59.5 -47.5t-36 -53t-14 -50t6.5 -38.5q5 -10 1.5 -19.5t-12.5 -14.5q-10 -6 -20.5 -3t-15.5 12
q-14 25 -12.5 59t17.5 70t45.5 70t73.5 59q43 24 88.5 36t89 11t82 -14.5t68.5 -40.5q54 -48 62 -122.5t-30 -164.5q-19 -43 -45.5 -86t-59 -83t-69 -76t-76.5 -66q-74 -54 -150 -81.5t-150 -27.5zM215 -72q-12 0 -20 8q-7 9 -6.5 19.5t8.5 18.5q30 24 71 71.5t85 105
t88 117.5t78.5 109.5t56 81.5t22.5 33q5 9 15.5 10.5t19.5 -3.5q10 -6 11.5 -16.5t-4.5 -19.5q-3 -4 -26 -38t-58 -84t-79 -110.5t-88 -118t-85.5 -105.5t-72.5 -73q-6 -6 -16 -6zM532 -30q-10 0 -15 4q-21 15 -38 31.5t-34 32.5q-20 21 -39 39q-8 6 -8.5 17t7.5 19
q6 7 17 8t19 -6l42 -41q14 -14 30 -29t33 -29q10 -7 11.5 -17t-4.5 -19q-8 -10 -21 -10zM511 208l-2 6t-2 8q1 11 8.5 18.5t18.5 7.5h80q11 -1 18.5 -8.5t7.5 -18.5t-7.5 -19t-19.5 -8l-79 1q-7 -1 -13 3t-10 10z" />
    <glyph glyph-name="Ntilde" unicode="&#xd1;" horiz-adv-x="910" 
d="M910 -84q-46 0 -73.5 13t-40.5 37q-14 29 -2.5 67t39 83t66.5 95t82 103q27 35 51.5 66t44.5 59q28 40 34 59t6 23q-7 2 -24.5 -4t-44.5 -23q-44 -30 -98 -78t-116 -111q-7 -8 -17.5 -8t-18.5 8q-7 8 -8 18t7 18q63 65 120 115t102 79q45 31 80.5 36.5t55.5 -14.5
q40 -40 -35 -147q-22 -29 -47.5 -61t-53.5 -67q-37 -46 -73.5 -92.5t-63.5 -88.5q-17 -27 -26 -46.5t-12.5 -33t-2.5 -21.5t3 -12q4 -9 21.5 -14t44.5 -5q11 0 18 -8t7 -19t-7 -18.5t-18 -7.5zM645 460q-26 0 -52.5 6.5t-53.5 20.5q-8 5 -11.5 15t1.5 19q6 10 16 13t19 -2
q51 -27 104.5 -19t121.5 37q11 5 20.5 1t14.5 -13q10 -25 -15 -35q-45 -20 -86 -31.5t-79 -11.5zM222 -181q-42 0 -72.5 11.5t-50.5 31t-29.5 44t-9.5 50.5q0 29 13 58.5t36 52.5q53 53 135 53q26 0 53 -8t50 -24t40.5 -39t24.5 -54q2 -9 -3 -18t-16 -12q-25 -3 -32 19
q-5 20 -16.5 35.5t-28 26t-35.5 16t-37 5.5q-31 0 -55.5 -10t-41.5 -25.5t-26 -35.5t-9 -40q0 -15 6 -30.5t19 -28t34 -20t51 -7.5q49 0 99 25.5t97.5 65.5t89 89t73.5 96q13 21 38.5 57.5t56.5 80t65.5 90.5t65.5 88.5t57 73t40 45.5q7 7 18 7t19 -7q6 -8 6 -18.5t-7 -17.5
q-13 -13 -37 -43t-54.5 -70t-63.5 -85.5t-64 -88.5t-56.5 -79.5t-40.5 -58.5q-36 -55 -82 -109t-98.5 -96.5t-109 -69t-112.5 -26.5zM1124 627h-4q-21 1 -38 17q-16 16 -26 42q-5 12 -9.5 17t-7.5 5q-1 0 -11 -3.5t-30 -26.5q-13 -17 -20 -26l-8 -12q-5 -10 -16 -12.5
t-20 3.5q-10 5 -12.5 15.5t3.5 20.5q0 1 9.5 15t23.5 31q45 51 85 48q14 -1 31.5 -12t30.5 -44q6 -15 11.5 -20t7.5 -5q2 -1 10 3.5t20 18.5q9 10 16 21q4 5 6 10q6 10 16.5 12.5t19.5 -2.5q10 -5 13 -15.5t-3 -20.5q0 -1 -7.5 -13t-19.5 -26q-36 -41 -71 -41z" />
    <glyph glyph-name="Ograve" unicode="&#xd2;" horiz-adv-x="528" 
d="M181 -181q-38 0 -65.5 16.5t-40.5 48.5q-19 44 -7.5 108.5t43.5 135.5t80 142t103 128q51 54 104 92.5t104 61.5q128 52 237 10q10 -4 14.5 -13.5t-0.5 -20.5q-2 -9 -11.5 -13.5t-20.5 -0.5q-86 32 -187.5 -7t-201.5 -145q-61 -62 -106 -130.5t-72.5 -131.5t-35.5 -114.5
t5 -81.5q4 -11 16 -22.5t42 -11.5q36 0 77.5 14.5t85.5 42.5t90 68t90 90q39 44 72 90.5t56.5 90t37 81.5t13.5 65q0 8 -1.5 17.5t-7.5 14.5q-9 10 -31 10q-11 0 -18.5 7.5t-7.5 18.5t7.5 18t18.5 7q45 0 69 -25q22 -26 22 -68q0 -33 -13.5 -75t-38.5 -89.5t-60 -98
t-78 -99.5q-16 -17 -39 -41t-52.5 -49.5t-63.5 -51t-71 -45t-77 -32t-80 -12.5zM768 602q-7 0 -11 2l-205 90q-10 5 -14.5 15t0.5 20t15 14t20 0l206 -91q10 -5 14 -14.5t-1 -20.5q-3 -8 -9.5 -11.5t-14.5 -3.5z" />
    <glyph glyph-name="Oacute" unicode="&#xd3;" horiz-adv-x="528" 
d="M181 -181q-38 0 -65.5 16.5t-40.5 48.5q-19 44 -7.5 108.5t43.5 135.5t80 142t103 128q51 54 104 92.5t104 61.5q128 52 237 10q10 -4 14.5 -13.5t-0.5 -20.5q-2 -9 -11.5 -13.5t-20.5 -0.5q-86 32 -187.5 -7t-201.5 -145q-61 -62 -106 -130.5t-72.5 -131.5t-35.5 -114.5
t5 -81.5q4 -11 16 -22.5t42 -11.5q36 0 77.5 14.5t85.5 42.5t90 68t90 90q39 44 72 90.5t56.5 90t37 81.5t13.5 65q0 8 -1.5 17.5t-7.5 14.5q-9 10 -31 10q-11 0 -18.5 7.5t-7.5 18.5t7.5 18t18.5 7q45 0 69 -25q22 -26 22 -68q0 -33 -13.5 -75t-38.5 -89.5t-60 -98
t-78 -99.5q-16 -17 -39 -41t-52.5 -49.5t-63.5 -51t-71 -45t-77 -32t-80 -12.5zM622 606q-17 0 -24 15q-5 10 -1.5 20t13.5 15l201 100q10 5 20 1.5t15 -13.5t2 -20.5t-14 -15.5l-201 -99q-5 -3 -11 -3z" />
    <glyph glyph-name="Ocircumflex" unicode="&#xd4;" horiz-adv-x="528" 
d="M181 -181q-38 0 -65.5 16.5t-40.5 48.5q-19 44 -7.5 108.5t43.5 135.5t80 142t103 128q51 54 104 92.5t104 61.5q128 52 237 10q10 -4 14.5 -13.5t-0.5 -20.5q-2 -9 -11.5 -13.5t-20.5 -0.5q-86 32 -187.5 -7t-201.5 -145q-61 -62 -106 -130.5t-72.5 -131.5t-35.5 -114.5
t5 -81.5q4 -11 16 -22.5t42 -11.5q36 0 77.5 14.5t85.5 42.5t90 68t90 90q39 44 72 90.5t56.5 90t37 81.5t13.5 65q0 8 -1.5 17.5t-7.5 14.5q-9 10 -31 10q-11 0 -18.5 7.5t-7.5 18.5t7.5 18t18.5 7q45 0 69 -25q22 -26 22 -68q0 -33 -13.5 -75t-38.5 -89.5t-60 -98
t-78 -99.5q-16 -17 -39 -41t-52.5 -49.5t-63.5 -51t-71 -45t-77 -32t-80 -12.5zM745 757q23 0 40 -18q21 -21 24 -69q1 -8 1 -15.5v-12.5v-12q-2 -11 -10 -18.5t-19 -6.5t-18 9.5t-6 19.5v11v11.5t-1 14.5q-2 20 -6 26t-5 7q-1 0 -5 -1t-13.5 -5t-24.5 -13t-37 -25
q-12 -9 -23 -17.5t-19 -15.5q-10 -8 -17 -15q-8 -8 -19 -7t-19 9q-7 8 -6.5 19t8.5 19q2 1 20 16t44 34q49 37 74 46t37 9z" />
    <glyph glyph-name="Otilde" unicode="&#xd5;" horiz-adv-x="528" 
d="M181 -181q-38 0 -65.5 16.5t-40.5 48.5q-19 44 -7.5 108.5t43.5 135.5t80 142t103 128q51 54 104 92.5t104 61.5q128 52 237 10q10 -4 14.5 -13.5t-0.5 -20.5q-2 -9 -11.5 -13.5t-20.5 -0.5q-86 32 -187.5 -7t-201.5 -145q-61 -62 -106 -130.5t-72.5 -131.5t-35.5 -114.5
t5 -81.5q4 -11 16 -22.5t42 -11.5q36 0 77.5 14.5t85.5 42.5t90 68t90 90q39 44 72 90.5t56.5 90t37 81.5t13.5 65q0 8 -1.5 17.5t-7.5 14.5q-9 10 -31 10q-11 0 -18.5 7.5t-7.5 18.5t7.5 18t18.5 7q45 0 69 -25q22 -26 22 -68q0 -33 -13.5 -75t-38.5 -89.5t-60 -98
t-78 -99.5q-16 -17 -39 -41t-52.5 -49.5t-63.5 -51t-71 -45t-77 -32t-80 -12.5zM752 618h-4q-21 1 -38 17q-16 16 -26 42q-5 12 -9.5 17t-7.5 5q-1 0 -11 -3.5t-30 -26.5q-13 -17 -20 -26l-8 -12q-5 -10 -16 -12.5t-20 3.5q-10 5 -12.5 15.5t3.5 20.5q0 1 9.5 15t23.5 31
q45 51 85 48q14 -1 31.5 -12t30.5 -44q6 -15 11.5 -20t7.5 -5q2 -1 10 3.5t20 18.5q9 10 16 21q4 5 6 10q6 10 16.5 12.5t19.5 -2.5q10 -5 13 -15.5t-3 -20.5q0 -1 -7.5 -13t-19.5 -26q-36 -41 -71 -41z" />
    <glyph glyph-name="Odieresis" unicode="&#xd6;" horiz-adv-x="528" 
d="M181 -181q-38 0 -65.5 16.5t-40.5 48.5q-19 44 -7.5 108.5t43.5 135.5t80 142t103 128q51 54 104 92.5t104 61.5q128 52 237 10q10 -4 14.5 -13.5t-0.5 -20.5q-2 -9 -11.5 -13.5t-20.5 -0.5q-86 32 -187.5 -7t-201.5 -145q-61 -62 -106 -130.5t-72.5 -131.5t-35.5 -114.5
t5 -81.5q4 -11 16 -22.5t42 -11.5q36 0 77.5 14.5t85.5 42.5t90 68t90 90q39 44 72 90.5t56.5 90t37 81.5t13.5 65q0 8 -1.5 17.5t-7.5 14.5q-9 10 -31 10q-11 0 -18.5 7.5t-7.5 18.5t7.5 18t18.5 7q45 0 69 -25q22 -26 22 -68q0 -33 -13.5 -75t-38.5 -89.5t-60 -98
t-78 -99.5q-16 -17 -39 -41t-52.5 -49.5t-63.5 -51t-71 -45t-77 -32t-80 -12.5zM629 632q-6 0 -14 4q-10 6 -12.5 16.5t3.5 20.5l29 49q6 9 16.5 11.5t20.5 -2.5q9 -6 11.5 -16.5t-2.5 -20.5l-30 -49q-8 -13 -22 -13zM746 632q-5 0 -13 4q-10 6 -12.5 16.5t3.5 20.5l29 49
q6 9 16.5 11.5t19.5 -2.5q10 -6 12.5 -16.5t-3.5 -20.5l-29 -49q-8 -13 -23 -13z" />
    <glyph glyph-name="Ugrave" unicode="&#xd9;" horiz-adv-x="508" 
d="M508 -84q-29 0 -48 13.5t-25 39.5q-7 28 5.5 69t35.5 87.5t54 95t62 91.5q30 42 65 86t68.5 82t63 66t48.5 38q10 6 20.5 3.5t15.5 -12.5t1.5 -20t-13.5 -15q-12 -7 -36 -29.5t-54.5 -56.5t-65.5 -78t-71 -94q-46 -65 -76 -115.5t-47.5 -87.5t-23 -61.5t-2.5 -36.5
q1 -4 5 -8t18 -4q11 0 18.5 -8t7.5 -19t-7.5 -18.5t-18.5 -7.5zM147 -160q-37 0 -60 23q-9 9 -17 25t-8 41.5t12 62.5t43 87q23 39 56.5 82t66.5 86q34 43 65.5 84.5t54.5 77.5q14 23 21.5 39t10.5 27.5t2 18t-2 9.5q-5 10 -22 14t-43 4q-11 0 -18 7.5t-7 18.5t7 19t18 8
q86 0 111 -48q12 -26 3.5 -59.5t-31.5 -73t-57 -84t-72 -93.5q-33 -42 -65.5 -84.5t-55.5 -79.5q-40 -66 -44.5 -103.5t7.5 -48.5q11 -11 36 -7t50 21q26 17 70.5 55t102.5 91q8 8 18 8t18 -9q8 -8 7.5 -18t-8.5 -18q-14 -13 -36 -33.5t-47.5 -42.5t-51 -42.5t-44.5 -32.5
q-23 -17 -46 -24.5t-45 -7.5zM712 569q-7 0 -11 2l-205 90q-10 5 -14.5 15t0.5 20t15 14t20 0l206 -91q10 -5 14 -14.5t-1 -20.5q-3 -8 -9.5 -11.5t-14.5 -3.5z" />
    <glyph glyph-name="Uacute" unicode="&#xda;" horiz-adv-x="508" 
d="M508 -84q-29 0 -48 13.5t-25 39.5q-7 28 5.5 69t35.5 87.5t54 95t62 91.5q30 42 65 86t68.5 82t63 66t48.5 38q10 6 20.5 3.5t15.5 -12.5t1.5 -20t-13.5 -15q-12 -7 -36 -29.5t-54.5 -56.5t-65.5 -78t-71 -94q-46 -65 -76 -115.5t-47.5 -87.5t-23 -61.5t-2.5 -36.5
q1 -4 5 -8t18 -4q11 0 18.5 -8t7.5 -19t-7.5 -18.5t-18.5 -7.5zM147 -160q-37 0 -60 23q-9 9 -17 25t-8 41.5t12 62.5t43 87q23 39 56.5 82t66.5 86q34 43 65.5 84.5t54.5 77.5q14 23 21.5 39t10.5 27.5t2 18t-2 9.5q-5 10 -22 14t-43 4q-11 0 -18 7.5t-7 18.5t7 19t18 8
q86 0 111 -48q12 -26 3.5 -59.5t-31.5 -73t-57 -84t-72 -93.5q-33 -42 -65.5 -84.5t-55.5 -79.5q-40 -66 -44.5 -103.5t7.5 -48.5q11 -11 36 -7t50 21q26 17 70.5 55t102.5 91q8 8 18 8t18 -9q8 -8 7.5 -18t-8.5 -18q-14 -13 -36 -33.5t-47.5 -42.5t-51 -42.5t-44.5 -32.5
q-23 -17 -46 -24.5t-45 -7.5zM563 564q-17 0 -24 15q-5 10 -1.5 20t13.5 15l201 100q10 5 20 1.5t15 -13.5t2 -20.5t-14 -15.5l-201 -99q-5 -3 -11 -3z" />
    <glyph glyph-name="Ucircumflex" unicode="&#xdb;" horiz-adv-x="508" 
d="M508 -84q-29 0 -48 13.5t-25 39.5q-7 28 5.5 69t35.5 87.5t54 95t62 91.5q30 42 65 86t68.5 82t63 66t48.5 38q10 6 20.5 3.5t15.5 -12.5t1.5 -20t-13.5 -15q-12 -7 -36 -29.5t-54.5 -56.5t-65.5 -78t-71 -94q-46 -65 -76 -115.5t-47.5 -87.5t-23 -61.5t-2.5 -36.5
q1 -4 5 -8t18 -4q11 0 18.5 -8t7.5 -19t-7.5 -18.5t-18.5 -7.5zM147 -160q-37 0 -60 23q-9 9 -17 25t-8 41.5t12 62.5t43 87q23 39 56.5 82t66.5 86q34 43 65.5 84.5t54.5 77.5q14 23 21.5 39t10.5 27.5t2 18t-2 9.5q-5 10 -22 14t-43 4q-11 0 -18 7.5t-7 18.5t7 19t18 8
q86 0 111 -48q12 -26 3.5 -59.5t-31.5 -73t-57 -84t-72 -93.5q-33 -42 -65.5 -84.5t-55.5 -79.5q-40 -66 -44.5 -103.5t7.5 -48.5q11 -11 36 -7t50 21q26 17 70.5 55t102.5 91q8 8 18 8t18 -9q8 -8 7.5 -18t-8.5 -18q-14 -13 -36 -33.5t-47.5 -42.5t-51 -42.5t-44.5 -32.5
q-23 -17 -46 -24.5t-45 -7.5zM707 744q23 0 40 -18q21 -21 24 -69q1 -8 1 -15.5v-12.5v-12q-2 -11 -10 -18.5t-19 -6.5t-18 9.5t-6 19.5v11v11.5t-1 14.5q-2 20 -6 26t-5 7q-1 0 -5 -1t-13.5 -5t-24.5 -13t-37 -25q-12 -9 -23 -17.5t-19 -15.5q-10 -8 -17 -15q-8 -8 -19 -7
t-19 9q-7 8 -6.5 19t8.5 19q2 1 20 16t44 34q49 37 74 46t37 9z" />
    <glyph glyph-name="Udieresis" unicode="&#xdc;" horiz-adv-x="508" 
d="M508 -84q-29 0 -48 13.5t-25 39.5q-7 28 5.5 69t35.5 87.5t54 95t62 91.5q30 42 65 86t68.5 82t63 66t48.5 38q10 6 20.5 3.5t15.5 -12.5t1.5 -20t-13.5 -15q-12 -7 -36 -29.5t-54.5 -56.5t-65.5 -78t-71 -94q-46 -65 -76 -115.5t-47.5 -87.5t-23 -61.5t-2.5 -36.5
q1 -4 5 -8t18 -4q11 0 18.5 -8t7.5 -19t-7.5 -18.5t-18.5 -7.5zM147 -160q-37 0 -60 23q-9 9 -17 25t-8 41.5t12 62.5t43 87q23 39 56.5 82t66.5 86q34 43 65.5 84.5t54.5 77.5q14 23 21.5 39t10.5 27.5t2 18t-2 9.5q-5 10 -22 14t-43 4q-11 0 -18 7.5t-7 18.5t7 19t18 8
q86 0 111 -48q12 -26 3.5 -59.5t-31.5 -73t-57 -84t-72 -93.5q-33 -42 -65.5 -84.5t-55.5 -79.5q-40 -66 -44.5 -103.5t7.5 -48.5q11 -11 36 -7t50 21q26 17 70.5 55t102.5 91q8 8 18 8t18 -9q8 -8 7.5 -18t-8.5 -18q-14 -13 -36 -33.5t-47.5 -42.5t-51 -42.5t-44.5 -32.5
q-23 -17 -46 -24.5t-45 -7.5zM594 586q-6 0 -14 4q-10 6 -12.5 16.5t3.5 20.5l29 49q6 9 16.5 11.5t20.5 -2.5q9 -6 11.5 -16.5t-2.5 -20.5l-30 -49q-8 -13 -22 -13zM711 586q-5 0 -13 4q-10 6 -12.5 16.5t3.5 20.5l29 49q6 9 16.5 11.5t19.5 -2.5q10 -6 12.5 -16.5
t-3.5 -20.5l-29 -49q-8 -13 -23 -13z" />
    <glyph glyph-name="Yacute" unicode="&#xdd;" horiz-adv-x="537" 
d="M229 -181q-38 0 -69.5 9.5t-54.5 26.5q-20 17 -32 39t-12 48q0 25 11.5 50.5t34.5 45t56 32t77 12.5q27 0 52.5 -6.5t47 -16.5t38.5 -21t28 -21q8 -8 8.5 -18t-7.5 -18t-18 -8.5t-19 7.5q-8 8 -22 16.5t-31 16t-37 12.5t-40 5q-30 0 -54 -7.5t-40.5 -20t-25 -28.5
t-8.5 -32q0 -26 25 -48q35 -24 92 -24q64 0 122 37t111.5 97t104 136.5t99.5 154.5q53 84 102.5 158t102.5 128q8 7 18 7t18 -7q8 -8 8 -18.5t-8 -17.5q-48 -52 -96.5 -124t-98.5 -153q-53 -83 -107 -163t-113 -144t-124 -103t-139 -39zM420 146q-28 0 -46 11t-29 24
q-21 26 -15.5 56.5t27.5 62.5t55 64.5t67 62.5q13 12 27.5 26t28 27.5t23.5 25.5t13 20q-6 1 -23.5 2t-55.5 -4q-11 -1 -18.5 5.5t-10.5 17.5q-1 10 5.5 18.5t17.5 9.5q63 7 93.5 1t41.5 -29q7 -15 2 -31.5t-19.5 -35.5t-37.5 -41t-52 -49q-22 -20 -48.5 -45.5t-47.5 -50.5
t-32 -46t-2 -33q12 -15 30.5 -17t40.5 5.5t48 22t53 31.5l5 2q8 5 18 2.5t18 -10.5q5 -9 2 -19.5t-12 -16.5l-5 -4q-25 -14 -54.5 -30.5t-59.5 -26.5q-14 -4 -25.5 -6t-22.5 -2zM668 606q-17 0 -24 15q-5 10 -1.5 20t13.5 15l201 100q10 5 20 1.5t15 -13.5t2 -20.5
t-14 -15.5l-201 -99q-5 -3 -11 -3z" />
    <glyph glyph-name="agrave" unicode="&#xe0;" horiz-adv-x="466" 
d="M212 -7q-11 0 -21.5 2t-20.5 10q-8 5 -17 18t-8 36q2 29 23.5 66.5t55 74t74.5 69.5t82 53q56 25 104 24.5t86 -27.5q9 -6 10.5 -16.5t-4.5 -19.5q-7 -8 -17 -10t-19 5q-17 11 -34.5 14.5t-35.5 2t-35 -7.5t-32 -13q-40 -19 -77 -49t-65 -61.5t-45 -61t-18 -47.5
q0 -6 1 -7q14 -9 39 3t47 33q8 8 18 7.5t18 -9.5q8 -8 8 -18t-8 -18q-22 -20 -51 -36.5t-58 -16.5zM385 0q-22 0 -31.5 9.5t-11.5 14.5q-4 8 -4 19t7.5 28.5t24 42t46.5 59.5q15 18 30 34.5t26.5 29.5t19 20.5l8.5 8.5q8 8 18.5 8t18.5 -8q8 -7 8 -18t-8 -19
q-27 -26 -50.5 -52t-42.5 -49.5t-32 -43t-19 -31.5q17 2 39.5 12.5t45 23.5t43 26.5t34.5 22.5q5 4 9 6t8 5q9 6 20 3.5t16 -10.5q6 -9 3.5 -19.5t-10.5 -16.5q-4 -3 -8 -5t-9 -6q-26 -17 -53 -34t-53 -30.5t-50 -22t-43 -8.5zM466 -84h-466q-11 0 -18.5 7.5t-7.5 18.5
t7.5 19t18.5 8h466q11 0 17.5 -8t6.5 -19t-6.5 -18.5t-17.5 -7.5zM642 427q-7 0 -11 2l-205 90q-10 5 -14.5 15t0.5 20t15 14t20 0l206 -91q10 -5 14 -14.5t-1 -20.5q-3 -8 -9.5 -11.5t-14.5 -3.5z" />
    <glyph glyph-name="aacute" unicode="&#xe1;" horiz-adv-x="466" 
d="M212 -7q-11 0 -21.5 2t-20.5 10q-8 5 -17 18t-8 36q2 29 23.5 66.5t55 74t74.5 69.5t82 53q56 25 104 24.5t86 -27.5q9 -6 10.5 -16.5t-4.5 -19.5q-7 -8 -17 -10t-19 5q-17 11 -34.5 14.5t-35.5 2t-35 -7.5t-32 -13q-40 -19 -77 -49t-65 -61.5t-45 -61t-18 -47.5
q0 -6 1 -7q14 -9 39 3t47 33q8 8 18 7.5t18 -9.5q8 -8 8 -18t-8 -18q-22 -20 -51 -36.5t-58 -16.5zM385 0q-22 0 -31.5 9.5t-11.5 14.5q-4 8 -4 19t7.5 28.5t24 42t46.5 59.5q15 18 30 34.5t26.5 29.5t19 20.5l8.5 8.5q8 8 18.5 8t18.5 -8q8 -7 8 -18t-8 -19
q-27 -26 -50.5 -52t-42.5 -49.5t-32 -43t-19 -31.5q17 2 39.5 12.5t45 23.5t43 26.5t34.5 22.5q5 4 9 6t8 5q9 6 20 3.5t16 -10.5q6 -9 3.5 -19.5t-10.5 -16.5q-4 -3 -8 -5t-9 -6q-26 -17 -53 -34t-53 -30.5t-50 -22t-43 -8.5zM466 -84h-466q-11 0 -18.5 7.5t-7.5 18.5
t7.5 19t18.5 8h466q11 0 17.5 -8t6.5 -19t-6.5 -18.5t-17.5 -7.5zM470 422q-17 0 -24 15q-5 10 -1.5 20t13.5 15l201 100q10 5 20 1.5t15 -13.5t2 -20.5t-14 -15.5l-201 -99q-5 -3 -11 -3z" />
    <glyph glyph-name="acircumflex" unicode="&#xe2;" horiz-adv-x="466" 
d="M212 -7q-11 0 -21.5 2t-20.5 10q-8 5 -17 18t-8 36q2 29 23.5 66.5t55 74t74.5 69.5t82 53q56 25 104 24.5t86 -27.5q9 -6 10.5 -16.5t-4.5 -19.5q-7 -8 -17 -10t-19 5q-17 11 -34.5 14.5t-35.5 2t-35 -7.5t-32 -13q-40 -19 -77 -49t-65 -61.5t-45 -61t-18 -47.5
q0 -6 1 -7q14 -9 39 3t47 33q8 8 18 7.5t18 -9.5q8 -8 8 -18t-8 -18q-22 -20 -51 -36.5t-58 -16.5zM385 0q-22 0 -31.5 9.5t-11.5 14.5q-4 8 -4 19t7.5 28.5t24 42t46.5 59.5q15 18 30 34.5t26.5 29.5t19 20.5l8.5 8.5q8 8 18.5 8t18.5 -8q8 -7 8 -18t-8 -19
q-27 -26 -50.5 -52t-42.5 -49.5t-32 -43t-19 -31.5q17 2 39.5 12.5t45 23.5t43 26.5t34.5 22.5q5 4 9 6t8 5q9 6 20 3.5t16 -10.5q6 -9 3.5 -19.5t-10.5 -16.5q-4 -3 -8 -5t-9 -6q-26 -17 -53 -34t-53 -30.5t-50 -22t-43 -8.5zM466 -84h-466q-11 0 -18.5 7.5t-7.5 18.5
t7.5 19t18.5 8h466q11 0 17.5 -8t6.5 -19t-6.5 -18.5t-17.5 -7.5zM591 586q23 0 40 -18q21 -21 24 -69q1 -8 1 -15.5v-12.5v-12q-2 -11 -10 -18.5t-19 -6.5t-18 9.5t-6 19.5v11v11.5t-1 14.5q-2 20 -6 26t-5 7q-1 0 -5 -1t-13.5 -5t-24.5 -13t-37 -25q-12 -9 -23 -17.5
t-19 -15.5q-10 -8 -17 -15q-8 -8 -19 -7t-19 9q-7 8 -6.5 19t8.5 19q2 1 20 16t44 34q49 37 74 46t37 9z" />
    <glyph glyph-name="atilde" unicode="&#xe3;" horiz-adv-x="466" 
d="M212 -7q-11 0 -21.5 2t-20.5 10q-8 5 -17 18t-8 36q2 29 23.5 66.5t55 74t74.5 69.5t82 53q56 25 104 24.5t86 -27.5q9 -6 10.5 -16.5t-4.5 -19.5q-7 -8 -17 -10t-19 5q-17 11 -34.5 14.5t-35.5 2t-35 -7.5t-32 -13q-40 -19 -77 -49t-65 -61.5t-45 -61t-18 -47.5
q0 -6 1 -7q14 -9 39 3t47 33q8 8 18 7.5t18 -9.5q8 -8 8 -18t-8 -18q-22 -20 -51 -36.5t-58 -16.5zM385 0q-22 0 -31.5 9.5t-11.5 14.5q-4 8 -4 19t7.5 28.5t24 42t46.5 59.5q15 18 30 34.5t26.5 29.5t19 20.5l8.5 8.5q8 8 18.5 8t18.5 -8q8 -7 8 -18t-8 -19
q-27 -26 -50.5 -52t-42.5 -49.5t-32 -43t-19 -31.5q17 2 39.5 12.5t45 23.5t43 26.5t34.5 22.5q5 4 9 6t8 5q9 6 20 3.5t16 -10.5q6 -9 3.5 -19.5t-10.5 -16.5q-4 -3 -8 -5t-9 -6q-26 -17 -53 -34t-53 -30.5t-50 -22t-43 -8.5zM466 -84h-466q-11 0 -18.5 7.5t-7.5 18.5
t7.5 19t18.5 8h466q11 0 17.5 -8t6.5 -19t-6.5 -18.5t-17.5 -7.5zM615 431h-4q-21 1 -38 17q-16 16 -26 42q-5 12 -9.5 17t-7.5 5q-1 0 -11 -3.5t-30 -26.5q-13 -17 -20 -26l-8 -12q-5 -10 -16 -12.5t-20 3.5q-10 5 -12.5 15.5t3.5 20.5q0 1 9.5 15t23.5 31q45 51 85 48
q14 -1 31.5 -12t30.5 -44q6 -15 11.5 -20t7.5 -5q2 -1 10 3.5t20 18.5q9 10 16 21q4 5 6 10q6 10 16.5 12.5t19.5 -2.5q10 -5 13 -15.5t-3 -20.5q0 -1 -7.5 -13t-19.5 -26q-36 -41 -71 -41z" />
    <glyph glyph-name="adieresis" unicode="&#xe4;" horiz-adv-x="466" 
d="M212 -7q-11 0 -21.5 2t-20.5 10q-8 5 -17 18t-8 36q2 29 23.5 66.5t55 74t74.5 69.5t82 53q56 25 104 24.5t86 -27.5q9 -6 10.5 -16.5t-4.5 -19.5q-7 -8 -17 -10t-19 5q-17 11 -34.5 14.5t-35.5 2t-35 -7.5t-32 -13q-40 -19 -77 -49t-65 -61.5t-45 -61t-18 -47.5
q0 -6 1 -7q14 -9 39 3t47 33q8 8 18 7.5t18 -9.5q8 -8 8 -18t-8 -18q-22 -20 -51 -36.5t-58 -16.5zM385 0q-22 0 -31.5 9.5t-11.5 14.5q-4 8 -4 19t7.5 28.5t24 42t46.5 59.5q15 18 30 34.5t26.5 29.5t19 20.5l8.5 8.5q8 8 18.5 8t18.5 -8q8 -7 8 -18t-8 -19
q-27 -26 -50.5 -52t-42.5 -49.5t-32 -43t-19 -31.5q17 2 39.5 12.5t45 23.5t43 26.5t34.5 22.5q5 4 9 6t8 5q9 6 20 3.5t16 -10.5q6 -9 3.5 -19.5t-10.5 -16.5q-4 -3 -8 -5t-9 -6q-26 -17 -53 -34t-53 -30.5t-50 -22t-43 -8.5zM466 -84h-466q-11 0 -18.5 7.5t-7.5 18.5
t7.5 19t18.5 8h466q11 0 17.5 -8t6.5 -19t-6.5 -18.5t-17.5 -7.5zM494 448q-6 0 -14 4q-10 6 -12.5 16.5t3.5 20.5l29 49q6 9 16.5 11.5t20.5 -2.5q9 -6 11.5 -16.5t-2.5 -20.5l-30 -49q-8 -13 -22 -13zM611 448q-5 0 -13 4q-10 6 -12.5 16.5t3.5 20.5l29 49q6 9 16.5 11.5
t19.5 -2.5q10 -6 12.5 -16.5t-3.5 -20.5l-29 -49q-8 -13 -23 -13z" />
    <glyph glyph-name="aring" unicode="&#xe5;" horiz-adv-x="466" 
d="M212 -7q-11 0 -21.5 2t-20.5 10q-8 5 -17 18t-8 36q2 29 23.5 66.5t55 74t74.5 69.5t82 53q56 25 104 24.5t86 -27.5q9 -6 10.5 -16.5t-4.5 -19.5q-7 -8 -17 -10t-19 5q-17 11 -34.5 14.5t-35.5 2t-35 -7.5t-32 -13q-40 -19 -77 -49t-65 -61.5t-45 -61t-18 -47.5
q0 -6 1 -7q14 -9 39 3t47 33q8 8 18 7.5t18 -9.5q8 -8 8 -18t-8 -18q-22 -20 -51 -36.5t-58 -16.5zM385 0q-22 0 -31.5 9.5t-11.5 14.5q-4 8 -4 19t7.5 28.5t24 42t46.5 59.5q15 18 30 34.5t26.5 29.5t19 20.5l8.5 8.5q8 8 18.5 8t18.5 -8q8 -7 8 -18t-8 -19
q-27 -26 -50.5 -52t-42.5 -49.5t-32 -43t-19 -31.5q17 2 39.5 12.5t45 23.5t43 26.5t34.5 22.5q5 4 9 6t8 5q9 6 20 3.5t16 -10.5q6 -9 3.5 -19.5t-10.5 -16.5q-4 -3 -8 -5t-9 -6q-26 -17 -53 -34t-53 -30.5t-50 -22t-43 -8.5zM466 -84h-466q-11 0 -18.5 7.5t-7.5 18.5
t7.5 19t18.5 8h466q11 0 17.5 -8t6.5 -19t-6.5 -18.5t-17.5 -7.5zM566 382q-21 0 -40 8t-33.5 22.5t-22.5 33.5t-8 41t8 41t22.5 33t33.5 22t40 8q22 0 41 -8t33 -22t22.5 -33t8.5 -41q0 -11 -8 -19t-19 -8t-18.5 8t-7.5 19q0 21 -15 36t-37 15q-21 0 -36 -15t-15 -36
t15 -36.5t36 -15.5q15 0 29 9q9 6 20 4t17 -11t4 -19.5t-11 -17.5q-13 -8 -28 -13t-31 -5z" />
    <glyph glyph-name="ae" unicode="&#xe6;" horiz-adv-x="651" 
d="M529 -5q-10 0 -19 2t-18 5q-20 8 -31.5 24t-13.5 36q-2 30 16.5 66t47.5 70.5t65 65t68 50.5q86 50 131 20q8 -4 17 -18t1 -40q-7 -23 -30.5 -53.5t-55 -57.5t-67.5 -45.5t-67 -18.5q-9 0 -16.5 7.5t-7.5 18.5t7.5 18t16.5 7q13 0 29.5 6.5t34.5 17.5t36.5 26.5
t34.5 33.5q18 21 26.5 35t9.5 22q-9 2 -27.5 -3.5t-44.5 -20.5q-33 -20 -64.5 -47.5t-56 -56t-39 -55.5t-13.5 -45q0 -5 2.5 -9t10.5 -6q16 -7 43.5 -1t60.5 21t69 35.5t68 43.5q11 6 21 4t15 -11q8 -9 6 -19.5t-10 -15.5q-20 -14 -51 -33t-66 -36.5t-71.5 -30t-67.5 -12.5z
M212 -7q-11 0 -21.5 2t-20.5 10q-8 5 -17 18t-8 36q2 29 23.5 66.5t55 74t74.5 69.5t82 53q56 25 104 24.5t86 -27.5q9 -6 10.5 -16.5t-4.5 -19.5q-7 -8 -17 -10t-19 5q-17 11 -34.5 14.5t-35.5 2t-35 -7.5t-32 -13q-40 -19 -77 -49t-65 -61.5t-45 -61t-18 -47.5q0 -6 1 -7
q4 -3 18.5 2t34 14.5t42 23t42.5 26.5t36.5 24.5t23.5 18.5q8 8 18 7.5t18 -9.5q8 -8 8 -18t-8 -18q-11 -10 -41.5 -31t-65.5 -42t-67 -37t-46 -16zM651 -84h-651q-11 0 -18.5 7.5t-7.5 18.5t7.5 19t18.5 8h292h3h171h3h182q11 0 19 -8t8 -19t-8 -18.5t-19 -7.5z" />
    <glyph glyph-name="ccedilla" unicode="&#xe7;" horiz-adv-x="358" 
d="M238 -5q-11 0 -20 2t-17 5q-21 8 -32 24t-13 36q-2 30 16.5 66t47.5 70.5t65 65t68 50.5q86 50 131 20q29 -17 29 -51q0 -20 -10.5 -38.5t-25 -33.5t-29 -26t-22.5 -15q-10 -5 -20 -3t-16 11t-3 19.5t11 16.5q30 19 47 38.5t17 30.5q0 2 -1 3.5t-6 3.5q-6 5 -26 1
t-49 -22q-33 -20 -64.5 -47.5t-56 -56t-39 -55.5t-12.5 -45q0 -11 11 -15q16 -7 44 -1t61.5 21t69.5 35.5t68 43.5q9 6 19.5 4t16.5 -11q7 -9 5 -19.5t-12 -15.5q-19 -14 -49 -33t-65 -36.5t-71.5 -30t-67.5 -12.5zM358 -84h-358q-11 0 -18.5 7.5t-7.5 18.5t7.5 19t18.5 8
h358q11 0 18 -8t7 -19t-7 -18.5t-18 -7.5zM159 -106q-13 -10 -19 -24t1 -31q5 -7 8.5 -9.5t11.5 -5.5q5 -1 10.5 -1h10.5q4 0 15 -2.5t19 -6.5t9 -8.5t-15 -8.5q-26 -7 -55.5 -4.5t-56.5 4.5q-12 -2 -18.5 -9t-7.5 -15.5t4.5 -17t16.5 -12.5q20 -1 40.5 -2.5t40.5 -1t39.5 4
t37.5 12.5q16 8 22 24t3 32.5t-13 31.5t-24 22q-10 5 -19 6.5t-19 2.5q-1 14 -13 21t-29 -2z" />
    <glyph glyph-name="egrave" unicode="&#xe8;" horiz-adv-x="356" 
d="M234 -5q-10 0 -19 2t-18 5q-20 8 -31.5 24t-13.5 36q-2 30 16.5 66t47.5 70.5t65 65t68 50.5q86 50 131 20q8 -4 17 -18t1 -40q-7 -23 -30.5 -53.5t-55 -57.5t-67.5 -45.5t-67 -18.5q-9 0 -16.5 7.5t-7.5 18.5t7.5 18t16.5 7q13 0 29.5 6.5t34.5 17.5t36.5 26.5
t34.5 33.5q18 21 26.5 35t9.5 22q-9 2 -27.5 -3.5t-44.5 -20.5q-33 -20 -64.5 -47.5t-56 -56t-39 -55.5t-13.5 -45q0 -5 2.5 -9t10.5 -6q16 -7 43.5 -1t60.5 21t69 35.5t68 43.5q11 6 21 4t15 -11q8 -9 6 -19.5t-10 -15.5q-20 -14 -51 -33t-66 -36.5t-71.5 -30t-67.5 -12.5z
M356 -84h-356q-11 0 -18.5 7.5t-7.5 18.5t7.5 19t18.5 8h356q11 0 19 -8t8 -19t-8 -18.5t-19 -7.5zM587 427q-7 0 -11 2l-205 90q-10 5 -14.5 15t0.5 20t15 14t20 0l206 -91q10 -5 14 -14.5t-1 -20.5q-3 -8 -9.5 -11.5t-14.5 -3.5z" />
    <glyph glyph-name="eacute" unicode="&#xe9;" horiz-adv-x="356" 
d="M234 -5q-10 0 -19 2t-18 5q-20 8 -31.5 24t-13.5 36q-2 30 16.5 66t47.5 70.5t65 65t68 50.5q86 50 131 20q8 -4 17 -18t1 -40q-7 -23 -30.5 -53.5t-55 -57.5t-67.5 -45.5t-67 -18.5q-9 0 -16.5 7.5t-7.5 18.5t7.5 18t16.5 7q13 0 29.5 6.5t34.5 17.5t36.5 26.5
t34.5 33.5q18 21 26.5 35t9.5 22q-9 2 -27.5 -3.5t-44.5 -20.5q-33 -20 -64.5 -47.5t-56 -56t-39 -55.5t-13.5 -45q0 -5 2.5 -9t10.5 -6q16 -7 43.5 -1t60.5 21t69 35.5t68 43.5q11 6 21 4t15 -11q8 -9 6 -19.5t-10 -15.5q-20 -14 -51 -33t-66 -36.5t-71.5 -30t-67.5 -12.5z
M356 -84h-356q-11 0 -18.5 7.5t-7.5 18.5t7.5 19t18.5 8h356q11 0 19 -8t8 -19t-8 -18.5t-19 -7.5zM425 414q-17 0 -24 15q-5 10 -1.5 20t13.5 15l201 100q10 5 20 1.5t15 -13.5t2 -20.5t-14 -15.5l-201 -99q-5 -3 -11 -3z" />
    <glyph glyph-name="ecircumflex" unicode="&#xea;" horiz-adv-x="356" 
d="M234 -5q-10 0 -19 2t-18 5q-20 8 -31.5 24t-13.5 36q-2 30 16.5 66t47.5 70.5t65 65t68 50.5q86 50 131 20q8 -4 17 -18t1 -40q-7 -23 -30.5 -53.5t-55 -57.5t-67.5 -45.5t-67 -18.5q-9 0 -16.5 7.5t-7.5 18.5t7.5 18t16.5 7q13 0 29.5 6.5t34.5 17.5t36.5 26.5
t34.5 33.5q18 21 26.5 35t9.5 22q-9 2 -27.5 -3.5t-44.5 -20.5q-33 -20 -64.5 -47.5t-56 -56t-39 -55.5t-13.5 -45q0 -5 2.5 -9t10.5 -6q16 -7 43.5 -1t60.5 21t69 35.5t68 43.5q11 6 21 4t15 -11q8 -9 6 -19.5t-10 -15.5q-20 -14 -51 -33t-66 -36.5t-71.5 -30t-67.5 -12.5z
M356 -84h-356q-11 0 -18.5 7.5t-7.5 18.5t7.5 19t18.5 8h356q11 0 19 -8t8 -19t-8 -18.5t-19 -7.5zM535 581q23 0 40 -18q21 -21 24 -69q1 -8 1 -15.5v-12.5v-12q-2 -11 -10 -18.5t-19 -6.5t-18 9.5t-6 19.5v11v11.5t-1 14.5q-2 20 -6 26t-5 7q-1 0 -5 -1t-13.5 -5
t-24.5 -13t-37 -25q-12 -9 -23 -17.5t-19 -15.5q-10 -8 -17 -15q-8 -8 -19 -7t-19 9q-7 8 -6.5 19t8.5 19q2 1 20 16t44 34q49 37 74 46t37 9z" />
    <glyph glyph-name="edieresis" unicode="&#xeb;" horiz-adv-x="356" 
d="M234 -5q-10 0 -19 2t-18 5q-20 8 -31.5 24t-13.5 36q-2 30 16.5 66t47.5 70.5t65 65t68 50.5q86 50 131 20q8 -4 17 -18t1 -40q-7 -23 -30.5 -53.5t-55 -57.5t-67.5 -45.5t-67 -18.5q-9 0 -16.5 7.5t-7.5 18.5t7.5 18t16.5 7q13 0 29.5 6.5t34.5 17.5t36.5 26.5
t34.5 33.5q18 21 26.5 35t9.5 22q-9 2 -27.5 -3.5t-44.5 -20.5q-33 -20 -64.5 -47.5t-56 -56t-39 -55.5t-13.5 -45q0 -5 2.5 -9t10.5 -6q16 -7 43.5 -1t60.5 21t69 35.5t68 43.5q11 6 21 4t15 -11q8 -9 6 -19.5t-10 -15.5q-20 -14 -51 -33t-66 -36.5t-71.5 -30t-67.5 -12.5z
M356 -84h-356q-11 0 -18.5 7.5t-7.5 18.5t7.5 19t18.5 8h356q11 0 19 -8t8 -19t-8 -18.5t-19 -7.5zM431 444q-6 0 -14 4q-10 6 -12.5 16.5t3.5 20.5l29 49q6 9 16.5 11.5t20.5 -2.5q9 -6 11.5 -16.5t-2.5 -20.5l-30 -49q-8 -13 -22 -13zM548 444q-5 0 -13 4
q-10 6 -12.5 16.5t3.5 20.5l29 49q6 9 16.5 11.5t19.5 -2.5q10 -6 12.5 -16.5t-3.5 -20.5l-29 -49q-8 -13 -23 -13z" />
    <glyph glyph-name="igrave" unicode="&#xec;" horiz-adv-x="253" 
d="M204 12q-11 0 -19.5 2t-16.5 9q-15 13 -16.5 31.5t3.5 36.5t13 34t13 24q19 33 41.5 64.5t42 56t32.5 39.5t14 16q6 9 17 10t19 -6q7 -8 8.5 -18.5t-6.5 -17.5q0 -1 -12.5 -16t-31 -38.5t-40 -54t-40.5 -62.5q-17 -28 -20.5 -42t-3.5 -16q6 -2 21 2t36 14t46 26.5
t52 39.5q9 8 20 7t19 -9q6 -9 5 -19.5t-9 -16.5q-17 -14 -40 -31t-48.5 -31.5t-51.5 -24t-47 -9.5zM253 -84h-253q-11 0 -19 7.5t-8 18.5t8 19t19 8h253q11 0 18.5 -8t7.5 -19t-7.5 -18.5t-18.5 -7.5zM490 427q-7 0 -11 2l-205 90q-10 5 -14.5 15t0.5 20t15 14t20 0l206 -91
q10 -5 14 -14.5t-1 -20.5q-3 -8 -9.5 -11.5t-14.5 -3.5z" />
    <glyph glyph-name="iacute" unicode="&#xed;" horiz-adv-x="253" 
d="M204 12q-11 0 -19.5 2t-16.5 9q-15 13 -16.5 31.5t3.5 36.5t13 34t13 24q19 33 41.5 64.5t42 56t32.5 39.5t14 16q6 9 17 10t19 -6q7 -8 8.5 -18.5t-6.5 -17.5q0 -1 -12.5 -16t-31 -38.5t-40 -54t-40.5 -62.5q-17 -28 -20.5 -42t-3.5 -16q6 -2 21 2t36 14t46 26.5
t52 39.5q9 8 20 7t19 -9q6 -9 5 -19.5t-9 -16.5q-17 -14 -40 -31t-48.5 -31.5t-51.5 -24t-47 -9.5zM253 -84h-253q-11 0 -19 7.5t-8 18.5t8 19t19 8h253q11 0 18.5 -8t7.5 -19t-7.5 -18.5t-18.5 -7.5zM351 422q-17 0 -24 15q-5 10 -1.5 20t13.5 15l201 100q10 5 20 1.5
t15 -13.5t2 -20.5t-14 -15.5l-201 -99q-5 -3 -11 -3z" />
    <glyph glyph-name="icircumflex" unicode="&#xee;" horiz-adv-x="253" 
d="M204 12q-11 0 -19.5 2t-16.5 9q-15 13 -16.5 31.5t3.5 36.5t13 34t13 24q19 33 41.5 64.5t42 56t32.5 39.5t14 16q6 9 17 10t19 -6q7 -8 8.5 -18.5t-6.5 -17.5q0 -1 -12.5 -16t-31 -38.5t-40 -54t-40.5 -62.5q-17 -28 -20.5 -42t-3.5 -16q6 -2 21 2t36 14t46 26.5
t52 39.5q9 8 20 7t19 -9q6 -9 5 -19.5t-9 -16.5q-17 -14 -40 -31t-48.5 -31.5t-51.5 -24t-47 -9.5zM253 -84h-253q-11 0 -19 7.5t-8 18.5t8 19t19 8h253q11 0 18.5 -8t7.5 -19t-7.5 -18.5t-18.5 -7.5zM451 586q23 0 40 -18q21 -21 24 -69q1 -8 1 -15.5v-12.5v-12
q-2 -11 -10 -18.5t-19 -6.5t-18 9.5t-6 19.5v11v11.5t-1 14.5q-2 20 -6 26t-5 7q-1 0 -5 -1t-13.5 -5t-24.5 -13t-37 -25q-12 -9 -23 -17.5t-19 -15.5q-10 -8 -17 -15q-8 -8 -19 -7t-19 9q-7 8 -6.5 19t8.5 19q2 1 20 16t44 34q49 37 74 46t37 9z" />
    <glyph glyph-name="idieresis" unicode="&#xef;" horiz-adv-x="253" 
d="M204 12q-11 0 -19.5 2t-16.5 9q-15 13 -16.5 31.5t3.5 36.5t13 34t13 24q19 33 41.5 64.5t42 56t32.5 39.5t14 16q6 9 17 10t19 -6q7 -8 8.5 -18.5t-6.5 -17.5q0 -1 -12.5 -16t-31 -38.5t-40 -54t-40.5 -62.5q-17 -28 -20.5 -42t-3.5 -16q6 -2 21 2t36 14t46 26.5
t52 39.5q9 8 20 7t19 -9q6 -9 5 -19.5t-9 -16.5q-17 -14 -40 -31t-48.5 -31.5t-51.5 -24t-47 -9.5zM253 -84h-253q-11 0 -19 7.5t-8 18.5t8 19t19 8h253q11 0 18.5 -8t7.5 -19t-7.5 -18.5t-18.5 -7.5zM355 448q-6 0 -14 4q-10 6 -12.5 16.5t3.5 20.5l29 49q6 9 16.5 11.5
t20.5 -2.5q9 -6 11.5 -16.5t-2.5 -20.5l-30 -49q-8 -13 -22 -13zM472 448q-5 0 -13 4q-10 6 -12.5 16.5t3.5 20.5l29 49q6 9 16.5 11.5t19.5 -2.5q10 -6 12.5 -16.5t-3.5 -20.5l-29 -49q-8 -13 -23 -13z" />
    <glyph glyph-name="ntilde" unicode="&#xf1;" horiz-adv-x="427" 
d="M347 0q-18 0 -26 7.5t-10 12.5q-11 22 10.5 54t74.5 94q4 5 14 16.5t21.5 26t23 30.5t19 29.5t8.5 23t-8 11.5q-18 2 -35.5 -4.5t-43.5 -24.5q-8 -5 -18 -4t-18 10q-5 8 -3.5 19.5t9.5 16.5q12 9 27 17t31.5 13.5t33 7.5t30.5 -1q36 -9 47.5 -26.5t2.5 -44.5t-36 -64
t-67 -84q-15 -20 -32 -41t-29 -37q17 5 37.5 15t40.5 22t37.5 23.5t29.5 19.5q5 4 8.5 6t7.5 5q10 6 20.5 3.5t15.5 -10.5q5 -9 3.5 -19.5t-10.5 -16.5q-4 -3 -7.5 -5t-8.5 -6q-26 -17 -53.5 -34t-53.5 -30.5t-50 -22t-43 -8.5zM146 12q-10 0 -15 5q-9 7 -10.5 17.5
t5.5 18.5q20 26 46.5 60.5t51 69.5t44 65.5t25.5 48.5q-8 2 -15 8.5t-7 16.5q0 11 8 18.5t19 7.5q20 0 29.5 -8t14.5 -17q4 -8 6 -16.5t-1 -21.5t-13.5 -32.5t-31.5 -50t-54 -74.5t-81 -106q-8 -10 -21 -10zM427 -84h-427q-11 0 -19 7.5t-8 18.5t8 19t19 8h427q11 0 18.5 -8
t7.5 -19t-7.5 -18.5t-18.5 -7.5zM538 431h-4q-21 1 -38 17q-16 16 -26 42q-5 12 -9.5 17t-7.5 5q-1 0 -11 -3.5t-30 -26.5q-13 -17 -20 -26l-8 -12q-5 -10 -16 -12.5t-20 3.5q-10 5 -12.5 15.5t3.5 20.5q0 1 9.5 15t23.5 31q45 51 85 48q14 -1 31.5 -12t30.5 -44
q6 -15 11.5 -20t7.5 -5q2 -1 10 3.5t20 18.5q9 10 16 21q4 5 6 10q6 10 16.5 12.5t19.5 -2.5q10 -5 13 -15.5t-3 -20.5q0 -1 -7.5 -13t-19.5 -26q-36 -41 -71 -41z" />
    <glyph glyph-name="ograve" unicode="&#xf2;" horiz-adv-x="369" 
d="M252 0q-47 0 -71 38q-16 31 -7 74t41 92q24 37 53.5 68.5t60.5 53.5t62 34.5t58 12.5q32 0 56 -17.5t35 -48.5q4 -10 -1 -19t-16 -14q-10 -4 -19 0.5t-13 15.5q-10 32 -42 32q-18 0 -41.5 -9.5t-49 -27.5t-52 -45t-48.5 -62q-28 -44 -33 -73t3 -41q1 -3 5.5 -7.5
t18.5 -4.5q33 0 66.5 19.5t61.5 48t45.5 60t19.5 56.5q2 16 -3 19t-10 4q-11 2 -17 10.5t-4 19.5q1 11 9.5 17t18.5 5q29 -5 44.5 -26t13.5 -53q-3 -33 -24.5 -73t-55.5 -75.5t-77 -59.5t-88 -24zM369 -84h-369q-11 0 -18.5 7.5t-7.5 18.5t7.5 19t18.5 8h369q11 0 18.5 -8
t7.5 -19t-7.5 -18.5t-18.5 -7.5zM572 427q-7 0 -11 2l-205 90q-10 5 -14.5 15t0.5 20t15 14t20 0l206 -91q10 -5 14 -14.5t-1 -20.5q-3 -8 -9.5 -11.5t-14.5 -3.5z" />
    <glyph glyph-name="oacute" unicode="&#xf3;" horiz-adv-x="369" 
d="M252 0q-47 0 -71 38q-16 31 -7 74t41 92q24 37 53.5 68.5t60.5 53.5t62 34.5t58 12.5q32 0 56 -17.5t35 -48.5q4 -10 -1 -19t-16 -14q-10 -4 -19 0.5t-13 15.5q-10 32 -42 32q-18 0 -41.5 -9.5t-49 -27.5t-52 -45t-48.5 -62q-28 -44 -33 -73t3 -41q1 -3 5.5 -7.5
t18.5 -4.5q33 0 66.5 19.5t61.5 48t45.5 60t19.5 56.5q2 16 -3 19t-10 4q-11 2 -17 10.5t-4 19.5q1 11 9.5 17t18.5 5q29 -5 44.5 -26t13.5 -53q-3 -33 -24.5 -73t-55.5 -75.5t-77 -59.5t-88 -24zM369 -84h-369q-11 0 -18.5 7.5t-7.5 18.5t7.5 19t18.5 8h369q11 0 18.5 -8
t7.5 -19t-7.5 -18.5t-18.5 -7.5zM434 422q-17 0 -24 15q-5 10 -1.5 20t13.5 15l201 100q10 5 20 1.5t15 -13.5t2 -20.5t-14 -15.5l-201 -99q-5 -3 -11 -3z" />
    <glyph glyph-name="ocircumflex" unicode="&#xf4;" horiz-adv-x="369" 
d="M252 0q-47 0 -71 38q-16 31 -7 74t41 92q24 37 53.5 68.5t60.5 53.5t62 34.5t58 12.5q32 0 56 -17.5t35 -48.5q4 -10 -1 -19t-16 -14q-10 -4 -19 0.5t-13 15.5q-10 32 -42 32q-18 0 -41.5 -9.5t-49 -27.5t-52 -45t-48.5 -62q-28 -44 -33 -73t3 -41q1 -3 5.5 -7.5
t18.5 -4.5q33 0 66.5 19.5t61.5 48t45.5 60t19.5 56.5q2 16 -3 19t-10 4q-11 2 -17 10.5t-4 19.5q1 11 9.5 17t18.5 5q29 -5 44.5 -26t13.5 -53q-3 -33 -24.5 -73t-55.5 -75.5t-77 -59.5t-88 -24zM369 -84h-369q-11 0 -18.5 7.5t-7.5 18.5t7.5 19t18.5 8h369q11 0 18.5 -8
t7.5 -19t-7.5 -18.5t-18.5 -7.5zM572 586q23 0 40 -18q21 -21 24 -69q1 -8 1 -15.5v-12.5v-12q-2 -11 -10 -18.5t-19 -6.5t-18 9.5t-6 19.5v11v11.5t-1 14.5q-2 20 -6 26t-5 7q-1 0 -5 -1t-13.5 -5t-24.5 -13t-37 -25q-12 -9 -23 -17.5t-19 -15.5q-10 -8 -17 -15
q-8 -8 -19 -7t-19 9q-7 8 -6.5 19t8.5 19q2 1 20 16t44 34q49 37 74 46t37 9z" />
    <glyph glyph-name="otilde" unicode="&#xf5;" horiz-adv-x="369" 
d="M252 0q-47 0 -71 38q-16 31 -7 74t41 92q24 37 53.5 68.5t60.5 53.5t62 34.5t58 12.5q32 0 56 -17.5t35 -48.5q4 -10 -1 -19t-16 -14q-10 -4 -19 0.5t-13 15.5q-10 32 -42 32q-18 0 -41.5 -9.5t-49 -27.5t-52 -45t-48.5 -62q-28 -44 -33 -73t3 -41q1 -3 5.5 -7.5
t18.5 -4.5q33 0 66.5 19.5t61.5 48t45.5 60t19.5 56.5q2 16 -3 19t-10 4q-11 2 -17 10.5t-4 19.5q1 11 9.5 17t18.5 5q29 -5 44.5 -26t13.5 -53q-3 -33 -24.5 -73t-55.5 -75.5t-77 -59.5t-88 -24zM369 -84h-369q-11 0 -18.5 7.5t-7.5 18.5t7.5 19t18.5 8h369q11 0 18.5 -8
t7.5 -19t-7.5 -18.5t-18.5 -7.5zM555 431h-4q-21 1 -38 17q-16 16 -26 42q-5 12 -9.5 17t-7.5 5q-1 0 -11 -3.5t-30 -26.5q-13 -17 -20 -26l-8 -12q-5 -10 -16 -12.5t-20 3.5q-10 5 -12.5 15.5t3.5 20.5q0 1 9.5 15t23.5 31q45 51 85 48q14 -1 31.5 -12t30.5 -44
q6 -15 11.5 -20t7.5 -5q2 -1 10 3.5t20 18.5q9 10 16 21q4 5 6 10q6 10 16.5 12.5t19.5 -2.5q10 -5 13 -15.5t-3 -20.5q0 -1 -7.5 -13t-19.5 -26q-36 -41 -71 -41z" />
    <glyph glyph-name="odieresis" unicode="&#xf6;" horiz-adv-x="369" 
d="M252 0q-47 0 -71 38q-16 31 -7 74t41 92q24 37 53.5 68.5t60.5 53.5t62 34.5t58 12.5q32 0 56 -17.5t35 -48.5q4 -10 -1 -19t-16 -14q-10 -4 -19 0.5t-13 15.5q-10 32 -42 32q-18 0 -41.5 -9.5t-49 -27.5t-52 -45t-48.5 -62q-28 -44 -33 -73t3 -41q1 -3 5.5 -7.5
t18.5 -4.5q33 0 66.5 19.5t61.5 48t45.5 60t19.5 56.5q2 16 -3 19t-10 4q-11 2 -17 10.5t-4 19.5q1 11 9.5 17t18.5 5q29 -5 44.5 -26t13.5 -53q-3 -33 -24.5 -73t-55.5 -75.5t-77 -59.5t-88 -24zM369 -84h-369q-11 0 -18.5 7.5t-7.5 18.5t7.5 19t18.5 8h369q11 0 18.5 -8
t7.5 -19t-7.5 -18.5t-18.5 -7.5zM441 448q-6 0 -14 4q-10 6 -12.5 16.5t3.5 20.5l29 49q6 9 16.5 11.5t20.5 -2.5q9 -6 11.5 -16.5t-2.5 -20.5l-30 -49q-8 -13 -22 -13zM558 448q-5 0 -13 4q-10 6 -12.5 16.5t3.5 20.5l29 49q6 9 16.5 11.5t19.5 -2.5q10 -6 12.5 -16.5
t-3.5 -20.5l-29 -49q-8 -13 -23 -13z" />
    <glyph glyph-name="ugrave" unicode="&#xf9;" horiz-adv-x="456" 
d="M375 0q-20 0 -27 9t-9 14q-4 8 -4 20t11 34.5t37.5 59t75.5 92.5q24 28 48 54t43 46t31 32.5l12 12.5q8 8 18 8t18 -8q8 -7 8 -17.5t-7 -18.5l-11 -11t-28.5 -29.5t-39.5 -42.5t-44 -51q-29 -32 -49 -57t-33.5 -43t-21.5 -30t-12 -19q18 4 40 14.5t43.5 22.5t40.5 24.5
t32 21.5q4 4 8 6t8 5q8 6 19 3.5t17 -10.5q5 -9 3 -19.5t-10 -16.5q-4 -3 -8 -5t-8 -6q-26 -17 -53.5 -34t-53.5 -30.5t-50.5 -22t-43.5 -8.5zM189 0q-24 0 -36 14q-40 43 57 150l54 58q12 13 26 28t27.5 30t24.5 28t18 23h-6q-11 -2 -19.5 4t-10.5 17t4.5 19.5t17.5 10.5
q4 0 13 1t19 -0.5t19 -6t15 -15.5q7 -14 3.5 -29.5t-18 -36t-38 -47.5t-56.5 -62q-15 -14 -29 -28t-25 -28q-29 -33 -40.5 -51t-13.5 -27q11 2 35 13t63 41q9 6 19.5 4t16.5 -10q8 -9 5.5 -19.5t-10.5 -16.5q-11 -8 -27 -19t-34.5 -21t-38 -17t-35.5 -7zM456 -84h-456
q-11 0 -18.5 7.5t-7.5 18.5t7.5 19t18.5 8h456q11 0 19 -8t8 -19t-8 -18.5t-19 -7.5zM630 427q-7 0 -11 2l-205 90q-10 5 -14.5 15t0.5 20t15 14t20 0l206 -91q10 -5 14 -14.5t-1 -20.5q-3 -8 -9.5 -11.5t-14.5 -3.5z" />
    <glyph glyph-name="uacute" unicode="&#xfa;" horiz-adv-x="456" 
d="M375 0q-20 0 -27 9t-9 14q-4 8 -4 20t11 34.5t37.5 59t75.5 92.5q24 28 48 54t43 46t31 32.5l12 12.5q8 8 18 8t18 -8q8 -7 8 -17.5t-7 -18.5l-11 -11t-28.5 -29.5t-39.5 -42.5t-44 -51q-29 -32 -49 -57t-33.5 -43t-21.5 -30t-12 -19q18 4 40 14.5t43.5 22.5t40.5 24.5
t32 21.5q4 4 8 6t8 5q8 6 19 3.5t17 -10.5q5 -9 3 -19.5t-10 -16.5q-4 -3 -8 -5t-8 -6q-26 -17 -53.5 -34t-53.5 -30.5t-50.5 -22t-43.5 -8.5zM189 0q-24 0 -36 14q-40 43 57 150l54 58q12 13 26 28t27.5 30t24.5 28t18 23h-6q-11 -2 -19.5 4t-10.5 17t4.5 19.5t17.5 10.5
q4 0 13 1t19 -0.5t19 -6t15 -15.5q7 -14 3.5 -29.5t-18 -36t-38 -47.5t-56.5 -62q-15 -14 -29 -28t-25 -28q-29 -33 -40.5 -51t-13.5 -27q11 2 35 13t63 41q9 6 19.5 4t16.5 -10q8 -9 5.5 -19.5t-10.5 -16.5q-11 -8 -27 -19t-34.5 -21t-38 -17t-35.5 -7zM456 -84h-456
q-11 0 -18.5 7.5t-7.5 18.5t7.5 19t18.5 8h456q11 0 19 -8t8 -19t-8 -18.5t-19 -7.5zM475 422q-17 0 -24 15q-5 10 -1.5 20t13.5 15l201 100q10 5 20 1.5t15 -13.5t2 -20.5t-14 -15.5l-201 -99q-5 -3 -11 -3z" />
    <glyph glyph-name="ucircumflex" unicode="&#xfb;" horiz-adv-x="456" 
d="M375 0q-20 0 -27 9t-9 14q-4 8 -4 20t11 34.5t37.5 59t75.5 92.5q24 28 48 54t43 46t31 32.5l12 12.5q8 8 18 8t18 -8q8 -7 8 -17.5t-7 -18.5l-11 -11t-28.5 -29.5t-39.5 -42.5t-44 -51q-29 -32 -49 -57t-33.5 -43t-21.5 -30t-12 -19q18 4 40 14.5t43.5 22.5t40.5 24.5
t32 21.5q4 4 8 6t8 5q8 6 19 3.5t17 -10.5q5 -9 3 -19.5t-10 -16.5q-4 -3 -8 -5t-8 -6q-26 -17 -53.5 -34t-53.5 -30.5t-50.5 -22t-43.5 -8.5zM189 0q-24 0 -36 14q-40 43 57 150l54 58q12 13 26 28t27.5 30t24.5 28t18 23h-6q-11 -2 -19.5 4t-10.5 17t4.5 19.5t17.5 10.5
q4 0 13 1t19 -0.5t19 -6t15 -15.5q7 -14 3.5 -29.5t-18 -36t-38 -47.5t-56.5 -62q-15 -14 -29 -28t-25 -28q-29 -33 -40.5 -51t-13.5 -27q11 2 35 13t63 41q9 6 19.5 4t16.5 -10q8 -9 5.5 -19.5t-10.5 -16.5q-11 -8 -27 -19t-34.5 -21t-38 -17t-35.5 -7zM456 -84h-456
q-11 0 -18.5 7.5t-7.5 18.5t7.5 19t18.5 8h456q11 0 19 -8t8 -19t-8 -18.5t-19 -7.5zM587 586q23 0 40 -18q21 -21 24 -69q1 -8 1 -15.5v-12.5v-12q-2 -11 -10 -18.5t-19 -6.5t-18 9.5t-6 19.5v11v11.5t-1 14.5q-2 20 -6 26t-5 7q-1 0 -5 -1t-13.5 -5t-24.5 -13t-37 -25
q-12 -9 -23 -17.5t-19 -15.5q-10 -8 -17 -15q-8 -8 -19 -7t-19 9q-7 8 -6.5 19t8.5 19q2 1 20 16t44 34q49 37 74 46t37 9z" />
    <glyph glyph-name="udieresis" unicode="&#xfc;" horiz-adv-x="456" 
d="M375 0q-20 0 -27 9t-9 14q-4 8 -4 20t11 34.5t37.5 59t75.5 92.5q24 28 48 54t43 46t31 32.5l12 12.5q8 8 18 8t18 -8q8 -7 8 -17.5t-7 -18.5l-11 -11t-28.5 -29.5t-39.5 -42.5t-44 -51q-29 -32 -49 -57t-33.5 -43t-21.5 -30t-12 -19q18 4 40 14.5t43.5 22.5t40.5 24.5
t32 21.5q4 4 8 6t8 5q8 6 19 3.5t17 -10.5q5 -9 3 -19.5t-10 -16.5q-4 -3 -8 -5t-8 -6q-26 -17 -53.5 -34t-53.5 -30.5t-50.5 -22t-43.5 -8.5zM189 0q-24 0 -36 14q-40 43 57 150l54 58q12 13 26 28t27.5 30t24.5 28t18 23h-6q-11 -2 -19.5 4t-10.5 17t4.5 19.5t17.5 10.5
q4 0 13 1t19 -0.5t19 -6t15 -15.5q7 -14 3.5 -29.5t-18 -36t-38 -47.5t-56.5 -62q-15 -14 -29 -28t-25 -28q-29 -33 -40.5 -51t-13.5 -27q11 2 35 13t63 41q9 6 19.5 4t16.5 -10q8 -9 5.5 -19.5t-10.5 -16.5q-11 -8 -27 -19t-34.5 -21t-38 -17t-35.5 -7zM456 -84h-456
q-11 0 -18.5 7.5t-7.5 18.5t7.5 19t18.5 8h456q11 0 19 -8t8 -19t-8 -18.5t-19 -7.5zM502 448q-6 0 -14 4q-10 6 -12.5 16.5t3.5 20.5l29 49q6 9 16.5 11.5t20.5 -2.5q9 -6 11.5 -16.5t-2.5 -20.5l-30 -49q-8 -13 -22 -13zM619 448q-5 0 -13 4q-10 6 -12.5 16.5t3.5 20.5
l29 49q6 9 16.5 11.5t19.5 -2.5q10 -6 12.5 -16.5t-3.5 -20.5l-29 -49q-8 -13 -23 -13z" />
    <glyph glyph-name="yacute" unicode="&#xfd;" horiz-adv-x="356" 
d="M141 -181q-9 0 -19.5 1t-19.5 6q-38 12 -55.5 41t-8.5 63q5 21 20 40.5t38.5 33t54.5 19.5t69 0q11 -1 17.5 -9.5t4.5 -19.5t-10.5 -17.5t-18.5 -4.5q-30 4 -52.5 0.5t-38 -12t-24 -19.5t-10.5 -21q-9 -34 30 -45q17 -6 33 -4t33.5 15.5t38 39.5t47.5 66q13 19 34.5 53
t47.5 76q19 31 40 64.5t42 66.5t41.5 64t38.5 57q6 8 16.5 10.5t19.5 -3.5q8 -6 10 -17t-3 -19q-18 -26 -38.5 -56.5t-41.5 -63.5t-42 -66.5t-40 -63.5q-25 -43 -46 -77t-35 -54q-21 -30 -41 -56.5t-41 -46t-43.5 -30.5t-47.5 -11zM200 48q-25 0 -36 14q-39 43 57 149
q9 9 16.5 17.5t13.5 16.5q22 23 43 47t29 38q-11 0 -18 7t-7 18t7 19t18 8q4 0 11.5 -0.5t16 -3t15.5 -8t12 -15.5q11 -24 -12.5 -56t-74.5 -89q-8 -8 -15.5 -16t-14.5 -16q-30 -33 -41 -51.5t-14 -26.5q11 2 36 12.5t63 39.5q8 7 19 5t17 -11q7 -8 5 -18t-11 -18
q-11 -8 -27 -18.5t-34.5 -20.5t-38 -16.5t-35.5 -6.5zM421 422q-17 0 -24 15q-5 10 -1.5 20t13.5 15l201 100q10 5 20 1.5t15 -13.5t2 -20.5t-14 -15.5l-201 -99q-5 -3 -11 -3z" />
    <glyph glyph-name="ydieresis" unicode="&#xff;" horiz-adv-x="356" 
d="M141 -181q-9 0 -19.5 1t-19.5 6q-38 12 -55.5 41t-8.5 63q5 21 20 40.5t38.5 33t54.5 19.5t69 0q11 -1 17.5 -9.5t4.5 -19.5t-10.5 -17.5t-18.5 -4.5q-30 4 -52.5 0.5t-38 -12t-24 -19.5t-10.5 -21q-9 -34 30 -45q17 -6 33 -4t33.5 15.5t38 39.5t47.5 66q13 19 34.5 53
t47.5 76q19 31 40 64.5t42 66.5t41.5 64t38.5 57q6 8 16.5 10.5t19.5 -3.5q8 -6 10 -17t-3 -19q-18 -26 -38.5 -56.5t-41.5 -63.5t-42 -66.5t-40 -63.5q-25 -43 -46 -77t-35 -54q-21 -30 -41 -56.5t-41 -46t-43.5 -30.5t-47.5 -11zM200 48q-25 0 -36 14q-39 43 57 149
q9 9 16.5 17.5t13.5 16.5q22 23 43 47t29 38q-11 0 -18 7t-7 18t7 19t18 8q4 0 11.5 -0.5t16 -3t15.5 -8t12 -15.5q11 -24 -12.5 -56t-74.5 -89q-8 -8 -15.5 -16t-14.5 -16q-30 -33 -41 -51.5t-14 -26.5q11 2 36 12.5t63 39.5q8 7 19 5t17 -11q7 -8 5 -18t-11 -18
q-11 -8 -27 -18.5t-34.5 -20.5t-38 -16.5t-35.5 -6.5zM431 448q-6 0 -14 4q-10 6 -12.5 16.5t3.5 20.5l29 49q6 9 16.5 11.5t20.5 -2.5q9 -6 11.5 -16.5t-2.5 -20.5l-30 -49q-8 -13 -22 -13zM548 448q-5 0 -13 4q-10 6 -12.5 16.5t3.5 20.5l29 49q6 9 16.5 11.5t19.5 -2.5
q10 -6 12.5 -16.5t-3.5 -20.5l-29 -49q-8 -13 -23 -13z" />
    <glyph glyph-name="uni00AD" unicode="&#xad;" horiz-adv-x="377" 
d="M121 198q-2 4 -3 7t-2 7q1 11 9 18.5t19 7.5l158 -4q11 -2 18 -9.5t8 -18.5q-2 -11 -9.5 -18.5t-18.5 -7.5l-158 4q-15 2 -21 14z" />
    <glyph glyph-name="Dcaron" unicode="&#x10e;" horiz-adv-x="705" 
d="M317 -174q-21 0 -41 1.5t-39 6.5q-47 11 -77.5 33t-47.5 49.5t-21.5 59t2.5 61.5q7 33 26 62.5t47 50t63 29.5t76 0q11 -3 17 -11t3 -19q-2 -11 -10.5 -17t-19.5 -4q-29 6 -54.5 -0.5t-45.5 -21t-33.5 -35.5t-18.5 -45q-5 -20 -2.5 -41.5t14.5 -41t34.5 -35t57.5 -23.5
q51 -11 98.5 -6.5t91 19t81 36t67.5 43.5q37 27 72 61t65.5 71.5t55 77.5t42.5 81q32 74 27.5 131.5t-46.5 94.5q-23 20 -55 30.5t-68 11t-73.5 -9t-71.5 -29.5q-36 -21 -59.5 -47.5t-36 -53t-14 -50t6.5 -38.5q5 -10 1.5 -19.5t-12.5 -14.5q-10 -6 -20.5 -3t-15.5 12
q-14 25 -12.5 59t17.5 70t45.5 70t73.5 59q43 24 88.5 36t89 11t82 -14.5t68.5 -40.5q54 -48 62 -122.5t-30 -164.5q-19 -43 -45.5 -86t-59 -83t-69 -76t-76.5 -66q-74 -54 -150 -81.5t-150 -27.5zM215 -72q-12 0 -20 8q-7 9 -6.5 19.5t8.5 18.5q30 24 71 71.5t85 105
t88 117.5t78.5 109.5t56 81.5t22.5 33q5 9 15.5 10.5t19.5 -3.5q10 -6 11.5 -16.5t-4.5 -19.5q-3 -4 -26 -38t-58 -84t-79 -110.5t-88 -118t-85.5 -105.5t-72.5 -73q-6 -6 -16 -6zM776 605q-24 0 -40 18q-21 21 -24 69q-1 8 -1 15.5v12.5v12q2 11 10 18.5t19 6.5t18 -9.5
t6 -19.5v-11v-12t1 -14q2 -20 6 -26t5 -7q1 0 18.5 6t61.5 38q12 9 22.5 17.5t18.5 15.5q10 8 18 15q8 8 19 7t19 -9q7 -8 6.5 -19t-8.5 -19q-2 -1 -20 -16t-44 -34q-25 -18 -43 -29t-31 -17t-22 -7.5t-15 -1.5zM532 -30q-10 0 -15 4q-21 15 -38 31.5t-34 32.5
q-20 21 -39 39q-8 6 -8.5 17t7.5 19q6 7 17 8t19 -6l42 -41q14 -14 30 -29t33 -29q10 -7 11.5 -17t-4.5 -19q-8 -10 -21 -10z" />
    <glyph glyph-name="Hcircumflex" unicode="&#x124;" horiz-adv-x="903" 
d="M903 -84q-29 0 -48.5 13.5t-24.5 39.5q-8 28 4.5 69t36 87.5t54.5 95t61 91.5q31 42 65.5 86t68 82t62.5 66t49 38q10 6 20 3.5t15 -12.5t2.5 -20t-12.5 -15q-12 -7 -36 -29.5t-55 -56.5t-66 -78t-71 -94q-46 -65 -76 -115.5t-47.5 -87.5t-23.5 -61.5t-3 -36.5q2 -4 6 -8
t19 -4q11 0 18.5 -8t7.5 -19t-7.5 -18.5t-18.5 -7.5zM645 460q-27 0 -53 6.5t-52 20.5q-9 5 -12 15t2 19q5 10 15 13t20 -2q25 -14 50.5 -18t53 -1t57.5 12.5t65 24.5q10 5 19.5 1t14.5 -13q8 -25 -14 -35q-45 -20 -86.5 -31.5t-79.5 -11.5zM704 246q-5 0 -8.5 2t-6.5 4
q-9 6 -11 16.5t5 19.5q5 6 10.5 14t10.5 16q24 32 52 70.5t55.5 75t53 68t44.5 49.5q8 7 18 7t18 -7q8 -8 8 -18.5t-8 -17.5q-17 -18 -42 -49t-53 -67.5t-55 -73.5t-49 -67q-11 -18 -21 -30q-9 -12 -21 -12zM228 -181q-42 0 -73 11.5t-51 31t-29.5 44t-9.5 50.5
q0 29 13 58.5t36 52.5q26 26 61 39.5t74 13.5q65 0 108 -31.5t56 -83.5q2 -10 -3.5 -19.5t-16.5 -11.5t-20 3.5t-11 15.5q-6 26 -21.5 40.5t-33 22t-33.5 9.5t-25 2q-32 0 -56.5 -10t-41 -25.5t-25.5 -35.5t-9 -40q0 -15 6 -30.5t19 -28t34 -20t52 -7.5q146 0 359 279
q6 8 16.5 10t19.5 -5q8 -7 10 -17t-4 -19q-117 -153 -215 -226t-186 -73zM853 179h-402q-11 0 -18.5 7t-7.5 17q0 11 7.5 18.5t18.5 7.5h402q11 0 18 -7.5t7 -18.5q0 -10 -7 -17t-18 -7zM1189 781q23 0 40 -18q21 -21 24 -69q1 -8 1 -15.5v-12.5v-12q-2 -11 -10 -18.5
t-19 -6.5t-18 9.5t-6 19.5v11v11.5t-1 14.5q-2 20 -6 26t-5 7q-1 0 -5 -1t-13.5 -5t-24.5 -13t-37 -25q-12 -9 -23 -17.5t-19 -15.5q-10 -8 -17 -15q-8 -8 -19 -7t-19 9q-7 8 -6.5 19t8.5 19q2 1 20 16t44 34q49 37 74 46t37 9z" />
    <glyph glyph-name="Ccircumflex" unicode="&#x108;" horiz-adv-x="483" 
d="M259 -200q-40 0 -82 18q-43 19 -68 58t-29 93q-5 68 21.5 151t74.5 164t111.5 153t134.5 117q78 50 150 57.5t133 -27.5q54 -29 69 -79t-11 -109q-15 -35 -42 -66t-61 -51t-73 -27t-77 6q-11 3 -15.5 13t-0.5 19q3 11 12 15.5t19 1.5q28 -9 57.5 -3t55 22t46.5 40t33 50
q5 12 8.5 28t1 32.5t-12.5 33t-33 30.5q-31 16 -62.5 19t-61.5 -3t-57 -18.5t-49 -26.5q-43 -28 -84.5 -67t-78 -85.5t-66.5 -97.5t-51 -101.5t-31 -98.5t-7 -89q3 -77 65 -108q25 -11 47 -12.5t40 2t31.5 11t22.5 14.5q29 22 45.5 54.5t11.5 59.5q-4 23 -29 33
q-7 2 -15.5 2t-14.5 -5q-11 -12 -6 -25q4 -16 23 -18q11 -2 17 -10.5t4 -19.5t-10.5 -17t-19.5 -5q-23 5 -39.5 18t-23.5 35q-7 20 -2 41t21 37q15 16 36.5 19.5t44.5 -4.5q26 -8 42.5 -27t21.5 -46q4 -20 0.5 -42.5t-13.5 -44t-26 -41t-35 -34.5q-51 -39 -113 -39zM739 791
q23 0 40 -18q21 -21 24 -69q1 -8 1 -15.5v-12.5v-12q-2 -11 -10 -18.5t-19 -6.5t-18 9.5t-6 19.5v11v11.5t-1 14.5q-2 20 -6 26t-5 7q-1 0 -5 -1t-13.5 -5t-24.5 -13t-37 -25q-12 -9 -23 -17.5t-19 -15.5q-10 -8 -17 -15q-8 -8 -19 -7t-19 9q-7 8 -6.5 19t8.5 19q2 1 20 16
t44 34q49 37 74 46t37 9z" />
    <glyph glyph-name="Omacron" unicode="&#x14c;" horiz-adv-x="528" 
d="M181 -181q-38 0 -65.5 16.5t-40.5 48.5q-19 44 -7.5 108.5t43.5 135.5t80 142t103 128q51 54 104 92.5t104 61.5q128 52 237 10q10 -4 14.5 -13.5t-0.5 -20.5q-2 -9 -11.5 -13.5t-20.5 -0.5q-86 32 -187.5 -7t-201.5 -145q-61 -62 -106 -130.5t-72.5 -131.5t-35.5 -114.5
t5 -81.5q4 -11 16 -22.5t42 -11.5q36 0 77.5 14.5t85.5 42.5t90 68t90 90q39 44 72 90.5t56.5 90t37 81.5t13.5 65q0 8 -1.5 17.5t-7.5 14.5q-9 10 -31 10q-11 0 -18.5 7.5t-7.5 18.5t7.5 18t18.5 7q45 0 69 -25q22 -26 22 -68q0 -33 -13.5 -75t-38.5 -89.5t-60 -98
t-78 -99.5q-16 -17 -39 -41t-52.5 -49.5t-63.5 -51t-71 -45t-77 -32t-80 -12.5zM574 662l-2 6t-2 8q1 11 8.5 18.5t18.5 7.5l171 2q11 -1 18.5 -8.5t7.5 -18.5t-7.5 -19t-19.5 -8l-170 -1q-7 -1 -13 3t-10 10z" />
    <glyph glyph-name="wacute" unicode="&#x1e83;" horiz-adv-x="534" 
d="M382 0q-23 0 -33 10.5t-14 17.5q-3 7 -4 18.5t5 30t20.5 45.5t41.5 65q32 45 73.5 94.5t84.5 92.5q7 8 17.5 8t18.5 -8q7 -7 7 -17.5t-7 -18.5q-39 -42 -78 -87.5t-69 -87.5q-37 -52 -48.5 -77t-12.5 -34q17 1 42 14.5t53.5 35t59.5 48.5t60.5 55t56 54.5t46.5 47.5
q32 31 50 48t27 22t19 3.5t17 -10.5q5 -9 3.5 -20t-12.5 -16q-5 -4 -24.5 -23.5l-41.5 -41.5q-51 -51 -102 -99t-97.5 -86t-87.5 -61t-71 -23zM205 -6q-8 0 -15.5 2.5t-15.5 5.5q-8 6 -14.5 17t-6 29.5t11 46t37.5 66.5q16 25 34 48.5t36 44.5q15 20 32 41.5t26 35.5h-10
q-11 -2 -19 4t-11 17q-1 11 5 19.5t17 10.5q5 1 14.5 2t20 -0.5t20 -6.5t15.5 -15q13 -23 -8 -56.5t-62 -82.5q-17 -22 -34.5 -45t-33.5 -46q-26 -39 -33 -60t-6 -28q8 0 29.5 12t46.5 44q6 8 16.5 10t19.5 -4q8 -8 10 -18.5t-4 -17.5q-27 -36 -59 -56t-59 -20zM534 -84
h-534q-11 0 -18.5 7.5t-7.5 18.5t7.5 19t18.5 8h534q11 0 18.5 -8t7.5 -19t-7.5 -18.5t-18.5 -7.5zM532 432q-17 0 -24 15q-5 10 -1.5 20t13.5 15l201 100q10 5 20 1.5t15 -13.5t2 -20.5t-14 -15.5l-201 -99q-5 -3 -11 -3z" />
    <glyph glyph-name="zero" unicode="0" 
d="M61 517l131 29l-5 18l20 6l-4 19l20 4l-3 23h20v20h18l2 18l19 -3l4 20l21 -3l5 19l19 -5l8 18l19 -8l11 19l17 -9l11 17l18 -12l12 16l17 -13l13 14l13 -12l13 11l13 -14l17 11l11 -18l19 10l9 -17l18 8l8 -20l21 6l6 -19l19 5l4 -21l21 2l1 -13l197 43v-242l-90 -20
l2 -1l-12 -13l12 -14l-16 -13l11 -17l-18 -11l11 -18l-17 -10l7 -18l-19 -8l6 -21l-18 -6l3 -19l-19 -4v-21l-19 -2v-19h-17l-3 -17h-19l-4 -18l-21 3l-5 -20l-19 6l-7 -19l-21 8l-9 -19l-18 10l-11 -17l-18 11l-12 -16l-15 13l-15 -13l-13 12l-13 -12l-12 15l-17 -11
l-12 18l-18 -10l-9 17l-19 -8l-9 20l-19 -6l-6 18l-20 -4l-4 21l-21 -2l-2 20h-20v17l-17 2l2 20l-20 3l4 21l-20 6l6 18l-14 6l-120 -26v241zM595 466l11 11q-1 -1 -1 -3q0 -5 2.5 -8.5t7.5 -3.5q8 0 19 8l10 7l3.5 3.5l3.5 3.5l6 6v-2q0 -1 -0.5 -1.5t-0.5 -1.5v-3
q-1 -1 -1 -3t1.5 -5t3.5 -3h8l3 2l10 6l24 21l-2 -6q-2 -3 -2 -9v-3q2 0 2 -1t3 -1q1 0 5 1.5t5 3.5l11 9q2 0 6 4.5t8 8.5l9 10v2q0 1 -1 1q-2 0 -4 -2l-1 -2l-11 -13q-5 -3 -6 -6l-7 -6l-8 -4l-1 -1q-1 0 -2 1l5 7q2 4 4 6l3 6q2 1 4 5l31 45q5 5 6 8l26 29q5 5 8.5 10
t7.5 10l5 9v4q-1 1 -4 1q-2 0 -7 -2t-9 -6l-4 -3l-19 -18q-5 -5 -8 -9t-8 -12l-26 -42l-13 -24l-8 -7q-2 -3 -4 -5l-5 -5l-9 -8l-8 -6l-2 -1l-2 -2h-5l6 10q0 2 4 7.5t6 7.5l8 14l11 16l4 6q-2 0 1 2t3 3q0 3 -3 3l-10 -5l-16 -12q0 9 -10 9q-3 0 -7.5 -1.5t-7.5 -3.5
l-12 -6l-9 -8q-11 -8 -18 -18t-10 -19h-2l-8 -9q-5 -4 -10.5 -9t-11.5 -5h-1q-1 0 -1 1l1 1l6 9l16 20q2 3 4.5 6.5t4.5 7.5l4 8q1 2 1 5q0 8 -4 8q-3 0 -4 -1l-12 -6l-10 -8q-4 -4 -6 -4l-10 -11l-4.5 -4.5l-4.5 -4.5l-10 -11l1 2l25 35q0 1 1.5 3t1.5 4l-3 3
q-1 0 -1.5 0.5t-1.5 0.5t-2 -0.5t-3 -0.5l-7 -5q-2 -1 -2 -2t-1 -2l-40 -68q-1 -1 -1 -2v-1q1 0 1.5 -0.5t1.5 -0.5q2 0 4 1l4 2q0 4 4 4l2 3q0 2 2 2l18 21l19 20l19 18l11 6q1 0 1 -1l-3 -2q-1 -3 -4 -4l-8 -10q-2 -2 -3 -3.5t-3 -3.5l-14 -21l-3 -9q-1 -2 -1 -5
q0 -6 5 -6h9q2 1 4.5 2.5t6.5 3.5zM397 418q9 0 17.5 7.5t13.5 12.5l4 9q3 4 3 9v8q0 3 -2 7l-3 8l-3 3q0 2 -1.5 3.5t-1.5 2.5v5h-4l-2 -2l-6 -4l-3 -7l-18 -25l-5 -8l-1 -1q-1 0 -2 -1l-5 -8l-18 -19l-6 -3q-2 -2 -6 -2v1l7 10l7 9l9 14l2 7q1 3 1 7q-1 1 -1 4l-1 2
q0 2 -1 3v11l3 5v2q0 1 -1.5 3t-3.5 2q-5 0 -12.5 -4.5t-7.5 -11.5q0 -4 1 -6l2 -1l2 -2l-6 -6l-21 -26q-2 0 -2 -2l-1 -2q0 -1 -1 -1l-5 -7q-8 -7 -15 -12.5t-15 -9.5l-10 -4q-4 -2 -6 -2q-7 0 -7 6q0 1 2 5l6 12q2 -1 6 -1h9q5 2 10.5 5t14.5 8l7 8q2 2 3.5 4t1.5 4l4 6
q0 8 -6 12h-9h-4.5t-4.5 -2l-10 -4q-16 -8 -29 -20.5t-17 -29.5v-8q3 -10 13 -10t23 5.5t24 16.5l19 17q0 1 1.5 2.5t1.5 2.5l2 3l15 18q3 2 5 5t4 5l5 -4q0 -1 1 -2v-1q0 -1 -1 -2t-2 -3l-8 -8l-13 -19l-2 -9q-1 -1 -1 -4l2 -7h4q5 0 8 1l8 5l9 9t10 8l8 11l4 5l2 2l16 23
q0 -5 1.5 -8.5t1.5 -5.5l2 -4q-8 -2 -12 -6l-10 -7q-3 -5 -5 -8.5t-2 -8.5q0 -3 5 -5h9zM447 440q0 -4 2 -4l5 -4q1 0 2 -0.5t2 -0.5l1 1h6q4 1 7 2l6 2l13 7l20 18l7 10l8 17q0 1 0.5 2t0.5 2q0 -2 -1 5.5t-15 7.5q-3 0 -6.5 -1t-8.5 -3l-6 -2l-23 -17l-14 -18
q-5 -8 -6 -13v-11zM125 8q-6 5 -8 13t-2 16v8q0 14 11.5 22.5t24.5 8.5h3q14 0 23 -9.5t7 -14.5h-16q-1 5 -6 8t-10 3h-7l-7 -6q-5 -2 -6 -8t-1 -13q0 -25 18 -25h2q6 0 12.5 4t6.5 12h-18v13h32v-41h-10l-2 10q-8 -12 -25 -12q-6 0 -12.5 3t-9.5 8zM213 -69q6 14 19 14
q5 0 9 -2t6 -7l1 8h12v-49q0 -10 -5 -16.5t-21 -6.5q-9 0 -15 3.5t-6 11.5h13l3 -4q1 -1 6 -1q11 0 11.5 4.5t0.5 3.5v9q-6 -7 -14 -7q-7 0 -15 5t-8 22q0 3 1 6zM578 49q8 -8 8 -22q0 -8 -5.5 -18.5t-22.5 -10.5q-14 0 -21.5 8t-7.5 21q0 2 0.5 7t3.5 10t8.5 8.5t16.5 3.5
q5 0 11.5 -1.5t8.5 -5.5zM357 -56h12v-8h2q1 0 2 1l8 7q1 1 4 1q6 0 14 -6t8 -21q0 -11 -7 -19t-15 -8q-5 0 -7 1l-4 3q-1 1 -2.5 1t-1.5 2v-25h-13v71zM799 -56h13v-8q4 9 15 9q9 0 14 -8q3 8 13 8q18 0 18 -18v-35h-13v31q0 11 -8 11q-9 0 -9 -11v-31h-13v36q0 3 -3 4.5
t-6 1.5q-8 0 -8 -11v-31h-13v52zM739 -72q6 17 25 17q8 0 16.5 -5.5t8.5 -21.5q0 -11 -5.5 -19t-19.5 -8q-26 0 -26 27q0 6 1 10zM124 345l5 5l9 10q2 4 4 6l31 42l19 30q3 4 5.5 7.5t4.5 7.5l8 16q0 1 0.5 1t0.5 1q0 2 -3 2q-4 0 -5 -1l-4 -2l-16 -20q-3 -3 -7 -9l-8 -10
l-40 -59l-13 -24v-5h5zM744 -1q-3 0 -4.5 -0.5t-3.5 -0.5q-4 0 -10.5 2.5t-6.5 14.5q0 9 5 12t11 5l13 2q5 0 5 4q0 7 -9 7t-10 -9h-13q0 7 4 13.5t13 6.5h6q11 0 17 -3t6 -13v-35q0 -3 4 -3v-3h-16q-1 0 -1 1v1v1q0 2 -0.5 2.5t-0.5 1.5l-4 -4q-1 -1 -1.5 -1t-1.5 -1t-2 -1
zM245 22h-38q0 -4 3 -8t10 -4q5 0 7.5 2t2.5 4h15l-5 -10l-8 -6l-6 -1.5t-6 -0.5q-27 0 -27 30q0 16 8 22t19 6q15 0 20 -9.5t5 -20.5v-4zM494 317q3 4 3 12t-7 16t-20 8q-14 0 -21 -8t-7 -16q0 -14 10.5 -19t17.5 -5q10 0 14.5 3.5t9.5 8.5zM135 442q-1 -2 -1 -5q0 -5 6 -9
l9 -3q2 0 8 0.5t6 3.5q0 1 -1 1h-2q-2 0 -3.5 -1t-3.5 -1q-15 0 -15 11q0 3 1 6q6 11 24.5 22.5t35.5 18.5l14 2q8 2 13 2q2 0 9 -1.5t9 -3.5l5 -6v-8q0 -6 -1 -10l-5 -9q-5 -7 -10.5 -14.5t-16.5 -14.5l-11 -7l-19 -8q-1 0 -2.5 -0.5t-3.5 -0.5h-2q-1 0 -3.5 -1t-2.5 -3
q0 -1 1 -1h2q2 0 3 1l15 4l26 11l24 16l18 19q5 8 7 14t2 10q0 1 -0.5 1.5t-0.5 2.5l-3 7l-7 5q-11 3 -21 3q-23 0 -50.5 -11.5t-48.5 -32.5zM502 -83q5 5 10 5l12 2q4 0 4 3q0 8 -7 8q-4 0 -6.5 -3t-2.5 -5h-13q0 13 9 15.5t13 2.5q21 0 21 -15v-27q0 -5 0.5 -6t2.5 -3v-2
l-15 1q0 1 -0.5 1t-0.5 1v3q-7 -3 -8.5 -5t-7.5 -2q-4 0 -7 1l-7 5q-2 4 -2 9q0 8 5 11zM38 -83q5 5 10 5l13 2q5 0 5 3q0 8 -8 8q-5 0 -7.5 -3t-2.5 -5h-12q0 12 7.5 15t14.5 3q14 0 17 -5t3 -10v-27q0 -5 0.5 -6t2.5 -3v-2h-14v3q-1 1 -1 3l-4 -4q-4 -2 -6.5 -2.5
t-4.5 -0.5q-6 0 -11.5 3t-5.5 12q0 8 4 11zM414 -69q6 14 21 14q25 0 25 -28v-3h-35q0 -12 11 -12q3 0 7 2l3 4h13q-2 -11 -8 -14t-15 -3q-24 0 -24 28q0 8 2 12zM606 -69q6 14 22 14q13 0 18.5 -8.5t5.5 -19.5v-3h-35q0 -12 11 -12q3 0 7 2l3 4h13q-5 -17 -23 -17
q-24 0 -24 28q0 4 2 12zM644 48q2 -6 2 -10v-39h-14v34q0 11 -10 11q-11 0 -11 -13v-32h-15v56h14v-8q6 9 17 9q7 0 10 -2zM389 7q-4 -5 -9 -7t-8 -2q-19 0 -19 20v37h14v-34q0 -10 10 -10h5l5 5q0 1 1 2.5t1 3.5v33h13v-56h-13v8zM299 -60l-1 4h16l10 -38l10 38h15l-18 -51
l-7 -17q-4 -4 -12 -4h-7v11h8q1 0 3 2v2q1 1 1 3zM155 -56h12v-8q6 9 16 9q6 0 12 -3.5t6 -14.5v-35h-14v31q0 5 -1.5 8t-7.5 3t-8 -4t-2 -8v-30h-13v52zM689 -63q6 8 19 8q8 0 16 -5t8 -15h-14l-3 6q-3 3 -6 3q-4 0 -7.5 -4t-3.5 -11q0 -16 10 -16q9 0 9 8h15q-2 -8 -7 -14
t-17 -6q-9 0 -16.5 5.5t-7.5 20.5q0 8 5 20zM556 -63q6 8 19 8q9 0 16.5 -6t7.5 -14h-15q0 2 -1.5 5.5t-6.5 3.5t-8.5 -4.5t-3.5 -10.5q0 -3 0.5 -5t0.5 -4l4 -5q2 -2 6 -2q2 0 5.5 1.5t3.5 6.5h13q0 -9 -6.5 -14.5t-15.5 -5.5q-10 0 -17 6t-7 20q0 8 5 20zM337 63
q-2 0 -2 -2v-6h9v-10h-9v-46h-15v46h-7v10h7v4q0 16 17 16h7v-12h-7zM515 55h10v-10h-10v-46h-15v46h-7v10h7v4q0 16 17 16h6v-12h-6q-1 0 -2 -2v-6zM806 -1h-9q-4 0 -10 1.5t-6 10.5v34h-7v10h7v14h16v-14h9v-10h-9v-34q1 0 2 -0.5t3 -0.5l4 1v-12zM272 69v-14h8v-10h-8
v-30q0 -3 0.5 -4t5.5 -1l1 1l1 -12h-8q-5 0 -10 1t-5 11v34h-8v10h8v14h15zM461 436q-2 0 -2 1v6q2 7 5 10l7 11l17 21l4.5 4.5l4.5 4.5l9 6q2 1 5 1t3 -5q0 -1 -2 -5l-5 -9l-13 -20l-18 -19q-2 -2 -4 -3q-2 -2 -3.5 -2.5t-3.5 -1.5h-4zM623 478l4 5l7 11l22 28l11 10
q1 1 4 1.5t4 0.5l3 -2q0 -1 0.5 -1.5t0.5 -1.5q0 -4 -3 -7l-14 -22l-8 -7l-13 -13l-11 -9q-2 0 -4.5 -2t-4.5 -2l-1 1h-1q-1 1 -1 2q1 0 1 1t1 2zM685 -1h-10q-12 0 -13 6v40h-9v10h9v14h13v-14h10v-10h-10v-30q0 -5 6 -5l4 1v-12zM482 345q0 -3 2 -5.5t2 -10.5
q0 -7 -2.5 -14.5t-13.5 -7.5t-12 6l-3 6q-2 6 -2 10q0 2 0.5 4t0.5 4l6 11q1 1 4 2.5t7 1.5q0 -1 1 -1h2zM471 -66h-8v10h8v4q0 14 15 14h6v-11h-6l-1 -1l-1 -6h9v-10h-9v-42h-13v42zM273 -66h-7v10h7v13h14v-13h8v-10h-8v-27v-3.5t5 -1.5l3 1v-11h-8q-14 0 -14 11v31z
M430 -1h-14v76h14v-76zM455 -1h-14v76h14v-76zM412 352h-50v-2h2q8 0 8 -7v-28q0 -8 -8 -8l-2 -1h50v19l-8 -13q-3 -3 -4 -3l-5 -1q-2 -1 -6 -1h-7l1 20q4 0 9 -3l2 -3q0 -1 0.5 -1.5t0.5 -1.5v-4v29l-2 -9q-5 -5 -9 -5h-2v21h8q8 0 11 -1l4 -3l5 -12h2v18zM91 -56h12l1 -9
l3 5q2 2 2.5 3.5t8.5 1.5h3v-14h-4q-13 0 -13 -12v-27h-13v52zM567 352h-23v-2h4l3 -3q4 -4 4 -9v-19l-32 33h-18v-2q6 0 7.5 -2t1.5 -5v-26q0 -3 -1 -5l-3 -4q-2 0 -3.5 -0.5t-2.5 -0.5v-1l24 1q-3 0 -5 1h-4l-2 5q-1 1 -1 6v27l39 -40h2v32q0 5 1 8.5t9 3.5v2zM354 327
q-1 2 -6 4l-8 3l-6 1q-2 0 -9.5 2.5t-5.5 5.5v4q0 -1 1.5 2t9.5 3q11 0 14.5 -4.5t8.5 -11.5h1l-1 15q-1 -3 -4 -3h-4q-8 5 -15 5q-4 0 -10 -2l-6 -4q-1 -2 -1.5 -3.5t-0.5 -4.5q0 -2 1.5 -5t3.5 -3l6 -3q1 -1 10 -3l4 -1q2 -1 8 -2.5t6 -7.5q0 -1 -1.5 -3.5t-4.5 -3.5h-5
q-5 0 -8 1l-8 3l-5 5q-5 5 -5 10h-1l1 -21q0 2 2 3.5t4 1.5q1 0 2.5 -1t3.5 -1l7 -2q2 -1 7 -1q7 0 9.5 3.5t7.5 5.5v10zM568 16q3 3 3 11q0 7 -3 12t-10 5q-14 0 -14 -17q0 -10 4 -13t10 -3q8 0 10 5zM128 -56h14v-52h-14v52zM675 348l2 1q1 0 3 1v2h-23v-2h3q7 0 7 -4
q0 -2 -3 -5l-9 -13l-12 15l-2 4v1q0 2 4 2h4v2h-30l1 -2q3 0 6 -0.5t5 -5.5l14 -19v-10q0 -8 -8 -8l-3 -1h33l-4 1q-8 0 -8 8v11l14 20q4 2 5 2h1zM622 326h-1q-2 -2 -3.5 -5t-1.5 -5l-2 -3q-3 -3 -5 -4.5t-8 -1.5h-12v36q0 7 9 7h3v2h-31v-2h2q8 0 8 -7v-28q0 -8 -8 -8
l-2 -1h52v20zM773 -71q-2 5 -9 5q-8 0 -10.5 -5t-2.5 -11t2.5 -10.5t10.5 -4.5t10 5t2 10q0 6 -3 11zM289 425q-3 -1 -6 -1q-5 0 -6 1l7 11l12 14l10 9l6 2q1 0 1.5 0.5t2.5 0.5q1 0 1.5 -0.5t1.5 -0.5v-5l-3 -4q-4 -4 -6 -9.5t-10 -9.5zM373 -93q3 -4 8 -4q11 0 11 15
q0 5 -2 10.5t-9 5.5q-12 0 -12 -17q0 -7 4 -10zM292 310q4 3 4 9q-2 -5 -5 -8l-6 -4h-7q-5 0 -10.5 1.5t-5.5 10.5v24q0 5 3 6t6 1h3v2h-31v-2q10 0 10 -7v-24q0 -4 5 -11l8 -2q2 -1 9 -1q12 0 17 5zM226 -89q0 -4 3.5 -5.5t5.5 -1.5q12 0 12 14q0 5 -3.5 10.5t-8.5 5.5
q-10 0 -10 -16q0 -4 1 -7zM412 451q0 -2 0.5 -3t0.5 -2q-1 -2 -1 -4v-6l-2 -4l-8 -8q-2 0 -5 -1.5t-5 -1.5q-4 0 -5 3v4l5 9q4 5 9 9zM733 15q0 -4 2.5 -5t4.5 -1l6 1q7 3 7 10v7q-3 -3 -6 -3l-7 -2q-7 0 -7 -7zM660 -93h15v-15h-15v15zM61 -85l-5 -1q-9 -2 -9 -7
q0 -2 2.5 -4.5t4.5 -2.5q1 0 2.5 0.5t7.5 4.5q2 4 2 6v6q-1 0 -5 -2zM231 33l-4 8t-7 4q-11 0 -11 -12h22zM524 -85l-7 -1q-6 0 -6 -7t6 -7q2 0 3 2l7 3q1 2 1 6v6zM638 -77q0 4 -2.5 7.5t-8.5 3.5q-8 0 -10 -11h21zM446 -77q0 4 -2.5 7.5t-8.5 3.5q-8 0 -10 -11h21z
M128 -38h14v-12h-14v12zM769 575q-2 -4 -4 -5l14 18l6 11l13 17q0 1 1.5 2t2.5 2q0 -4 -1 -5l-4 -5l-6 -9l-17 -20zM306 352h-23v-2h5q4 0 6 -4t2 -8v7l5 4l1 1h4v2z" />
    <glyph glyph-name="one" unicode="1" 
d="M61 517l131 29l-5 18l20 6l-4 19l20 4l-3 23h20v20h18l2 18l19 -3l4 20l21 -3l5 19l19 -5l8 18l19 -8l11 19l17 -9l11 17l18 -12l12 16l17 -13l13 14l13 -12l13 11l13 -14l17 11l11 -18l19 10l9 -17l18 8l8 -20l21 6l6 -19l19 5l4 -21l21 2l1 -13l197 43v-242l-90 -20
l2 -1l-12 -13l12 -14l-16 -13l11 -17l-18 -11l11 -18l-17 -10l7 -18l-19 -8l6 -21l-18 -6l3 -19l-19 -4v-21l-19 -2v-19h-17l-3 -17h-19l-4 -18l-21 3l-5 -20l-19 6l-7 -19l-21 8l-9 -19l-18 10l-11 -17l-18 11l-12 -16l-15 13l-15 -13l-13 12l-13 -12l-12 15l-17 -11
l-12 18l-18 -10l-9 17l-19 -8l-9 20l-19 -6l-6 18l-20 -4l-4 21l-21 -2l-2 20h-20v17l-17 2l2 20l-20 3l4 21l-20 6l6 18l-14 6l-120 -26v241zM595 466l11 11q-1 -1 -1 -3q0 -5 2.5 -8.5t7.5 -3.5q8 0 19 8l10 7l3.5 3.5l3.5 3.5l6 6v-2q0 -1 -0.5 -1.5t-0.5 -1.5v-3
q-1 -1 -1 -3t1.5 -5t3.5 -3h8l3 2l10 6l24 21l-2 -6q-2 -3 -2 -9v-3q2 0 2 -1t3 -1q1 0 5 1.5t5 3.5l11 9q2 0 6 4.5t8 8.5l9 10v2q0 1 -1 1q-2 0 -4 -2l-1 -2l-11 -13q-5 -3 -6 -6l-7 -6l-8 -4l-1 -1q-1 0 -2 1l5 7q2 4 4 6l3 6q2 1 4 5l31 45q5 5 6 8l26 29q5 5 8.5 10
t7.5 10l5 9v4q-1 1 -4 1q-2 0 -7 -2t-9 -6l-4 -3l-19 -18q-5 -5 -8 -9t-8 -12l-26 -42l-13 -24l-8 -7q-2 -3 -4 -5l-5 -5l-9 -8l-8 -6l-2 -1l-2 -2h-5l6 10q0 2 4 7.5t6 7.5l8 14l11 16l4 6q-2 0 1 2t3 3q0 3 -3 3l-10 -5l-16 -12q0 9 -10 9q-3 0 -7.5 -1.5t-7.5 -3.5
l-12 -6l-9 -8q-11 -8 -18 -18t-10 -19h-2l-8 -9q-5 -4 -10.5 -9t-11.5 -5h-1q-1 0 -1 1l1 1l6 9l16 20q2 3 4.5 6.5t4.5 7.5l4 8q1 2 1 5q0 8 -4 8q-3 0 -4 -1l-12 -6l-10 -8q-4 -4 -6 -4l-10 -11l-4.5 -4.5l-4.5 -4.5l-10 -11l1 2l25 35q0 1 1.5 3t1.5 4l-3 3
q-1 0 -1.5 0.5t-1.5 0.5t-2 -0.5t-3 -0.5l-7 -5q-2 -1 -2 -2t-1 -2l-40 -68q-1 -1 -1 -2v-1q1 0 1.5 -0.5t1.5 -0.5q2 0 4 1l4 2q0 4 4 4l2 3q0 2 2 2l18 21l19 20l19 18l11 6q1 0 1 -1l-3 -2q-1 -3 -4 -4l-8 -10q-2 -2 -3 -3.5t-3 -3.5l-14 -21l-3 -9q-1 -2 -1 -5
q0 -6 5 -6h9q2 1 4.5 2.5t6.5 3.5zM397 418q9 0 17.5 7.5t13.5 12.5l4 9q3 4 3 9v8q0 3 -2 7l-3 8l-3 3q0 2 -1.5 3.5t-1.5 2.5v5h-4l-2 -2l-6 -4l-3 -7l-18 -25l-5 -8l-1 -1q-1 0 -2 -1l-5 -8l-18 -19l-6 -3q-2 -2 -6 -2v1l7 10l7 9l9 14l2 7q1 3 1 7q-1 1 -1 4l-1 2
q0 2 -1 3v11l3 5v2q0 1 -1.5 3t-3.5 2q-5 0 -12.5 -4.5t-7.5 -11.5q0 -4 1 -6l2 -1l2 -2l-6 -6l-21 -26q-2 0 -2 -2l-1 -2q0 -1 -1 -1l-5 -7q-8 -7 -15 -12.5t-15 -9.5l-10 -4q-4 -2 -6 -2q-7 0 -7 6q0 1 2 5l6 12q2 -1 6 -1h9q5 2 10.5 5t14.5 8l7 8q2 2 3.5 4t1.5 4l4 6
q0 8 -6 12h-9h-4.5t-4.5 -2l-10 -4q-16 -8 -29 -20.5t-17 -29.5v-8q3 -10 13 -10t23 5.5t24 16.5l19 17q0 1 1.5 2.5t1.5 2.5l2 3l15 18q3 2 5 5t4 5l5 -4q0 -1 1 -2v-1q0 -1 -1 -2t-2 -3l-8 -8l-13 -19l-2 -9q-1 -1 -1 -4l2 -7h4q5 0 8 1l8 5l9 9t10 8l8 11l4 5l2 2l16 23
q0 -5 1.5 -8.5t1.5 -5.5l2 -4q-8 -2 -12 -6l-10 -7q-3 -5 -5 -8.5t-2 -8.5q0 -3 5 -5h9zM447 440q0 -4 2 -4l5 -4q1 0 2 -0.5t2 -0.5l1 1h6q4 1 7 2l6 2l13 7l20 18l7 10l8 17q0 1 0.5 2t0.5 2q0 -2 -1 5.5t-15 7.5q-3 0 -6.5 -1t-8.5 -3l-6 -2l-23 -17l-14 -18
q-5 -8 -6 -13v-11zM125 8q-6 5 -8 13t-2 16v8q0 14 11.5 22.5t24.5 8.5h3q14 0 23 -9.5t7 -14.5h-16q-1 5 -6 8t-10 3h-7l-7 -6q-5 -2 -6 -8t-1 -13q0 -25 18 -25h2q6 0 12.5 4t6.5 12h-18v13h32v-41h-10l-2 10q-8 -12 -25 -12q-6 0 -12.5 3t-9.5 8zM213 -69q6 14 19 14
q5 0 9 -2t6 -7l1 8h12v-49q0 -10 -5 -16.5t-21 -6.5q-9 0 -15 3.5t-6 11.5h13l3 -4q1 -1 6 -1q11 0 11.5 4.5t0.5 3.5v9q-6 -7 -14 -7q-7 0 -15 5t-8 22q0 3 1 6zM578 49q8 -8 8 -22q0 -8 -5.5 -18.5t-22.5 -10.5q-14 0 -21.5 8t-7.5 21q0 2 0.5 7t3.5 10t8.5 8.5t16.5 3.5
q5 0 11.5 -1.5t8.5 -5.5zM357 -56h12v-8h2q1 0 2 1l8 7q1 1 4 1q6 0 14 -6t8 -21q0 -11 -7 -19t-15 -8q-5 0 -7 1l-4 3q-1 1 -2.5 1t-1.5 2v-25h-13v71zM799 -56h13v-8q4 9 15 9q9 0 14 -8q3 8 13 8q18 0 18 -18v-35h-13v31q0 11 -8 11q-9 0 -9 -11v-31h-13v36q0 3 -3 4.5
t-6 1.5q-8 0 -8 -11v-31h-13v52zM739 -72q6 17 25 17q8 0 16.5 -5.5t8.5 -21.5q0 -11 -5.5 -19t-19.5 -8q-26 0 -26 27q0 6 1 10zM124 345l5 5l9 10q2 4 4 6l31 42l19 30q3 4 5.5 7.5t4.5 7.5l8 16q0 1 0.5 1t0.5 1q0 2 -3 2q-4 0 -5 -1l-4 -2l-16 -20q-3 -3 -7 -9l-8 -10
l-40 -59l-13 -24v-5h5zM744 -1q-3 0 -4.5 -0.5t-3.5 -0.5q-4 0 -10.5 2.5t-6.5 14.5q0 9 5 12t11 5l13 2q5 0 5 4q0 7 -9 7t-10 -9h-13q0 7 4 13.5t13 6.5h6q11 0 17 -3t6 -13v-35q0 -3 4 -3v-3h-16q-1 0 -1 1v1v1q0 2 -0.5 2.5t-0.5 1.5l-4 -4q-1 -1 -1.5 -1t-1.5 -1t-2 -1
zM245 22h-38q0 -4 3 -8t10 -4q5 0 7.5 2t2.5 4h15l-5 -10l-8 -6l-6 -1.5t-6 -0.5q-27 0 -27 30q0 16 8 22t19 6q15 0 20 -9.5t5 -20.5v-4zM494 317q3 4 3 12t-7 16t-20 8q-14 0 -21 -8t-7 -16q0 -14 10.5 -19t17.5 -5q10 0 14.5 3.5t9.5 8.5zM135 442q-1 -2 -1 -5q0 -5 6 -9
l9 -3q2 0 8 0.5t6 3.5q0 1 -1 1h-2q-2 0 -3.5 -1t-3.5 -1q-15 0 -15 11q0 3 1 6q6 11 24.5 22.5t35.5 18.5l14 2q8 2 13 2q2 0 9 -1.5t9 -3.5l5 -6v-8q0 -6 -1 -10l-5 -9q-5 -7 -10.5 -14.5t-16.5 -14.5l-11 -7l-19 -8q-1 0 -2.5 -0.5t-3.5 -0.5h-2q-1 0 -3.5 -1t-2.5 -3
q0 -1 1 -1h2q2 0 3 1l15 4l26 11l24 16l18 19q5 8 7 14t2 10q0 1 -0.5 1.5t-0.5 2.5l-3 7l-7 5q-11 3 -21 3q-23 0 -50.5 -11.5t-48.5 -32.5zM502 -83q5 5 10 5l12 2q4 0 4 3q0 8 -7 8q-4 0 -6.5 -3t-2.5 -5h-13q0 13 9 15.5t13 2.5q21 0 21 -15v-27q0 -5 0.5 -6t2.5 -3v-2
l-15 1q0 1 -0.5 1t-0.5 1v3q-7 -3 -8.5 -5t-7.5 -2q-4 0 -7 1l-7 5q-2 4 -2 9q0 8 5 11zM38 -83q5 5 10 5l13 2q5 0 5 3q0 8 -8 8q-5 0 -7.5 -3t-2.5 -5h-12q0 12 7.5 15t14.5 3q14 0 17 -5t3 -10v-27q0 -5 0.5 -6t2.5 -3v-2h-14v3q-1 1 -1 3l-4 -4q-4 -2 -6.5 -2.5
t-4.5 -0.5q-6 0 -11.5 3t-5.5 12q0 8 4 11zM414 -69q6 14 21 14q25 0 25 -28v-3h-35q0 -12 11 -12q3 0 7 2l3 4h13q-2 -11 -8 -14t-15 -3q-24 0 -24 28q0 8 2 12zM606 -69q6 14 22 14q13 0 18.5 -8.5t5.5 -19.5v-3h-35q0 -12 11 -12q3 0 7 2l3 4h13q-5 -17 -23 -17
q-24 0 -24 28q0 4 2 12zM644 48q2 -6 2 -10v-39h-14v34q0 11 -10 11q-11 0 -11 -13v-32h-15v56h14v-8q6 9 17 9q7 0 10 -2zM389 7q-4 -5 -9 -7t-8 -2q-19 0 -19 20v37h14v-34q0 -10 10 -10h5l5 5q0 1 1 2.5t1 3.5v33h13v-56h-13v8zM299 -60l-1 4h16l10 -38l10 38h15l-18 -51
l-7 -17q-4 -4 -12 -4h-7v11h8q1 0 3 2v2q1 1 1 3zM155 -56h12v-8q6 9 16 9q6 0 12 -3.5t6 -14.5v-35h-14v31q0 5 -1.5 8t-7.5 3t-8 -4t-2 -8v-30h-13v52zM689 -63q6 8 19 8q8 0 16 -5t8 -15h-14l-3 6q-3 3 -6 3q-4 0 -7.5 -4t-3.5 -11q0 -16 10 -16q9 0 9 8h15q-2 -8 -7 -14
t-17 -6q-9 0 -16.5 5.5t-7.5 20.5q0 8 5 20zM556 -63q6 8 19 8q9 0 16.5 -6t7.5 -14h-15q0 2 -1.5 5.5t-6.5 3.5t-8.5 -4.5t-3.5 -10.5q0 -3 0.5 -5t0.5 -4l4 -5q2 -2 6 -2q2 0 5.5 1.5t3.5 6.5h13q0 -9 -6.5 -14.5t-15.5 -5.5q-10 0 -17 6t-7 20q0 8 5 20zM337 63
q-2 0 -2 -2v-6h9v-10h-9v-46h-15v46h-7v10h7v4q0 16 17 16h7v-12h-7zM515 55h10v-10h-10v-46h-15v46h-7v10h7v4q0 16 17 16h6v-12h-6q-1 0 -2 -2v-6zM806 -1h-9q-4 0 -10 1.5t-6 10.5v34h-7v10h7v14h16v-14h9v-10h-9v-34q1 0 2 -0.5t3 -0.5l4 1v-12zM272 69v-14h8v-10h-8
v-30q0 -3 0.5 -4t5.5 -1l1 1l1 -12h-8q-5 0 -10 1t-5 11v34h-8v10h8v14h15zM461 436q-2 0 -2 1v6q2 7 5 10l7 11l17 21l4.5 4.5l4.5 4.5l9 6q2 1 5 1t3 -5q0 -1 -2 -5l-5 -9l-13 -20l-18 -19q-2 -2 -4 -3q-2 -2 -3.5 -2.5t-3.5 -1.5h-4zM623 478l4 5l7 11l22 28l11 10
q1 1 4 1.5t4 0.5l3 -2q0 -1 0.5 -1.5t0.5 -1.5q0 -4 -3 -7l-14 -22l-8 -7l-13 -13l-11 -9q-2 0 -4.5 -2t-4.5 -2l-1 1h-1q-1 1 -1 2q1 0 1 1t1 2zM685 -1h-10q-12 0 -13 6v40h-9v10h9v14h13v-14h10v-10h-10v-30q0 -5 6 -5l4 1v-12zM482 345q0 -3 2 -5.5t2 -10.5
q0 -7 -2.5 -14.5t-13.5 -7.5t-12 6l-3 6q-2 6 -2 10q0 2 0.5 4t0.5 4l6 11q1 1 4 2.5t7 1.5q0 -1 1 -1h2zM471 -66h-8v10h8v4q0 14 15 14h6v-11h-6l-1 -1l-1 -6h9v-10h-9v-42h-13v42zM273 -66h-7v10h7v13h14v-13h8v-10h-8v-27v-3.5t5 -1.5l3 1v-11h-8q-14 0 -14 11v31z
M430 -1h-14v76h14v-76zM455 -1h-14v76h14v-76zM412 352h-50v-2h2q8 0 8 -7v-28q0 -8 -8 -8l-2 -1h50v19l-8 -13q-3 -3 -4 -3l-5 -1q-2 -1 -6 -1h-7l1 20q4 0 9 -3l2 -3q0 -1 0.5 -1.5t0.5 -1.5v-4v29l-2 -9q-5 -5 -9 -5h-2v21h8q8 0 11 -1l4 -3l5 -12h2v18zM91 -56h12l1 -9
l3 5q2 2 2.5 3.5t8.5 1.5h3v-14h-4q-13 0 -13 -12v-27h-13v52zM567 352h-23v-2h4l3 -3q4 -4 4 -9v-19l-32 33h-18v-2q6 0 7.5 -2t1.5 -5v-26q0 -3 -1 -5l-3 -4q-2 0 -3.5 -0.5t-2.5 -0.5v-1l24 1q-3 0 -5 1h-4l-2 5q-1 1 -1 6v27l39 -40h2v32q0 5 1 8.5t9 3.5v2zM354 327
q-1 2 -6 4l-8 3l-6 1q-2 0 -9.5 2.5t-5.5 5.5v4q0 -1 1.5 2t9.5 3q11 0 14.5 -4.5t8.5 -11.5h1l-1 15q-1 -3 -4 -3h-4q-8 5 -15 5q-4 0 -10 -2l-6 -4q-1 -2 -1.5 -3.5t-0.5 -4.5q0 -2 1.5 -5t3.5 -3l6 -3q1 -1 10 -3l4 -1q2 -1 8 -2.5t6 -7.5q0 -1 -1.5 -3.5t-4.5 -3.5h-5
q-5 0 -8 1l-8 3l-5 5q-5 5 -5 10h-1l1 -21q0 2 2 3.5t4 1.5q1 0 2.5 -1t3.5 -1l7 -2q2 -1 7 -1q7 0 9.5 3.5t7.5 5.5v10zM568 16q3 3 3 11q0 7 -3 12t-10 5q-14 0 -14 -17q0 -10 4 -13t10 -3q8 0 10 5zM128 -56h14v-52h-14v52zM675 348l2 1q1 0 3 1v2h-23v-2h3q7 0 7 -4
q0 -2 -3 -5l-9 -13l-12 15l-2 4v1q0 2 4 2h4v2h-30l1 -2q3 0 6 -0.5t5 -5.5l14 -19v-10q0 -8 -8 -8l-3 -1h33l-4 1q-8 0 -8 8v11l14 20q4 2 5 2h1zM622 326h-1q-2 -2 -3.5 -5t-1.5 -5l-2 -3q-3 -3 -5 -4.5t-8 -1.5h-12v36q0 7 9 7h3v2h-31v-2h2q8 0 8 -7v-28q0 -8 -8 -8
l-2 -1h52v20zM773 -71q-2 5 -9 5q-8 0 -10.5 -5t-2.5 -11t2.5 -10.5t10.5 -4.5t10 5t2 10q0 6 -3 11zM289 425q-3 -1 -6 -1q-5 0 -6 1l7 11l12 14l10 9l6 2q1 0 1.5 0.5t2.5 0.5q1 0 1.5 -0.5t1.5 -0.5v-5l-3 -4q-4 -4 -6 -9.5t-10 -9.5zM373 -93q3 -4 8 -4q11 0 11 15
q0 5 -2 10.5t-9 5.5q-12 0 -12 -17q0 -7 4 -10zM292 310q4 3 4 9q-2 -5 -5 -8l-6 -4h-7q-5 0 -10.5 1.5t-5.5 10.5v24q0 5 3 6t6 1h3v2h-31v-2q10 0 10 -7v-24q0 -4 5 -11l8 -2q2 -1 9 -1q12 0 17 5zM226 -89q0 -4 3.5 -5.5t5.5 -1.5q12 0 12 14q0 5 -3.5 10.5t-8.5 5.5
q-10 0 -10 -16q0 -4 1 -7zM412 451q0 -2 0.5 -3t0.5 -2q-1 -2 -1 -4v-6l-2 -4l-8 -8q-2 0 -5 -1.5t-5 -1.5q-4 0 -5 3v4l5 9q4 5 9 9zM733 15q0 -4 2.5 -5t4.5 -1l6 1q7 3 7 10v7q-3 -3 -6 -3l-7 -2q-7 0 -7 -7zM660 -93h15v-15h-15v15zM61 -85l-5 -1q-9 -2 -9 -7
q0 -2 2.5 -4.5t4.5 -2.5q1 0 2.5 0.5t7.5 4.5q2 4 2 6v6q-1 0 -5 -2zM231 33l-4 8t-7 4q-11 0 -11 -12h22zM524 -85l-7 -1q-6 0 -6 -7t6 -7q2 0 3 2l7 3q1 2 1 6v6zM638 -77q0 4 -2.5 7.5t-8.5 3.5q-8 0 -10 -11h21zM446 -77q0 4 -2.5 7.5t-8.5 3.5q-8 0 -10 -11h21z
M128 -38h14v-12h-14v12zM769 575q-2 -4 -4 -5l14 18l6 11l13 17q0 1 1.5 2t2.5 2q0 -4 -1 -5l-4 -5l-6 -9l-17 -20zM306 352h-23v-2h5q4 0 6 -4t2 -8v7l5 4l1 1h4v2z" />
    <glyph glyph-name="two" unicode="2" 
d="M61 517l131 29l-5 18l20 6l-4 19l20 4l-3 23h20v20h18l2 18l19 -3l4 20l21 -3l5 19l19 -5l8 18l19 -8l11 19l17 -9l11 17l18 -12l12 16l17 -13l13 14l13 -12l13 11l13 -14l17 11l11 -18l19 10l9 -17l18 8l8 -20l21 6l6 -19l19 5l4 -21l21 2l1 -13l197 43v-242l-90 -20
l2 -1l-12 -13l12 -14l-16 -13l11 -17l-18 -11l11 -18l-17 -10l7 -18l-19 -8l6 -21l-18 -6l3 -19l-19 -4v-21l-19 -2v-19h-17l-3 -17h-19l-4 -18l-21 3l-5 -20l-19 6l-7 -19l-21 8l-9 -19l-18 10l-11 -17l-18 11l-12 -16l-15 13l-15 -13l-13 12l-13 -12l-12 15l-17 -11
l-12 18l-18 -10l-9 17l-19 -8l-9 20l-19 -6l-6 18l-20 -4l-4 21l-21 -2l-2 20h-20v17l-17 2l2 20l-20 3l4 21l-20 6l6 18l-14 6l-120 -26v241zM595 466l11 11q-1 -1 -1 -3q0 -5 2.5 -8.5t7.5 -3.5q8 0 19 8l10 7l3.5 3.5l3.5 3.5l6 6v-2q0 -1 -0.5 -1.5t-0.5 -1.5v-3
q-1 -1 -1 -3t1.5 -5t3.5 -3h8l3 2l10 6l24 21l-2 -6q-2 -3 -2 -9v-3q2 0 2 -1t3 -1q1 0 5 1.5t5 3.5l11 9q2 0 6 4.5t8 8.5l9 10v2q0 1 -1 1q-2 0 -4 -2l-1 -2l-11 -13q-5 -3 -6 -6l-7 -6l-8 -4l-1 -1q-1 0 -2 1l5 7q2 4 4 6l3 6q2 1 4 5l31 45q5 5 6 8l26 29q5 5 8.5 10
t7.5 10l5 9v4q-1 1 -4 1q-2 0 -7 -2t-9 -6l-4 -3l-19 -18q-5 -5 -8 -9t-8 -12l-26 -42l-13 -24l-8 -7q-2 -3 -4 -5l-5 -5l-9 -8l-8 -6l-2 -1l-2 -2h-5l6 10q0 2 4 7.5t6 7.5l8 14l11 16l4 6q-2 0 1 2t3 3q0 3 -3 3l-10 -5l-16 -12q0 9 -10 9q-3 0 -7.5 -1.5t-7.5 -3.5
l-12 -6l-9 -8q-11 -8 -18 -18t-10 -19h-2l-8 -9q-5 -4 -10.5 -9t-11.5 -5h-1q-1 0 -1 1l1 1l6 9l16 20q2 3 4.5 6.5t4.5 7.5l4 8q1 2 1 5q0 8 -4 8q-3 0 -4 -1l-12 -6l-10 -8q-4 -4 -6 -4l-10 -11l-4.5 -4.5l-4.5 -4.5l-10 -11l1 2l25 35q0 1 1.5 3t1.5 4l-3 3
q-1 0 -1.5 0.5t-1.5 0.5t-2 -0.5t-3 -0.5l-7 -5q-2 -1 -2 -2t-1 -2l-40 -68q-1 -1 -1 -2v-1q1 0 1.5 -0.5t1.5 -0.5q2 0 4 1l4 2q0 4 4 4l2 3q0 2 2 2l18 21l19 20l19 18l11 6q1 0 1 -1l-3 -2q-1 -3 -4 -4l-8 -10q-2 -2 -3 -3.5t-3 -3.5l-14 -21l-3 -9q-1 -2 -1 -5
q0 -6 5 -6h9q2 1 4.5 2.5t6.5 3.5zM397 418q9 0 17.5 7.5t13.5 12.5l4 9q3 4 3 9v8q0 3 -2 7l-3 8l-3 3q0 2 -1.5 3.5t-1.5 2.5v5h-4l-2 -2l-6 -4l-3 -7l-18 -25l-5 -8l-1 -1q-1 0 -2 -1l-5 -8l-18 -19l-6 -3q-2 -2 -6 -2v1l7 10l7 9l9 14l2 7q1 3 1 7q-1 1 -1 4l-1 2
q0 2 -1 3v11l3 5v2q0 1 -1.5 3t-3.5 2q-5 0 -12.5 -4.5t-7.5 -11.5q0 -4 1 -6l2 -1l2 -2l-6 -6l-21 -26q-2 0 -2 -2l-1 -2q0 -1 -1 -1l-5 -7q-8 -7 -15 -12.5t-15 -9.5l-10 -4q-4 -2 -6 -2q-7 0 -7 6q0 1 2 5l6 12q2 -1 6 -1h9q5 2 10.5 5t14.5 8l7 8q2 2 3.5 4t1.5 4l4 6
q0 8 -6 12h-9h-4.5t-4.5 -2l-10 -4q-16 -8 -29 -20.5t-17 -29.5v-8q3 -10 13 -10t23 5.5t24 16.5l19 17q0 1 1.5 2.5t1.5 2.5l2 3l15 18q3 2 5 5t4 5l5 -4q0 -1 1 -2v-1q0 -1 -1 -2t-2 -3l-8 -8l-13 -19l-2 -9q-1 -1 -1 -4l2 -7h4q5 0 8 1l8 5l9 9t10 8l8 11l4 5l2 2l16 23
q0 -5 1.5 -8.5t1.5 -5.5l2 -4q-8 -2 -12 -6l-10 -7q-3 -5 -5 -8.5t-2 -8.5q0 -3 5 -5h9zM447 440q0 -4 2 -4l5 -4q1 0 2 -0.5t2 -0.5l1 1h6q4 1 7 2l6 2l13 7l20 18l7 10l8 17q0 1 0.5 2t0.5 2q0 -2 -1 5.5t-15 7.5q-3 0 -6.5 -1t-8.5 -3l-6 -2l-23 -17l-14 -18
q-5 -8 -6 -13v-11zM125 8q-6 5 -8 13t-2 16v8q0 14 11.5 22.5t24.5 8.5h3q14 0 23 -9.5t7 -14.5h-16q-1 5 -6 8t-10 3h-7l-7 -6q-5 -2 -6 -8t-1 -13q0 -25 18 -25h2q6 0 12.5 4t6.5 12h-18v13h32v-41h-10l-2 10q-8 -12 -25 -12q-6 0 -12.5 3t-9.5 8zM213 -69q6 14 19 14
q5 0 9 -2t6 -7l1 8h12v-49q0 -10 -5 -16.5t-21 -6.5q-9 0 -15 3.5t-6 11.5h13l3 -4q1 -1 6 -1q11 0 11.5 4.5t0.5 3.5v9q-6 -7 -14 -7q-7 0 -15 5t-8 22q0 3 1 6zM578 49q8 -8 8 -22q0 -8 -5.5 -18.5t-22.5 -10.5q-14 0 -21.5 8t-7.5 21q0 2 0.5 7t3.5 10t8.5 8.5t16.5 3.5
q5 0 11.5 -1.5t8.5 -5.5zM357 -56h12v-8h2q1 0 2 1l8 7q1 1 4 1q6 0 14 -6t8 -21q0 -11 -7 -19t-15 -8q-5 0 -7 1l-4 3q-1 1 -2.5 1t-1.5 2v-25h-13v71zM799 -56h13v-8q4 9 15 9q9 0 14 -8q3 8 13 8q18 0 18 -18v-35h-13v31q0 11 -8 11q-9 0 -9 -11v-31h-13v36q0 3 -3 4.5
t-6 1.5q-8 0 -8 -11v-31h-13v52zM739 -72q6 17 25 17q8 0 16.5 -5.5t8.5 -21.5q0 -11 -5.5 -19t-19.5 -8q-26 0 -26 27q0 6 1 10zM124 345l5 5l9 10q2 4 4 6l31 42l19 30q3 4 5.5 7.5t4.5 7.5l8 16q0 1 0.5 1t0.5 1q0 2 -3 2q-4 0 -5 -1l-4 -2l-16 -20q-3 -3 -7 -9l-8 -10
l-40 -59l-13 -24v-5h5zM744 -1q-3 0 -4.5 -0.5t-3.5 -0.5q-4 0 -10.5 2.5t-6.5 14.5q0 9 5 12t11 5l13 2q5 0 5 4q0 7 -9 7t-10 -9h-13q0 7 4 13.5t13 6.5h6q11 0 17 -3t6 -13v-35q0 -3 4 -3v-3h-16q-1 0 -1 1v1v1q0 2 -0.5 2.5t-0.5 1.5l-4 -4q-1 -1 -1.5 -1t-1.5 -1t-2 -1
zM245 22h-38q0 -4 3 -8t10 -4q5 0 7.5 2t2.5 4h15l-5 -10l-8 -6l-6 -1.5t-6 -0.5q-27 0 -27 30q0 16 8 22t19 6q15 0 20 -9.5t5 -20.5v-4zM494 317q3 4 3 12t-7 16t-20 8q-14 0 -21 -8t-7 -16q0 -14 10.5 -19t17.5 -5q10 0 14.5 3.5t9.5 8.5zM135 442q-1 -2 -1 -5q0 -5 6 -9
l9 -3q2 0 8 0.5t6 3.5q0 1 -1 1h-2q-2 0 -3.5 -1t-3.5 -1q-15 0 -15 11q0 3 1 6q6 11 24.5 22.5t35.5 18.5l14 2q8 2 13 2q2 0 9 -1.5t9 -3.5l5 -6v-8q0 -6 -1 -10l-5 -9q-5 -7 -10.5 -14.5t-16.5 -14.5l-11 -7l-19 -8q-1 0 -2.5 -0.5t-3.5 -0.5h-2q-1 0 -3.5 -1t-2.5 -3
q0 -1 1 -1h2q2 0 3 1l15 4l26 11l24 16l18 19q5 8 7 14t2 10q0 1 -0.5 1.5t-0.5 2.5l-3 7l-7 5q-11 3 -21 3q-23 0 -50.5 -11.5t-48.5 -32.5zM502 -83q5 5 10 5l12 2q4 0 4 3q0 8 -7 8q-4 0 -6.5 -3t-2.5 -5h-13q0 13 9 15.5t13 2.5q21 0 21 -15v-27q0 -5 0.5 -6t2.5 -3v-2
l-15 1q0 1 -0.5 1t-0.5 1v3q-7 -3 -8.5 -5t-7.5 -2q-4 0 -7 1l-7 5q-2 4 -2 9q0 8 5 11zM38 -83q5 5 10 5l13 2q5 0 5 3q0 8 -8 8q-5 0 -7.5 -3t-2.5 -5h-12q0 12 7.5 15t14.5 3q14 0 17 -5t3 -10v-27q0 -5 0.5 -6t2.5 -3v-2h-14v3q-1 1 -1 3l-4 -4q-4 -2 -6.5 -2.5
t-4.5 -0.5q-6 0 -11.5 3t-5.5 12q0 8 4 11zM414 -69q6 14 21 14q25 0 25 -28v-3h-35q0 -12 11 -12q3 0 7 2l3 4h13q-2 -11 -8 -14t-15 -3q-24 0 -24 28q0 8 2 12zM606 -69q6 14 22 14q13 0 18.5 -8.5t5.5 -19.5v-3h-35q0 -12 11 -12q3 0 7 2l3 4h13q-5 -17 -23 -17
q-24 0 -24 28q0 4 2 12zM644 48q2 -6 2 -10v-39h-14v34q0 11 -10 11q-11 0 -11 -13v-32h-15v56h14v-8q6 9 17 9q7 0 10 -2zM389 7q-4 -5 -9 -7t-8 -2q-19 0 -19 20v37h14v-34q0 -10 10 -10h5l5 5q0 1 1 2.5t1 3.5v33h13v-56h-13v8zM299 -60l-1 4h16l10 -38l10 38h15l-18 -51
l-7 -17q-4 -4 -12 -4h-7v11h8q1 0 3 2v2q1 1 1 3zM155 -56h12v-8q6 9 16 9q6 0 12 -3.5t6 -14.5v-35h-14v31q0 5 -1.5 8t-7.5 3t-8 -4t-2 -8v-30h-13v52zM689 -63q6 8 19 8q8 0 16 -5t8 -15h-14l-3 6q-3 3 -6 3q-4 0 -7.5 -4t-3.5 -11q0 -16 10 -16q9 0 9 8h15q-2 -8 -7 -14
t-17 -6q-9 0 -16.5 5.5t-7.5 20.5q0 8 5 20zM556 -63q6 8 19 8q9 0 16.5 -6t7.5 -14h-15q0 2 -1.5 5.5t-6.5 3.5t-8.5 -4.5t-3.5 -10.5q0 -3 0.5 -5t0.5 -4l4 -5q2 -2 6 -2q2 0 5.5 1.5t3.5 6.5h13q0 -9 -6.5 -14.5t-15.5 -5.5q-10 0 -17 6t-7 20q0 8 5 20zM337 63
q-2 0 -2 -2v-6h9v-10h-9v-46h-15v46h-7v10h7v4q0 16 17 16h7v-12h-7zM515 55h10v-10h-10v-46h-15v46h-7v10h7v4q0 16 17 16h6v-12h-6q-1 0 -2 -2v-6zM806 -1h-9q-4 0 -10 1.5t-6 10.5v34h-7v10h7v14h16v-14h9v-10h-9v-34q1 0 2 -0.5t3 -0.5l4 1v-12zM272 69v-14h8v-10h-8
v-30q0 -3 0.5 -4t5.5 -1l1 1l1 -12h-8q-5 0 -10 1t-5 11v34h-8v10h8v14h15zM461 436q-2 0 -2 1v6q2 7 5 10l7 11l17 21l4.5 4.5l4.5 4.5l9 6q2 1 5 1t3 -5q0 -1 -2 -5l-5 -9l-13 -20l-18 -19q-2 -2 -4 -3q-2 -2 -3.5 -2.5t-3.5 -1.5h-4zM623 478l4 5l7 11l22 28l11 10
q1 1 4 1.5t4 0.5l3 -2q0 -1 0.5 -1.5t0.5 -1.5q0 -4 -3 -7l-14 -22l-8 -7l-13 -13l-11 -9q-2 0 -4.5 -2t-4.5 -2l-1 1h-1q-1 1 -1 2q1 0 1 1t1 2zM685 -1h-10q-12 0 -13 6v40h-9v10h9v14h13v-14h10v-10h-10v-30q0 -5 6 -5l4 1v-12zM482 345q0 -3 2 -5.5t2 -10.5
q0 -7 -2.5 -14.5t-13.5 -7.5t-12 6l-3 6q-2 6 -2 10q0 2 0.5 4t0.5 4l6 11q1 1 4 2.5t7 1.5q0 -1 1 -1h2zM471 -66h-8v10h8v4q0 14 15 14h6v-11h-6l-1 -1l-1 -6h9v-10h-9v-42h-13v42zM273 -66h-7v10h7v13h14v-13h8v-10h-8v-27v-3.5t5 -1.5l3 1v-11h-8q-14 0 -14 11v31z
M430 -1h-14v76h14v-76zM455 -1h-14v76h14v-76zM412 352h-50v-2h2q8 0 8 -7v-28q0 -8 -8 -8l-2 -1h50v19l-8 -13q-3 -3 -4 -3l-5 -1q-2 -1 -6 -1h-7l1 20q4 0 9 -3l2 -3q0 -1 0.5 -1.5t0.5 -1.5v-4v29l-2 -9q-5 -5 -9 -5h-2v21h8q8 0 11 -1l4 -3l5 -12h2v18zM91 -56h12l1 -9
l3 5q2 2 2.5 3.5t8.5 1.5h3v-14h-4q-13 0 -13 -12v-27h-13v52zM567 352h-23v-2h4l3 -3q4 -4 4 -9v-19l-32 33h-18v-2q6 0 7.5 -2t1.5 -5v-26q0 -3 -1 -5l-3 -4q-2 0 -3.5 -0.5t-2.5 -0.5v-1l24 1q-3 0 -5 1h-4l-2 5q-1 1 -1 6v27l39 -40h2v32q0 5 1 8.5t9 3.5v2zM354 327
q-1 2 -6 4l-8 3l-6 1q-2 0 -9.5 2.5t-5.5 5.5v4q0 -1 1.5 2t9.5 3q11 0 14.5 -4.5t8.5 -11.5h1l-1 15q-1 -3 -4 -3h-4q-8 5 -15 5q-4 0 -10 -2l-6 -4q-1 -2 -1.5 -3.5t-0.5 -4.5q0 -2 1.5 -5t3.5 -3l6 -3q1 -1 10 -3l4 -1q2 -1 8 -2.5t6 -7.5q0 -1 -1.5 -3.5t-4.5 -3.5h-5
q-5 0 -8 1l-8 3l-5 5q-5 5 -5 10h-1l1 -21q0 2 2 3.5t4 1.5q1 0 2.5 -1t3.5 -1l7 -2q2 -1 7 -1q7 0 9.5 3.5t7.5 5.5v10zM568 16q3 3 3 11q0 7 -3 12t-10 5q-14 0 -14 -17q0 -10 4 -13t10 -3q8 0 10 5zM128 -56h14v-52h-14v52zM675 348l2 1q1 0 3 1v2h-23v-2h3q7 0 7 -4
q0 -2 -3 -5l-9 -13l-12 15l-2 4v1q0 2 4 2h4v2h-30l1 -2q3 0 6 -0.5t5 -5.5l14 -19v-10q0 -8 -8 -8l-3 -1h33l-4 1q-8 0 -8 8v11l14 20q4 2 5 2h1zM622 326h-1q-2 -2 -3.5 -5t-1.5 -5l-2 -3q-3 -3 -5 -4.5t-8 -1.5h-12v36q0 7 9 7h3v2h-31v-2h2q8 0 8 -7v-28q0 -8 -8 -8
l-2 -1h52v20zM773 -71q-2 5 -9 5q-8 0 -10.5 -5t-2.5 -11t2.5 -10.5t10.5 -4.5t10 5t2 10q0 6 -3 11zM289 425q-3 -1 -6 -1q-5 0 -6 1l7 11l12 14l10 9l6 2q1 0 1.5 0.5t2.5 0.5q1 0 1.5 -0.5t1.5 -0.5v-5l-3 -4q-4 -4 -6 -9.5t-10 -9.5zM373 -93q3 -4 8 -4q11 0 11 15
q0 5 -2 10.5t-9 5.5q-12 0 -12 -17q0 -7 4 -10zM292 310q4 3 4 9q-2 -5 -5 -8l-6 -4h-7q-5 0 -10.5 1.5t-5.5 10.5v24q0 5 3 6t6 1h3v2h-31v-2q10 0 10 -7v-24q0 -4 5 -11l8 -2q2 -1 9 -1q12 0 17 5zM226 -89q0 -4 3.5 -5.5t5.5 -1.5q12 0 12 14q0 5 -3.5 10.5t-8.5 5.5
q-10 0 -10 -16q0 -4 1 -7zM412 451q0 -2 0.5 -3t0.5 -2q-1 -2 -1 -4v-6l-2 -4l-8 -8q-2 0 -5 -1.5t-5 -1.5q-4 0 -5 3v4l5 9q4 5 9 9zM733 15q0 -4 2.5 -5t4.5 -1l6 1q7 3 7 10v7q-3 -3 -6 -3l-7 -2q-7 0 -7 -7zM660 -93h15v-15h-15v15zM61 -85l-5 -1q-9 -2 -9 -7
q0 -2 2.5 -4.5t4.5 -2.5q1 0 2.5 0.5t7.5 4.5q2 4 2 6v6q-1 0 -5 -2zM231 33l-4 8t-7 4q-11 0 -11 -12h22zM524 -85l-7 -1q-6 0 -6 -7t6 -7q2 0 3 2l7 3q1 2 1 6v6zM638 -77q0 4 -2.5 7.5t-8.5 3.5q-8 0 -10 -11h21zM446 -77q0 4 -2.5 7.5t-8.5 3.5q-8 0 -10 -11h21z
M128 -38h14v-12h-14v12zM769 575q-2 -4 -4 -5l14 18l6 11l13 17q0 1 1.5 2t2.5 2q0 -4 -1 -5l-4 -5l-6 -9l-17 -20zM306 352h-23v-2h5q4 0 6 -4t2 -8v7l5 4l1 1h4v2z" />
    </font>
</defs>
</svg>
